<svg width="50" height="16" viewBox="0 0 50 16" fill="none" xmlns="http://www.w3.org/2000/svg">
<path d="M47.1011 10.7953C46.7372 9.18735 46.3732 7.5794 45.9724 5.80841C47.0878 5.92649 47.7037 6.58198 47.9588 7.34725C48.716 9.61891 49.4512 11.9123 49.949 14.2486C50.2341 15.5871 49.2903 16.2903 47.9785 15.8865C45.7887 15.2125 43.634 14.4267 41.4655 13.6853C41.3388 13.642 41.1678 13.6076 41.1078 13.5129C40.9156 13.2095 40.7659 12.8798 40.5997 12.5602C40.8783 12.4252 41.1755 12.1482 41.4321 12.1812C42.2975 12.2925 43.1486 12.513 44.0047 12.6937C44.4535 12.7885 44.9014 12.8877 45.5648 12.7126C45.0958 12.2008 44.6483 11.6677 44.1548 11.1803C34.123 1.27414 19.0889 -0.851906 6.60806 5.90296C5.01249 6.7665 3.52508 7.82527 1.98166 8.78432C1.44393 9.11844 0.88839 9.4245 0.340976 9.74336C0.227331 9.64447 0.113687 9.54558 0 9.44665C0.141276 9.06693 0.178175 8.58044 0.442784 8.32686C1.36171 7.44614 2.30309 6.56901 3.33625 5.82751C13.7986 -1.68153 28.3291 -1.97387 39.5699 5.18353C41.7136 6.54844 43.6041 8.30454 45.6006 9.89347C46.0115 10.2204 46.374 10.6069 46.7588 10.9659C46.8729 10.909 46.987 10.8522 47.1011 10.7953Z" fill="white"/>
</svg>
