<svg width="889" height="479" viewBox="0 0 889 479" fill="none" xmlns="http://www.w3.org/2000/svg">
<path d="M269.918 103.041C270.446 103.569 271.15 103.861 271.899 103.861C272.65 103.861 273.352 103.57 273.88 103.041L276.119 100.8C277.211 99.7049 277.21 97.9276 276.115 96.8356L273.882 94.6049C273.354 94.0769 272.65 93.7862 271.899 93.7862C271.148 93.7862 270.444 94.0769 269.916 94.6049L267.684 96.8342C266.59 97.9276 266.588 99.7062 267.68 100.8L269.918 103.041Z" fill="#F2A92D"/>
<path d="M311.052 103.041C311.58 103.569 312.284 103.861 313.034 103.861C313.784 103.861 314.487 103.57 315.015 103.041L317.254 100.8C318.346 99.7062 318.344 97.9276 317.25 96.8356L315.016 94.6049C314.488 94.0769 313.784 93.7862 313.034 93.7862C312.283 93.7862 311.579 94.0769 311.051 94.6049L308.819 96.8342C307.726 97.9276 307.723 99.7062 308.815 100.8L311.052 103.041Z" fill="#F2A92D"/>
<path d="M279.095 108.715C278.484 105.995 275.891 105.027 273.856 105.027L273.753 105.028H267.415H265.587L266.833 106.365C268.631 108.293 268.612 111.168 268.588 114.805C268.585 115.236 268.583 115.677 268.583 116.127V140.727V141.521H269.377H278.828H279.624V140.727V116.127V115.332H279.621C279.609 112.899 279.535 110.588 279.095 108.715Z" fill="white"/>
<path d="M320.467 108.715C319.857 105.995 317.263 105.027 315.229 105.027L315.126 105.028H308.787H306.959L308.206 106.365C310.003 108.293 309.985 111.168 309.961 114.807C309.958 115.237 309.954 115.677 309.954 116.127V140.727V141.521H310.75H320.201H320.997V140.727V116.127V115.332H320.993C320.982 112.899 320.907 110.588 320.467 108.715Z" fill="#F2A92D"/>
<path d="M413.592 140.19C411.793 138.257 411.813 135.395 411.837 131.773C411.841 131.335 411.844 130.889 411.844 130.433V105.823V105.027H411.049H401.595H400.8V105.823V130.433C400.8 131.486 400.807 132.586 400.849 133.647C398.444 132.681 396.997 131.109 396.997 127.377V116.078C396.997 113.337 396.956 110.702 396.457 108.617C395.385 105.082 390.824 104.981 390.307 104.981H390.3H390.265H384.789H382.959L384.209 106.319C386.007 108.242 385.987 111.101 385.96 114.719C385.957 115.162 385.955 115.615 385.955 116.078V127.559C385.955 133.525 388.268 138.047 392.832 141.006C393.432 141.383 394.053 141.573 394.688 141.573C395.776 141.573 396.501 141.013 396.58 140.949L396.604 140.93L396.625 140.909L401.112 136.693C401.448 138.909 402.096 140.367 403.147 141.321L403.375 141.527H403.681H413.009H414.836L413.592 140.19Z" fill="#F2A92D"/>
<path d="M370.21 133.797C368.65 132.971 366.389 131.41 366.389 129.303C366.389 126.999 368.426 125.537 370.198 125.037L370.202 127.601C370.205 129.762 370.209 132.375 370.21 133.797ZM381.602 132.671V115.07V114.275H381.591C381.514 111.186 380.649 104.703 370.879 104.703C368.001 104.703 362.443 105.847 358.934 108.997L358.67 109.234V109.589V117.165V118.73L359.934 117.807C363.666 115.085 365.431 114.881 367.698 114.881C368.299 114.881 368.774 115.075 369.149 115.475C369.946 116.323 370.161 117.942 370.189 118.95C367.971 119.387 364.37 120.353 361.302 122.357C357.389 124.914 355.403 128.386 355.403 132.674C355.403 136.994 358.351 139.739 360.107 140.993C360.773 141.406 361.435 141.601 362.122 141.601C363.21 141.601 363.991 141.109 364.175 140.982L370.475 137.127C371.113 139.933 372.719 141.278 372.795 141.341L373.015 141.522H373.299H382.942H384.505L383.585 140.258C381.602 137.537 381.602 135.063 381.602 132.671Z" fill="#F2A92D"/>
<path d="M262.571 131.808C262.574 131.372 262.576 130.927 262.576 130.472V118.99C262.576 113.982 260.952 109.983 257.75 107.104C256.648 105.94 255.431 105.35 254.131 105.35C252.043 105.35 250.523 106.91 250.286 107.167L247.552 109.734V102.496C247.552 100.242 247.528 97.8749 247.244 95.9083C246.811 92.5829 244.03 91.3936 241.572 91.3936C241.399 91.3936 241.302 91.4016 241.302 91.4016L235.7 91.3989H234.066L235.075 92.6856C236.568 94.5883 236.547 97.4043 236.519 100.97C236.515 101.466 236.511 101.975 236.511 102.496V140.723V141.519H237.306H246.758H247.552V140.723V112.846C250.036 113.816 251.535 115.39 251.535 119.179V130.472C251.535 135.446 251.708 139.406 253.886 141.368L254.112 141.572H254.419H263.739H265.56L264.322 140.236C262.527 138.3 262.547 135.435 262.571 131.808Z" fill="#F2A92D"/>
<path d="M351.934 131.816C351.937 131.378 351.941 130.93 351.941 130.472V118.989C351.941 113.958 350.301 109.946 347.066 107.064C346.032 106.104 344.854 105.612 343.578 105.612C341.374 105.612 339.702 107.117 339.633 107.181L336.786 109.854C336.716 109.39 336.632 108.964 336.533 108.566C335.76 105.196 331.298 105.025 330.413 105.025H330.32H324.892H323.06L324.31 106.364C326.109 108.286 326.09 111.161 326.066 114.8C326.064 115.232 326.06 115.673 326.06 116.124V140.726V141.521H326.856H336.302H337.097V140.726V116.124V115.329H337.093C337.09 114.544 337.08 113.714 337.048 112.9C339.452 113.87 340.897 115.444 340.897 119.178V130.472C340.897 135.445 341.07 139.405 343.246 141.368L343.473 141.572H343.778H353.108H354.933L353.69 140.236C351.89 138.301 351.909 135.438 351.934 131.816Z" fill="#F2A92D"/>
<path d="M296.474 134.716C293.618 133.795 290.707 130.063 289.786 127.831L289.461 127.044C294.481 130.314 295.842 132.831 296.465 134.667C296.47 134.684 296.473 134.7 296.474 134.716ZM299.327 118.375L297.245 116.967C293.23 114.257 291.646 113.188 290.897 112.166C292.069 112.324 293.234 113.024 294.458 113.759C296.079 114.732 297.755 115.739 299.739 115.739H299.807L300.181 115.734L300.417 115.444L305.718 108.896L306.71 107.671L305.135 107.602C302.915 107.503 300.911 106.626 298.975 105.776C297.034 104.926 295.202 104.122 293.255 104.122C292.569 104.122 291.897 104.226 291.255 104.432L291.047 104.499L290.902 104.663L283.377 113.206L283.357 113.228L283.338 113.252C282.771 114.003 282.125 115.483 282.046 116.959C281.939 118.865 283.311 123.084 289.126 126.828L288.449 127.616L281.713 135.452L281.209 136.039L281.782 136.559C284.093 138.659 286.249 140 288.174 140.843L288.751 142.212C289.081 142.994 289.181 143.845 289.047 144.744C288.957 145.528 288.811 146.795 289.794 147.212C289.991 147.283 290.146 147.308 290.306 147.308C290.767 147.308 291.169 147.095 291.434 146.955C293.041 146.105 294.105 144.767 294.687 142.862L294.919 142.103C295.553 142.047 296.061 141.948 296.406 141.859L296.635 141.799L296.795 141.621L306.486 130.898L306.729 130.629L306.686 130.271C306.357 127.468 304.963 122.195 299.327 118.375Z" fill="#F2A92D"/>
<path d="M368.517 102.721L368.715 102.853C369.093 103.109 369.523 103.4 370.125 103.4C370.644 103.4 371.175 103.181 371.796 102.709C373.104 101.727 379.747 96.6692 379.747 96.6692L381.623 95.2412H379.265H375.981C373.161 95.2412 370.881 96.7106 370.785 96.7732L370.761 96.7892L370.74 96.8052L370.148 97.2559L369.557 96.8066L369.535 96.7892L369.511 96.7732C369.415 96.7106 367.135 95.2412 364.316 95.2412H361.031H358.685L360.548 96.6679C360.841 96.8919 367.735 102.169 368.517 102.721Z" fill="#F2A92D"/>
<path d="M275.554 97.3975C276.335 98.1775 276.336 99.4562 275.556 100.238L273.318 102.479C272.538 103.262 271.26 103.26 270.48 102.479L268.243 100.238C267.463 99.4562 267.464 98.1775 268.246 97.3975L270.478 95.1669C271.26 94.3869 272.539 94.3869 273.32 95.1669L275.554 97.3975Z" fill="white"/>
<path d="M216.78 130.311C215.343 129.119 214.552 127.631 214.552 126.124V98.8645C215.86 98.8218 217.444 99.7045 219.092 100.619C221.325 101.858 223.853 103.263 226.669 103L226.849 102.983L236.987 94.7525L235.617 94.5605C232.541 94.1285 229.547 92.7872 226.651 91.4898C222.752 89.7445 219.069 88.0965 215.352 88.6192L215.168 88.6458L202.048 100.6V124.93C202.048 131.406 204.616 136.25 209.681 139.326C214.608 142.315 220.429 142.639 222.703 142.639H222.915L236.08 132.096L233.709 132.542C226.333 133.93 220.163 133.118 216.78 130.311Z" fill="#F2A92D"/>
<path d="M316.688 97.3975C317.47 98.1775 317.471 99.4562 316.691 100.238L314.452 102.479C313.672 103.262 312.395 103.26 311.615 102.479L309.378 100.238C308.598 99.4562 308.599 98.1775 309.38 97.3975L311.612 95.1669C312.394 94.3869 313.674 94.3869 314.455 95.1669L316.688 97.3975Z" fill="white"/>
<path d="M278.827 116.127C278.827 113.46 278.79 110.897 278.32 108.896C277.598 105.679 273.783 105.823 273.783 105.823H267.415C269.655 108.227 269.378 111.72 269.378 116.127V140.725H278.828V116.127" fill="white"/>
<path d="M320.2 116.127C320.2 113.46 320.162 110.897 319.693 108.896C318.97 105.679 315.156 105.823 315.156 105.823H308.788C311.028 108.227 310.75 111.72 310.75 116.127V140.725H320.201V116.127" fill="white"/>
<path d="M413.01 140.732C410.763 138.318 411.048 134.826 411.048 130.432V105.824H401.595V130.432C401.595 131.944 401.61 133.422 401.707 134.79C398.324 133.745 396.202 131.997 396.202 127.377V116.078C396.202 113.392 396.164 110.81 395.684 108.802C394.742 105.7 390.278 105.776 390.278 105.776H384.79C387.039 108.182 386.75 111.676 386.75 116.078V127.56C386.75 134.472 389.907 138.162 393.264 140.338C394.84 141.33 396.08 140.33 396.08 140.33L401.724 135.025C401.92 137.52 402.423 139.589 403.682 140.732H413.01Z" fill="white"/>
<path d="M365.593 129.302C365.593 126.205 368.657 124.314 370.992 124.074C370.992 124.473 371.006 133.792 371.006 134.761C371.006 134.873 371.013 134.961 371.017 135.06C369.336 134.349 365.593 132.389 365.593 129.302ZM380.808 132.672V115.07H380.804C380.804 110.67 379.585 105.498 370.88 105.498C368.265 105.498 362.881 106.522 359.465 109.589V117.165C363.29 114.374 365.222 114.085 367.698 114.085C371.34 114.085 370.976 119.612 370.976 119.612C366.041 120.472 356.198 123.493 356.198 132.674C356.198 136.572 358.809 139.089 360.569 140.345C362.269 141.396 363.738 140.317 363.738 140.317L371.066 135.832C371.414 139.181 373.3 140.726 373.3 140.726H382.942C380.848 137.85 380.808 135.226 380.808 132.672Z" fill="white"/>
<path d="M351.145 130.472V118.989C351.145 113.413 349.093 109.935 346.538 107.657C343.436 104.781 340.169 107.768 340.169 107.768L336.173 111.52C336.096 110.52 335.968 109.589 335.761 108.759C335.058 105.699 330.34 105.82 330.34 105.82H324.892C327.136 108.22 326.856 111.717 326.856 116.124V140.725H336.302V116.124H336.3C336.3 114.605 336.288 113.127 336.189 111.755C339.569 112.804 341.692 114.552 341.692 119.179V130.472C341.692 134.876 341.797 138.991 343.778 140.777H353.108C350.86 138.36 351.145 134.876 351.145 130.472Z" fill="white"/>
<path d="M261.782 130.472V118.989C261.782 113.427 259.739 109.951 257.194 107.673C253.94 104.204 250.852 107.725 250.852 107.725L246.758 111.572V102.496C246.758 100.156 246.728 97.8947 246.456 96.0227C245.918 91.8813 241.355 92.1947 241.355 92.1947H235.7C237.588 94.6 237.306 98.0947 237.306 102.496V140.723H246.758V111.731C250.182 112.783 252.33 114.523 252.33 119.179V130.472C252.33 134.876 252.435 138.991 254.418 140.777H263.739C261.499 138.36 261.782 134.876 261.782 130.472Z" fill="white"/>
<path d="M235.534 95.157L226.612 102.401C221.618 102.874 217.412 97.6077 213.95 98.329V126.125C213.95 130.84 220.661 135.609 233.821 133.134L222.704 142.037C215.549 142.037 202.652 139.136 202.652 124.93V100.868L215.437 89.2157C221.73 88.329 228.296 94.141 235.534 95.157Z" fill="white"/>
<path d="M375.981 96.0368C373.365 96.0368 371.221 97.4395 371.221 97.4395L370.148 98.2541L369.076 97.4395C369.076 97.4395 366.931 96.0368 364.316 96.0368H361.032C361.032 96.0368 368.196 101.522 368.975 102.071C369.689 102.537 370.108 102.991 371.316 102.075C372.625 101.091 379.265 96.0368 379.265 96.0368H375.981Z" fill="white"/>
<path d="M291.064 146.251C292.724 145.374 293.495 144.04 293.927 142.63C292.332 142.639 290.625 142.316 289.484 141.903C289.919 142.934 289.968 143.952 289.833 144.862C289.705 145.971 289.809 146.355 290.105 146.48C290.424 146.591 290.789 146.396 291.064 146.251Z" fill="white"/>
<path d="M386.245 99.2837C386.245 99.585 386.256 99.817 386.281 99.989C386.3 100.169 386.347 100.29 386.419 100.38C386.489 100.464 386.596 100.522 386.731 100.541C386.867 100.558 387.048 100.569 387.272 100.569C387.635 100.569 387.893 100.477 388.055 100.308C388.217 100.122 388.293 99.849 388.293 99.4797C388.293 99.2077 388.253 98.9983 388.171 98.8317C388.085 98.661 387.969 98.533 387.831 98.445C387.689 98.3517 387.524 98.285 387.329 98.2503C387.136 98.2157 386.933 98.1957 386.715 98.1957H386.543C386.425 98.1957 386.343 98.2343 386.307 98.305C386.267 98.3717 386.245 98.465 386.245 98.5677V99.2837ZM386.245 97.6397C386.245 97.6917 386.263 97.741 386.299 97.785C386.329 97.829 386.385 97.8503 386.465 97.8503H386.635C386.832 97.8503 387.016 97.833 387.179 97.805C387.345 97.7797 387.488 97.7183 387.609 97.6397C387.732 97.5623 387.823 97.4437 387.892 97.3077C387.96 97.1663 387.996 96.9837 387.996 96.7623C387.996 96.3823 387.892 96.109 387.688 95.9503C387.476 95.789 387.179 95.7143 386.791 95.7143H386.484C386.367 95.7143 386.3 95.737 386.281 95.7943C386.256 95.849 386.245 95.9503 386.245 96.085V97.6397ZM385.264 96.7703C385.264 96.649 385.261 96.533 385.249 96.4197C385.243 96.3077 385.22 96.1917 385.191 96.0903C385.163 95.9943 385.12 95.909 385.053 95.8383C384.988 95.7743 384.903 95.721 384.795 95.6957C384.724 95.6797 384.657 95.6663 384.584 95.657C384.515 95.649 384.441 95.6383 384.38 95.6303C384.341 95.6303 384.311 95.613 384.297 95.5863C384.275 95.561 384.268 95.5317 384.268 95.493C384.268 95.4583 384.275 95.429 384.297 95.4037C384.311 95.3757 384.341 95.3597 384.38 95.3597C384.581 95.3597 384.764 95.369 384.929 95.377C385.097 95.3957 385.283 95.3997 385.496 95.3997C385.588 95.3997 385.692 95.397 385.8 95.3957C385.911 95.393 386.025 95.3877 386.144 95.377C386.259 95.373 386.375 95.3717 386.489 95.369C386.599 95.3637 386.695 95.3597 386.791 95.3597C387.024 95.3597 387.269 95.3797 387.528 95.4197C387.787 95.4503 388.028 95.5183 388.243 95.6223C388.463 95.7183 388.643 95.849 388.787 96.025C388.928 96.1983 389 96.425 389 96.6943C389 96.8637 388.973 97.013 388.912 97.137C388.856 97.261 388.777 97.3677 388.681 97.4623C388.583 97.5623 388.473 97.641 388.341 97.7077C388.207 97.7797 388.065 97.8317 387.925 97.8823C387.876 97.8997 387.857 97.9223 387.86 97.9477C387.865 97.973 387.888 97.9943 387.925 98.0063C388.159 98.0677 388.367 98.149 388.551 98.2357C388.736 98.3183 388.891 98.4157 389.017 98.5277C389.141 98.641 389.236 98.7837 389.304 98.9397C389.371 99.0917 389.404 99.2757 389.404 99.4917C389.404 99.7783 389.349 100.016 389.236 100.205C389.127 100.384 388.979 100.538 388.791 100.637C388.601 100.749 388.393 100.825 388.153 100.866C387.917 100.91 387.675 100.932 387.42 100.932C387.304 100.932 387.176 100.93 387.039 100.924C386.899 100.921 386.751 100.916 386.599 100.913C386.452 100.91 386.299 100.908 386.144 100.904C385.992 100.9 385.849 100.897 385.713 100.897C385.588 100.897 385.473 100.897 385.368 100.9C385.271 100.902 385.173 100.906 385.083 100.91C384.987 100.913 384.888 100.921 384.792 100.928C384.688 100.937 384.575 100.945 384.449 100.958C384.407 100.962 384.375 100.954 384.352 100.924C384.328 100.902 384.311 100.866 384.308 100.832C384.305 100.801 384.316 100.77 384.339 100.74C384.36 100.697 384.392 100.681 384.44 100.676C384.584 100.665 384.708 100.634 384.817 100.608C384.924 100.585 385.008 100.544 385.079 100.481C385.141 100.425 385.185 100.354 385.217 100.266C385.247 100.188 385.264 100.068 385.264 99.921V96.7703Z" fill="#F2A92D"/>
<path d="M298.881 119.033C292.725 114.86 290.877 113.736 290.019 112.276C289.64 111.621 289.984 111.335 290.429 111.335C293.592 111.335 296.323 114.985 299.797 114.943L305.1 108.395C299.772 108.16 295.815 103.8 291.499 105.189L283.972 113.731C283.451 114.423 282.905 115.771 282.84 117.003C282.735 118.868 284.245 122.76 289.611 126.195C295.168 129.749 296.563 132.483 297.217 134.412C297.421 135.027 296.997 135.749 296.244 135.477C293.007 134.441 289.984 130.395 289.051 128.135L282.316 135.971C289.115 142.151 294.481 141.539 296.205 141.089L305.896 130.364C305.556 127.463 304.141 122.599 298.881 119.033Z" fill="white"/>
<path d="M396.381 95.3879C396.432 95.3879 396.477 95.3959 396.522 95.4039C396.568 95.4185 396.582 95.4559 396.573 95.5345C396.56 95.5999 396.556 95.6692 396.556 95.7399V95.9705C396.556 96.2212 396.562 96.4505 396.581 96.6599C396.581 96.6865 396.568 96.6999 396.54 96.7105C396.516 96.7212 396.481 96.7305 396.444 96.7305C396.409 96.7359 396.374 96.7305 396.345 96.7212C396.308 96.7145 396.288 96.6945 396.282 96.6599C396.242 96.4505 396.2 96.2865 396.158 96.1559C396.114 96.0385 396.057 95.9452 395.982 95.8852C395.906 95.8225 395.801 95.7839 395.673 95.7732C395.542 95.7559 395.376 95.7372 395.164 95.7345H394.622C394.469 95.7345 394.344 95.7372 394.252 95.7399C394.158 95.7505 394.085 95.7732 394.028 95.8052C393.974 95.8385 393.94 95.8959 393.921 95.9705C393.904 96.0439 393.893 96.1545 393.893 96.2972V97.7252C393.893 97.8052 393.909 97.8505 393.94 97.8719C393.969 97.8932 393.997 97.8985 394.028 97.8985C394.305 97.8985 394.52 97.8905 394.685 97.8665C394.842 97.8425 394.962 97.8052 395.046 97.7465C395.125 97.6919 395.177 97.6159 395.205 97.5239C395.234 97.4292 395.256 97.3092 395.274 97.1585C395.278 97.1292 395.298 97.1039 395.328 97.0879C395.358 97.0719 395.393 97.0639 395.428 97.0639C395.464 97.0639 395.494 97.0719 395.528 97.0879C395.556 97.1039 395.574 97.1292 395.574 97.1585C395.574 97.2452 395.569 97.3292 395.562 97.3892L395.542 97.6025C395.54 97.6732 395.532 97.7385 395.528 97.8092C395.521 97.8879 395.514 97.9705 395.514 98.0665C395.514 98.2385 395.528 98.3865 395.542 98.5159C395.562 98.6492 395.574 98.8199 395.574 99.0092C395.574 99.0332 395.556 99.0572 395.528 99.0705C395.494 99.0825 395.464 99.0839 395.428 99.0839C395.393 99.0825 395.358 99.0759 395.328 99.0612C395.298 99.0505 395.278 99.0265 395.274 98.9932C395.256 98.8319 395.234 98.7025 395.205 98.6039C395.177 98.5039 395.125 98.4305 395.046 98.3785C394.962 98.3319 394.842 98.2959 394.685 98.2772C394.52 98.2545 394.305 98.2479 394.028 98.2479C393.997 98.2479 393.969 98.2545 393.94 98.2772C393.909 98.2959 393.893 98.3372 393.893 98.3945V99.4665C393.893 99.6519 393.909 99.7919 393.933 99.9185C393.961 100.044 394 100.145 394.053 100.223C394.11 100.309 394.176 100.36 394.256 100.411C394.332 100.459 394.426 100.484 394.532 100.52C394.618 100.533 394.709 100.543 394.818 100.549C394.922 100.556 395.033 100.559 395.148 100.559C395.293 100.559 395.428 100.556 395.553 100.548C395.682 100.537 395.774 100.523 395.841 100.492C395.958 100.461 396.064 100.417 396.152 100.377C396.24 100.333 396.313 100.273 396.374 100.203C396.434 100.129 396.484 100.044 396.522 99.9345C396.56 99.8292 396.59 99.6932 396.617 99.5292C396.622 99.4919 396.644 99.4692 396.682 99.4572C396.717 99.4505 396.756 99.4452 396.8 99.4452C396.84 99.4452 396.877 99.4532 396.908 99.4665C396.942 99.4839 396.957 99.5065 396.95 99.5345C396.92 99.7665 396.894 99.9812 396.872 100.189C396.846 100.38 396.837 100.583 396.842 100.793C396.842 100.811 396.833 100.831 396.809 100.864C396.785 100.897 396.728 100.911 396.636 100.911H393.36C393.133 100.911 392.909 100.913 392.692 100.924C392.468 100.937 392.273 100.945 392.097 100.957C392.049 100.957 392.013 100.945 391.989 100.921C391.965 100.9 391.952 100.867 391.948 100.831C391.94 100.793 391.948 100.765 391.972 100.736C391.994 100.697 392.034 100.681 392.09 100.676C392.232 100.665 392.357 100.635 392.457 100.605C392.56 100.573 392.642 100.537 392.71 100.477C392.778 100.419 392.828 100.347 392.861 100.26C392.893 100.173 392.909 100.06 392.909 99.9212V96.7625C392.909 96.6425 392.908 96.5265 392.896 96.4132C392.889 96.2972 392.868 96.1839 392.842 96.0852C392.81 95.9865 392.761 95.9039 392.697 95.8332C392.633 95.7679 392.55 95.7159 392.444 95.6879C392.377 95.6719 392.306 95.6572 392.232 95.6505C392.16 95.6385 392.096 95.6279 392.026 95.6225C391.989 95.6225 391.961 95.6052 391.948 95.5812C391.926 95.5519 391.921 95.5185 391.921 95.4839C391.921 95.4505 391.926 95.4239 391.948 95.3999C391.961 95.3692 391.989 95.3532 392.026 95.3532C392.23 95.3532 392.413 95.3559 392.574 95.3732C392.738 95.3852 392.929 95.3879 393.148 95.3879H396.381Z" fill="#F2A92D"/>
<path d="M401.343 97.7412C401.343 97.8878 401.386 97.9692 401.474 97.9945C401.559 98.0198 401.69 98.0292 401.864 98.0292C402.098 98.0292 402.295 98.0078 402.456 97.9692C402.614 97.9265 402.742 97.8558 402.836 97.7652C402.932 97.6732 402.999 97.5478 403.043 97.3892C403.083 97.2425 403.103 97.0625 403.103 96.8425C403.103 96.6318 403.08 96.4585 403.036 96.3172C402.994 96.1665 402.926 96.0465 402.835 95.9598C402.74 95.8692 402.62 95.8052 402.468 95.7732C402.316 95.7278 402.135 95.7132 401.922 95.7132C401.684 95.7132 401.531 95.7372 401.458 95.7918C401.378 95.8452 401.343 95.9572 401.343 96.1238V97.7412ZM400.354 96.7692C400.354 96.6492 400.351 96.5332 400.344 96.4185C400.336 96.3065 400.319 96.1945 400.284 96.0905C400.258 95.9945 400.211 95.9092 400.15 95.8385C400.086 95.7745 399.998 95.7212 399.888 95.6958C399.824 95.6812 399.754 95.6665 399.679 95.6572C399.608 95.6492 399.54 95.6385 399.479 95.6305C399.438 95.6305 399.414 95.6132 399.396 95.5865C399.375 95.5612 399.366 95.5292 399.366 95.4932C399.366 95.4585 399.375 95.4292 399.396 95.4038C399.414 95.3758 399.438 95.3585 399.479 95.3585C399.679 95.3585 399.863 95.3692 400.027 95.3772C400.19 95.3932 400.379 95.3998 400.592 95.3998C400.954 95.3932 401.256 95.3852 401.49 95.3758C401.727 95.3692 401.958 95.3585 402.172 95.3585C402.414 95.3585 402.65 95.3932 402.883 95.4425C403.118 95.4932 403.328 95.5812 403.512 95.6958C403.696 95.8105 403.843 95.9572 403.952 96.1452C404.067 96.3332 404.119 96.5558 404.119 96.8198C404.119 97.0265 404.086 97.2078 404.014 97.3558C403.948 97.5092 403.852 97.6438 403.731 97.7518C403.614 97.8612 403.47 97.9465 403.302 98.0198C403.138 98.0865 402.959 98.1385 402.771 98.1812C402.723 98.1878 402.703 98.2092 402.703 98.2372C402.703 98.2612 402.723 98.2825 402.771 98.3038C403.048 98.4278 403.27 98.5705 403.423 98.7158C403.575 98.8718 403.691 99.0332 403.774 99.1905C403.855 99.3598 403.915 99.5332 403.951 99.7065C403.986 99.8745 404.023 100.044 404.067 100.213C404.095 100.34 404.147 100.424 404.214 100.48C404.283 100.543 404.355 100.569 404.424 100.569C404.5 100.569 404.57 100.545 404.638 100.484C404.703 100.435 404.756 100.352 404.791 100.247C404.803 100.2 404.823 100.173 404.86 100.156C404.898 100.145 404.932 100.14 404.964 100.147C404.999 100.156 405.031 100.173 405.056 100.2C405.083 100.227 405.094 100.252 405.088 100.276C405.07 100.412 405.028 100.533 404.962 100.623C404.894 100.728 404.815 100.811 404.723 100.869C404.631 100.932 404.522 100.979 404.404 101.009C404.286 101.041 404.174 101.055 404.056 101.055C403.863 101.055 403.691 101.02 403.531 100.943C403.378 100.864 403.271 100.76 403.215 100.608C403.182 100.527 403.148 100.417 403.115 100.313C403.083 100.2 403.048 100.093 403.02 99.9758C402.99 99.8638 402.959 99.7532 402.928 99.6518C402.899 99.5358 402.872 99.4452 402.85 99.3598C402.738 99.0118 402.6 98.7585 402.428 98.6038C402.256 98.4572 402.018 98.3745 401.711 98.3745C401.607 98.3745 401.523 98.3958 401.452 98.4305C401.375 98.4705 401.343 98.5438 401.343 98.6612V99.7732C401.343 99.9612 401.363 100.115 401.404 100.227C401.45 100.336 401.514 100.419 401.596 100.48C401.675 100.548 401.784 100.593 401.904 100.616C402.027 100.648 402.172 100.669 402.332 100.676C402.371 100.676 402.399 100.695 402.419 100.723C402.44 100.757 402.454 100.787 402.454 100.828C402.454 100.86 402.44 100.895 402.419 100.916C402.399 100.945 402.366 100.957 402.324 100.957C402.023 100.957 401.758 100.945 401.531 100.924C401.302 100.907 401.083 100.897 400.864 100.897C400.635 100.897 400.41 100.907 400.19 100.924C399.968 100.945 399.75 100.957 399.538 100.957C399.503 100.957 399.479 100.945 399.456 100.916C399.438 100.895 399.43 100.86 399.427 100.828C399.42 100.793 399.43 100.765 399.448 100.736C399.464 100.697 399.496 100.681 399.538 100.676C399.707 100.665 399.847 100.635 399.954 100.608C400.058 100.585 400.15 100.543 400.207 100.477C400.267 100.419 400.31 100.341 400.327 100.247C400.347 100.145 400.354 100.008 400.354 99.8518V96.7692Z" fill="#F2A92D"/>
<path d="M411.713 95.3879C411.764 95.3879 411.807 95.3959 411.855 95.4039C411.899 95.4185 411.915 95.4559 411.905 95.5345C411.892 95.5999 411.887 95.6692 411.887 95.7399V95.9705C411.887 96.2212 411.897 96.4505 411.911 96.6599C411.911 96.6865 411.899 96.6999 411.872 96.7105C411.845 96.7212 411.811 96.7305 411.781 96.7305C411.739 96.7359 411.705 96.7305 411.675 96.7212C411.64 96.7145 411.62 96.6945 411.613 96.6599C411.575 96.4505 411.531 96.2865 411.488 96.1559C411.448 96.0385 411.391 95.9452 411.313 95.8852C411.233 95.8225 411.135 95.7839 411.004 95.7732C410.876 95.7559 410.705 95.7372 410.493 95.7345H409.951C409.799 95.7345 409.673 95.7372 409.58 95.7399C409.487 95.7505 409.408 95.7732 409.357 95.8052C409.303 95.8385 409.271 95.8959 409.247 95.9705C409.229 96.0439 409.223 96.1545 409.223 96.2972V97.7252C409.223 97.8052 409.236 97.8505 409.271 97.8719C409.296 97.8932 409.327 97.8985 409.357 97.8985C409.631 97.8985 409.852 97.8905 410.011 97.8665C410.171 97.8425 410.289 97.8052 410.375 97.7465C410.451 97.6919 410.508 97.6159 410.533 97.5239C410.563 97.4292 410.584 97.3092 410.601 97.1585C410.609 97.1292 410.625 97.1039 410.656 97.0879C410.687 97.0719 410.72 97.0639 410.753 97.0639C410.791 97.0639 410.824 97.0719 410.853 97.0879C410.885 97.1039 410.901 97.1292 410.901 97.1585C410.901 97.2452 410.896 97.3292 410.891 97.3892C410.885 97.4625 410.88 97.5372 410.873 97.6025C410.864 97.6732 410.857 97.7385 410.853 97.8092C410.848 97.8879 410.843 97.9705 410.843 98.0665C410.843 98.2385 410.853 98.3865 410.873 98.5159C410.891 98.6492 410.901 98.8199 410.901 99.0092C410.901 99.0332 410.885 99.0572 410.853 99.0705C410.824 99.0825 410.791 99.0839 410.753 99.0839C410.72 99.0825 410.687 99.0759 410.656 99.0612C410.625 99.0505 410.609 99.0265 410.601 98.9932C410.584 98.8319 410.563 98.7025 410.533 98.6039C410.508 98.5039 410.451 98.4305 410.375 98.3785C410.289 98.3319 410.171 98.2959 410.011 98.2772C409.852 98.2545 409.631 98.2479 409.357 98.2479C409.327 98.2479 409.296 98.2545 409.271 98.2772C409.236 98.2959 409.223 98.3372 409.223 98.3945V99.4665C409.223 99.6519 409.233 99.7919 409.265 99.9185C409.288 100.044 409.329 100.145 409.387 100.223C409.44 100.309 409.505 100.36 409.581 100.411C409.661 100.459 409.752 100.484 409.863 100.52C409.947 100.533 410.041 100.543 410.145 100.549C410.253 100.556 410.36 100.559 410.477 100.559C410.62 100.559 410.753 100.556 410.884 100.548C411.011 100.537 411.107 100.523 411.173 100.492C411.292 100.461 411.396 100.417 411.483 100.377C411.575 100.333 411.645 100.273 411.705 100.203C411.767 100.129 411.816 100.044 411.855 99.9345C411.895 99.8292 411.921 99.6932 411.951 99.5292C411.956 99.4919 411.976 99.4692 412.017 99.4572C412.047 99.4505 412.087 99.4452 412.131 99.4452C412.172 99.4452 412.209 99.4532 412.244 99.4665C412.273 99.4839 412.288 99.5065 412.283 99.5345C412.253 99.7665 412.223 99.9812 412.2 100.189C412.179 100.38 412.167 100.583 412.172 100.793C412.172 100.811 412.159 100.831 412.137 100.864C412.113 100.897 412.055 100.911 411.968 100.911H408.688C408.464 100.911 408.236 100.913 408.02 100.924C407.8 100.937 407.601 100.945 407.428 100.957C407.383 100.957 407.345 100.945 407.317 100.921C407.295 100.9 407.28 100.867 407.275 100.831C407.271 100.793 407.277 100.765 407.299 100.736C407.327 100.697 407.363 100.681 407.417 100.676C407.56 100.665 407.689 100.635 407.785 100.605C407.892 100.573 407.975 100.537 408.039 100.477C408.107 100.419 408.156 100.347 408.187 100.26C408.221 100.173 408.236 100.06 408.236 99.9212V96.7625C408.236 96.6425 408.235 96.5265 408.224 96.4132C408.217 96.2972 408.195 96.1839 408.165 96.0852C408.135 95.9865 408.091 95.9039 408.029 95.8332C407.964 95.7679 407.879 95.7159 407.769 95.6879C407.703 95.6719 407.635 95.6572 407.56 95.6505C407.488 95.6385 407.42 95.6279 407.357 95.6225C407.317 95.6225 407.292 95.6052 407.275 95.5812C407.255 95.5519 407.245 95.5185 407.245 95.4839C407.245 95.4505 407.255 95.4239 407.275 95.3999C407.292 95.3692 407.317 95.3532 407.357 95.3532C407.556 95.3532 407.743 95.3559 407.905 95.3732C408.069 95.3852 408.259 95.3879 408.475 95.3879H411.713Z" fill="#F2A92D"/>
<mask id="mask0_9_5" style="mask-type:luminance" maskUnits="userSpaceOnUse" x="78" y="87" width="114" height="57">
<mask id="mask1_9_5" style="mask-type:luminance" maskUnits="userSpaceOnUse" x="78" y="87" width="114" height="57">
<path d="M191.038 142.999V87.5959H78.8381V142.999H191.038Z" fill="white" stroke="white"/>
</mask>
<g mask="url(#mask1_9_5)">
<path d="M191.039 143V87.5907H78.842V143H191.039Z" fill="#F2AF43" stroke="black"/>
<mask id="mask2_9_5" style="mask-type:luminance" maskUnits="userSpaceOnUse" x="78" y="87" width="114" height="57">
<path d="M191.038 142.999V87.5906H78.8381V142.999H191.038Z" fill="white" stroke="white"/>
</mask>
<g mask="url(#mask2_9_5)">
<path d="M98.3151 125.01C98.4923 124.971 98.6567 124.936 98.8046 124.905C98.1971 122.635 97.5895 120.371 96.9807 118.113C96.8995 117.762 96.7901 117.411 96.6531 117.074C96.4828 116.716 96.2893 116.402 96.0591 116.119C95.835 115.844 95.5698 115.592 95.2453 115.357L95.0547 115.582C95.0542 115.582 95.0537 115.581 95.0533 115.581M98.3151 125.01C98.3582 125.171 98.4014 125.332 98.4445 125.494C97.2014 125.764 95.3055 126.204 94.0994 126.503M98.3151 125.01C97.7098 122.748 97.1044 120.493 96.4979 118.243L96.4956 118.234L96.4936 118.225C96.2512 117.178 95.751 116.182 95.0533 115.581M98.3151 125.01C97.2154 125.25 95.6233 125.617 94.4375 125.905M94.0994 126.503C93.414 124.293 92.73 122.09 92.0447 119.895M94.0994 126.503L94.5769 126.355C94.5304 126.205 94.4839 126.055 94.4375 125.905M94.0994 126.503L93.9788 126.018C94.1227 125.982 94.2763 125.945 94.4375 125.905M92.0447 119.895C91.3166 117.51 92.2915 115.477 92.936 114.132L92.9567 114.089M92.0447 119.895L92.5229 119.749C92.5228 119.749 92.5226 119.748 92.5225 119.748M92.0447 119.895L92.522 119.746C92.5221 119.747 92.5223 119.747 92.5225 119.748M92.9567 114.089C93.0314 113.941 93.1087 113.79 93.1847 113.642C93.2167 113.579 93.25 113.517 93.2834 113.455M92.9567 114.089L93.4031 114.314C93.4039 114.312 93.4046 114.311 93.4054 114.309M92.9567 114.089L93.4076 114.305L93.4054 114.309M93.2834 113.455L93.4554 113.49M93.2834 113.455L93.4435 113.542L93.4554 113.49M93.2834 113.455L93.24 113.67L93.24 113.67L93.1846 113.946L93.3508 113.979C93.4181 113.994 93.4844 114.01 93.5497 114.026M93.4554 113.49C93.577 113.518 93.6956 113.546 93.8113 113.577L93.5872 114.035M93.4554 113.49L93.4447 113.543L93.7227 113.694C93.6907 113.753 93.6595 113.812 93.63 113.869L93.6295 113.87C93.6029 113.922 93.5762 113.974 93.5497 114.026M93.5872 114.035C93.6019 114.039 93.6166 114.043 93.6312 114.046C93.635 114.047 93.6388 114.048 93.6426 114.049L93.4889 114.466C94.2225 114.737 94.791 115.029 95.244 115.356L95.0518 115.58C95.0523 115.58 95.0528 115.58 95.0533 115.581M93.5872 114.035C93.5747 114.032 93.5622 114.029 93.5497 114.026M93.5872 114.035L93.3985 114.422C93.8549 114.705 94.5925 115.191 95.0533 115.581M97.7354 118.671C97.5541 117.99 97.3586 117.396 97.1106 116.872C96.8186 116.158 96.4058 115.486 95.8662 114.969C96.3987 115.305 96.7931 115.674 97.0893 116.033C97.7397 116.824 97.9511 117.615 98.0713 118.08L98.0713 118.081C98.1117 118.237 98.1521 118.393 98.1925 118.549L97.7354 118.671ZM97.7354 118.671C98.3673 121.04 98.9992 123.415 99.6322 125.797L98.1926 118.55L97.7354 118.671ZM94.3598 113.736C97.7264 114.818 98.3265 117.07 98.5554 117.955C99.3232 120.926 100.092 123.905 100.86 126.895L94.3598 113.736ZM94.3598 113.736C95.4516 114.201 96.2416 114.76 96.8343 115.488C97.4234 116.211 97.7899 117.067 98.088 118.076C98.088 118.076 98.088 118.076 98.088 118.076C98.1329 118.228 98.1762 118.384 98.2185 118.543L94.3598 113.736ZM93.5497 114.026C93.501 114.121 93.4526 114.216 93.4054 114.309M94.4375 125.905C93.7989 123.846 93.1613 121.794 92.5225 119.748M92.5225 119.748C91.8523 117.551 92.7529 115.671 93.4033 114.314L93.4054 114.309M100.37 126.997C100.343 126.891 100.316 126.784 100.288 126.677L99.8673 126.769C98.3855 127.093 96.4654 127.528 95.0269 127.877C95.0561 127.973 95.0853 128.068 95.1145 128.164C97.2152 127.659 98.7556 127.336 100.329 127.006C100.343 127.003 100.357 127 100.37 126.997Z" fill="#F2AF43" stroke="black"/>
<path d="M115.129 111.665C115.742 112.382 116.117 113.485 116.227 114.586L116.228 114.598L116.228 114.598C116.528 117.032 116.828 119.468 117.129 121.904C116.072 122.021 114.479 122.206 113.263 122.37C113.02 120.79 112.777 119.211 112.535 117.634C112.424 116.918 112.314 116.203 112.204 115.488C111.987 114.009 112.231 113.154 112.54 112.28L115.129 111.665ZM115.129 111.665C114.718 111.189 114.05 110.584 113.636 110.224L113.887 109.869C113.872 109.863 113.858 109.857 113.844 109.851C113.834 109.867 113.823 109.883 113.813 109.899L113.812 109.9C113.766 109.97 113.721 110.04 113.675 110.11L113.676 110.11L113.669 110.12C113.282 110.692 112.813 111.509 112.54 112.279L115.129 111.665ZM118.923 124.166C118.908 124.043 118.893 123.92 118.879 123.796L118.426 123.842C116.998 123.987 114.962 124.223 113.58 124.408C113.598 124.524 113.617 124.639 113.636 124.754C115.518 124.503 116.97 124.359 118.39 124.219C118.568 124.201 118.745 124.184 118.923 124.166Z" fill="#F2AF43" stroke="black"/>
<path d="M132.768 112.946L132.767 112.531L133.175 112.454C133.828 112.33 134.483 112.466 135.105 112.689C135.66 112.887 136.236 113.172 136.803 113.454C136.869 113.486 136.935 113.519 137 113.552C138.257 114.172 139.498 114.737 140.812 114.667L145.178 111.476C143.607 111.13 142.094 110.526 140.664 109.954C140.404 109.851 140.148 109.748 139.894 109.648C137.905 108.867 136.1 108.262 134.368 108.441L126.883 114.581L126.903 124.863C126.903 124.863 126.903 124.863 126.903 124.863C126.91 128.532 128.752 130.712 131.133 132.002C133.485 133.277 136.362 133.675 138.485 133.69L143.5 130.075C140.392 130.38 137.937 130.053 136.164 129.352C134.043 128.514 132.795 127.085 132.792 125.505V125.505L132.768 112.946Z" fill="#F2AF43" stroke="black"/>
<path d="M156.322 115.272C156.5 114.19 156.428 113.017 156.015 112.119C155.744 111.533 155.26 110.734 154.955 110.261L155.29 109.998C155.272 109.983 155.254 109.967 155.236 109.951C155.165 110.011 155.093 110.072 155.021 110.133L155.021 110.133L155.014 110.138C154.497 110.558 153.84 111.184 153.393 111.83L153.393 111.83L153.391 111.833C152.871 112.577 152.418 113.31 152.244 114.807C152.244 114.808 152.244 114.808 152.244 114.809L151.498 121.68C151.856 121.716 152.239 121.754 152.63 121.792C153.564 121.884 154.541 121.98 155.303 122.074C155.433 121.204 155.563 120.335 155.693 119.465C155.902 118.069 156.111 116.674 156.32 115.28L156.32 115.28L156.322 115.272ZM151.232 124.103C152.82 124.248 154.995 124.471 156.397 124.653C156.414 124.544 156.432 124.434 156.449 124.325L156.042 124.264C154.653 124.057 152.652 123.861 151.269 123.734C151.257 123.857 151.244 123.98 151.232 124.103Z" fill="#F2AF43" stroke="black"/>
<path d="M177.344 118.691C177.48 117.938 177.503 117.144 177.351 116.393C177.574 116.921 177.697 117.402 177.758 117.83C177.905 118.875 177.685 119.653 177.553 120.109L177.344 118.691ZM177.344 118.691C177.279 119.216 177.154 119.766 176.985 120.366C176.296 122.618 175.608 124.88 174.919 127.146L177.344 118.691ZM175.483 114.261L175.838 114.057C175.822 114.039 175.807 114.021 175.791 114.003L175.545 114.146C175.545 114.146 175.545 114.146 175.545 114.146C174.974 114.477 174.243 114.975 173.704 115.523C173.091 116.153 172.549 116.788 172.177 118.199C171.969 119.023 171.76 119.847 171.552 120.672C171.221 121.977 170.891 123.284 170.56 124.592C170.916 124.67 171.313 124.754 171.722 124.841C172.621 125.032 173.584 125.237 174.331 125.415C174.941 123.379 175.55 121.347 176.16 119.322L176.16 119.322L176.161 119.317C176.482 118.297 176.57 117.17 176.28 116.236L176.279 116.234C176.095 115.634 175.721 114.784 175.483 114.261Z" fill="#F2AF43" stroke="black"/>
<path d="M154.43 133.545L154.43 133.545C165.202 134.92 169.311 135.73 176.5 137.288C176.576 137.304 176.663 137.324 176.759 137.344C177.285 137.459 178.063 137.63 178.76 137.749C178.795 137.755 178.83 137.761 178.864 137.766C178.795 137.727 178.723 137.687 178.651 137.648C178.287 137.449 177.906 137.26 177.594 137.115C177.437 137.043 177.3 136.983 177.193 136.94C177.139 136.918 177.095 136.901 177.061 136.89C177.024 136.877 177.011 136.873 177.014 136.874L177.013 136.874C169.573 135.213 161.92 133.913 154.351 133.336L154.35 133.336C154.265 133.33 154.182 133.329 154.108 133.336C154.032 133.343 153.981 133.356 153.951 133.369C153.945 133.372 153.94 133.374 153.937 133.376C153.936 133.381 153.935 133.388 153.934 133.398C153.943 133.404 153.957 133.414 153.979 133.426C154.078 133.479 154.238 133.52 154.43 133.545ZM153.939 133.367C153.939 133.367 153.939 133.367 153.939 133.369L153.939 133.367Z" fill="#F2AF43" stroke="black"/>
<path d="M116.665 133.414C116.665 132.869 116.129 132.806 115.71 132.838C108.11 133.417 100.433 134.722 92.9772 136.386C92.6542 136.458 90.8634 137.311 90.1305 137.881C90.1703 137.883 90.2261 137.884 90.3003 137.88C90.537 137.87 90.8632 137.828 91.2348 137.766M116.665 133.414C116.664 133.839 116.154 133.987 115.732 134.041C104.976 135.414 100.881 136.222 93.7052 137.777M116.665 133.414L116.165 133.412C116.165 133.411 116.166 133.408 116.167 133.403C116.17 133.396 116.173 133.391 116.175 133.388L116.175 133.388C116.175 133.388 116.172 133.392 116.165 133.398M116.665 133.414H116.165C116.165 133.414 116.165 133.413 116.165 133.413C116.165 133.413 116.165 133.413 116.165 133.413C116.165 133.407 116.165 133.402 116.165 133.398M93.7052 137.777C93.6301 137.793 93.5444 137.812 93.4501 137.832C92.6125 138.016 91.0969 138.347 90.3147 138.38C90.3552 138.341 90.4191 138.288 90.5108 138.221C90.698 138.084 90.9518 137.927 91.2348 137.766M93.7052 137.777L93.5993 137.288M93.7052 137.777L93.5995 137.288M91.2348 137.766C91.2691 137.761 91.3037 137.755 91.3388 137.749C92.0364 137.63 92.8143 137.459 93.3404 137.344C93.4356 137.324 93.5225 137.305 93.5993 137.288M91.2348 137.766C91.3043 137.727 91.3755 137.687 91.448 137.648C91.8122 137.449 92.1925 137.26 92.5055 137.115C92.6621 137.043 92.7988 136.983 92.9063 136.94C92.9601 136.918 93.0041 136.901 93.0379 136.89C93.0671 136.879 93.0817 136.875 93.0851 136.874C93.086 136.874 93.0861 136.874 93.0855 136.874L93.0861 136.874C100.526 135.213 108.179 133.913 115.748 133.336L115.749 133.336C115.834 133.33 115.917 133.329 115.991 133.336C116.067 133.343 116.118 133.356 116.148 133.369C116.154 133.372 116.159 133.374 116.162 133.376M89.8198 138.274L90.3078 138.165C90.2739 138.013 90.1741 137.932 90.1231 137.902C90.1194 137.9 90.1158 137.898 90.1122 137.896C89.9152 138.051 89.8001 138.185 89.8198 138.274ZM89.8198 138.274L90.3079 138.166C90.33 138.265 90.3098 138.342 90.2952 138.381C90.0196 138.391 89.8395 138.362 89.8198 138.274ZM93.5993 137.288L93.5995 137.288M93.5993 137.288L116.16 133.367C116.16 133.367 116.16 133.367 116.16 133.369M93.5995 137.288C100.788 135.73 104.897 134.92 115.668 133.545L115.669 133.545C115.861 133.52 116.021 133.479 116.12 133.426C116.142 133.414 116.156 133.404 116.165 133.398M93.5995 137.288L116.165 133.398M116.162 133.376C116.162 133.372 116.161 133.37 116.16 133.369M116.162 133.376C116.163 133.381 116.164 133.388 116.165 133.398M116.162 133.376C116.168 133.379 116.17 133.381 116.17 133.381C116.17 133.381 116.167 133.379 116.164 133.374C116.162 133.372 116.161 133.37 116.16 133.369M116.16 133.369L116.165 133.398" fill="#F2AF43" stroke="black"/>
</g>
</g>
</mask>
<g mask="url(#mask0_9_5)">
<mask id="mask3_9_5" style="mask-type:luminance" maskUnits="userSpaceOnUse" x="78" y="87" width="114" height="57">
<path d="M191.038 142.999V87.5959H78.8381V142.999H191.038Z" fill="white" stroke="white"/>
</mask>
<g mask="url(#mask3_9_5)">
<mask id="path-39-inside-1_9_5" fill="white">
<path d="M81.5437 102.355C81.0837 102.088 80.6224 101.822 80.1624 101.556C79.5504 99.463 78.9424 97.379 78.3411 95.3044C79.5651 94.9484 82.1277 94.2857 83.1944 94.0004C83.4597 95.0377 83.7264 96.075 83.9957 97.1164C84.6837 96.9364 85.5571 96.7444 86.3731 96.543C86.1224 95.4884 85.8744 94.435 85.6264 93.383C86.8517 93.071 89.1864 92.5364 90.4624 92.2457C90.6917 93.315 90.9224 94.387 91.1544 95.459C92.0677 95.2484 93.0504 95.0657 93.5317 94.963C93.3157 93.8777 93.1011 92.795 92.8864 91.7124C93.5797 91.5524 96.1077 91.0257 97.7077 90.7204C98.0891 92.923 98.4744 95.131 98.8651 97.343C98.5571 97.8297 98.2504 98.3164 97.9411 98.8017C94.9464 99.323 90.3637 100.272 87.2664 100.966C87.2944 101.09 87.3224 101.214 87.3517 101.338C90.9451 100.814 94.5291 100.279 98.1051 99.739C98.6277 102.579 99.1584 105.428 99.6971 108.283C99.9424 108.246 100.201 108.2 100.477 108.155C100.325 107.32 100.174 106.486 100.022 105.652C101.634 105.375 103.128 105.148 104.501 104.939C104.634 105.78 104.768 106.622 104.902 107.463C105.152 107.426 105.397 107.394 105.644 107.358C105.149 104.155 104.662 100.959 104.184 97.7697C103.744 97.3924 103.305 97.015 102.866 96.6377C102.524 94.411 102.182 92.187 101.848 89.967C103.014 89.7577 105.66 89.347 106.688 89.195C106.836 90.3324 106.984 91.4697 107.133 92.6084C107.6 92.543 108.609 92.411 109.506 92.2937C109.373 91.147 109.238 90.0004 109.106 88.855C110.193 88.6924 112.724 88.3964 113.933 88.259C114.041 89.4177 114.149 90.5764 114.258 91.735C115.142 91.631 116.202 91.559 116.638 91.499C116.541 90.3364 116.445 89.1737 116.35 88.0124C116.542 87.9844 118.949 87.763 121.166 87.6017C121.306 89.899 121.448 92.1977 121.592 94.4977C121.237 94.9817 120.882 95.4657 120.528 95.9497C117.861 96.0844 110.95 96.8404 109.846 96.983C109.862 97.111 109.877 97.2404 109.892 97.3684C113.458 97.2137 117.021 97.0604 120.582 96.9084C120.781 99.843 120.985 102.78 121.19 105.718C121.441 105.692 121.706 105.678 121.99 105.662C121.934 104.806 121.88 103.95 121.825 103.094C122.326 103.046 125.113 102.895 126.304 102.852C126.341 103.714 126.377 104.576 126.414 105.438C126.682 105.428 126.944 105.415 127.197 105.402C127.068 102.127 126.94 98.8524 126.813 95.5777C126.409 95.1377 126.005 94.6964 125.602 94.2564C125.505 91.9484 125.41 89.6417 125.317 87.335C127.529 87.219 129.93 87.151 130.12 87.1524C130.145 88.335 130.17 89.5204 130.196 90.703C130.64 90.695 131.869 90.6644 132.576 90.6644C132.564 89.4804 132.553 88.2964 132.542 87.1124C133.864 87.0897 136.392 87.091 137.353 87.1137C137.338 88.2964 137.325 89.4804 137.31 90.6644C138.198 90.6697 139.35 90.6964 139.693 90.703C139.72 89.5204 139.746 88.335 139.772 87.1524C140.748 87.159 143.413 87.2857 144.576 87.3404C144.478 89.6457 144.381 91.9524 144.282 94.2604C143.89 94.703 143.497 95.1484 143.104 95.5924C140.106 95.4444 135.529 95.4017 132.425 95.443C132.425 95.571 132.424 95.7004 132.424 95.8284C135.966 96.0684 139.512 96.3137 143.061 96.559C142.948 99.5084 142.833 102.458 142.717 105.407C142.965 105.414 143.217 105.427 143.477 105.438C143.513 104.576 143.549 103.714 143.585 102.852C144.776 102.895 147.562 103.046 148.068 103.094C148.009 103.95 147.95 104.806 147.892 105.662C148.166 105.678 148.428 105.691 148.666 105.711C148.893 102.47 149.116 99.2297 149.336 95.991C148.981 95.4937 148.628 94.9964 148.274 94.4977C148.418 92.1977 148.56 89.899 148.7 87.6017C150.92 87.7617 153.325 87.9844 153.518 88.0124C153.421 89.1737 153.322 90.3364 153.222 91.499C153.668 91.5564 154.721 91.631 155.605 91.735C155.714 90.5764 155.821 89.4177 155.929 88.259C157.14 88.395 159.668 88.6924 160.758 88.855C160.626 90.0004 160.493 91.147 160.36 92.2937C161.258 92.4124 162.265 92.543 162.734 92.6084C162.881 91.4697 163.028 90.331 163.173 89.195C164.202 89.3457 166.85 89.7577 168.016 89.967C167.68 92.187 167.338 94.411 166.996 96.6377C166.557 97.015 166.117 97.3924 165.678 97.7697C162.79 97.3217 157.914 96.703 154.953 96.4244C154.94 96.5524 154.926 96.6804 154.913 96.8084C158.444 97.447 161.984 98.083 165.533 98.7137C165.102 101.59 164.664 104.471 164.22 107.358C164.465 107.392 164.71 107.434 164.966 107.474C165.102 106.628 165.238 105.783 165.376 104.939C166.75 105.144 168.244 105.371 169.853 105.652C169.701 106.486 169.55 107.32 169.397 108.155C169.67 108.203 169.936 108.246 170.185 108.283C170.773 105.158 171.352 102.04 171.922 98.931C171.62 98.403 171.318 97.8737 171.017 97.343C171.406 95.131 171.793 92.923 172.174 90.7204C173.774 91.0257 176.298 91.5524 176.997 91.7124C176.784 92.795 176.569 93.879 176.353 94.963C176.83 95.067 177.814 95.2484 178.73 95.459C178.961 94.387 179.192 93.315 179.421 92.2457C180.689 92.5364 183.032 93.071 184.256 93.383C184.008 94.435 183.758 95.4884 183.508 96.543C184.321 96.7444 185.2 96.9364 185.884 97.1164C186.154 96.075 186.424 95.0377 186.692 94.0004C187.754 94.2844 190.318 94.9484 191.538 95.3044C190.937 97.379 190.329 99.463 189.716 101.556C189.262 101.818 188.808 102.08 188.354 102.343C185.445 101.584 180.144 100.411 177.576 99.8937C177.549 100.014 177.521 100.134 177.494 100.255C181.012 101.268 184.544 102.266 188.092 103.243L174.297 143.447L174.296 143.458C147.588 138.244 121.001 138.511 95.7371 143.499V143.494L81.5437 102.355Z"/>
</mask>
<path d="M81.5437 102.355C81.0837 102.088 80.6224 101.822 80.1624 101.556C79.5504 99.463 78.9424 97.379 78.3411 95.3044C79.5651 94.9484 82.1277 94.2857 83.1944 94.0004C83.4597 95.0377 83.7264 96.075 83.9957 97.1164C84.6837 96.9364 85.5571 96.7444 86.3731 96.543C86.1224 95.4884 85.8744 94.435 85.6264 93.383C86.8517 93.071 89.1864 92.5364 90.4624 92.2457C90.6917 93.315 90.9224 94.387 91.1544 95.459C92.0677 95.2484 93.0504 95.0657 93.5317 94.963C93.3157 93.8777 93.1011 92.795 92.8864 91.7124C93.5797 91.5524 96.1077 91.0257 97.7077 90.7204C98.0891 92.923 98.4744 95.131 98.8651 97.343C98.5571 97.8297 98.2504 98.3164 97.9411 98.8017C94.9464 99.323 90.3637 100.272 87.2664 100.966C87.2944 101.09 87.3224 101.214 87.3517 101.338C90.9451 100.814 94.5291 100.279 98.1051 99.739C98.6277 102.579 99.1584 105.428 99.6971 108.283C99.9424 108.246 100.201 108.2 100.477 108.155C100.325 107.32 100.174 106.486 100.022 105.652C101.634 105.375 103.128 105.148 104.501 104.939C104.634 105.78 104.768 106.622 104.902 107.463C105.152 107.426 105.397 107.394 105.644 107.358C105.149 104.155 104.662 100.959 104.184 97.7697C103.744 97.3924 103.305 97.015 102.866 96.6377C102.524 94.411 102.182 92.187 101.848 89.967C103.014 89.7577 105.66 89.347 106.688 89.195C106.836 90.3324 106.984 91.4697 107.133 92.6084C107.6 92.543 108.609 92.411 109.506 92.2937C109.373 91.147 109.238 90.0004 109.106 88.855C110.193 88.6924 112.724 88.3964 113.933 88.259C114.041 89.4177 114.149 90.5764 114.258 91.735C115.142 91.631 116.202 91.559 116.638 91.499C116.541 90.3364 116.445 89.1737 116.35 88.0124C116.542 87.9844 118.949 87.763 121.166 87.6017C121.306 89.899 121.448 92.1977 121.592 94.4977C121.237 94.9817 120.882 95.4657 120.528 95.9497C117.861 96.0844 110.95 96.8404 109.846 96.983C109.862 97.111 109.877 97.2404 109.892 97.3684C113.458 97.2137 117.021 97.0604 120.582 96.9084C120.781 99.843 120.985 102.78 121.19 105.718C121.441 105.692 121.706 105.678 121.99 105.662C121.934 104.806 121.88 103.95 121.825 103.094C122.326 103.046 125.113 102.895 126.304 102.852C126.341 103.714 126.377 104.576 126.414 105.438C126.682 105.428 126.944 105.415 127.197 105.402C127.068 102.127 126.94 98.8524 126.813 95.5777C126.409 95.1377 126.005 94.6964 125.602 94.2564C125.505 91.9484 125.41 89.6417 125.317 87.335C127.529 87.219 129.93 87.151 130.12 87.1524C130.145 88.335 130.17 89.5204 130.196 90.703C130.64 90.695 131.869 90.6644 132.576 90.6644C132.564 89.4804 132.553 88.2964 132.542 87.1124C133.864 87.0897 136.392 87.091 137.353 87.1137C137.338 88.2964 137.325 89.4804 137.31 90.6644C138.198 90.6697 139.35 90.6964 139.693 90.703C139.72 89.5204 139.746 88.335 139.772 87.1524C140.748 87.159 143.413 87.2857 144.576 87.3404C144.478 89.6457 144.381 91.9524 144.282 94.2604C143.89 94.703 143.497 95.1484 143.104 95.5924C140.106 95.4444 135.529 95.4017 132.425 95.443C132.425 95.571 132.424 95.7004 132.424 95.8284C135.966 96.0684 139.512 96.3137 143.061 96.559C142.948 99.5084 142.833 102.458 142.717 105.407C142.965 105.414 143.217 105.427 143.477 105.438C143.513 104.576 143.549 103.714 143.585 102.852C144.776 102.895 147.562 103.046 148.068 103.094C148.009 103.95 147.95 104.806 147.892 105.662C148.166 105.678 148.428 105.691 148.666 105.711C148.893 102.47 149.116 99.2297 149.336 95.991C148.981 95.4937 148.628 94.9964 148.274 94.4977C148.418 92.1977 148.56 89.899 148.7 87.6017C150.92 87.7617 153.325 87.9844 153.518 88.0124C153.421 89.1737 153.322 90.3364 153.222 91.499C153.668 91.5564 154.721 91.631 155.605 91.735C155.714 90.5764 155.821 89.4177 155.929 88.259C157.14 88.395 159.668 88.6924 160.758 88.855C160.626 90.0004 160.493 91.147 160.36 92.2937C161.258 92.4124 162.265 92.543 162.734 92.6084C162.881 91.4697 163.028 90.331 163.173 89.195C164.202 89.3457 166.85 89.7577 168.016 89.967C167.68 92.187 167.338 94.411 166.996 96.6377C166.557 97.015 166.117 97.3924 165.678 97.7697C162.79 97.3217 157.914 96.703 154.953 96.4244C154.94 96.5524 154.926 96.6804 154.913 96.8084C158.444 97.447 161.984 98.083 165.533 98.7137C165.102 101.59 164.664 104.471 164.22 107.358C164.465 107.392 164.71 107.434 164.966 107.474C165.102 106.628 165.238 105.783 165.376 104.939C166.75 105.144 168.244 105.371 169.853 105.652C169.701 106.486 169.55 107.32 169.397 108.155C169.67 108.203 169.936 108.246 170.185 108.283C170.773 105.158 171.352 102.04 171.922 98.931C171.62 98.403 171.318 97.8737 171.017 97.343C171.406 95.131 171.793 92.923 172.174 90.7204C173.774 91.0257 176.298 91.5524 176.997 91.7124C176.784 92.795 176.569 93.879 176.353 94.963C176.83 95.067 177.814 95.2484 178.73 95.459C178.961 94.387 179.192 93.315 179.421 92.2457C180.689 92.5364 183.032 93.071 184.256 93.383C184.008 94.435 183.758 95.4884 183.508 96.543C184.321 96.7444 185.2 96.9364 185.884 97.1164C186.154 96.075 186.424 95.0377 186.692 94.0004C187.754 94.2844 190.318 94.9484 191.538 95.3044C190.937 97.379 190.329 99.463 189.716 101.556C189.262 101.818 188.808 102.08 188.354 102.343C185.445 101.584 180.144 100.411 177.576 99.8937C177.549 100.014 177.521 100.134 177.494 100.255C181.012 101.268 184.544 102.266 188.092 103.243L174.297 143.447L174.296 143.458C147.588 138.244 121.001 138.511 95.7371 143.499V143.494L81.5437 102.355Z" fill="#FFAF01" stroke="black" stroke-opacity="0.2" stroke-width="2" mask="url(#path-39-inside-1_9_5)"/>
</g>
</g>
<path d="M870.729 423.532H791.252V422.23C791.107 414.42 789.795 406.74 787.461 399.451L786.878 397.758H870.729V423.532ZM844.189 334.496V352.849H817.064L822.168 342.696C824.793 337.62 830.334 334.496 836.606 334.496H844.189ZM778.565 380.445C760.628 351.548 726.505 333.584 689.611 333.584C652.716 333.584 618.739 351.548 600.656 380.445L600.219 381.097H262.866L262.429 380.445C244.492 351.548 210.368 333.584 173.474 333.584C136.578 333.584 102.601 351.548 84.518 380.445L84.0808 381.097H68.4772V369.38H71.5393C83.4977 369.38 93.1228 360.66 93.1228 350.116V337.098C93.1228 326.425 83.352 317.833 71.5393 317.833H68.4772V292.32C68.4772 289.456 71.1021 287.244 74.1642 287.244H251.492V346.732C251.492 351.288 255.72 355.063 260.824 355.063C265.928 355.063 270.158 351.288 270.158 346.732V287.244H619.176C624.28 287.244 628.508 283.468 628.508 278.913C628.508 274.356 624.28 270.582 619.176 270.582H553.554V209.923H628.216C633.029 209.923 637.696 212.006 640.466 215.52L684.798 270.582H668.174C663.07 270.582 658.841 274.356 658.841 278.913C658.841 283.468 663.07 287.244 668.174 287.244H722.714C760.045 287.244 796.502 293.232 831.356 305.077C836.897 307.029 841.272 311.064 843.167 316.142L843.751 317.833H836.606C823.044 317.833 810.794 324.862 805.107 335.797L798.253 349.205C795.919 353.631 796.356 358.837 799.418 362.873C802.336 367.039 807.44 369.512 812.982 369.512H844.189V381.097H779.002L778.565 380.445ZM772.441 423.532H751.442V422.23C750.713 392.421 723.005 368.209 689.611 368.209C656.216 368.209 628.509 392.421 627.779 422.23V423.532H606.78V422.23C607.363 402.965 616.259 384.871 631.863 371.333C647.467 357.796 668.028 350.246 689.611 350.246C711.34 350.246 731.9 357.666 747.358 371.333C762.962 384.871 771.858 402.965 772.441 422.23V423.532ZM689.611 461.933C665.841 461.933 646.445 444.619 646.445 423.402C646.445 402.184 665.841 384.871 689.611 384.871C713.38 384.871 732.776 402.184 732.776 423.402C732.776 444.619 713.38 461.933 689.611 461.933ZM256.303 423.662H235.304V423.532V422.23C235.304 391.64 207.598 366.907 173.474 366.907C139.349 366.907 111.643 391.64 111.643 422.101V423.532H90.6437V422.23C91.2267 402.965 100.122 384.871 115.725 371.333C131.329 357.796 151.745 350.376 173.474 350.376C195.202 350.376 215.764 357.796 231.222 371.463C246.825 385.001 255.72 403.095 256.303 422.36V423.662ZM173.474 460.76C149.703 460.76 130.308 443.448 130.308 422.23C130.308 401.012 149.703 383.7 173.474 383.7C197.244 383.7 216.638 401.012 216.638 422.23C216.638 443.448 197.244 460.76 173.474 460.76ZM75.7689 399.451C73.4355 406.87 72.1224 414.55 71.9766 422.23V423.532H51.269V422.23H49.8115V397.758H76.3519L75.7689 399.451ZM68.4772 334.496H71.5393C73.1439 334.496 74.4557 335.667 74.4557 337.098V350.116C74.4557 351.548 73.1439 352.719 71.5393 352.719H68.4772V334.496ZM499.158 223.33H499.16C499.16 215.91 506.013 209.792 514.325 209.792H534.741V270.452H499.158V223.33ZM74.31 270.322C60.8941 270.322 49.8115 280.084 49.8115 292.19V381.097L48.4984 381.357C38.5832 382.528 31 390.209 31 399.189V422.36C31 432.254 40.0407 440.324 51.1232 440.324H114.851L115.142 441.235C124.038 462.973 147.37 477.422 173.181 477.422C198.993 477.422 222.325 462.843 231.222 441.235L231.513 440.324H517.825C522.93 440.324 527.158 436.548 527.158 431.993C527.158 427.437 522.93 423.662 517.825 423.662H274.679V422.36C274.533 414.68 273.22 406.87 270.886 399.581L270.303 397.888H592.051L591.468 399.581C589.135 407 587.823 414.68 587.677 422.36V423.662H568.719C563.615 423.662 559.386 427.437 559.386 431.993C559.386 436.548 563.615 440.324 568.719 440.324H630.258L630.55 441.235C639.155 463.624 662.633 478.724 689.173 478.724C715.714 478.724 739.192 463.624 747.797 441.235L748.088 440.324H868.833C879.917 440.324 888.958 432.254 888.958 422.36V399.189C889.395 389.167 880.354 381.097 869.27 381.097H863V321.609C863 307.42 852.938 294.403 838.063 289.326C801.169 276.829 762.379 270.452 722.714 270.452H707.839L655.633 205.627C649.363 197.686 639.009 193 628.071 193H514.325C495.659 193 480.493 206.538 480.493 223.199V270.582L74.31 270.322Z" fill="white"/>
<path d="M441.286 211.86C427.979 211.885 50.3804 211.864 49.2364 210.253C7.98312 152.16 8.20577 77.2597 49.8031 19.437C50.0764 19.057 50.2657 18.849 50.3697 18.7437C50.5017 18.7237 50.7484 18.6984 51.1457 18.6984C56.2111 18.7024 422.447 18.8677 441.444 18.749C461.824 45.7304 473.032 80.033 473.008 115.365C472.984 150.708 461.719 184.973 441.286 211.86ZM455.407 7.99969C453.168 5.04369 449.403 1.12237 442.522 1.12237H442.402C423.095 1.24637 403.455 1.2957 384.462 1.3437L367.708 1.38903C335.534 1.18903 214.424 0.830357 180.848 0.813024C158.66 0.797024 136.11 0.874356 114.303 0.945022C93.6018 1.01302 72.1978 1.05302 51.1471 1.07969C44.4324 1.07969 39.4618 3.6437 35.5004 9.1477C16.7724 35.181 5.38441 64.849 2.02441 95.8637L0.977783 116.248C1.18845 153.48 12.8764 189.482 34.8697 220.454C39.2937 226.686 44.8964 229.592 52.4991 229.592C52.5178 229.592 52.5378 229.592 52.5564 229.592C56.9764 229.542 58.5071 229.592 63.5444 229.592V253.382L84.1337 253.328V229.505C121.323 229.492 229.128 229.488 267.087 229.485C296.307 229.482 384.912 229.48 406.816 229.473V253.77L427.404 253.869V229.473C427.571 229.452 428.26 229.421 442.871 229.486H442.942C450.012 229.486 453.679 224.669 455.247 222.609C502.484 160.542 502.551 70.2864 455.407 7.99969Z" fill="white"/>
</svg>
