<svg width="231" height="124" viewBox="0 0 231 124" fill="none" xmlns="http://www.w3.org/2000/svg">
<path d="M21.1503 63.5058C17.7092 63.5058 14.8669 66.31 14.8669 69.7892V95.3383L14.5311 95.4145C11.9866 95.7503 10.041 97.959 10.041 100.538V107.195C10.041 110.038 12.3605 112.357 15.2028 112.357H31.55L31.6262 112.62C33.9076 118.869 39.8933 123.02 46.5159 123.02C53.1386 123.02 59.1208 118.831 61.4057 112.62L61.4819 112.357H134.927C136.235 112.357 137.322 111.274 137.322 109.962C137.322 108.649 136.239 107.566 134.927 107.566H72.5531V107.192C72.515 104.983 72.1792 102.74 71.5803 100.645L71.4314 100.161H153.967L153.818 100.645C153.22 102.778 152.884 104.983 152.846 107.192V107.566H147.982C146.673 107.566 145.586 108.649 145.586 109.962C145.586 111.274 146.67 112.357 147.982 112.357H163.768L163.844 112.62C166.053 119.056 172.073 123.394 178.883 123.394C185.693 123.394 191.713 119.056 193.922 112.62L193.998 112.357H224.972C227.814 112.357 230.133 110.038 230.133 107.195V100.538C230.244 97.6578 227.925 95.3383 225.082 95.3383H223.473V78.2433C223.473 74.1651 220.89 70.4262 217.075 68.9653C207.61 65.3753 197.66 63.5404 187.486 63.5404H183.671L170.28 44.9118C168.67 42.6304 166.015 41.2837 163.211 41.2837H134.034C129.246 41.2837 125.355 45.1749 125.355 49.9628V63.5785L21.1573 63.5024L21.1503 63.5058ZM130.135 50.0008C130.135 47.8683 131.894 46.1096 134.027 46.1096H139.265V63.5404H130.135V49.9974V50.0008ZM19.6548 81.9476H20.4406C20.8526 81.9476 21.1884 82.2834 21.1884 82.6953V86.4377C21.1884 86.8496 20.8526 87.1854 20.4406 87.1854H19.6548V81.9476ZM21.5242 100.614C20.9253 102.747 20.5895 104.952 20.5514 107.161V107.535H15.2408V107.161H14.8669V100.13H21.6766L21.5277 100.614H21.5242ZM46.5886 118.232C40.4922 118.232 35.5174 113.257 35.5174 107.161C35.5174 101.064 40.4922 96.0895 46.5886 96.0895C52.6851 96.0895 57.6599 101.064 57.6599 107.161C57.6599 113.257 52.6851 118.232 46.5886 118.232ZM67.8345 107.573H62.4477V107.161C62.4477 98.371 55.3404 91.2636 46.5852 91.2636C37.8299 91.2636 30.7226 98.371 30.7226 107.126V107.538H25.3358V107.164C25.4847 101.629 27.7661 96.4288 31.7716 92.5376C35.7736 88.6464 41.0114 86.5138 46.5852 86.5138C52.1589 86.5138 57.4349 88.6464 61.3988 92.5722C65.4008 96.4634 67.6822 101.663 67.8345 107.199V107.573ZM178.99 118.571C172.894 118.571 167.919 113.597 167.919 107.5C167.919 101.404 172.894 96.4288 178.99 96.4288C185.087 96.4288 190.061 101.404 190.061 107.5C190.061 113.597 185.087 118.571 178.99 118.571ZM200.236 107.535H194.849V107.161C194.662 98.596 187.555 91.6375 178.987 91.6375C170.418 91.6375 163.311 98.596 163.124 107.161V107.535H157.737V107.161C157.886 101.625 160.168 96.4253 164.173 92.5341C168.175 88.6429 173.451 86.4723 178.987 86.4723C184.522 86.4723 189.836 88.6048 193.8 92.5341C197.802 96.4253 200.084 101.625 200.236 107.161V107.535ZM201.808 95.1514C197.207 86.8462 188.452 81.6844 178.99 81.6844C169.529 81.6844 160.808 86.8462 156.173 95.1514L156.062 95.3383H69.5239L69.4132 95.1514C64.8122 86.8462 56.057 81.6844 46.5955 81.6844C37.1341 81.6844 28.4135 86.8462 23.7779 95.1514L23.6672 95.3383H19.6652V91.9698H20.451C23.5183 91.9698 25.9867 89.4634 25.9867 86.4342V82.6919C25.9867 79.6246 23.4802 77.1562 20.451 77.1562H19.6652V69.8239C19.6652 68.9999 20.3368 68.3664 21.1227 68.3664H66.6125V85.4614C66.6125 86.77 67.696 87.8571 69.0081 87.8571C70.3202 87.8571 71.4038 86.7735 71.4038 85.4614V68.3664H160.936C162.245 68.3664 163.332 67.2828 163.332 65.9707C163.332 64.6587 162.248 63.5751 160.936 63.5751H144.101V46.1442H163.252C164.488 46.1442 165.683 46.7432 166.396 47.754L177.768 63.5785H173.503C172.194 63.5785 171.107 64.6621 171.107 65.9742C171.107 67.2863 172.191 68.3698 173.503 68.3698H187.493C197.068 68.3698 206.423 70.0904 215.361 73.4935C216.784 74.0543 217.906 75.2141 218.39 76.6716L218.539 77.1562H216.708C213.229 77.1562 210.085 79.178 208.628 82.318L206.869 86.1711C206.27 87.4416 206.385 88.9407 207.167 90.1004C207.915 91.2982 209.223 92.0079 210.646 92.0079H218.65V95.3383H201.929L201.818 95.1514H201.808ZM218.643 81.9476V87.2235H211.685L212.993 84.3051C213.665 82.8477 215.088 81.9476 216.698 81.9476H218.643ZM225.449 107.535H205.062V107.161C205.024 104.917 204.688 102.709 204.089 100.614L203.94 100.13H225.449V107.538V107.535Z" fill="white"/>
<path d="M118.856 2.47231C118.274 1.70377 117.298 0.685956 115.512 0.685956H115.48C110.468 0.717114 105.368 0.730966 100.435 0.744814L96.0832 0.755199C87.7296 0.70327 56.2849 0.609801 47.5677 0.606339C41.8071 0.602877 35.9529 0.62365 30.2892 0.64096C24.9128 0.65827 19.3564 0.668647 13.89 0.675571C12.1487 0.675571 10.8574 1.34027 9.82921 2.77005C4.96519 9.52774 2.00871 17.234 1.1363 25.2864L0.862793 30.5797C0.918184 40.2455 3.95085 49.5961 9.66304 57.6347C10.8124 59.2515 12.2664 60.0062 14.2397 60.0062C14.2432 60.0062 14.2501 60.0062 14.2535 60.0062C15.3994 59.9923 15.7976 60.0062 17.1062 60.0062V66.1823L22.4514 66.1684V59.9819C32.1067 59.9785 60.0999 59.9785 69.956 59.975C77.5411 59.975 100.549 59.975 106.237 59.975V66.2827L111.582 66.3069V59.9715C111.624 59.9646 111.804 59.9577 115.598 59.975H115.615C117.45 59.975 118.402 58.7253 118.811 58.1887C131.076 42.0734 131.094 18.6395 118.852 2.46539L118.856 2.47231ZM115.19 55.4053C111.735 55.4122 13.6927 55.4053 13.395 54.9864C2.68375 39.9027 2.74262 20.4536 13.5439 5.44266C13.6166 5.34572 13.665 5.29033 13.6892 5.26263C13.7238 5.25917 13.7862 5.25225 13.89 5.25225C15.2056 5.25225 110.298 5.29725 115.228 5.2661C120.521 12.273 123.429 21.1771 123.422 30.3513C123.415 39.5288 120.49 48.426 115.186 55.4053H115.19Z" fill="white"/>
<path d="M69.3941 25.8508C69.5325 25.9893 69.7125 26.062 69.9099 26.062C70.1072 26.062 70.2872 25.9858 70.4257 25.8508L71.0073 25.2692C71.2912 24.9853 71.2912 24.5249 71.0073 24.241L70.4257 23.6628C70.2872 23.5244 70.1072 23.4517 69.9099 23.4517C69.7125 23.4517 69.5325 23.5278 69.3941 23.6628L68.8159 24.241C68.5321 24.5249 68.5321 24.9853 68.8159 25.2692L69.3975 25.8508H69.3941Z" fill="#F2AF43"/>
<path d="M80.0737 25.8508C80.2122 25.9893 80.3922 26.062 80.5896 26.062C80.7869 26.062 80.967 25.9858 81.1054 25.8508L81.687 25.2692C81.9709 24.9853 81.9709 24.5249 81.687 24.241L81.1054 23.6628C80.967 23.5244 80.7869 23.4517 80.5896 23.4517C80.3922 23.4517 80.2122 23.5278 80.0737 23.6628L79.4956 24.241C79.2117 24.5249 79.2117 24.9853 79.4956 25.2692L80.0772 25.8508H80.0737Z" fill="#F2AF43"/>
<path d="M71.7755 27.3252C71.6162 26.6189 70.9447 26.3662 70.415 26.3662H70.3873H68.7428H68.2686L68.5905 26.7124C69.0579 27.2144 69.051 27.9587 69.0475 28.9038C69.0475 29.0146 69.0475 29.1288 69.0475 29.2465V35.8415H71.914V29.0423C71.914 28.4122 71.8932 27.8098 71.779 27.3252H71.7755Z" fill="#F2AF43"/>
<path d="M82.5177 27.3252C82.3584 26.6189 81.6868 26.3662 81.1571 26.3662H81.1294H79.485H79.0107L79.3327 26.7124C79.8001 27.2144 79.7931 27.9587 79.7897 28.9038C79.7897 29.0146 79.7897 29.1288 79.7897 29.2465V35.8415H82.6562V29.0423C82.6562 28.4122 82.6354 27.8098 82.5211 27.3252H82.5177Z" fill="#F2AF43"/>
<path d="M106.7 35.4955C106.233 34.9935 106.24 34.2492 106.243 33.311C106.243 33.1968 106.243 33.0825 106.243 32.9614V26.3664H103.377V32.9614C103.377 33.2349 103.377 33.5222 103.391 33.7957C102.767 33.5464 102.39 33.1379 102.39 32.1686V29.2363C102.39 28.5232 102.38 27.8412 102.252 27.2977C101.975 26.3802 100.787 26.3525 100.656 26.3525H100.645H99.2223H98.748L99.0734 26.6987C99.5408 27.1973 99.5339 27.9416 99.527 28.8797C99.527 28.994 99.527 29.1117 99.527 29.2329V32.2136C99.527 33.7611 100.129 34.9381 101.313 35.7032C101.469 35.8002 101.632 35.8486 101.795 35.8486C102.078 35.8486 102.265 35.7032 102.286 35.6859H102.293L102.3 35.6755L103.463 34.5815C103.55 35.1562 103.719 35.537 103.993 35.7828L104.052 35.8348H107.029L106.707 35.4886L106.7 35.4955Z" fill="#F2AF43"/>
<path d="M98.391 33.5461V28.7686C98.3703 27.9655 98.1452 26.283 95.6111 26.283C94.8633 26.283 93.4197 26.5807 92.5092 27.3977L92.44 27.46V29.9249L92.7689 29.686C93.7382 28.9798 94.1952 28.9279 94.7837 28.9279C94.9395 28.9279 95.0641 28.9798 95.1611 29.0837C95.3688 29.3052 95.4242 29.7241 95.4311 29.9872C94.8564 30.1015 93.9217 30.3507 93.122 30.8735C92.1042 31.5382 91.5918 32.4383 91.5918 33.553C91.5918 34.6678 92.3569 35.3878 92.8139 35.7133C92.987 35.8206 93.1601 35.8725 93.3366 35.8725C93.6205 35.8725 93.8213 35.7444 93.8698 35.7133L95.5038 34.7128C95.67 35.4398 96.0854 35.7894 96.1062 35.8067L96.1616 35.8552H99.1458L98.9069 35.5263C98.391 34.8201 98.391 34.1762 98.391 33.5565V33.5461ZM95.4345 33.8369C95.0295 33.6223 94.441 33.2172 94.441 32.6702C94.441 32.0713 94.9707 31.694 95.4311 31.5624V32.2271C95.4311 32.7879 95.4311 33.4665 95.4311 33.8369H95.4345Z" fill="#F2AF43"/>
<path d="M67.4865 33.3213C67.4865 33.207 67.4865 33.0928 67.4865 32.9751V29.9944C67.4865 28.6927 67.0642 27.6576 66.2333 26.9098C65.946 26.6086 65.6309 26.4528 65.2951 26.4528C64.7516 26.4528 64.357 26.8579 64.2981 26.9236L63.5884 27.5883V25.7085C63.5884 25.1234 63.5815 24.5072 63.5088 23.9983C63.3945 23.1363 62.6744 22.8247 62.0374 22.8247C61.9924 22.8247 61.9682 22.8247 61.9682 22.8247H60.5142H60.0884L60.3515 23.157C60.7392 23.6521 60.7323 24.3826 60.7254 25.3069C60.7254 25.435 60.7254 25.5666 60.7254 25.705V35.8381H63.5919V28.395C64.2358 28.6477 64.627 29.0562 64.627 30.0394V32.9716C64.627 34.2629 64.672 35.2911 65.2363 35.8L65.2951 35.852H68.2689L67.947 35.5058C67.4796 35.0038 67.4865 34.2595 67.4935 33.3178L67.4865 33.3213Z" fill="#F2AF43"/>
<path d="M90.6885 33.3215C90.6885 33.2073 90.6885 33.093 90.6885 32.9719V29.9911C90.6885 28.686 90.2627 27.644 89.4249 26.8962C89.1549 26.6469 88.8502 26.5188 88.5179 26.5188C87.9466 26.5188 87.5105 26.91 87.4931 26.9273L86.7523 27.6197C86.735 27.4986 86.7108 27.3878 86.6865 27.2839C86.4857 26.408 85.326 26.363 85.0975 26.363H85.0733H83.6642H83.1899L83.5154 26.7092C83.9827 27.2077 83.9758 27.9555 83.9723 28.9006C83.9723 29.0114 83.9723 29.1291 83.9723 29.2434V35.8383H86.8388V29.0391C86.8388 28.8349 86.8354 28.6202 86.8284 28.409C87.4516 28.6618 87.8289 29.0703 87.8289 30.0396V32.9719C87.8289 34.2632 87.8739 35.2914 88.4382 35.8003L88.4971 35.8522H91.4709L91.1489 35.506C90.6816 35.004 90.685 34.2597 90.692 33.3215H90.6885Z" fill="#F2AF43"/>
<path d="M77.0315 29.8317L76.4914 29.4647C75.4493 28.7619 75.0374 28.485 74.8435 28.2184C75.1481 28.2599 75.4493 28.44 75.7678 28.6338C76.1902 28.8866 76.6229 29.1462 77.1388 29.1462H77.1561H77.253L77.3153 29.07L78.6932 27.3702L78.9493 27.0517L78.5409 27.0344C77.9627 27.0102 77.4434 26.7817 76.9414 26.5601C76.436 26.3386 75.9617 26.1309 75.4563 26.1309C75.2797 26.1309 75.1031 26.1586 74.937 26.2105L74.8816 26.2278L74.8435 26.2693L72.891 28.4884V28.4954L72.8806 28.5023C72.7317 28.6962 72.5655 29.0804 72.5448 29.4647C72.5171 29.9598 72.8737 31.0537 74.3831 32.0265L74.2065 32.2308L72.4582 34.2664L72.3267 34.4187L72.4755 34.5537C73.0745 35.1007 73.6353 35.4469 74.1338 35.665L74.2827 36.0216C74.3692 36.2259 74.3934 36.444 74.3588 36.6794C74.3346 36.8836 74.2965 37.2125 74.5527 37.3198C74.6046 37.3371 74.6427 37.3441 74.6843 37.3441C74.8054 37.3441 74.9093 37.2887 74.9785 37.2541C75.3939 37.0325 75.6709 36.6863 75.8232 36.1912L75.8821 35.9939C76.0448 35.9801 76.1798 35.9524 76.2698 35.9316L76.3287 35.9143L76.3702 35.8693L78.887 33.0859L78.9493 33.0166L78.939 32.9232C78.8524 32.1962 78.4924 30.8252 77.028 29.8351L77.0315 29.8317ZM76.2906 34.076C75.5497 33.8371 74.795 32.8678 74.5527 32.2896L74.4696 32.0854C75.7713 32.9336 76.1279 33.5879 76.2871 34.0656C76.2871 34.0691 76.2871 34.076 76.2871 34.0795L76.2906 34.076Z" fill="#F2AF43"/>
<path d="M94.9944 25.7673L95.0463 25.802C95.1432 25.8677 95.2575 25.9439 95.4132 25.9439C95.5483 25.9439 95.6867 25.8885 95.846 25.7639C96.1853 25.5077 97.9093 24.1956 97.9093 24.1956L98.3974 23.8252H96.933C96.2026 23.8252 95.6106 24.206 95.5829 24.2233H95.5759L95.569 24.2302L95.4167 24.3479L95.2644 24.2302H95.2575L95.2505 24.2233C95.2263 24.206 94.6343 23.8252 93.9004 23.8252H92.4395L92.9241 24.1956C93.0003 24.2545 94.7901 25.6254 94.9944 25.7673Z" fill="#F2AF43"/>
<path d="M55.5984 32.9336C55.2245 32.6255 55.0202 32.2377 55.0202 31.8465V24.7703C55.3595 24.7599 55.7715 24.9884 56.2008 25.2273C56.7824 25.5493 57.4367 25.9128 58.1672 25.847H58.2156L60.8467 23.7041L60.4901 23.6556C59.6904 23.5448 58.9149 23.1952 58.1602 22.8594C57.1494 22.4058 56.1904 21.9766 55.228 22.115L55.1795 22.122L51.7729 25.2273V31.5453C51.7729 33.2278 52.4411 34.4845 53.7567 35.2842C55.0341 36.0597 56.547 36.1428 57.1389 36.1428H57.1943L60.6113 33.4044L59.995 33.5186C58.0806 33.8787 56.4777 33.6675 55.5984 32.9405V32.9336Z" fill="#F2AF43"/>
<path d="M70.8586 24.3859C71.0629 24.5901 71.0629 24.919 70.8586 25.1233L70.2771 25.7049C70.0728 25.9091 69.7439 25.9091 69.5397 25.7049L68.958 25.1233C68.7538 24.919 68.7573 24.5901 68.958 24.3859L69.5362 23.8077C69.7405 23.6035 70.0728 23.6035 70.2736 23.8077L70.8552 24.3859H70.8586Z" fill="white"/>
<path d="M81.5379 24.3859C81.7421 24.5901 81.7421 24.919 81.5379 25.1233L80.9563 25.7049C80.752 25.9091 80.4231 25.9091 80.2189 25.7049L79.6372 25.1233C79.433 24.919 79.4365 24.5901 79.6372 24.3859L80.2154 23.8077C80.4197 23.6035 80.752 23.6035 80.9528 23.8077L81.5344 24.3859H81.5379Z" fill="white"/>
<path d="M71.7066 29.2498C71.7066 28.5574 71.6962 27.8927 71.575 27.3734C71.3881 26.5391 70.398 26.5772 70.398 26.5772H68.7432C69.3248 27.2003 69.2521 28.1073 69.2521 29.2532V35.6405H71.7066V29.2532" fill="white"/>
<path d="M82.4488 29.2498C82.4488 28.5574 82.4384 27.8927 82.3172 27.3734C82.1303 26.5391 81.1402 26.5772 81.1402 26.5772H79.4854C80.067 27.2003 79.9942 28.1073 79.9942 29.2532V35.6405H82.4488V29.2532" fill="white"/>
<path d="M106.548 35.6373C105.966 35.0106 106.039 34.1036 106.039 32.9646V26.5739H103.584V32.9646C103.584 33.3558 103.588 33.7401 103.612 34.0967C102.733 33.8267 102.182 33.3697 102.182 32.1719V29.2396C102.182 28.5403 102.172 27.8721 102.047 27.3494C101.801 26.5428 100.645 26.5635 100.645 26.5635H99.2188C99.8038 27.1901 99.7276 28.0937 99.7276 29.2396V32.2203C99.7276 34.0136 100.548 34.9726 101.421 35.5369C101.829 35.793 102.151 35.5369 102.151 35.5369L103.615 34.159C103.667 34.8064 103.795 35.343 104.124 35.6407H106.548V35.6373Z" fill="white"/>
<path d="M98.1861 33.5464V28.9766C98.1861 27.8342 97.8711 26.491 95.6104 26.491C94.9319 26.491 93.5333 26.7575 92.647 27.5538V29.5202C93.6406 28.7966 94.1426 28.7205 94.783 28.7205C95.7281 28.7205 95.6347 30.1537 95.6347 30.1537C94.3538 30.3787 91.7988 31.1611 91.7988 33.5464C91.7988 34.5573 92.4774 35.2116 92.9344 35.537C93.374 35.8105 93.7583 35.5301 93.7583 35.5301L95.6624 34.3669C95.7524 35.2358 96.2405 35.6374 96.2405 35.6374H98.7435C98.2 34.8896 98.1896 34.2111 98.1896 33.5464M94.236 32.6705C94.236 31.8674 95.0323 31.3758 95.6381 31.3134C95.6381 31.4173 95.6416 33.8372 95.6416 34.0864C95.6416 34.1141 95.6416 34.1384 95.6416 34.1626C95.2054 33.9791 94.2326 33.4702 94.2326 32.6671" fill="white"/>
<path d="M67.2823 32.9752V29.9944C67.2823 28.5508 66.7527 27.6472 66.0914 27.0553C65.2467 26.1552 64.4435 27.0691 64.4435 27.0691L63.3807 28.0661V25.7086C63.3807 25.0993 63.3738 24.5142 63.3011 24.0261C63.1626 22.9494 61.9752 23.0325 61.9752 23.0325H60.5073C60.9989 23.6556 60.9227 24.5661 60.9227 25.7086V35.6339H63.3772V28.1077C64.267 28.3812 64.8243 28.8312 64.8243 30.0429V32.9752C64.8243 34.1176 64.852 35.1873 65.3678 35.6512H67.7877C67.2061 35.0246 67.2788 34.1176 67.2788 32.9752" fill="white"/>
<path d="M90.4841 32.9753V29.9945C90.4841 28.5474 89.951 27.6439 89.2863 27.0519C88.4797 26.3041 87.6315 27.0796 87.6315 27.0796L86.5929 28.0524C86.5721 27.7927 86.5409 27.5504 86.4856 27.3358C86.3021 26.543 85.0766 26.5741 85.0766 26.5741H83.6606C84.2422 27.1973 84.1695 28.1043 84.1695 29.2502V35.6375H86.624V29.2502C86.624 28.8556 86.6241 28.4713 86.5964 28.1147C87.4722 28.3882 88.0261 28.8417 88.0261 30.043V32.9753C88.0261 34.1177 88.0538 35.1874 88.5662 35.6513H90.9895C90.4045 35.0247 90.4806 34.1177 90.4806 32.9753" fill="white"/>
<path d="M60.4654 23.8045L58.1494 25.6844C56.8546 25.8055 55.7606 24.4381 54.8605 24.6285V31.8466C54.8605 33.0721 56.6019 34.308 60.0188 33.6676L57.1316 35.9802C55.2725 35.9802 51.9248 35.2255 51.9248 31.5385V25.2897L55.2448 22.264C56.8788 22.0355 58.5821 23.5414 60.4619 23.808" fill="white"/>
<path d="M96.9331 24.033C96.2545 24.033 95.6971 24.3965 95.6971 24.3965L95.4202 24.6076L95.1432 24.3965C95.1432 24.3965 94.5859 24.033 93.9073 24.033H93.0557C93.0557 24.033 94.9148 25.4558 95.119 25.6012C95.3059 25.7224 95.4133 25.8401 95.7283 25.6012C96.0676 25.345 97.7916 24.033 97.7916 24.033H96.94H96.9331Z" fill="white"/>
<path d="M74.8846 37.0705C75.3138 36.842 75.5146 36.4958 75.6289 36.1288C75.2135 36.1288 74.7703 36.0492 74.4761 35.9419C74.5903 36.2085 74.6007 36.475 74.5661 36.7104C74.5315 36.9978 74.5591 37.0982 74.6353 37.1293C74.7184 37.157 74.8119 37.1086 74.8846 37.0705Z" fill="white"/>
<path d="M76.9134 30.0049C75.314 28.9213 74.8362 28.6305 74.6112 28.2497C74.5143 28.08 74.6008 28.0039 74.7185 28.0039C75.539 28.0039 76.2487 28.9525 77.1523 28.9421L78.5301 27.2423C77.1453 27.1799 76.1206 26.0479 74.999 26.4114L73.0464 28.6305C72.9114 28.8105 72.7695 29.1602 72.7522 29.4787C72.7245 29.9633 73.1156 30.9742 74.5108 31.8639C75.9544 32.7883 76.3145 33.498 76.4876 33.9965C76.5395 34.1557 76.4287 34.3427 76.2348 34.2734C75.3936 34.0034 74.6112 32.9544 74.3689 32.3659L72.6206 34.4015C74.3862 36.0079 75.7779 35.8486 76.2279 35.7309L78.7447 32.9475C78.6547 32.1928 78.2878 30.9327 76.9238 30.0049H76.9134Z" fill="white"/>
<path d="M99.344 24.2234C99.344 24.1923 99.344 24.1611 99.3406 24.1334C99.3406 24.1057 99.3337 24.0745 99.3267 24.0468C99.3198 24.0226 99.3094 23.9984 99.2921 23.9811C99.2748 23.9638 99.254 23.9499 99.2263 23.943C99.209 23.9395 99.1917 23.9361 99.1709 23.9326C99.1536 23.9326 99.1328 23.9291 99.119 23.9257C99.1086 23.9257 99.1017 23.9222 99.0982 23.9153C99.0913 23.9084 99.0913 23.9014 99.0913 23.8911C99.0913 23.8807 99.0913 23.8738 99.0982 23.8668C99.0982 23.8599 99.1086 23.8564 99.119 23.8564C99.1709 23.8564 99.2194 23.8564 99.2609 23.8599C99.3059 23.8634 99.351 23.8668 99.4098 23.8668C99.4341 23.8668 99.4617 23.8668 99.4894 23.8668C99.5171 23.8668 99.5483 23.8668 99.5795 23.8634C99.6106 23.8634 99.6383 23.8634 99.6695 23.8634C99.6972 23.8634 99.7214 23.8634 99.7491 23.8634C99.8114 23.8634 99.8737 23.8703 99.9395 23.8772C100.005 23.8841 100.071 23.9014 100.126 23.9291C100.185 23.9534 100.23 23.988 100.268 24.033C100.306 24.078 100.324 24.1369 100.324 24.2061C100.324 24.2511 100.317 24.2892 100.3 24.3203C100.286 24.3515 100.265 24.3792 100.241 24.4034C100.216 24.4311 100.185 24.4484 100.151 24.4657C100.116 24.483 100.078 24.4969 100.043 24.5107C100.029 24.5142 100.026 24.5211 100.026 24.5281C100.026 24.535 100.033 24.5419 100.043 24.5419C100.102 24.5592 100.158 24.58 100.206 24.6008C100.255 24.6215 100.296 24.6458 100.327 24.6769C100.358 24.7081 100.383 24.7427 100.403 24.7842C100.421 24.8223 100.431 24.8708 100.431 24.9262C100.431 25.0023 100.417 25.0612 100.386 25.1097C100.358 25.1547 100.32 25.1962 100.272 25.2204C100.223 25.2481 100.168 25.2689 100.106 25.2793C100.043 25.2897 99.981 25.2966 99.9153 25.2966C99.8841 25.2966 99.8529 25.2966 99.8148 25.2966C99.7768 25.2966 99.7387 25.2966 99.7006 25.2966C99.6625 25.2966 99.6245 25.2966 99.5829 25.2966C99.5448 25.2966 99.5067 25.2966 99.4721 25.2966C99.441 25.2966 99.4098 25.2966 99.3821 25.2966C99.3579 25.2966 99.3302 25.2966 99.3094 25.2966C99.2852 25.2966 99.2575 25.2966 99.2333 25.3001C99.2056 25.3001 99.1779 25.3035 99.1432 25.307C99.1329 25.307 99.1225 25.307 99.119 25.2966C99.1121 25.2897 99.1086 25.2828 99.1086 25.2724C99.1086 25.2655 99.1086 25.2551 99.1155 25.2481C99.1224 25.2378 99.1294 25.2343 99.1432 25.2308C99.1813 25.2308 99.2125 25.2204 99.2402 25.2135C99.2679 25.2066 99.2886 25.1962 99.3094 25.1789C99.3267 25.165 99.3371 25.1477 99.344 25.1235C99.3509 25.1027 99.3579 25.0716 99.3579 25.0335V24.2165L99.344 24.2234ZM99.6002 24.4484C99.6002 24.4484 99.6037 24.4761 99.6141 24.4865C99.621 24.4969 99.6348 24.5038 99.6591 24.5038H99.7041C99.756 24.5038 99.8045 24.5004 99.846 24.4934C99.891 24.4865 99.9256 24.4692 99.9568 24.4519C99.9879 24.4311 100.012 24.4 100.029 24.3653C100.047 24.3273 100.057 24.2823 100.057 24.2234C100.057 24.1265 100.029 24.0538 99.9775 24.0122C99.9222 23.9707 99.846 23.9499 99.7456 23.9499H99.666C99.6348 23.9499 99.6175 23.9568 99.6141 23.9707C99.6071 23.9845 99.6037 24.0122 99.6037 24.0468V24.4519L99.6002 24.4484ZM99.6002 24.8743C99.6002 24.9539 99.6002 25.0127 99.6106 25.0577C99.6141 25.1027 99.6279 25.1374 99.6452 25.1581C99.6625 25.1789 99.6902 25.1962 99.7248 25.1997C99.7594 25.2031 99.8079 25.2066 99.8668 25.2066C99.9603 25.2066 100.029 25.1824 100.071 25.1374C100.113 25.0889 100.133 25.0196 100.133 24.9227C100.133 24.8535 100.123 24.7981 100.102 24.7531C100.081 24.7081 100.05 24.6769 100.016 24.6527C99.9776 24.6285 99.936 24.6111 99.8841 24.6008C99.8322 24.5904 99.7802 24.5869 99.7248 24.5869H99.6798C99.6487 24.5869 99.6279 24.5973 99.6175 24.6146C99.6071 24.6319 99.6002 24.6561 99.6002 24.6838V24.8708V24.8743Z" fill="#F2AF43"/>
<path d="M102.231 23.8636C102.231 23.8636 102.255 23.8636 102.269 23.8671C102.279 23.8705 102.283 23.8809 102.283 23.9017C102.283 23.919 102.279 23.9363 102.279 23.9536V24.0125C102.279 24.0782 102.279 24.1371 102.286 24.1925C102.286 24.1994 102.286 24.2029 102.276 24.2063C102.269 24.2063 102.262 24.2133 102.252 24.2133C102.241 24.2133 102.234 24.2133 102.227 24.2133C102.217 24.2133 102.214 24.2063 102.21 24.196C102.2 24.1406 102.189 24.099 102.179 24.0644C102.169 24.0332 102.151 24.009 102.134 23.9952C102.113 23.9779 102.085 23.9675 102.054 23.9675C102.02 23.964 101.978 23.9571 101.923 23.9571H101.781C101.743 23.9571 101.708 23.9571 101.684 23.9571C101.66 23.9571 101.639 23.9675 101.625 23.9744C101.611 23.9848 101.601 23.9986 101.597 24.0159C101.594 24.0332 101.59 24.0644 101.59 24.1025V24.4729C101.59 24.4937 101.594 24.5041 101.604 24.511C101.611 24.5179 101.618 24.5179 101.628 24.5179C101.701 24.5179 101.757 24.5179 101.798 24.511C101.84 24.5041 101.871 24.4937 101.892 24.4798C101.912 24.466 101.926 24.4452 101.933 24.421C101.94 24.3967 101.947 24.3656 101.95 24.3275C101.95 24.3206 101.957 24.3137 101.964 24.3102C101.971 24.3067 101.982 24.3033 101.989 24.3033C101.999 24.3033 102.006 24.3033 102.016 24.3102C102.023 24.3137 102.03 24.3206 102.03 24.3275C102.03 24.3517 102.03 24.3725 102.03 24.3864L102.023 24.4418C102.023 24.4591 102.023 24.4764 102.02 24.4937C102.02 24.5145 102.02 24.5352 102.02 24.5595C102.02 24.6045 102.02 24.6425 102.027 24.6772C102.034 24.7118 102.034 24.7568 102.034 24.8053C102.034 24.8122 102.03 24.8191 102.02 24.8226C102.013 24.8226 102.002 24.8226 101.992 24.8226C101.982 24.8226 101.975 24.8226 101.968 24.8156C101.961 24.8156 101.954 24.8053 101.954 24.7983C101.95 24.7568 101.944 24.7222 101.937 24.6979C101.93 24.6702 101.916 24.6529 101.895 24.6391C101.874 24.6252 101.843 24.6183 101.802 24.6114C101.76 24.6045 101.705 24.6045 101.632 24.6045C101.625 24.6045 101.618 24.6045 101.608 24.6114C101.601 24.6149 101.594 24.6287 101.594 24.6425V24.9195C101.594 24.968 101.597 25.0026 101.604 25.0372C101.611 25.0684 101.622 25.0961 101.635 25.1168C101.649 25.1411 101.667 25.1515 101.687 25.1653C101.708 25.1791 101.732 25.1861 101.76 25.193C101.781 25.193 101.805 25.1999 101.836 25.1999C101.864 25.1999 101.892 25.1999 101.923 25.1999C101.961 25.1999 101.995 25.1999 102.027 25.1999C102.061 25.1999 102.085 25.193 102.103 25.1861C102.134 25.1791 102.162 25.1653 102.182 25.1549C102.207 25.1445 102.224 25.1272 102.241 25.1099C102.255 25.0926 102.269 25.0684 102.279 25.0407C102.29 25.013 102.297 24.9784 102.304 24.9368C102.304 24.9264 102.31 24.923 102.321 24.9195C102.331 24.9195 102.342 24.9195 102.352 24.9195C102.362 24.9195 102.373 24.9195 102.38 24.9264C102.39 24.9299 102.394 24.9368 102.39 24.9437C102.383 25.0026 102.376 25.0614 102.369 25.1134C102.362 25.1618 102.359 25.2138 102.362 25.2692C102.362 25.2726 102.362 25.2795 102.352 25.2865C102.345 25.2968 102.331 25.3003 102.307 25.3003H101.455C101.397 25.3003 101.338 25.3003 101.282 25.3003C101.223 25.3003 101.175 25.3072 101.127 25.3107C101.113 25.3107 101.106 25.3107 101.099 25.3003C101.092 25.2934 101.088 25.2865 101.088 25.2761C101.088 25.2657 101.088 25.2588 101.095 25.2518C101.102 25.2415 101.113 25.238 101.127 25.238C101.165 25.238 101.196 25.2276 101.223 25.2207C101.251 25.2138 101.272 25.2034 101.289 25.1861C101.307 25.1722 101.32 25.1514 101.327 25.1307C101.334 25.1064 101.341 25.0787 101.341 25.0441V24.2237C101.341 24.1925 101.341 24.1613 101.338 24.1336C101.338 24.1025 101.331 24.0748 101.324 24.0471C101.317 24.0229 101.303 23.9986 101.286 23.9813C101.268 23.964 101.248 23.9502 101.22 23.9432C101.203 23.9398 101.185 23.9363 101.165 23.9329C101.147 23.9329 101.13 23.9259 101.113 23.9259C101.102 23.9259 101.095 23.9225 101.092 23.9155C101.085 23.9086 101.085 23.8982 101.085 23.8913C101.085 23.8844 101.085 23.8775 101.092 23.8705C101.092 23.8636 101.102 23.8567 101.113 23.8567C101.165 23.8567 101.213 23.8567 101.255 23.8636C101.296 23.8636 101.348 23.8671 101.403 23.8671H102.241L102.231 23.8636Z" fill="#F2AF43"/>
<path d="M103.263 24.2237C103.263 24.1925 103.263 24.1613 103.263 24.1336C103.263 24.1059 103.256 24.0748 103.245 24.0471C103.238 24.0229 103.228 23.9986 103.211 23.9813C103.193 23.964 103.173 23.9502 103.141 23.9432C103.124 23.9398 103.107 23.9363 103.086 23.9329C103.069 23.9329 103.051 23.9294 103.034 23.9259C103.024 23.9259 103.017 23.9225 103.013 23.9155C103.006 23.9086 103.006 23.9017 103.006 23.8913C103.006 23.8809 103.006 23.874 103.013 23.8671C103.017 23.8602 103.024 23.8567 103.034 23.8567C103.086 23.8567 103.134 23.8567 103.176 23.8601C103.218 23.8636 103.266 23.8671 103.321 23.8671C103.415 23.8671 103.495 23.8636 103.553 23.8601C103.616 23.8601 103.675 23.8567 103.73 23.8567C103.792 23.8567 103.855 23.8671 103.913 23.8775C103.976 23.8913 104.028 23.9121 104.076 23.9432C104.125 23.9744 104.163 24.0125 104.19 24.0609C104.222 24.1094 104.235 24.1683 104.235 24.2375C104.235 24.2929 104.228 24.3379 104.208 24.376C104.19 24.4175 104.166 24.4521 104.135 24.4798C104.104 24.5075 104.066 24.5318 104.024 24.5491C103.983 24.5664 103.934 24.5802 103.886 24.5906C103.872 24.5906 103.868 24.5975 103.868 24.6045C103.868 24.6114 103.872 24.6148 103.886 24.6218C103.958 24.6529 104.014 24.691 104.055 24.7291C104.093 24.7706 104.125 24.8122 104.145 24.8537C104.166 24.8987 104.183 24.9437 104.19 24.9887C104.201 25.0337 104.208 25.0753 104.221 25.1203C104.228 25.1515 104.242 25.1757 104.26 25.1895C104.277 25.2068 104.298 25.2138 104.315 25.2138C104.336 25.2138 104.353 25.2068 104.37 25.193C104.388 25.1791 104.402 25.1584 104.412 25.1307C104.412 25.1168 104.419 25.1099 104.429 25.1064C104.44 25.1064 104.447 25.103 104.457 25.1064C104.467 25.1064 104.474 25.1134 104.481 25.1203C104.488 25.1272 104.492 25.1341 104.488 25.1411C104.485 25.1757 104.471 25.2068 104.457 25.2311C104.44 25.2588 104.419 25.2795 104.395 25.2934C104.37 25.3107 104.343 25.3211 104.312 25.3315C104.28 25.3384 104.253 25.3419 104.221 25.3419C104.173 25.3419 104.128 25.3315 104.087 25.3142C104.045 25.2934 104.021 25.2657 104.003 25.2276C103.993 25.2068 103.986 25.1791 103.976 25.1514C103.969 25.1203 103.958 25.0926 103.951 25.0649C103.945 25.0372 103.934 25.0061 103.927 24.9818C103.92 24.9507 103.913 24.9264 103.906 24.9057C103.879 24.8156 103.841 24.7499 103.796 24.7083C103.751 24.6702 103.688 24.6495 103.609 24.6495C103.581 24.6495 103.56 24.6564 103.543 24.6633C103.522 24.6737 103.515 24.6945 103.515 24.7222V25.0095C103.515 25.058 103.519 25.0995 103.533 25.1272C103.543 25.1549 103.56 25.1757 103.581 25.193C103.602 25.2103 103.63 25.2207 103.661 25.2276C103.692 25.2345 103.73 25.2415 103.771 25.2415C103.782 25.2415 103.789 25.2449 103.796 25.2553C103.803 25.2657 103.806 25.2726 103.806 25.283C103.806 25.2899 103.806 25.3003 103.796 25.3072C103.789 25.3142 103.782 25.3176 103.771 25.3176C103.692 25.3176 103.623 25.3176 103.564 25.3072C103.505 25.3038 103.446 25.3003 103.391 25.3003C103.332 25.3003 103.273 25.3003 103.214 25.3072C103.155 25.3142 103.1 25.3176 103.044 25.3176C103.034 25.3176 103.031 25.3176 103.024 25.3072C103.02 25.3003 103.017 25.2934 103.017 25.283C103.017 25.2726 103.017 25.2657 103.024 25.2588C103.027 25.2484 103.038 25.2449 103.048 25.2449C103.093 25.2449 103.128 25.2345 103.155 25.2276C103.183 25.2207 103.207 25.2103 103.221 25.193C103.235 25.1791 103.249 25.1584 103.252 25.1341C103.259 25.1064 103.259 25.0718 103.259 25.0303V24.2306L103.263 24.2237ZM103.519 24.4764C103.519 24.5144 103.529 24.5352 103.553 24.5421C103.574 24.5491 103.609 24.5525 103.654 24.5525C103.713 24.5525 103.765 24.5456 103.806 24.5387C103.848 24.5283 103.879 24.5075 103.906 24.4868C103.931 24.4625 103.948 24.4314 103.958 24.3898C103.969 24.3517 103.976 24.3033 103.976 24.2479C103.976 24.1925 103.969 24.1475 103.958 24.1129C103.948 24.0748 103.931 24.0436 103.906 24.0194C103.882 23.9952 103.851 23.9779 103.813 23.9709C103.775 23.9605 103.726 23.9571 103.671 23.9571C103.609 23.9571 103.571 23.964 103.55 23.9778C103.529 23.9917 103.519 24.0194 103.519 24.0644V24.4833V24.4764Z" fill="#F2AF43"/>
<path d="M106.213 23.8636C106.213 23.8636 106.237 23.8636 106.251 23.8671C106.261 23.8705 106.268 23.8809 106.265 23.9017C106.265 23.919 106.261 23.9363 106.261 23.9536V24.0125C106.261 24.0782 106.261 24.1371 106.268 24.1925C106.268 24.1994 106.268 24.2029 106.258 24.2063C106.251 24.2063 106.24 24.2133 106.233 24.2133C106.223 24.2133 106.213 24.2133 106.206 24.2133C106.195 24.2133 106.192 24.2063 106.188 24.196C106.178 24.1406 106.168 24.099 106.157 24.0644C106.147 24.0332 106.133 24.009 106.112 23.9952C106.091 23.9779 106.067 23.9675 106.033 23.9675C105.998 23.964 105.956 23.9571 105.901 23.9571H105.759C105.721 23.9571 105.686 23.9571 105.662 23.9571C105.638 23.9571 105.617 23.9675 105.603 23.9744C105.589 23.9848 105.579 23.9986 105.576 24.0159C105.572 24.0332 105.569 24.0644 105.569 24.1025V24.4729C105.569 24.4937 105.569 24.5041 105.583 24.511C105.59 24.5179 105.596 24.5179 105.607 24.5179C105.679 24.5179 105.735 24.5179 105.776 24.511C105.818 24.5041 105.849 24.4937 105.87 24.4798C105.891 24.466 105.905 24.4452 105.911 24.421C105.918 24.3967 105.925 24.3656 105.929 24.3275C105.929 24.3206 105.936 24.3137 105.943 24.3102C105.95 24.3067 105.96 24.3033 105.967 24.3033C105.977 24.3033 105.984 24.3033 105.995 24.3102C106.001 24.3137 106.008 24.3206 106.008 24.3275C106.008 24.3517 106.008 24.3725 106.008 24.3864C106.008 24.4037 106.008 24.4244 106.005 24.4418C106.005 24.4591 106.001 24.4764 106.001 24.4937C106.001 24.5145 106.001 24.5352 106.001 24.5595C106.001 24.6045 106.001 24.6425 106.008 24.6772C106.012 24.7118 106.015 24.7568 106.015 24.8053C106.015 24.8122 106.012 24.8191 106.001 24.8226C105.995 24.8226 105.984 24.8226 105.974 24.8226C105.967 24.8226 105.956 24.8226 105.95 24.8156C105.943 24.8156 105.936 24.8053 105.936 24.7983C105.932 24.7568 105.925 24.7222 105.918 24.6979C105.911 24.6702 105.898 24.6529 105.877 24.6391C105.856 24.6252 105.825 24.6183 105.783 24.6114C105.742 24.6045 105.686 24.6045 105.614 24.6045C105.607 24.6045 105.596 24.6045 105.59 24.6114C105.579 24.6149 105.576 24.6287 105.576 24.6425V24.9195C105.576 24.968 105.576 25.0026 105.586 25.0372C105.593 25.0684 105.603 25.0961 105.617 25.1168C105.631 25.1411 105.648 25.1515 105.669 25.1653C105.69 25.1791 105.714 25.1861 105.742 25.193C105.763 25.193 105.787 25.1999 105.815 25.1999C105.842 25.1999 105.87 25.1999 105.901 25.1999C105.939 25.1999 105.974 25.1999 106.008 25.1999C106.04 25.1999 106.067 25.193 106.085 25.1861C106.116 25.1791 106.143 25.1653 106.164 25.1549C106.188 25.1445 106.206 25.1272 106.223 25.1099C106.24 25.0926 106.251 25.0684 106.261 25.0407C106.271 25.013 106.278 24.9784 106.285 24.9368C106.285 24.9264 106.292 24.923 106.303 24.9195C106.31 24.9195 106.32 24.9195 106.334 24.9195C106.344 24.9195 106.355 24.9195 106.365 24.9264C106.372 24.9299 106.375 24.9368 106.375 24.9437C106.368 25.0026 106.358 25.0614 106.355 25.1134C106.348 25.1618 106.348 25.2138 106.348 25.2692C106.348 25.2726 106.348 25.2795 106.337 25.2865C106.33 25.2968 106.317 25.3003 106.292 25.3003H105.441C105.382 25.3003 105.323 25.3003 105.268 25.3003C105.209 25.3003 105.16 25.3072 105.115 25.3107C105.105 25.3107 105.094 25.3107 105.088 25.3003C105.081 25.2934 105.077 25.2865 105.077 25.2761C105.077 25.2657 105.077 25.2588 105.084 25.2518C105.091 25.2415 105.101 25.238 105.115 25.238C105.153 25.238 105.184 25.2276 105.212 25.2207C105.24 25.2138 105.261 25.2034 105.278 25.1861C105.295 25.1722 105.309 25.1514 105.316 25.1307C105.326 25.1064 105.33 25.0787 105.33 25.0441V24.2237C105.33 24.1925 105.33 24.1613 105.33 24.1336C105.33 24.1025 105.323 24.0748 105.316 24.0471C105.309 24.0229 105.295 23.9986 105.281 23.9813C105.264 23.964 105.243 23.9502 105.212 23.9432C105.195 23.9398 105.178 23.9363 105.157 23.9329C105.139 23.9329 105.119 23.9259 105.105 23.9259C105.094 23.9259 105.087 23.9225 105.084 23.9155C105.077 23.9086 105.077 23.8982 105.077 23.8913C105.077 23.8844 105.077 23.8775 105.084 23.8705C105.087 23.8636 105.094 23.8567 105.105 23.8567C105.157 23.8567 105.205 23.8567 105.247 23.8636C105.288 23.8636 105.337 23.8671 105.396 23.8671H106.237L106.213 23.8636Z" fill="#F2AF43"/>
<path d="M21.7655 25.8711C21.6581 25.8088 21.5473 25.7465 21.44 25.6842C21.2946 25.1891 21.1527 24.6975 21.0107 24.2094C21.2981 24.1263 21.9039 23.9705 22.1567 23.9013C22.219 24.147 22.2813 24.3894 22.347 24.6352C22.5098 24.5936 22.7175 24.5486 22.9079 24.5002C22.849 24.2509 22.7902 24.0017 22.7314 23.7559C23.0222 23.6832 23.5726 23.5551 23.8738 23.4858C23.9292 23.7385 23.9811 23.9913 24.0365 24.244C24.2511 24.1955 24.4831 24.1505 24.5973 24.1263C24.5454 23.8701 24.4969 23.6139 24.445 23.3577C24.6077 23.3197 25.2066 23.195 25.584 23.1223C25.674 23.6416 25.764 24.1644 25.8574 24.6837C25.7847 24.7979 25.712 24.9121 25.6393 25.0264C24.9331 25.151 23.8496 25.3726 23.1191 25.5387C23.126 25.5664 23.1329 25.5976 23.1398 25.6253C23.988 25.5007 24.8327 25.376 25.6774 25.2479C25.802 25.9196 25.9267 26.5912 26.0548 27.2628C26.1137 27.2524 26.1725 27.242 26.2383 27.2316C26.2036 27.0343 26.1656 26.837 26.131 26.6396C26.5118 26.5739 26.8649 26.5219 27.1869 26.47C27.218 26.6673 27.2491 26.8681 27.2803 27.0655C27.3391 27.0551 27.398 27.0481 27.4569 27.0412C27.3392 26.2865 27.2249 25.5318 27.1107 24.7771C27.0068 24.6871 26.903 24.6006 26.7991 24.5106C26.7195 23.9843 26.6364 23.4616 26.5568 22.9354C26.8337 22.8869 27.4569 22.79 27.6992 22.7519C27.7338 23.0219 27.7684 23.2885 27.8031 23.5585C27.9138 23.5447 28.1527 23.5135 28.3639 23.4858C28.3327 23.2158 28.3016 22.9458 28.2704 22.6757C28.5266 22.6377 29.1255 22.5684 29.4094 22.5338C29.4336 22.8073 29.4613 23.0808 29.4855 23.3543C29.6933 23.33 29.946 23.3127 30.0464 23.2989C30.0221 23.0254 30.0014 22.7519 29.9772 22.4749C30.0222 22.468 30.5899 22.4161 31.1127 22.378C31.1473 22.9215 31.1785 23.4616 31.2131 24.0051C31.13 24.1194 31.0469 24.2336 30.9603 24.3478C30.3303 24.379 28.6997 24.559 28.4401 24.5902C28.4435 24.6213 28.447 24.6525 28.4504 24.6802C29.2917 24.6421 30.1329 24.6075 30.9742 24.5729C31.0227 25.2653 31.0677 25.9576 31.1196 26.6535C31.1785 26.6466 31.2407 26.6431 31.3065 26.6396C31.2927 26.4388 31.2788 26.2346 31.2684 26.0338C31.3862 26.0234 32.0439 25.9853 32.3244 25.9784C32.3313 26.1827 32.3416 26.3835 32.3486 26.5877C32.4109 26.5877 32.4732 26.5808 32.5321 26.5808C32.5009 25.8088 32.4697 25.0333 32.442 24.2613C32.3451 24.1574 32.2517 24.0536 32.1547 23.9497C32.1305 23.4062 32.1097 22.8592 32.0889 22.3157C32.6117 22.288 33.176 22.2741 33.221 22.2741C33.2279 22.5546 33.2314 22.8315 33.2383 23.1119C33.3422 23.1119 33.633 23.1015 33.7991 23.1015C33.7991 22.8211 33.7922 22.5442 33.7922 22.2638C34.1038 22.2568 34.6992 22.2603 34.9277 22.2638C34.9277 22.5442 34.9208 22.8211 34.9173 23.1015C35.1285 23.1015 35.3985 23.1085 35.4782 23.1119C35.4851 22.8315 35.492 22.5546 35.4955 22.2741C35.7274 22.2741 36.354 22.3053 36.6275 22.3192C36.6033 22.8627 36.5825 23.4062 36.5583 23.9532C36.4648 24.057 36.3748 24.1644 36.2813 24.2682C35.5751 24.2336 34.495 24.2232 33.7611 24.2336C33.7611 24.2648 33.7611 24.2924 33.7611 24.3236C34.5954 24.379 35.4332 24.4378 36.271 24.4967C36.2433 25.1926 36.2155 25.8884 36.1913 26.5842C36.2502 26.5842 36.309 26.5877 36.3713 26.5912C36.3783 26.3869 36.3887 26.1861 36.3956 25.9819C36.676 25.9923 37.3338 26.0269 37.4549 26.0373C37.4411 26.2381 37.4272 26.4423 37.4134 26.6431C37.4792 26.6466 37.5415 26.65 37.5969 26.6535C37.6488 25.8884 37.7042 25.1233 37.7561 24.3582C37.673 24.2405 37.5899 24.1228 37.5069 24.0051C37.5415 23.4616 37.5726 22.9215 37.6073 22.378C38.13 22.4161 38.6977 22.468 38.7462 22.4749C38.722 22.7484 38.7012 23.0219 38.677 23.2989C38.7809 23.3127 39.0301 23.33 39.2378 23.3543C39.2621 23.0808 39.2897 22.8073 39.314 22.5338C39.6013 22.565 40.1968 22.6377 40.453 22.6757C40.4218 22.9458 40.3906 23.2158 40.3595 23.4858C40.5707 23.5135 40.8095 23.5447 40.9203 23.5585C40.9549 23.2885 40.9896 23.0219 41.0242 22.7519C41.2665 22.7865 41.8931 22.8834 42.1666 22.9354C42.087 23.4581 42.0074 23.9843 41.9243 24.5106C41.8204 24.6006 41.7166 24.6871 41.6127 24.7771C40.9307 24.6733 39.7814 24.5244 39.0821 24.4586C39.0821 24.4898 39.0751 24.5175 39.0717 24.5486C39.906 24.701 40.7403 24.8498 41.5781 24.9987C41.4777 25.6772 41.3738 26.3592 41.2665 27.0378C41.3254 27.0447 41.3808 27.0551 41.4431 27.0655C41.4742 26.8647 41.5089 26.6673 41.54 26.4665C41.8654 26.515 42.2185 26.5669 42.5959 26.6362C42.5613 26.8335 42.5232 27.0308 42.4886 27.2282C42.5544 27.2386 42.6167 27.2489 42.6755 27.2593C42.814 26.5219 42.9525 25.7845 43.084 25.0506C43.0113 24.926 42.9421 24.8014 42.8694 24.6767C42.9629 24.154 43.0529 23.6347 43.1429 23.1154C43.5202 23.1881 44.1157 23.3127 44.2819 23.3508C44.23 23.607 44.1815 23.8632 44.1295 24.1194C44.2438 24.1436 44.4757 24.1851 44.6904 24.2371C44.7458 23.9843 44.7977 23.7316 44.8531 23.4789C45.1508 23.5481 45.7047 23.6728 45.9955 23.7489C45.9367 23.9982 45.8778 24.2475 45.819 24.4932C46.0094 24.5417 46.2171 24.5867 46.3798 24.6283C46.4421 24.3825 46.5079 24.1367 46.5702 23.8943C46.8195 23.9601 47.4253 24.1194 47.7126 24.2024C47.5707 24.6906 47.4288 25.1822 47.2834 25.6772C47.176 25.7395 47.0687 25.8019 46.9614 25.8642C46.276 25.6841 45.0227 25.4072 44.4169 25.286C44.4099 25.3137 44.403 25.3414 44.3961 25.3726C45.227 25.6114 46.0613 25.8469 46.8956 26.0788L43.6414 35.568C37.3372 34.339 31.0642 34.4048 25.1028 35.5818L21.7516 25.8711H21.7655Z" fill="#F2AF43"/>
</svg>
