<svg width="157" height="154" viewBox="0 0 157 154" fill="none" xmlns="http://www.w3.org/2000/svg">
<path d="M71.8063 103.003C71.7839 101.174 70.8112 100.331 68.9814 100.32C66.067 100.298 63.1489 100.305 60.2345 100.316C58.0431 100.324 57.1897 101.196 57.1748 103.436C57.1598 105.691 57.171 107.945 57.171 110.2C57.1748 112.619 57.1412 115.041 57.1822 117.46C57.2157 119.178 58.1288 120.106 59.8469 120.132C62.9253 120.177 66.0073 120.173 69.0857 120.136C70.841 120.117 71.7802 119.279 71.8026 117.519C71.8659 112.682 71.8659 107.841 71.8063 103.003ZM66.6931 115.071H62.2954V105.355H66.6931V115.071Z" fill="white"/>
<path d="M50.9652 103.235C50.9503 101.181 50.0671 100.328 48.0546 100.317C45.1402 100.302 42.2295 100.302 39.3152 100.317C37.2803 100.328 36.397 101.2 36.3784 103.212C36.356 105.575 36.3747 107.938 36.3709 110.301C36.3709 112.611 36.3598 114.922 36.3784 117.229C36.3933 119.253 37.2505 120.121 39.2928 120.143C42.2034 120.169 45.1178 120.169 48.0322 120.143C50.0931 120.125 50.9503 119.305 50.9652 117.251C50.995 112.582 50.995 107.908 50.9652 103.235ZM45.8408 115.086H41.4357V105.396H45.8408V115.086Z" fill="white"/>
<path d="M30.1213 102.963C30.0915 101.226 29.1822 100.339 27.4567 100.321C24.4342 100.295 21.4117 100.298 18.3855 100.321C16.47 100.332 15.5904 101.223 15.583 103.157C15.5681 107.886 15.5681 112.612 15.583 117.337C15.5904 119.253 16.4588 120.121 18.4154 120.14C21.3856 120.17 24.3522 120.174 27.3225 120.14C29.2642 120.121 30.1027 119.264 30.1288 117.308C30.1586 114.945 30.1362 112.582 30.1362 110.219C30.1325 107.8 30.1661 105.382 30.1213 102.963ZM25.0491 115.071H20.6105V105.322H25.0491V115.071Z" fill="white"/>
<path d="M149.362 97.2584C148.421 95.6382 147.268 94.9043 145.402 95.0808C144.107 95.202 142.795 95.1016 141.466 95.1016C141.116 89.6802 140.773 84.4908 140.444 79.2979C140.209 75.5798 140.026 71.8547 139.755 68.1401C139.627 66.3883 138.596 65.5055 137.093 65.6613C135.726 65.7998 134.947 66.9215 135.058 68.5555C135.525 75.4309 135.992 82.3063 136.442 89.1817C136.571 91.1031 136.65 93.0244 136.757 94.9839H118.849C120.241 73.3814 121.622 51.9105 123.003 30.4708H132.575C132.648 31.0524 132.735 31.5509 132.766 32.0529C133.296 40.4619 133.818 48.8675 134.344 57.2731C134.448 58.914 135.376 59.873 136.789 59.828C138.205 59.783 139.063 58.7582 138.977 57.093C138.817 54.0327 138.606 50.9793 138.416 47.9224C138.066 42.2656 137.689 36.6122 137.401 30.952C137.377 30.4535 137.803 29.7369 138.236 29.446C140.957 27.6216 142.151 24.8071 141.365 21.7917C140.6 18.8595 138.097 16.8031 134.836 16.7338C130.138 16.6369 125.433 16.6196 120.736 16.7408C117.713 16.8204 115.46 18.3679 114.445 21.269C113.507 23.9416 113.853 26.7388 116.197 28.3417C118.285 29.768 118.544 31.3016 118.108 33.3927C118.08 33.5415 118.101 33.6973 118.094 33.8496C117.655 40.8843 117.222 47.9155 116.772 54.9466C116.194 64.0134 115.605 73.0802 115.013 82.147C114.736 86.4191 114.438 90.6911 114.148 95.0185H105.527V93.1387C105.524 82.9225 105.559 72.7029 105.503 62.4867C105.472 56.5426 101.612 51.7236 95.8167 50.2869C94.5046 49.9615 93.1371 49.8784 91.7108 49.6741C91.7108 47.0154 91.735 44.412 91.7039 41.8121C91.6866 40.2265 90.8246 39.3749 89.239 39.316C88.3458 39.2814 87.4492 39.3091 86.4798 39.3091V37.4085C86.4798 29.1829 86.4937 20.9574 86.4764 12.7318C86.4625 5.83221 81.6089 0.992419 74.7058 0.988958C60.0964 0.982034 45.4836 0.982034 30.8743 0.988958C23.9781 0.992419 19.1383 5.83913 19.1037 12.7422C19.0933 14.3139 19.1003 15.8822 19.1003 17.5993C18.1794 17.5993 17.4281 17.582 16.6734 17.6028C14.7278 17.6547 13.89 18.5029 13.8658 20.4243C13.8554 21.2413 13.8623 22.0583 13.8623 22.8753V28.1513C13.4019 28.1894 13.1977 28.2344 12.9969 28.2205C6.59575 27.8362 -0.047697 33.5865 -0.00615382 41.8467C0.160019 77.8092 0.0630785 113.775 0.0630785 149.741C0.0630785 152.365 0.703542 153.016 3.28268 153.016H145.817C148.372 153.016 149.03 152.341 149.03 149.724V112.886C150.803 112.886 152.381 112.813 153.949 112.906C155.327 112.986 156.324 112.519 157.006 111.335V109.801C154.448 105.626 151.827 101.485 149.362 97.2584ZM118.69 23.4431C118.752 22.2348 119.645 21.4801 121.123 21.4663C123.37 21.4421 125.617 21.4594 127.86 21.4594C130.104 21.4594 132.354 21.4594 134.601 21.4594C135.923 21.4559 136.751 22.0479 136.868 23.405C136.979 24.6859 136.169 25.6033 134.711 25.6206C130.117 25.676 125.523 25.676 120.93 25.6241C119.486 25.6068 118.627 24.6547 118.69 23.4431ZM93.5491 54.6351C97.1807 54.7008 100.213 57.7647 100.753 61.4101H100.826V62.1301C100.843 62.4175 100.843 62.7083 100.826 62.9991V68.0085H100.854V74.6173H100.826V79.5125H100.868V86.4814C100.868 86.4814 100.84 86.4814 100.826 86.4814V94.9977H81.2315V90.2584L75.9002 86.0902C75.644 85.969 75.3982 85.8305 75.1835 85.6748C72.9471 84.0753 70.8111 82.3375 68.6405 80.6446C68.2632 80.3503 67.917 80.011 67.3457 79.509H67.4877V61.4066H67.5535C68.0243 57.7543 71.0292 54.6974 74.7058 54.6316C80.9857 54.5139 87.2692 54.5139 93.5491 54.6316V54.6351ZM87.0545 44.0485V49.7191H81.3354V44.0485H87.0545ZM24.2551 10.1389C24.944 7.16505 27.6339 5.60372 31.0889 5.60025C44.6285 5.59333 58.1647 5.58988 71.7043 5.60718C73.3314 5.61065 74.9862 5.58987 76.5787 5.86336C79.3413 6.34111 81.2731 8.5152 81.6643 11.2709C81.737 11.7763 81.7993 12.2887 81.7993 12.7941C81.8062 21.224 81.8062 29.6538 81.8027 38.0836C81.8027 38.4298 81.7578 38.7794 81.7231 39.3091C80.8577 39.3091 80.0614 39.2987 79.2617 39.3126C77.375 39.3437 76.5025 40.2092 76.4714 42.1687C76.4333 44.4674 76.461 46.7661 76.4506 49.0648C76.4506 49.2622 76.3952 49.4595 76.3537 49.7087C75.0728 49.8784 73.7953 49.9372 72.5732 50.2315C66.6534 51.6647 62.731 56.6291 62.6514 62.7879C62.6029 66.5684 62.641 70.3488 62.641 74.1292V75.9883C57.4827 71.9932 52.6429 68.2474 47.8031 64.5016C46.5118 63.5011 45.1513 62.5733 43.9604 61.4655C43.4446 60.9877 42.9945 60.1465 42.9841 59.4679C42.9114 53.3888 42.9703 47.3096 42.9322 41.2305C42.8976 34.8155 38.7675 29.7403 32.5395 28.4386C31.5044 28.2205 30.4208 28.2344 29.126 28.1201V21.5944C29.126 18.1567 28.6067 17.6374 25.1309 17.5958C24.7778 17.5924 24.4247 17.5647 23.6769 17.5335C23.8466 15.0236 23.7081 12.4999 24.2551 10.1389ZM18.574 22.4322H24.2516V28.1201H18.574V22.4322ZM4.71938 69.7222H4.80246L4.79554 64.9793H4.72977V57.7612H4.78516L4.77824 52.9803H4.72977V46.3714H4.77131L4.76439 40.9604C4.74708 40.7043 4.74708 40.4481 4.76439 40.1884V40.1365C4.99634 36.6642 7.99783 33.0014 12.443 32.8941C18.4667 32.7522 24.5009 32.7764 30.5246 32.8907C34.9974 32.9738 38.3867 36.8823 38.0889 41.4763H38.0509L38.0647 46.3714H38.1028V52.9803H38.082L38.0959 58.3047C38.1132 58.6544 38.1201 58.9833 38.0959 59.2948V61.0881L4.81285 86.658V86.6095C4.79208 86.6268 4.77131 86.6406 4.75054 86.658V81.1154H4.80593L4.79901 76.4002H4.70553V69.7256L4.71938 69.7222ZM76.4229 146.407V148.294H55.8452C55.8452 146.958 55.8452 145.604 55.8417 144.254C55.8417 142.72 55.8867 141.187 55.8244 139.657C55.769 138.279 54.7374 137.358 53.4357 137.4C52.2102 137.438 51.2789 138.341 51.2512 139.677C51.2027 142.028 51.2339 144.379 51.2235 146.726C51.2201 147.259 51.1751 147.792 51.1474 148.329H30.1473V120.737H51.227C51.227 123.486 51.2131 126.131 51.2304 128.779C51.2408 130.635 52.0198 131.573 53.5084 131.577C54.9901 131.58 55.8313 130.597 55.8383 128.807C55.8521 125.435 55.8556 122.063 55.8383 118.691C55.8279 116.846 54.9659 115.967 53.1172 115.963C44.7912 115.946 36.4653 115.949 28.1393 115.96C26.1107 115.963 25.259 116.877 25.2556 119.044C25.2452 128.139 25.2521 137.23 25.2521 146.321V148.267H4.65707V146.646C4.65707 129.129 4.64669 111.608 4.69169 94.0873C4.69515 93.3845 5.01019 92.4221 5.52255 92.0205C16.9815 83.061 28.4925 74.1638 39.993 65.2563C40.1523 65.1351 40.3357 65.0451 40.6369 64.8582C43.4342 67.0149 46.2522 69.1821 49.0633 71.3597C57.7389 78.0827 66.4006 84.8266 75.1074 91.5081C76.1114 92.2801 76.4541 93.0625 76.4506 94.3088C76.4091 111.674 76.4229 129.042 76.4229 146.407ZM123.232 148.305H102.245V133.086H123.232V148.305ZM148.725 108.271C138.814 108.274 128.902 108.274 118.991 108.274C118.582 108.274 118.17 108.247 117.765 108.288C116.495 108.423 115.564 109.434 115.654 110.656C115.747 111.934 116.446 112.723 117.758 112.861C118.215 112.91 118.679 112.882 119.136 112.882C126.953 112.886 134.77 112.886 142.587 112.886H144.343V148.287H128.047V146.446C128.047 141.492 128.054 136.534 128.044 131.58C128.037 129.022 127.293 128.281 124.755 128.281C116.737 128.274 108.716 128.274 100.695 128.281C98.2296 128.281 97.5199 129.004 97.5165 131.476C97.5095 136.482 97.513 141.491 97.513 146.497V148.27H81.2592V112.886H83.0006C90.97 112.886 98.9393 112.889 106.909 112.882C108.889 112.879 109.834 112.11 109.82 110.559C109.81 109.039 108.83 108.274 106.857 108.274C98.8874 108.271 90.918 108.274 82.9487 108.274H81.2315V99.7544H82.966C103.246 99.7544 123.529 99.7648 143.809 99.7268C144.983 99.7233 145.665 100.052 146.24 101.077C147.559 103.424 149.002 105.699 150.508 108.195C149.788 108.226 149.255 108.271 148.725 108.271Z" fill="white"/>
<path d="M12.409 53.8618C12.3196 53.8097 12.2301 53.7575 12.1407 53.7053C12.0214 53.2954 11.9022 52.8891 11.7866 52.4829C12.0251 52.4121 12.5245 52.2854 12.7332 52.2295C12.7854 52.4307 12.8376 52.6357 12.8898 52.837C13.0239 52.8034 13.1954 52.7661 13.3556 52.7251C13.3072 52.5202 13.2587 52.3152 13.2103 52.1065C13.4488 52.0469 13.9035 51.9425 14.1532 51.8829C14.1979 52.0916 14.2426 52.3003 14.2873 52.509C14.4662 52.468 14.6563 52.4307 14.7532 52.4121C14.7122 52.1997 14.6675 51.9872 14.6265 51.7785C14.7606 51.7487 15.2563 51.6444 15.5694 51.5847C15.6439 52.0133 15.7184 52.4456 15.7967 52.8779C15.7371 52.9748 15.6774 53.068 15.6178 53.1612C15.0327 53.2618 14.1383 53.4482 13.5345 53.5823C13.5382 53.6047 13.5457 53.6308 13.5494 53.6531C14.2501 53.5525 14.9507 53.4482 15.6476 53.3401C15.7482 53.8954 15.8526 54.4507 15.9569 55.0097C16.0054 55.0022 16.0538 54.9948 16.1097 54.9836C16.0799 54.8196 16.0501 54.6594 16.0203 54.4954C16.3334 54.4395 16.6278 54.3985 16.8961 54.3575C16.9222 54.5215 16.9483 54.6855 16.9744 54.8494C17.0228 54.842 17.0713 54.8345 17.1197 54.8271C17.0228 54.201 16.9297 53.5786 16.8365 52.9562C16.7508 52.8817 16.6651 52.8071 16.5793 52.7363C16.5123 52.3003 16.4452 51.868 16.3818 51.4357C16.6091 51.3947 17.1272 51.3127 17.3284 51.2866C17.3582 51.5102 17.3881 51.7301 17.4141 51.9537C17.5036 51.9425 17.7011 51.9164 17.8763 51.8941C17.8502 51.6705 17.8241 51.4468 17.798 51.2232C18.0104 51.1897 18.5024 51.1338 18.7409 51.1077C18.7633 51.335 18.7819 51.5587 18.8043 51.786C18.9757 51.7674 19.1844 51.7525 19.2701 51.7413C19.2515 51.5139 19.2328 51.2866 19.2142 51.0593C19.2515 51.0555 19.7211 51.0108 20.1534 50.9773C20.1795 51.4245 20.2093 51.8754 20.2354 52.3227C20.1645 52.4158 20.0975 52.5127 20.0267 52.6059C19.5049 52.632 18.1558 52.7811 17.9434 52.8071C17.9434 52.8332 17.9508 52.8556 17.9508 52.8817C18.6477 52.8519 19.3409 52.822 20.0378 52.7922C20.0751 53.3662 20.1161 53.9401 20.1571 54.5103C20.2055 54.5066 20.2577 54.5029 20.3136 54.4991C20.3024 54.3314 20.2913 54.1637 20.2801 53.9997C20.377 53.9885 20.9211 53.9625 21.1559 53.9513C21.1633 54.119 21.1708 54.2867 21.1782 54.4544C21.2304 54.4544 21.2826 54.4507 21.331 54.4469C21.305 53.8059 21.2789 53.1686 21.2565 52.5276C21.1782 52.4419 21.1 52.3562 21.0217 52.2705C21.0031 51.8195 20.9844 51.3686 20.9658 50.9176C21.3981 50.8953 21.8677 50.8804 21.905 50.8804C21.9087 51.1114 21.9162 51.3425 21.9199 51.5736C22.0056 51.5736 22.2478 51.5661 22.3857 51.5661C22.3857 51.335 22.382 51.104 22.3783 50.8729C22.6354 50.8692 23.1311 50.8692 23.3174 50.8729C23.3174 51.104 23.3137 51.335 23.31 51.5661C23.4852 51.5661 23.7088 51.5736 23.7758 51.5736C23.7796 51.3425 23.787 51.1114 23.7908 50.8804C23.9808 50.8804 24.5026 50.9065 24.7299 50.9176C24.7113 51.3686 24.6926 51.8195 24.674 52.2668C24.5957 52.3525 24.5212 52.4419 24.443 52.5276C23.8578 52.4978 22.9634 52.4904 22.3597 52.4978C22.3597 52.5239 22.3597 52.5463 22.3597 52.5723C23.0528 52.6208 23.7423 52.6655 24.4355 52.714C24.4131 53.2879 24.3908 53.8656 24.3684 54.4395C24.4169 54.4395 24.4653 54.4432 24.5175 54.4469C24.5249 54.2792 24.5324 54.1115 24.5398 53.9438C24.7709 53.9513 25.315 53.9811 25.4156 53.9923C25.4045 54.16 25.3933 54.3277 25.3821 54.4917C25.4343 54.4917 25.4865 54.4991 25.5349 54.5029C25.5796 53.8693 25.6244 53.2394 25.6654 52.6059C25.5945 52.509 25.5275 52.4121 25.4567 52.3152C25.4865 51.868 25.5126 51.417 25.5386 50.9698C25.971 50.9996 26.4405 51.0444 26.4778 51.0518C26.4592 51.2791 26.4405 51.5065 26.4182 51.7338C26.5039 51.745 26.7089 51.7599 26.884 51.7785C26.9064 51.5512 26.925 51.3276 26.9474 51.1003C27.1822 51.1263 27.6778 51.186 27.8903 51.2158C27.8642 51.4394 27.8381 51.663 27.812 51.8866C27.9872 51.909 28.1847 51.9351 28.2741 51.9462C28.3039 51.7226 28.33 51.5027 28.3598 51.2791C28.5611 51.309 29.0791 51.3872 29.3065 51.4282C29.2394 51.8605 29.176 52.2966 29.1089 52.7289C29.0232 52.8034 28.9375 52.8742 28.8518 52.9488C28.289 52.863 27.335 52.7401 26.7573 52.6879C26.7573 52.714 26.7536 52.7363 26.7499 52.7624C27.4393 52.8854 28.1288 53.0121 28.822 53.1351C28.7363 53.6979 28.6505 54.2606 28.5648 54.8234C28.6133 54.8308 28.6617 54.8383 28.7102 54.8457C28.7363 54.6817 28.7624 54.514 28.7884 54.3501C29.0568 54.391 29.3475 54.4358 29.6642 54.4879C29.6344 54.6519 29.6046 54.8122 29.5748 54.9762C29.627 54.9873 29.6791 54.9948 29.7276 55.0022C29.8431 54.391 29.9549 53.7836 30.0667 53.1761C30.0071 53.0718 29.9475 52.9711 29.8916 52.8668C29.9661 52.4345 30.0444 52.0059 30.1189 51.5736C30.432 51.6332 30.9239 51.7375 31.0618 51.7673C31.0208 51.9798 30.9798 52.1885 30.9351 52.4009C31.0283 52.4195 31.2221 52.4568 31.4009 52.4978C31.4457 52.2891 31.4904 52.0804 31.5351 51.8717C31.7811 51.9276 32.2395 52.032 32.478 52.0953C32.4296 52.3003 32.3811 52.5053 32.3326 52.714C32.4929 52.755 32.6643 52.7922 32.7948 52.8258C32.847 52.6208 32.8991 52.4196 32.9513 52.2183C33.16 52.2742 33.6594 52.4046 33.8979 52.4717C33.7787 52.878 33.6631 53.2842 33.5439 53.6941C33.4544 53.7463 33.365 53.7948 33.2793 53.8469C32.7128 53.6979 31.6767 53.4705 31.1736 53.3699C31.1699 53.3923 31.1624 53.4183 31.1587 53.4407C31.8444 53.6382 32.5339 53.832 33.2271 54.0258L30.5326 61.8745C25.3188 60.8608 20.1273 60.9093 15.1967 61.8857L12.4276 53.8544L12.409 53.8618Z" fill="#F2AF43"/>
<path d="M135.338 80.639C135.408 80.5682 135.449 80.4713 135.449 80.3669C135.449 80.2626 135.408 80.1694 135.338 80.0949L135.032 79.7893C134.883 79.6402 134.641 79.6402 134.492 79.7893L134.186 80.0949C134.115 80.1657 134.074 80.2626 134.074 80.3669C134.074 80.4713 134.115 80.5645 134.186 80.639L134.492 80.9446C134.641 81.0937 134.883 81.0937 135.032 80.9446L135.338 80.639Z" fill="#F2AF43"/>
<path d="M135.338 75.0152C135.408 74.9444 135.449 74.8475 135.449 74.7432C135.449 74.6388 135.408 74.5457 135.338 74.4711L135.032 74.1655C134.883 74.0164 134.641 74.0164 134.492 74.1655L134.186 74.4711C134.115 74.5419 134.074 74.6388 134.074 74.7432C134.074 74.8475 134.115 74.9407 134.186 75.0152L134.492 75.3208C134.641 75.4699 134.883 75.4699 135.032 75.3208L135.338 75.0152Z" fill="#F2AF43"/>
<path d="M136.113 79.3831C135.74 79.4651 135.609 79.8192 135.609 80.0987V80.1136V80.9782V81.2279L135.792 81.0565C136.057 80.8105 136.448 80.8142 136.944 80.818C137.003 80.818 137.063 80.818 137.122 80.818H140.592V79.3086H137.014C136.683 79.3086 136.366 79.3198 136.109 79.3794L136.113 79.3831Z" fill="#F2AF43"/>
<path d="M136.113 73.7296C135.74 73.8116 135.609 74.1656 135.609 74.4451V74.46V75.3247V75.5743L135.792 75.4029C136.057 75.157 136.448 75.1607 136.947 75.1644C137.007 75.1644 137.067 75.1644 137.126 75.1644H140.596V73.655H137.018C136.686 73.655 136.37 73.6662 136.113 73.7258V73.7296Z" fill="#F2AF43"/>
<path d="M140.414 61.0024C140.149 61.2483 139.758 61.2446 139.262 61.2409C139.203 61.2409 139.143 61.2409 139.08 61.2409H135.606V62.7502H139.08C139.225 62.7502 139.374 62.7502 139.519 62.7428C139.389 63.0707 139.173 63.2683 138.662 63.2683H137.119C136.743 63.2683 136.385 63.2757 136.098 63.3428C135.614 63.4882 135.603 64.1143 135.603 64.1851V64.1925V64.9416V65.1913L135.785 65.0199C136.05 64.7739 136.437 64.7776 136.933 64.7814C136.993 64.7814 137.056 64.7814 137.119 64.7814H138.688C139.505 64.7814 140.123 64.4646 140.526 63.8422C140.578 63.7602 140.604 63.6745 140.604 63.5888C140.604 63.4397 140.526 63.3428 140.518 63.3316V63.3242L139.941 62.713C140.242 62.6683 140.444 62.5788 140.574 62.4335L140.604 62.4036V60.8384L140.421 61.0098L140.414 61.0024Z" fill="#F2AF43"/>
<path d="M139.389 65.3742H136.873C136.452 65.3854 135.565 65.5047 135.565 66.8389C135.565 67.2339 135.721 67.9905 136.15 68.4712L136.184 68.5085H137.481L137.354 68.3371C136.981 67.8265 136.955 67.5842 136.955 67.2749C136.955 67.1929 136.981 67.1296 137.037 67.0774C137.153 66.9693 137.372 66.9395 137.51 66.9358C137.57 67.2376 137.7 67.7296 137.976 68.1507C138.327 68.6874 138.8 68.9557 139.385 68.9557C139.97 68.9557 140.35 68.5532 140.522 68.3147C140.578 68.2253 140.604 68.1321 140.604 68.0389C140.604 67.8898 140.537 67.7818 140.518 67.7594L139.992 66.8985C140.376 66.8128 140.559 66.5929 140.57 66.5817L140.596 66.5519V64.9829L140.425 65.1096C140.052 65.3817 139.717 65.3817 139.389 65.3817V65.3742ZM139.541 66.932C139.43 67.1445 139.214 67.4538 138.927 67.4538C138.613 67.4538 138.412 67.1743 138.345 66.932H138.695C138.99 66.932 139.348 66.932 139.541 66.932Z" fill="#F2AF43"/>
<path d="M139.269 81.6417C139.209 81.6417 139.15 81.6417 139.086 81.6417H137.517C136.831 81.6417 136.287 81.8652 135.892 82.3013C135.732 82.4504 135.654 82.6181 135.654 82.797C135.654 83.0839 135.866 83.2889 135.903 83.3225L136.254 83.6951H135.266C134.957 83.6951 134.636 83.6951 134.364 83.7361C133.91 83.7958 133.746 84.1759 133.746 84.5113C133.746 84.5337 133.746 84.5486 133.746 84.5486V85.3126V85.5362L133.921 85.3983C134.182 85.1933 134.566 85.197 135.054 85.2008C135.121 85.2008 135.192 85.2008 135.262 85.2008H140.596V83.6914H136.679C136.813 83.3523 137.025 83.1473 137.543 83.1473H139.086C139.764 83.1473 140.309 83.1249 140.577 82.8268L140.603 82.797V81.2317L140.42 81.3994C140.156 81.6454 139.764 81.6417 139.269 81.6379V81.6417Z" fill="#F2AF43"/>
<path d="M139.269 69.429C139.21 69.429 139.15 69.429 139.087 69.429H137.518C136.832 69.429 136.28 69.6526 135.889 70.0961C135.759 70.2377 135.692 70.398 135.692 70.5731C135.692 70.875 135.897 71.1023 135.908 71.1135L136.273 71.5011C136.21 71.5123 136.15 71.5235 136.098 71.5347C135.636 71.639 135.613 72.2502 135.613 72.3695V72.3807V73.1223V73.372L135.796 73.2006C136.06 72.9546 136.452 72.9583 136.947 72.962C137.007 72.962 137.067 72.962 137.13 72.962H140.6V71.4527H137.022C136.914 71.4527 136.802 71.4527 136.69 71.4601C136.825 71.1322 137.037 70.9346 137.548 70.9346H139.09C139.769 70.9346 140.313 70.9123 140.581 70.6141L140.611 70.5843V69.019L140.428 69.1905C140.164 69.4364 139.772 69.4327 139.277 69.429H139.269Z" fill="#F2AF43"/>
<path d="M137.435 76.6178L137.241 76.901C136.873 77.4488 136.723 77.665 136.586 77.7694C136.608 77.6091 136.701 77.4489 136.802 77.2811C136.936 77.0613 137.074 76.8302 137.074 76.5581V76.5469V76.4948L137.033 76.4612L136.138 75.7382L135.971 75.6041L135.959 75.8202C135.945 76.1221 135.825 76.3979 135.71 76.6625C135.594 76.9271 135.482 77.1768 135.482 77.4451C135.482 77.5383 135.497 77.6315 135.523 77.7172L135.531 77.747L135.553 77.7656L136.72 78.7942V78.798C136.824 78.8762 137.025 78.9619 137.227 78.9731C137.487 78.988 138.065 78.8017 138.576 78.0042L138.684 78.0973L139.753 79.0178L139.835 79.0849L139.906 79.0067C140.193 78.6899 140.376 78.3955 140.491 78.1346L140.678 78.0563C140.786 78.0116 140.901 77.9967 141.024 78.0153C141.132 78.0265 141.304 78.0489 141.36 77.9147C141.371 77.8886 141.375 77.8663 141.375 77.8439C141.375 77.7805 141.345 77.7246 141.326 77.6911C141.211 77.4712 141.028 77.3259 140.767 77.2476L140.663 77.2141C140.655 77.1283 140.64 77.0575 140.629 77.0091L140.622 76.9793L140.599 76.9569L139.135 75.6339L139.097 75.6003L139.049 75.6078C138.665 75.6525 137.946 75.8426 137.424 76.6141L137.435 76.6178ZM139.668 77.0091C139.541 77.4004 139.03 77.7954 138.728 77.9222L138.62 77.9669C139.068 77.2811 139.41 77.0948 139.664 77.0091C139.664 77.0091 139.668 77.0091 139.671 77.0091H139.668Z" fill="#F2AF43"/>
<path d="M135.296 67.163L135.315 67.1369C135.348 67.0847 135.389 67.0251 135.389 66.9431C135.389 66.8723 135.36 66.8015 135.296 66.7158C135.162 66.5369 134.473 65.6275 134.473 65.6275L134.279 65.3704V66.1418C134.279 66.5257 134.48 66.8387 134.488 66.8536V66.8611L134.547 66.9431L134.488 67.0251V67.0325C134.48 67.0474 134.279 67.3568 134.279 67.7444V68.5121L134.473 68.2587C134.502 68.2177 135.225 67.2748 135.3 67.1704L135.296 67.163Z" fill="#F2AF43"/>
<path d="M139.064 87.899C138.9 88.0965 138.699 88.2046 138.49 88.2046H134.763C134.756 88.0257 134.879 87.8096 135.002 87.586C135.169 87.2804 135.363 86.9338 135.326 86.5499V86.5238L134.2 85.1375L134.174 85.3238C134.115 85.7449 133.932 86.1549 133.753 86.5499C133.515 87.0828 133.291 87.586 133.362 88.0928V88.1189L134.998 89.9115H138.322C139.206 89.9115 139.869 89.5612 140.29 88.868C140.7 88.1934 140.741 87.3996 140.741 87.0903V87.0605L139.299 85.2604L139.358 85.5847C139.548 86.5909 139.437 87.4369 139.053 87.899H139.064Z" fill="#F2AF43"/>
<path d="M134.261 80.1571L134.566 79.8512C134.674 79.743 134.848 79.7429 134.956 79.8508L135.262 80.1563C135.37 80.2642 135.37 80.4381 135.262 80.5463L134.957 80.8522C134.849 80.9604 134.675 80.9605 134.567 80.8526L134.261 80.5471C134.153 80.4392 134.153 80.2653 134.261 80.1571Z" fill="white"/>
<path d="M134.261 74.5331L134.566 74.2271C134.674 74.119 134.848 74.1189 134.956 74.2268L135.262 74.5322C135.37 74.6402 135.37 74.8141 135.262 74.9222L134.957 75.2282C134.849 75.3363 134.675 75.3365 134.567 75.2285L134.261 74.9231C134.153 74.8152 134.153 74.6412 134.261 74.5331Z" fill="white"/>
<path d="M137.127 79.4202C136.761 79.4202 136.411 79.4239 136.139 79.491C135.699 79.5879 135.718 80.1096 135.718 80.1096V80.9817C136.046 80.6761 136.523 80.7134 137.127 80.7134H140.488V79.4202H137.127Z" fill="white"/>
<path d="M137.127 73.7664C136.761 73.7664 136.411 73.7701 136.139 73.8372C135.699 73.9341 135.718 74.4558 135.718 74.4558V75.3279C136.046 75.0223 136.523 75.0596 137.127 75.0596H140.488V73.7664H137.127Z" fill="white"/>
<path d="M140.488 61.084C140.156 61.3896 139.679 61.3523 139.079 61.3523H135.717V62.6455H139.079C139.284 62.6455 139.489 62.6455 139.675 62.6306C139.534 63.0928 139.295 63.3834 138.662 63.3834H137.119C136.75 63.3834 136.399 63.3872 136.124 63.4543C135.699 63.5847 135.71 64.1922 135.71 64.1922V64.9413C136.038 64.6357 136.515 64.6729 137.119 64.6729H138.688C139.631 64.6729 140.137 64.2406 140.436 63.7822C140.57 63.5661 140.436 63.3984 140.436 63.3984L139.709 62.6269C140.048 62.6008 140.331 62.53 140.488 62.3586V61.084Z" fill="white"/>
<path d="M139.389 65.4853H136.985C136.385 65.4853 135.677 65.653 135.677 66.8418C135.677 67.1996 135.819 67.9338 136.236 68.4034H137.272C136.892 67.8816 136.851 67.617 136.851 67.2779C136.851 66.7785 137.608 66.8307 137.608 66.8307C137.727 67.5052 138.137 68.8506 139.393 68.8506C139.926 68.8506 140.269 68.4928 140.44 68.2543C140.585 68.0232 140.436 67.822 140.436 67.822L139.825 66.8195C140.284 66.771 140.492 66.5139 140.492 66.5139V65.1946C140.101 65.4815 139.74 65.4853 139.393 65.4853M138.927 67.5648C138.502 67.5648 138.245 67.1474 138.212 66.8269C138.267 66.8269 139.538 66.8269 139.672 66.8269C139.687 66.8269 139.699 66.8269 139.713 66.8269C139.617 67.058 139.348 67.5686 138.927 67.5686" fill="white"/>
<path d="M139.087 81.7492H137.518C136.758 81.7492 136.284 82.0287 135.971 82.3753C135.498 82.8188 135.979 83.2399 135.979 83.2399L136.504 83.7989H135.263C134.943 83.7989 134.633 83.8026 134.38 83.8399C133.814 83.9145 133.858 84.5368 133.858 84.5368V85.3083C134.186 85.0511 134.663 85.0884 135.267 85.0884H140.492V83.7952H136.53C136.676 83.3256 136.911 83.0349 137.548 83.0349H139.091C139.691 83.0349 140.254 83.02 140.499 82.748V81.4734C140.168 81.779 139.694 81.7417 139.091 81.7417" fill="white"/>
<path d="M139.087 69.5366H137.518C136.758 69.5366 136.281 69.8161 135.968 70.1664C135.576 70.5913 135.982 71.0385 135.982 71.0385L136.497 71.5863C136.359 71.5975 136.232 71.6162 136.12 71.6422C135.703 71.7391 135.718 72.3839 135.718 72.3839V73.1292C136.046 72.8236 136.523 72.8609 137.127 72.8609H140.488V71.5714H137.127C136.918 71.5714 136.717 71.5714 136.53 71.5863C136.672 71.1242 136.914 70.8335 137.544 70.8335H139.087C139.687 70.8335 140.25 70.8186 140.496 70.5466V69.272C140.164 69.5776 139.691 69.5403 139.087 69.5403" fill="white"/>
<path d="M134.26 85.3384L135.251 86.5571C135.315 87.2391 134.595 87.8131 134.696 88.2864H138.494C139.138 88.2864 139.791 87.3696 139.452 85.5695L140.666 87.0901C140.666 88.0665 140.271 89.8293 138.33 89.8293H135.043L133.451 88.0814C133.328 87.2205 134.126 86.3223 134.264 85.3347" fill="white"/>
<path d="M134.38 66.1453C134.38 66.5031 134.57 66.7975 134.57 66.7975L134.682 66.9428L134.57 67.0882C134.57 67.0882 134.38 67.3826 134.38 67.7404V68.1876C134.38 68.1876 135.129 67.2074 135.204 67.1031C135.267 67.0062 135.33 66.9465 135.204 66.7826C135.069 66.6037 134.38 65.6943 134.38 65.6943V66.1415V66.1453Z" fill="white"/>
<path d="M141.244 77.7468C141.125 77.5194 140.942 77.4151 140.749 77.3555C140.749 77.5716 140.708 77.8064 140.648 77.9629C140.79 77.9033 140.927 77.8959 141.05 77.9145C141.203 77.9331 141.255 77.9145 141.27 77.8772C141.285 77.8325 141.259 77.784 141.241 77.7468H141.244Z" fill="white"/>
<path d="M137.525 76.6808C136.955 77.5231 136.802 77.7765 136.601 77.892C136.512 77.9442 136.474 77.8958 136.474 77.8361C136.474 77.4038 136.974 77.0311 136.966 76.5541L136.072 75.8311C136.038 76.5578 135.442 77.0982 135.632 77.6908L136.799 78.7194C136.892 78.7902 137.078 78.8647 137.246 78.8759C137.499 78.8908 138.032 78.6821 138.502 77.9517C138.986 77.1914 139.363 77.0013 139.623 76.9119C139.709 76.8858 139.806 76.9417 139.769 77.0461C139.627 77.4895 139.076 77.9032 138.766 78.0299L139.836 78.9505C140.682 78.0225 140.596 77.2883 140.537 77.0535L139.072 75.7305C138.677 75.7752 138.01 75.969 137.525 76.6883V76.6808Z" fill="white"/>
<path d="M134.481 64.8748C134.481 64.8748 134.448 64.8748 134.433 64.8748C134.418 64.8748 134.403 64.8786 134.388 64.8823C134.373 64.886 134.362 64.8935 134.355 64.9009C134.347 64.9084 134.34 64.9233 134.336 64.9345C134.336 64.9457 134.332 64.9531 134.332 64.9643C134.332 64.9755 134.332 64.9829 134.332 64.9904C134.332 64.9941 134.332 65.0016 134.325 65.0016C134.325 65.0016 134.317 65.0053 134.314 65.0053C134.31 65.0053 134.306 65.0053 134.302 65.0016C134.299 65.0016 134.295 64.9941 134.295 64.9904C134.295 64.9643 134.295 64.9382 134.295 64.9158C134.295 64.8935 134.295 64.8674 134.295 64.8376C134.295 64.8264 134.295 64.8115 134.295 64.7966C134.295 64.7817 134.295 64.7668 134.295 64.7481C134.295 64.7332 134.295 64.7183 134.295 64.6997C134.295 64.6848 134.295 64.6699 134.295 64.6587C134.295 64.6251 134.295 64.5916 134.302 64.5581C134.306 64.5208 134.317 64.491 134.328 64.4612C134.343 64.4314 134.358 64.4053 134.384 64.3866C134.407 64.368 134.44 64.3568 134.478 64.3568C134.5 64.3568 134.522 64.3605 134.537 64.368C134.556 64.3755 134.567 64.3866 134.582 64.3978C134.597 64.4127 134.608 64.4276 134.615 64.4425C134.627 64.4612 134.634 64.4798 134.638 64.4984C134.638 64.5059 134.642 64.5059 134.645 64.5059C134.645 64.5059 134.653 64.5022 134.653 64.4984C134.66 64.4649 134.671 64.4388 134.683 64.4127C134.694 64.3866 134.709 64.368 134.723 64.3494C134.738 64.3307 134.757 64.3195 134.779 64.3084C134.802 64.3009 134.824 64.2935 134.854 64.2935C134.895 64.2935 134.925 64.3009 134.951 64.3158C134.977 64.3307 134.996 64.3494 135.01 64.3754C135.025 64.4015 135.037 64.4314 135.04 64.4612C135.048 64.4947 135.048 64.5282 135.048 64.5618C135.048 64.5767 135.048 64.5953 135.048 64.614C135.048 64.6326 135.048 64.655 135.048 64.6736C135.048 64.6922 135.048 64.7146 135.048 64.737C135.048 64.7593 135.048 64.7779 135.048 64.7966C135.048 64.8152 135.048 64.8301 135.048 64.845C135.048 64.8599 135.048 64.8711 135.048 64.8823C135.048 64.8972 135.048 64.9084 135.048 64.9233C135.048 64.9382 135.048 64.9531 135.051 64.9717C135.051 64.9792 135.051 64.9829 135.048 64.9866C135.048 64.9866 135.04 64.9941 135.037 64.9941C135.033 64.9941 135.029 64.9941 135.025 64.9904C135.018 64.9904 135.018 64.9829 135.018 64.9755C135.018 64.9568 135.01 64.9382 135.01 64.9233C135.01 64.9084 135.003 64.8972 134.992 64.886C134.984 64.8786 134.973 64.8711 134.962 64.8674C134.951 64.8637 134.936 64.8599 134.914 64.8599H134.481V64.8748ZM134.601 64.7407C134.601 64.7407 134.615 64.7407 134.619 64.7332C134.627 64.7295 134.627 64.722 134.627 64.7109V64.6885C134.627 64.6624 134.627 64.6363 134.619 64.614C134.619 64.5916 134.608 64.573 134.597 64.5543C134.586 64.5394 134.571 64.5245 134.552 64.5171C134.533 64.5096 134.507 64.5022 134.478 64.5022C134.425 64.5022 134.388 64.5171 134.366 64.5432C134.343 64.573 134.332 64.614 134.332 64.6661V64.7071C134.332 64.7071 134.332 64.7332 134.343 64.7332C134.351 64.7332 134.366 64.737 134.384 64.737H134.597L134.601 64.7407ZM134.824 64.7407C134.865 64.7407 134.899 64.7407 134.921 64.737C134.947 64.737 134.962 64.7295 134.973 64.7183C134.984 64.7071 134.992 64.696 134.996 64.6773C134.996 64.6587 134.999 64.6326 134.999 64.6028C134.999 64.5543 134.988 64.5171 134.962 64.4947C134.936 64.4723 134.899 64.4612 134.85 64.4612C134.813 64.4612 134.783 64.4649 134.761 64.4798C134.738 64.4947 134.72 64.5059 134.709 64.5245C134.697 64.5432 134.686 64.5655 134.683 64.5916C134.679 64.6177 134.675 64.6475 134.675 64.6773V64.6997C134.675 64.6997 134.679 64.7258 134.69 64.7332C134.697 64.7369 134.712 64.7407 134.727 64.7407H134.824Z" fill="#F2AF43"/>
<path d="M134.294 63.3577C134.294 63.3577 134.294 63.3428 134.294 63.339C134.294 63.3316 134.302 63.3316 134.313 63.3316C134.32 63.3316 134.332 63.3316 134.343 63.3316H134.373C134.406 63.3316 134.44 63.3316 134.466 63.3316C134.466 63.3316 134.47 63.3316 134.473 63.3353C134.473 63.3353 134.473 63.3428 134.473 63.3502C134.473 63.354 134.473 63.3614 134.473 63.3651C134.473 63.3689 134.47 63.3726 134.466 63.3726C134.436 63.3763 134.414 63.3838 134.395 63.3912C134.38 63.3987 134.365 63.4061 134.358 63.4136C134.35 63.4248 134.343 63.4397 134.343 63.4546C134.343 63.4732 134.339 63.4956 134.339 63.5254V63.5999C134.339 63.6223 134.339 63.6372 134.339 63.6521C134.339 63.6633 134.343 63.6745 134.347 63.6819C134.35 63.6894 134.358 63.6931 134.369 63.6968C134.38 63.6968 134.395 63.7005 134.414 63.7005H134.607C134.607 63.7005 134.626 63.7005 134.626 63.6931C134.626 63.6894 134.63 63.6856 134.63 63.6819C134.63 63.6446 134.63 63.6148 134.626 63.5925C134.626 63.5701 134.619 63.5552 134.611 63.544C134.604 63.5328 134.593 63.5254 134.581 63.5217C134.57 63.5179 134.552 63.5142 134.533 63.5105C134.529 63.5105 134.525 63.5105 134.522 63.503C134.522 63.4993 134.522 63.4956 134.522 63.4881C134.522 63.4844 134.522 63.4807 134.522 63.4732C134.522 63.4695 134.529 63.4658 134.533 63.4658C134.544 63.4658 134.555 63.4658 134.563 63.4658H134.593C134.593 63.4658 134.611 63.4695 134.622 63.4695C134.634 63.4695 134.645 63.4695 134.656 63.4695C134.678 63.4695 134.701 63.4695 134.716 63.4658C134.734 63.4658 134.757 63.462 134.783 63.462C134.783 63.462 134.79 63.462 134.79 63.4695C134.79 63.4732 134.79 63.4769 134.79 63.4844C134.79 63.4881 134.79 63.4956 134.79 63.4993C134.79 63.503 134.786 63.5067 134.783 63.5067C134.76 63.5067 134.742 63.5105 134.73 63.5179C134.716 63.5217 134.708 63.5291 134.701 63.5403C134.693 63.5515 134.689 63.5701 134.686 63.5887C134.686 63.6111 134.682 63.6409 134.682 63.6782C134.682 63.6819 134.682 63.6856 134.686 63.6894C134.686 63.6931 134.693 63.6968 134.701 63.6968H134.846C134.872 63.6968 134.891 63.6968 134.909 63.6931C134.928 63.6894 134.939 63.6856 134.95 63.6782C134.962 63.6707 134.969 63.6633 134.976 63.6521C134.984 63.6409 134.988 63.6297 134.991 63.6148C134.991 63.6036 134.991 63.5925 134.995 63.5738C134.995 63.5589 134.995 63.544 134.995 63.5291C134.995 63.5105 134.995 63.4918 134.995 63.4732C134.995 63.4546 134.995 63.4434 134.988 63.4322C134.984 63.4173 134.976 63.4024 134.973 63.3912C134.965 63.38 134.958 63.3689 134.95 63.3614C134.939 63.354 134.928 63.3465 134.913 63.3428C134.898 63.339 134.88 63.3353 134.857 63.3316C134.853 63.3316 134.85 63.3279 134.846 63.3241C134.846 63.3204 134.846 63.313 134.846 63.3092C134.846 63.3055 134.846 63.2981 134.846 63.2943C134.846 63.2906 134.85 63.2869 134.853 63.2869C134.887 63.2906 134.913 63.2943 134.943 63.298C134.969 63.298 134.995 63.3018 135.025 63.3018C135.025 63.3018 135.029 63.3018 135.036 63.3055C135.04 63.3055 135.043 63.3167 135.043 63.3279V63.7751C135.043 63.8049 135.043 63.8384 135.043 63.8683C135.043 63.8981 135.043 63.9242 135.047 63.9502C135.047 63.9577 135.047 63.9614 135.043 63.9652C135.043 63.9652 135.036 63.9689 135.032 63.9726C135.029 63.9726 135.025 63.9726 135.021 63.9726C135.017 63.9726 135.014 63.9652 135.014 63.9577C135.014 63.9391 135.006 63.9204 135.002 63.9093C134.999 63.8943 134.995 63.8832 134.984 63.8757C134.976 63.8683 134.965 63.8608 134.954 63.8534C134.943 63.8496 134.928 63.8459 134.909 63.8459H134.477C134.477 63.8459 134.443 63.8459 134.429 63.8459C134.414 63.8459 134.399 63.8496 134.384 63.8534C134.369 63.8571 134.358 63.8645 134.35 63.872C134.343 63.8794 134.335 63.8906 134.332 63.9055C134.332 63.913 134.328 63.9242 134.328 63.9353C134.328 63.9465 134.328 63.954 134.324 63.9652C134.324 63.9689 134.324 63.9726 134.317 63.9763C134.313 63.9763 134.309 63.9801 134.302 63.9801C134.294 63.9801 134.294 63.9801 134.291 63.9763C134.287 63.9763 134.283 63.9689 134.283 63.9652C134.283 63.9353 134.283 63.913 134.283 63.8906C134.283 63.8683 134.283 63.8422 134.283 63.8123V63.3689L134.294 63.3577Z" fill="#F2AF43"/>
<path d="M134.481 62.8137C134.481 62.8137 134.447 62.8137 134.432 62.8137C134.417 62.8137 134.402 62.8137 134.387 62.8212C134.373 62.8212 134.361 62.8324 134.354 62.8398C134.346 62.8473 134.339 62.8622 134.335 62.8771C134.335 62.8846 134.332 62.8957 134.332 62.9069C134.332 62.9181 134.332 62.9256 134.328 62.933C134.328 62.9367 134.328 62.9405 134.32 62.9442C134.32 62.9442 134.313 62.9479 134.309 62.9479C134.305 62.9479 134.302 62.9479 134.298 62.9442C134.294 62.9442 134.291 62.9367 134.291 62.933C134.291 62.9069 134.291 62.8808 134.291 62.8585C134.291 62.8361 134.291 62.81 134.291 62.7802C134.291 62.7318 134.291 62.6908 134.291 62.6572C134.291 62.6237 134.291 62.5939 134.291 62.564C134.291 62.5305 134.294 62.497 134.302 62.4672C134.309 62.4336 134.32 62.4075 134.335 62.3814C134.35 62.3553 134.373 62.3367 134.395 62.3218C134.421 62.3069 134.451 62.2994 134.488 62.2994C134.518 62.2994 134.54 62.3032 134.563 62.3144C134.585 62.3218 134.604 62.3367 134.618 62.3516C134.633 62.3665 134.645 62.3889 134.656 62.4113C134.663 62.4336 134.671 62.4597 134.678 62.4821C134.678 62.4895 134.682 62.4895 134.686 62.4895C134.686 62.4895 134.693 62.4895 134.693 62.4821C134.712 62.4448 134.73 62.415 134.749 62.3926C134.771 62.3703 134.794 62.3553 134.812 62.3442C134.835 62.333 134.861 62.3255 134.883 62.3218C134.905 62.3181 134.928 62.3106 134.954 62.3069C134.973 62.3032 134.984 62.2957 134.991 62.2883C134.999 62.2771 135.002 62.2696 135.002 62.2585C135.002 62.2473 135.002 62.2398 134.991 62.2286C134.984 62.2212 134.973 62.2137 134.958 62.2063C134.95 62.2063 134.946 62.2025 134.946 62.1951C134.946 62.1914 134.946 62.1839 134.946 62.1802C134.946 62.1765 134.946 62.1727 134.954 62.169C134.954 62.1653 134.961 62.1653 134.965 62.1653C134.984 62.1653 134.999 62.1727 135.014 62.1839C135.028 62.1914 135.04 62.2025 135.047 62.2175C135.055 62.2286 135.062 62.2435 135.066 62.2622C135.069 62.2771 135.073 62.292 135.073 62.3106C135.073 62.3367 135.069 62.3591 135.058 62.3814C135.047 62.4038 135.032 62.4187 135.014 62.4262C135.002 62.4299 134.987 62.4336 134.973 62.4411C134.958 62.4448 134.943 62.4485 134.928 62.4522C134.913 62.456 134.898 62.4597 134.883 62.4634C134.868 62.4672 134.853 62.4709 134.842 62.4746C134.794 62.4895 134.76 62.5081 134.738 62.5305C134.719 62.5529 134.708 62.5864 134.708 62.6274C134.708 62.6423 134.708 62.6535 134.715 62.6609C134.719 62.6721 134.73 62.6759 134.745 62.6759H134.898C134.924 62.6759 134.943 62.6759 134.961 62.6684C134.976 62.6609 134.987 62.6535 134.995 62.6423C135.002 62.6311 135.01 62.6162 135.014 62.6013C135.017 62.5864 135.021 62.564 135.021 62.5417C135.021 62.538 135.021 62.5342 135.028 62.5305C135.032 62.5305 135.036 62.5268 135.043 62.5268C135.047 62.5268 135.051 62.5268 135.055 62.5305C135.058 62.5305 135.062 62.538 135.062 62.5417C135.062 62.5827 135.062 62.62 135.058 62.6498C135.058 62.6796 135.058 62.7094 135.058 62.7392C135.058 62.769 135.058 62.8026 135.058 62.8324C135.058 62.8622 135.062 62.892 135.062 62.9218C135.062 62.9256 135.062 62.9293 135.055 62.933C135.055 62.933 135.047 62.933 135.043 62.9367C135.04 62.9367 135.036 62.9367 135.032 62.9367C135.028 62.9367 135.025 62.9293 135.025 62.9255C135.025 62.9032 135.017 62.8846 135.017 62.8696C135.017 62.8547 135.01 62.8436 134.999 62.8361C134.991 62.8287 134.98 62.8212 134.969 62.8212C134.954 62.8212 134.935 62.8175 134.917 62.8175H134.495L134.481 62.8137ZM134.615 62.6796C134.633 62.6796 134.645 62.6721 134.648 62.6609C134.648 62.6498 134.652 62.6311 134.652 62.6088C134.652 62.5752 134.652 62.5491 134.645 62.5268C134.637 62.5044 134.63 62.4895 134.615 62.4746C134.604 62.4597 134.585 62.4522 134.563 62.4448C134.544 62.4411 134.518 62.4373 134.488 62.4373C134.458 62.4373 134.436 62.4373 134.417 62.4448C134.395 62.4522 134.38 62.4597 134.369 62.4709C134.358 62.4821 134.346 62.5007 134.343 62.5193C134.335 62.5417 134.335 62.5641 134.335 62.5939C134.335 62.6274 134.335 62.646 134.346 62.6572C134.354 62.6684 134.369 62.6721 134.391 62.6721H134.611L134.615 62.6796Z" fill="#F2AF43"/>
<path d="M134.294 61.2596C134.294 61.2596 134.294 61.2484 134.294 61.2409C134.294 61.2335 134.302 61.2335 134.313 61.2335C134.32 61.2335 134.332 61.2335 134.343 61.2335H134.373C134.406 61.2335 134.44 61.2335 134.466 61.2335C134.466 61.2335 134.47 61.2335 134.473 61.2372C134.473 61.2409 134.473 61.2447 134.473 61.2484C134.473 61.2558 134.473 61.2596 134.473 61.2633C134.473 61.267 134.47 61.2707 134.466 61.2707C134.436 61.2745 134.414 61.2819 134.395 61.2894C134.38 61.2931 134.365 61.3043 134.358 61.3117C134.35 61.3229 134.343 61.3378 134.343 61.3527C134.343 61.3714 134.339 61.3937 134.339 61.4235V61.4981C134.339 61.5204 134.339 61.5353 134.339 61.5503C134.339 61.5614 134.343 61.5726 134.347 61.5801C134.35 61.5875 134.358 61.5913 134.369 61.595C134.38 61.595 134.395 61.595 134.414 61.595H134.607C134.607 61.595 134.626 61.595 134.626 61.5875C134.626 61.5875 134.63 61.5801 134.63 61.5763C134.63 61.5391 134.63 61.5093 134.626 61.4869C134.626 61.4645 134.619 61.4496 134.611 61.4385C134.604 61.4273 134.593 61.4198 134.581 61.4161C134.57 61.4124 134.552 61.4086 134.533 61.4086C134.529 61.4086 134.525 61.4086 134.522 61.4012C134.522 61.3975 134.522 61.3937 134.522 61.3863C134.522 61.3826 134.522 61.3751 134.522 61.3714C134.522 61.3676 134.529 61.3639 134.533 61.3639C134.544 61.3639 134.555 61.3639 134.563 61.3639C134.574 61.3639 134.581 61.3639 134.593 61.3639C134.604 61.3639 134.611 61.3639 134.622 61.3639C134.634 61.3639 134.645 61.3639 134.656 61.3639C134.678 61.3639 134.701 61.3639 134.716 61.3602C134.734 61.3602 134.757 61.3565 134.783 61.3565C134.783 61.3565 134.79 61.3565 134.79 61.3639C134.79 61.3676 134.79 61.3714 134.79 61.3788C134.79 61.3825 134.79 61.3863 134.79 61.3937C134.79 61.3975 134.786 61.4012 134.783 61.4012C134.76 61.4012 134.742 61.4049 134.73 61.4086C134.716 61.4086 134.708 61.4198 134.701 61.431C134.693 61.4422 134.689 61.4608 134.686 61.4795C134.686 61.5018 134.682 61.5316 134.682 61.5689C134.682 61.5726 134.682 61.5763 134.686 61.5801C134.686 61.5838 134.693 61.5875 134.701 61.5875H134.846C134.872 61.5875 134.891 61.5875 134.909 61.5801C134.928 61.5801 134.939 61.5726 134.95 61.5652C134.962 61.5577 134.969 61.5503 134.976 61.5391C134.984 61.5279 134.988 61.5167 134.991 61.5018C134.991 61.4906 134.991 61.4757 134.995 61.4645C134.995 61.4496 134.995 61.4347 134.995 61.4198C134.995 61.4012 134.995 61.3825 134.995 61.3639C134.995 61.3453 134.995 61.3341 134.988 61.3229C134.984 61.308 134.976 61.2931 134.973 61.2819C134.965 61.2708 134.958 61.2596 134.95 61.2521C134.939 61.2447 134.928 61.2372 134.913 61.2335C134.898 61.2298 134.88 61.226 134.857 61.2186C134.853 61.2186 134.85 61.2186 134.846 61.2111C134.846 61.2074 134.846 61.1999 134.846 61.1962C134.846 61.1888 134.846 61.185 134.846 61.1813C134.846 61.1776 134.85 61.1738 134.853 61.1776C134.887 61.1813 134.913 61.185 134.943 61.1888C134.969 61.1888 134.995 61.1925 135.025 61.1925C135.025 61.1925 135.029 61.1925 135.036 61.1962C135.04 61.1962 135.043 61.2074 135.043 61.2186V61.6658C135.043 61.6956 135.043 61.7291 135.043 61.7552C135.043 61.785 135.043 61.8111 135.047 61.8372C135.047 61.8447 135.047 61.8484 135.043 61.8521C135.043 61.8521 135.036 61.8559 135.032 61.8596C135.029 61.8596 135.025 61.8596 135.021 61.8596C135.017 61.8559 135.014 61.8521 135.014 61.8447C135.014 61.826 135.006 61.8074 135.002 61.7925C134.999 61.7776 134.995 61.7664 134.984 61.759C134.976 61.7515 134.965 61.7441 134.954 61.7403C134.943 61.7366 134.928 61.7329 134.909 61.7329H134.477C134.477 61.7329 134.443 61.7329 134.429 61.7329C134.414 61.7329 134.399 61.7366 134.384 61.7403C134.369 61.7441 134.358 61.7515 134.35 61.759C134.343 61.7664 134.335 61.7813 134.332 61.7962C134.332 61.8037 134.328 61.8149 134.328 61.826C134.328 61.8372 134.328 61.8447 134.324 61.8521C134.324 61.8559 134.324 61.8596 134.317 61.8633C134.313 61.8633 134.309 61.867 134.302 61.867C134.294 61.867 134.294 61.867 134.291 61.8633C134.287 61.8633 134.283 61.8559 134.283 61.8521C134.283 61.826 134.283 61.8 134.283 61.7776C134.283 61.7552 134.283 61.7291 134.283 61.6993V61.2558L134.294 61.2596Z" fill="#F2AF43"/>
<path d="M134.357 56.836C134.328 56.8173 134.298 56.8024 134.268 56.7838C134.231 56.6496 134.19 56.5192 134.152 56.385C134.231 56.3627 134.395 56.3217 134.462 56.303C134.48 56.3701 134.495 56.4335 134.514 56.5005C134.559 56.4894 134.614 56.4782 134.667 56.4633C134.652 56.3962 134.633 56.3291 134.618 56.262C134.696 56.2434 134.846 56.2099 134.928 56.1912C134.942 56.2583 134.957 56.3291 134.972 56.3962C135.032 56.3813 135.092 56.3701 135.125 56.3664C135.11 56.2956 135.099 56.2285 135.084 56.1614C135.129 56.1502 135.289 56.1167 135.39 56.0981C135.416 56.2397 135.438 56.3776 135.464 56.5192C135.446 56.549 135.423 56.5825 135.405 56.6123C135.214 56.6459 134.924 56.7055 134.726 56.7503C134.726 56.7577 134.726 56.7652 134.73 56.7726C134.957 56.7391 135.185 56.7055 135.416 56.672C135.449 56.8509 135.483 57.0335 135.516 57.2161C135.531 57.2161 135.55 57.2124 135.565 57.2086C135.554 57.1565 135.546 57.1043 135.535 57.0484C135.639 57.0298 135.733 57.0149 135.818 57.0037C135.826 57.0558 135.837 57.1117 135.844 57.1639C135.859 57.1639 135.874 57.1602 135.893 57.1565C135.863 56.9515 135.829 56.7502 135.8 56.5453C135.77 56.5229 135.744 56.4968 135.718 56.4745C135.695 56.3328 135.673 56.1912 135.654 56.0496C135.729 56.0347 135.896 56.0086 135.964 56.0012C135.975 56.072 135.982 56.1465 135.993 56.2173C136.023 56.2136 136.087 56.2061 136.146 56.1987C136.139 56.1241 136.128 56.0533 136.12 55.9788C136.191 55.9676 136.351 55.949 136.426 55.9415C136.433 56.0161 136.441 56.0906 136.448 56.1614C136.504 56.154 136.571 56.1502 136.601 56.1465C136.593 56.072 136.59 55.9974 136.582 55.9266C136.593 55.9266 136.746 55.9117 136.888 55.9005C136.895 56.0459 136.906 56.1912 136.914 56.3403C136.892 56.3701 136.869 56.4037 136.847 56.4335C136.675 56.4409 136.239 56.4894 136.169 56.5005C136.169 56.508 136.169 56.5155 136.169 56.5266C136.396 56.5155 136.623 56.508 136.847 56.4968C136.858 56.6832 136.873 56.8695 136.884 57.0558C136.899 57.0558 136.918 57.0558 136.936 57.0558C136.936 56.9999 136.929 56.9478 136.925 56.8919C136.959 56.8919 137.134 56.8807 137.208 56.877C137.208 56.9329 137.212 56.985 137.216 57.0409C137.234 57.0409 137.249 57.0409 137.264 57.0409C137.257 56.8322 137.249 56.6235 137.238 56.4148C137.212 56.385 137.186 56.3589 137.16 56.3291C137.152 56.1838 137.149 56.0347 137.141 55.8894C137.283 55.8819 137.436 55.8782 137.447 55.8782C137.447 55.9527 137.447 56.0272 137.451 56.1055C137.48 56.1055 137.559 56.1055 137.603 56.1055C137.603 56.031 137.603 55.9564 137.603 55.8782C137.689 55.8782 137.849 55.8782 137.909 55.8782C137.909 55.9527 137.909 56.0272 137.909 56.1055C137.965 56.1055 138.039 56.1055 138.062 56.1055C138.062 56.031 138.062 55.9564 138.066 55.8782C138.129 55.8782 138.297 55.8856 138.371 55.8894C138.364 56.0347 138.36 56.1838 138.352 56.3291C138.326 56.3589 138.304 56.385 138.278 56.4148C138.088 56.4036 137.797 56.4036 137.6 56.4036C137.6 56.4111 137.6 56.4186 137.6 56.4297C137.823 56.4446 138.051 56.4596 138.278 56.4745C138.27 56.6608 138.263 56.8509 138.256 57.0372C138.27 57.0372 138.289 57.0372 138.304 57.0372C138.304 56.9813 138.308 56.9291 138.311 56.8732C138.386 56.8732 138.565 56.8844 138.598 56.8881C138.598 56.944 138.591 56.9962 138.587 57.0521C138.606 57.0521 138.621 57.0521 138.636 57.0521C138.651 56.8471 138.666 56.6384 138.677 56.4335C138.654 56.4037 138.632 56.3701 138.61 56.3403C138.617 56.195 138.628 56.0496 138.636 55.9005C138.777 55.9117 138.93 55.9266 138.941 55.9266C138.934 56.0011 138.93 56.0757 138.923 56.1465C138.952 56.1465 139.02 56.154 139.075 56.1614C139.083 56.0869 139.09 56.0123 139.098 55.9415C139.176 55.949 139.336 55.9676 139.403 55.9788C139.396 56.0533 139.385 56.1241 139.377 56.1987C139.433 56.2061 139.5 56.2136 139.53 56.2173C139.541 56.1465 139.549 56.072 139.556 56.0012C139.623 56.0123 139.791 56.0384 139.866 56.0496C139.843 56.1912 139.821 56.3328 139.802 56.4745C139.776 56.4968 139.746 56.5229 139.72 56.5453C139.538 56.5155 139.228 56.4782 139.038 56.4596C139.038 56.467 139.038 56.4745 139.038 56.4856C139.262 56.5266 139.489 56.5676 139.713 56.6086C139.687 56.7912 139.657 56.9739 139.631 57.1602C139.646 57.1602 139.661 57.1639 139.679 57.1677C139.687 57.1155 139.698 57.0596 139.705 57.0074C139.791 57.0223 139.888 57.0335 139.989 57.0521C139.977 57.1043 139.97 57.1565 139.959 57.2124C139.977 57.2124 139.992 57.2198 140.007 57.2198C140.044 57.0223 140.082 56.8211 140.119 56.6235C140.1 56.59 140.082 56.5565 140.063 56.5229C140.089 56.3813 140.112 56.2434 140.138 56.1018C140.238 56.1204 140.399 56.154 140.443 56.1651C140.428 56.2322 140.417 56.303 140.402 56.3701C140.432 56.3776 140.495 56.3887 140.555 56.3999C140.57 56.3328 140.585 56.262 140.6 56.1949C140.682 56.2136 140.831 56.2471 140.905 56.2658C140.89 56.3328 140.876 56.3999 140.857 56.467C140.909 56.4782 140.965 56.4931 141.01 56.5043C141.028 56.4372 141.043 56.3738 141.062 56.3068C141.129 56.3254 141.293 56.3664 141.371 56.3887C141.334 56.5192 141.293 56.6533 141.256 56.7875C141.226 56.8024 141.2 56.8211 141.17 56.836C140.984 56.7875 140.648 56.713 140.484 56.6794C140.484 56.6869 140.484 56.6943 140.48 56.7018C140.704 56.7652 140.928 56.8285 141.155 56.8919L140.279 59.4485C138.58 59.1168 136.892 59.1354 135.282 59.4485L134.38 56.8322L134.357 56.836Z" fill="#F2AF43"/>
</svg>
