<svg width="605" height="586" viewBox="0 0 605 586" fill="none" xmlns="http://www.w3.org/2000/svg">
<path d="M484.215 285.155C484.474 284.897 484.617 284.552 484.617 284.185C484.617 283.819 484.474 283.475 484.215 283.217L483.119 282.123C482.585 281.589 481.715 281.589 481.181 282.124L480.09 283.216C479.833 283.475 479.691 283.819 479.691 284.185C479.691 284.553 479.833 284.897 480.091 285.155L481.181 286.247C481.715 286.781 482.585 286.783 483.119 286.248L484.215 285.155Z" fill="#F2A92D"/>
<path d="M484.215 265.044C484.474 264.786 484.617 264.441 484.617 264.074C484.617 263.708 484.474 263.364 484.215 263.106L483.119 262.012C482.585 261.478 481.715 261.478 481.181 262.013L480.09 263.105C479.833 263.364 479.691 263.708 479.691 264.074C479.691 264.442 479.833 264.786 480.091 265.044L481.181 266.136C481.715 266.67 482.585 266.672 483.119 266.137L484.215 265.044Z" fill="#F2A92D"/>
<path d="M486.989 280.668C485.66 280.967 485.187 282.235 485.187 283.229V283.28V286.379V287.272L485.841 286.663C486.784 285.784 488.188 285.793 489.967 285.805C490.177 285.807 490.393 285.808 490.613 285.808H502.64H503.029V285.419V280.799V280.409H502.64H490.613H490.224V280.411C489.035 280.416 487.905 280.453 486.989 280.668Z" fill="#F2A92D"/>
<path d="M486.989 260.44C485.66 260.739 485.187 262.007 485.187 263.002V263.052V266.151V267.044L485.841 266.435C486.784 265.556 488.188 265.566 489.968 265.578C490.179 265.579 490.393 265.58 490.613 265.58H502.64H503.029V265.191V260.571V260.182H502.64H490.613H490.224V260.183C489.035 260.188 487.905 260.226 486.989 260.44Z" fill="#F2A92D"/>
<path d="M502.378 214.911C501.432 215.791 500.034 215.78 498.263 215.768C498.048 215.767 497.83 215.766 497.607 215.766H485.575H485.187V216.155V220.776V221.166H485.575H497.607C498.123 221.166 498.66 221.162 499.179 221.142C498.706 222.316 497.938 223.024 496.114 223.024H490.59C489.248 223.024 487.96 223.044 486.942 223.288C485.212 223.812 485.163 226.043 485.163 226.295V226.299L485.164 226.316V228.992V229.888L485.818 229.276C486.758 228.398 488.156 228.408 489.926 228.42C490.142 228.422 490.363 228.423 490.59 228.423H496.203C499.119 228.423 501.331 227.292 502.776 225.06C502.962 224.767 503.054 224.463 503.054 224.154C503.054 223.622 502.78 223.267 502.748 223.228L502.739 223.216L502.73 223.206L500.667 221.012C501.751 220.848 502.464 220.531 502.931 220.018L503.031 219.907V219.756V215.195V214.303L502.378 214.911Z" fill="#F2A92D"/>
<path d="M499.252 236.121C498.848 236.884 498.085 237.989 497.055 237.989C495.929 237.989 495.213 236.993 494.969 236.126L496.223 236.125C497.279 236.124 498.557 236.122 499.252 236.121ZM498.703 230.552H490.096H489.708V230.557C488.197 230.594 485.028 231.017 485.028 235.794C485.028 237.201 485.587 239.918 487.127 241.634L487.243 241.762H487.416H491.121H491.885L491.435 241.145C490.104 239.32 490.004 238.457 490.004 237.349C490.004 237.056 490.099 236.824 490.295 236.64C490.709 236.25 491.5 236.145 491.993 236.132C492.207 237.216 492.679 238.976 493.659 240.476C494.909 242.39 496.607 243.36 498.704 243.36C500.815 243.36 502.157 241.918 502.771 241.06C502.972 240.736 503.067 240.412 503.067 240.076C503.067 239.544 502.827 239.161 502.765 239.072L500.88 235.992C502.252 235.68 502.909 234.894 502.94 234.857L503.029 234.749V234.61V229.896V229.132L502.411 229.582C501.08 230.552 499.872 230.552 498.703 230.552Z" fill="#F2A92D"/>
<path d="M498.28 288.746C498.067 288.745 497.849 288.744 497.627 288.744H492.012C489.564 288.744 487.609 289.537 486.201 291.104C485.633 291.642 485.344 292.237 485.344 292.873C485.344 293.893 486.107 294.637 486.233 294.753L487.488 296.089H483.949C482.847 296.089 481.689 296.101 480.728 296.24C479.103 296.452 478.521 297.812 478.521 299.013C478.521 299.097 478.524 299.145 478.524 299.145V301.884V302.682L479.152 302.189C480.083 301.46 481.46 301.47 483.203 301.484C483.445 301.485 483.695 301.488 483.949 301.488H502.639H503.028V301.098V296.478V296.089H502.639H489.009C489.484 294.874 490.252 294.142 492.105 294.142H497.627C500.059 294.142 501.995 294.057 502.953 292.993L503.053 292.881V292.732V288.176V287.285L502.401 287.89C501.453 288.768 500.053 288.758 498.28 288.746Z" fill="#F2A92D"/>
<path d="M498.284 245.056C498.069 245.055 497.85 245.054 497.626 245.054H492.013C489.553 245.054 487.592 245.855 486.182 247.436C485.713 247.942 485.473 248.518 485.473 249.142C485.473 250.219 486.208 251.036 486.24 251.071L487.546 252.463C487.32 252.496 487.112 252.538 486.917 252.586C485.269 252.964 485.185 255.146 485.185 255.579L485.186 255.624L485.185 258.278V259.174L485.84 258.562C486.78 257.683 488.185 257.692 489.964 257.703C490.176 257.704 490.392 257.707 490.612 257.707H502.64H503.029V257.318V252.699V252.31H502.64H490.612H490.224V252.312C489.84 252.314 489.434 252.319 489.036 252.335C489.51 251.159 490.28 250.452 492.105 250.452H497.626C500.058 250.452 501.994 250.368 502.954 249.304L503.054 249.192V249.043V244.483V243.59L502.4 244.198C501.454 245.078 500.056 245.068 498.284 245.056Z" fill="#F2A92D"/>
<path d="M499.702 272.171C499.251 273.567 497.427 274.99 496.335 275.44L495.951 275.599C497.55 273.146 498.78 272.48 499.678 272.175C499.686 272.172 499.694 272.171 499.702 272.171ZM491.712 270.776L491.024 271.794C489.699 273.758 489.176 274.531 488.676 274.898C488.754 274.324 489.096 273.755 489.455 273.156C489.931 272.364 490.423 271.544 490.423 270.575V270.542L490.422 270.359L490.279 270.244L487.078 267.651L486.479 267.167L486.444 267.936C486.398 269.022 485.968 270.002 485.552 270.948C485.136 271.898 484.743 272.794 484.743 273.744C484.743 274.08 484.795 274.41 484.895 274.723L484.928 274.824L485.008 274.895L489.184 278.575L489.196 278.584L489.207 278.594C489.575 278.87 490.298 279.186 491.02 279.224C491.952 279.278 494.015 278.606 495.844 275.763L496.231 276.095L500.062 279.388L500.348 279.634L500.603 279.354C501.63 278.224 502.284 277.171 502.698 276.228L503.367 275.947C503.748 275.786 504.164 275.736 504.604 275.802C504.987 275.847 505.607 275.918 505.811 275.436C505.846 275.34 505.858 275.264 505.858 275.187C505.858 274.962 505.754 274.764 505.686 274.635C505.27 273.85 504.615 273.33 503.684 273.044L503.312 272.931C503.286 272.622 503.238 272.372 503.194 272.204L503.164 272.092L503.078 272.014L497.835 267.276L497.704 267.158L497.528 267.178C496.158 267.339 493.58 268.02 491.712 270.776Z" fill="#F2A92D"/>
<path d="M484.059 236.948L484.125 236.851C484.25 236.667 484.391 236.456 484.391 236.163C484.391 235.908 484.283 235.65 484.054 235.346C483.573 234.706 481.101 231.458 481.101 231.458L480.402 230.542V231.694V233.299C480.402 234.678 481.121 235.792 481.151 235.839L481.159 235.851L481.167 235.862L481.387 236.151L481.167 236.44L481.159 236.451L481.151 236.463C481.121 236.51 480.402 237.624 480.402 239.003V240.608V241.755L481.099 240.844C481.21 240.702 483.79 237.331 484.059 236.948Z" fill="#F2A92D"/>
<path d="M497.548 311.134C496.965 311.837 496.239 312.223 495.501 312.223H482.173C482.152 311.583 482.584 310.809 483.031 310.003C483.637 308.911 484.324 307.675 484.196 306.299L484.187 306.211L480.163 301.254L480.069 301.925C479.859 303.427 479.203 304.893 478.568 306.309C477.715 308.214 476.909 310.015 477.164 311.833L477.177 311.922L483.023 318.337H494.917C498.084 318.337 500.452 317.081 501.955 314.605C503.417 312.197 503.575 309.35 503.575 308.238V308.135L498.421 301.698L498.639 302.857C499.317 306.463 498.92 309.481 497.548 311.134Z" fill="#F2A92D"/>
<path d="M481.456 282.399C481.838 282.016 482.463 282.016 482.844 282.398L483.94 283.492C484.323 283.874 484.323 284.498 483.94 284.879L482.846 285.974C482.463 286.355 481.838 286.354 481.456 285.972L480.366 284.88C479.984 284.499 479.984 283.874 480.366 283.491L481.456 282.399Z" fill="white"/>
<path d="M481.456 262.288C481.838 261.905 482.463 261.905 482.844 262.287L483.94 263.381C484.323 263.763 484.323 264.387 483.94 264.768L482.846 265.861C482.463 266.244 481.838 266.243 481.456 265.861L480.366 264.769C479.984 264.387 479.984 263.763 480.366 263.38L481.456 262.288Z" fill="white"/>
<path d="M490.613 280.799C489.309 280.799 488.057 280.816 487.078 281.047C485.505 281.4 485.576 283.264 485.576 283.264V286.379C486.75 285.283 488.458 285.419 490.613 285.419H502.64V280.798L490.613 280.799Z" fill="white"/>
<path d="M490.613 260.571C489.309 260.571 488.057 260.59 487.078 260.819C485.505 261.173 485.576 263.038 485.576 263.038V266.151C486.75 265.055 488.458 265.191 490.613 265.191H502.64V260.57L490.613 260.571Z" fill="white"/>
<path d="M502.643 215.196C501.463 216.294 499.755 216.154 497.607 216.154H485.576V220.777H497.607C498.347 220.777 499.069 220.769 499.737 220.721C499.227 222.376 498.372 223.413 496.113 223.413H490.589C489.276 223.413 488.013 223.432 487.032 223.666C485.515 224.128 485.552 226.309 485.552 226.309V228.993C486.729 227.893 488.436 228.034 490.589 228.034H496.203C499.583 228.034 501.387 226.49 502.451 224.849C502.936 224.078 502.447 223.472 502.447 223.472L499.852 220.713C501.072 220.617 502.084 220.372 502.643 219.757V215.196Z" fill="white"/>
<path d="M497.055 238.378C495.54 238.378 494.616 236.879 494.499 235.738C494.693 235.738 499.249 235.731 499.723 235.731C499.777 235.731 499.821 235.727 499.869 235.726C499.523 236.549 498.564 238.378 497.055 238.378ZM498.701 230.939H490.096V230.942C487.945 230.942 485.417 231.538 485.417 235.794C485.417 237.071 485.917 239.705 487.416 241.374H491.12C489.756 239.503 489.615 238.559 489.615 237.349C489.615 235.569 492.317 235.746 492.317 235.746C492.737 238.159 494.215 242.971 498.703 242.971C500.608 242.971 501.84 241.694 502.453 240.834C502.967 240.003 502.44 239.285 502.44 239.285L500.247 235.702C501.884 235.531 502.64 234.61 502.64 234.61V229.895C501.235 230.919 499.951 230.939 498.701 230.939Z" fill="white"/>
<path d="M497.627 289.132H492.012C489.293 289.132 487.593 290.131 486.48 291.375C484.784 292.966 486.505 294.475 486.505 294.475L488.387 296.478H483.949C482.805 296.478 481.699 296.492 480.784 296.624C478.76 296.888 478.912 299.119 478.912 299.119V301.884C480.088 300.96 481.797 301.099 483.949 301.099H502.639V296.478H488.464C488.979 294.803 489.828 293.754 492.105 293.754H497.627C499.78 293.754 501.791 293.702 502.665 292.732V288.175C501.484 289.271 499.78 289.132 497.627 289.132Z" fill="white"/>
<path d="M497.627 245.442H492.012C489.287 245.442 487.585 246.446 486.472 247.694C485.067 249.211 486.527 250.809 486.527 250.809L488.361 252.762C487.872 252.801 487.417 252.862 487.011 252.963C485.515 253.306 485.575 255.614 485.575 255.614V258.278C486.748 257.181 488.457 257.318 490.612 257.318H502.64V252.699H490.612C489.869 252.699 489.147 252.706 488.476 252.754C488.989 251.102 489.844 250.063 492.105 250.063H497.627C499.78 250.063 501.791 250.013 502.665 249.043V244.482C501.484 245.582 499.78 245.442 497.627 245.442Z" fill="white"/>
<path d="M480.361 301.965L483.902 306.328C484.134 308.769 481.558 310.825 481.911 312.518H495.501C497.806 312.518 500.138 309.237 498.927 302.802L503.281 308.238C503.281 311.736 501.862 318.042 494.917 318.042H483.153L477.457 311.79C477.023 308.713 479.863 305.504 480.361 301.965Z" fill="white"/>
<path d="M480.791 233.299C480.791 234.578 481.476 235.627 481.476 235.627L481.875 236.151L481.476 236.675C481.476 236.675 480.791 237.725 480.791 239.003V240.609C480.791 240.609 483.472 237.106 483.742 236.725C483.97 236.375 484.191 236.171 483.743 235.581C483.262 234.941 480.791 231.694 480.791 231.694V233.299Z" fill="white"/>
<path d="M505.341 274.816C504.912 274.004 504.261 273.628 503.57 273.416C503.576 274.196 503.417 275.031 503.216 275.588C503.72 275.376 504.217 275.352 504.661 275.417C505.204 275.48 505.392 275.429 505.453 275.285C505.508 275.129 505.412 274.951 505.341 274.816Z" fill="white"/>
<path d="M492.034 270.994C489.994 274.003 489.445 274.907 488.73 275.327C488.41 275.513 488.27 275.343 488.27 275.126C488.27 273.581 490.054 272.245 490.034 270.546L486.833 267.954C486.718 270.559 484.586 272.493 485.266 274.603L489.442 278.283C489.78 278.538 490.438 278.805 491.041 278.837C491.953 278.889 493.856 278.15 495.536 275.526C497.274 272.81 498.61 272.127 499.553 271.807C499.854 271.707 500.206 271.915 500.074 272.283C499.568 273.866 497.589 275.343 496.484 275.801L500.316 279.093C503.337 275.769 503.038 273.146 502.817 272.302L497.574 267.565C496.156 267.731 493.777 268.422 492.034 270.994Z" fill="white"/>
<path d="M482.378 228.281C482.525 228.281 482.638 228.276 482.724 228.264C482.812 228.254 482.87 228.232 482.914 228.196C482.956 228.162 482.984 228.11 482.993 228.044C483.002 227.977 483.006 227.889 483.006 227.78C483.006 227.602 482.961 227.476 482.878 227.397C482.788 227.317 482.654 227.28 482.474 227.28C482.341 227.28 482.238 227.3 482.157 227.34C482.074 227.381 482.012 227.438 481.969 227.506C481.922 227.576 481.89 227.656 481.873 227.75C481.856 227.846 481.846 227.945 481.846 228.052V228.136C481.846 228.193 481.865 228.233 481.9 228.252C481.933 228.27 481.978 228.281 482.028 228.281H482.378ZM481.574 228.281C481.6 228.281 481.624 228.273 481.646 228.254C481.666 228.24 481.678 228.213 481.678 228.173V228.09C481.678 227.994 481.669 227.905 481.656 227.825C481.644 227.744 481.613 227.673 481.574 227.614C481.537 227.554 481.478 227.51 481.413 227.476C481.344 227.442 481.254 227.425 481.145 227.425C480.96 227.425 480.826 227.476 480.749 227.576C480.67 227.68 480.633 227.825 480.633 228.014V228.165C480.633 228.222 480.645 228.254 480.673 228.264C480.7 228.276 480.749 228.281 480.814 228.281H481.574ZM481.149 228.761C481.09 228.761 481.033 228.762 480.978 228.768C480.924 228.77 480.866 228.782 480.817 228.797C480.77 228.81 480.729 228.832 480.694 228.864C480.662 228.896 480.637 228.937 480.624 228.99C480.617 229.025 480.61 229.058 480.605 229.093C480.601 229.128 480.596 229.162 480.592 229.193C480.592 229.212 480.584 229.228 480.57 229.233C480.558 229.245 480.544 229.248 480.525 229.248C480.508 229.248 480.494 229.245 480.481 229.233C480.468 229.228 480.46 229.212 480.46 229.193C480.46 229.094 480.465 229.005 480.469 228.925C480.477 228.842 480.48 228.752 480.48 228.648C480.48 228.602 480.478 228.552 480.477 228.498C480.476 228.445 480.473 228.389 480.469 228.33C480.466 228.274 480.466 228.218 480.465 228.162C480.462 228.109 480.46 228.061 480.46 228.014C480.46 227.9 480.47 227.78 480.489 227.654C480.504 227.528 480.537 227.409 480.589 227.305C480.636 227.197 480.7 227.109 480.785 227.038C480.87 226.969 480.981 226.934 481.112 226.934C481.196 226.934 481.268 226.948 481.329 226.977C481.389 227.005 481.442 227.044 481.488 227.09C481.537 227.138 481.576 227.192 481.608 227.257C481.644 227.322 481.668 227.392 481.693 227.46C481.702 227.484 481.713 227.493 481.725 227.492C481.737 227.489 481.748 227.478 481.753 227.46C481.784 227.346 481.824 227.244 481.866 227.154C481.906 227.064 481.954 226.988 482.009 226.926C482.064 226.865 482.134 226.818 482.21 226.786C482.285 226.753 482.374 226.737 482.48 226.737C482.621 226.737 482.736 226.764 482.829 226.818C482.917 226.873 482.992 226.945 483.04 227.037C483.094 227.129 483.132 227.232 483.152 227.348C483.174 227.464 483.184 227.582 483.184 227.708C483.184 227.764 483.184 227.826 483.18 227.893C483.178 227.962 483.177 228.034 483.176 228.109C483.174 228.18 483.173 228.254 483.17 228.33C483.169 228.405 483.168 228.474 483.168 228.541C483.168 228.602 483.168 228.658 483.169 228.71C483.17 228.757 483.172 228.805 483.174 228.849C483.176 228.897 483.178 228.945 483.182 228.992C483.186 229.042 483.19 229.098 483.197 229.158C483.2 229.18 483.194 229.196 483.18 229.206C483.17 229.218 483.152 229.228 483.134 229.229C483.12 229.229 483.105 229.225 483.09 229.213C483.069 229.202 483.061 229.188 483.06 229.164C483.054 229.093 483.038 229.033 483.026 228.98C483.014 228.928 482.994 228.886 482.964 228.852C482.936 228.821 482.901 228.8 482.858 228.784C482.82 228.769 482.761 228.761 482.69 228.761H481.149Z" fill="#F2A92D"/>
<path d="M480.474 223.326C480.474 223.3 480.478 223.279 480.482 223.256C480.488 223.235 480.507 223.227 480.546 223.232C480.578 223.239 480.611 223.24 480.646 223.24H480.759C480.88 223.24 480.994 223.238 481.096 223.228C481.108 223.228 481.115 223.235 481.12 223.248C481.126 223.26 481.13 223.276 481.13 223.295C481.132 223.312 481.13 223.328 481.126 223.343C481.123 223.362 481.112 223.371 481.096 223.374C480.994 223.394 480.912 223.414 480.85 223.435C480.792 223.456 480.746 223.484 480.718 223.52C480.686 223.558 480.667 223.61 480.662 223.672C480.654 223.735 480.644 223.816 480.643 223.92V224.186C480.643 224.26 480.644 224.322 480.646 224.367C480.651 224.412 480.662 224.448 480.678 224.476C480.694 224.503 480.722 224.519 480.759 224.528C480.794 224.536 480.848 224.542 480.919 224.542H481.616C481.655 224.542 481.678 224.534 481.688 224.519C481.699 224.504 481.702 224.491 481.702 224.476C481.702 224.34 481.698 224.235 481.686 224.155C481.674 224.078 481.655 224.019 481.627 223.978C481.6 223.94 481.563 223.915 481.518 223.9C481.472 223.887 481.414 223.875 481.339 223.867C481.326 223.864 481.312 223.855 481.304 223.84C481.298 223.826 481.294 223.808 481.294 223.792C481.294 223.774 481.298 223.759 481.304 223.743C481.312 223.728 481.326 223.72 481.339 223.72C481.382 223.72 481.423 223.723 481.452 223.726L481.556 223.736C481.591 223.738 481.623 223.742 481.658 223.743C481.696 223.746 481.736 223.75 481.783 223.75C481.867 223.75 481.94 223.743 482.003 223.736C482.068 223.726 482.151 223.72 482.244 223.72C482.256 223.72 482.267 223.728 482.275 223.743C482.28 223.759 482.28 223.774 482.28 223.792C482.28 223.808 482.276 223.826 482.27 223.84C482.264 223.855 482.252 223.864 482.236 223.867C482.158 223.875 482.094 223.887 482.046 223.9C481.998 223.915 481.962 223.94 481.936 223.978C481.914 224.019 481.895 224.078 481.886 224.155C481.875 224.235 481.872 224.34 481.872 224.476C481.872 224.491 481.875 224.504 481.886 224.519C481.895 224.534 481.915 224.542 481.943 224.542H482.467C482.558 224.542 482.627 224.534 482.688 224.523C482.75 224.508 482.8 224.49 482.838 224.463C482.88 224.435 482.904 224.404 482.93 224.364C482.952 224.328 482.966 224.282 482.983 224.23C482.988 224.188 482.994 224.143 482.998 224.09C483 224.039 483.002 223.984 483.002 223.928C483.002 223.858 483 223.792 482.996 223.73C482.991 223.667 482.984 223.623 482.97 223.59C482.954 223.532 482.932 223.48 482.914 223.438C482.891 223.395 482.862 223.359 482.828 223.328C482.792 223.299 482.75 223.275 482.696 223.256C482.644 223.239 482.579 223.223 482.498 223.211C482.48 223.208 482.468 223.198 482.463 223.179C482.46 223.162 482.458 223.142 482.458 223.122C482.458 223.102 482.462 223.083 482.467 223.068C482.476 223.051 482.487 223.044 482.5 223.047C482.614 223.063 482.719 223.075 482.822 223.086C482.915 223.098 483.014 223.103 483.116 223.1C483.124 223.1 483.135 223.104 483.151 223.116C483.167 223.128 483.174 223.156 483.174 223.202V224.803C483.174 224.914 483.175 225.023 483.18 225.13C483.187 225.239 483.191 225.334 483.196 225.42C483.196 225.443 483.191 225.462 483.179 225.472C483.168 225.484 483.152 225.491 483.135 225.494C483.116 225.496 483.103 225.494 483.088 225.482C483.07 225.47 483.062 225.451 483.059 225.423C483.054 225.354 483.039 225.294 483.024 225.244C483.008 225.194 482.991 225.154 482.962 225.12C482.934 225.087 482.898 225.063 482.856 225.047C482.814 225.031 482.758 225.023 482.69 225.023H481.146C481.087 225.023 481.03 225.023 480.975 225.03C480.919 225.034 480.863 225.043 480.815 225.056C480.766 225.071 480.726 225.095 480.692 225.127C480.66 225.158 480.634 225.199 480.62 225.251C480.612 225.283 480.606 225.318 480.603 225.354C480.596 225.39 480.591 225.422 480.588 225.455C480.588 225.472 480.58 225.487 480.568 225.494C480.554 225.503 480.538 225.507 480.52 225.507C480.504 225.507 480.491 225.503 480.479 225.494C480.464 225.487 480.456 225.472 480.456 225.455C480.456 225.355 480.458 225.266 480.467 225.187C480.472 225.107 480.474 225.014 480.474 224.907V223.326Z" fill="#F2A92D"/>
<path d="M481.624 220.9C481.696 220.9 481.736 220.878 481.748 220.836C481.76 220.794 481.766 220.73 481.766 220.645C481.766 220.53 481.755 220.434 481.736 220.356C481.715 220.278 481.68 220.216 481.636 220.169C481.591 220.122 481.53 220.09 481.452 220.069C481.38 220.049 481.292 220.038 481.186 220.038C481.082 220.038 480.998 220.05 480.928 220.072C480.854 220.093 480.795 220.125 480.754 220.17C480.708 220.217 480.678 220.276 480.663 220.349C480.64 220.424 480.634 220.512 480.634 220.617C480.634 220.733 480.644 220.808 480.671 220.844C480.698 220.882 480.752 220.9 480.834 220.9H481.624ZM481.148 221.384C481.09 221.384 481.034 221.385 480.978 221.388C480.923 221.392 480.868 221.401 480.818 221.417C480.77 221.43 480.728 221.453 480.694 221.484C480.663 221.514 480.636 221.557 480.624 221.61C480.618 221.642 480.61 221.677 480.606 221.713C480.602 221.748 480.596 221.781 480.592 221.812C480.592 221.832 480.584 221.844 480.571 221.852C480.559 221.861 480.543 221.866 480.526 221.866C480.508 221.866 480.494 221.861 480.482 221.852C480.468 221.844 480.46 221.832 480.46 221.812C480.46 221.713 480.464 221.624 480.468 221.544C480.476 221.464 480.479 221.372 480.479 221.266C480.476 221.09 480.472 220.942 480.468 220.828C480.464 220.712 480.46 220.598 480.46 220.494C480.46 220.376 480.476 220.261 480.5 220.146C480.526 220.032 480.568 219.929 480.624 219.838C480.68 219.749 480.752 219.678 480.844 219.624C480.936 219.568 481.044 219.542 481.174 219.542C481.275 219.542 481.364 219.558 481.435 219.594C481.511 219.626 481.576 219.673 481.63 219.733C481.683 219.79 481.726 219.86 481.76 219.942C481.794 220.022 481.819 220.109 481.839 220.201C481.843 220.225 481.854 220.234 481.867 220.234C481.879 220.234 481.888 220.225 481.9 220.201C481.96 220.066 482.03 219.958 482.102 219.882C482.178 219.808 482.256 219.752 482.334 219.712C482.415 219.672 482.5 219.642 482.586 219.625C482.667 219.608 482.75 219.589 482.832 219.568C482.895 219.554 482.936 219.529 482.963 219.496C482.994 219.462 483.007 219.428 483.007 219.393C483.007 219.356 482.995 219.322 482.966 219.289C482.942 219.257 482.9 219.232 482.85 219.214C482.827 219.208 482.814 219.198 482.804 219.18C482.8 219.162 482.798 219.145 482.8 219.129C482.804 219.112 482.814 219.097 482.827 219.085C482.839 219.072 482.852 219.066 482.863 219.069C482.93 219.077 482.99 219.098 483.034 219.13C483.084 219.164 483.124 219.202 483.154 219.248C483.184 219.292 483.207 219.346 483.223 219.404C483.238 219.461 483.244 219.516 483.244 219.573C483.244 219.668 483.227 219.752 483.19 219.83C483.151 219.905 483.1 219.957 483.026 219.984C482.986 220.001 482.932 220.017 482.882 220.033C482.827 220.049 482.774 220.066 482.716 220.08C482.662 220.094 482.608 220.109 482.559 220.125C482.502 220.14 482.458 220.152 482.415 220.164C482.246 220.218 482.122 220.285 482.047 220.369C481.974 220.453 481.934 220.57 481.934 220.72C481.934 220.77 481.944 220.812 481.962 220.846C481.98 220.884 482.016 220.9 482.075 220.9H482.618C482.71 220.9 482.784 220.89 482.839 220.87C482.892 220.848 482.934 220.816 482.963 220.776C482.996 220.737 483.019 220.684 483.03 220.625C483.046 220.565 483.056 220.494 483.059 220.416C483.059 220.397 483.068 220.384 483.082 220.373C483.099 220.364 483.114 220.357 483.134 220.357C483.15 220.357 483.166 220.364 483.176 220.373C483.191 220.384 483.196 220.4 483.196 220.42C483.196 220.568 483.191 220.697 483.18 220.808C483.172 220.92 483.167 221.028 483.167 221.133C483.167 221.245 483.172 221.356 483.18 221.464C483.191 221.572 483.196 221.678 483.196 221.782C483.196 221.8 483.191 221.812 483.176 221.822C483.166 221.832 483.15 221.834 483.134 221.836C483.116 221.84 483.103 221.834 483.088 221.826C483.07 221.818 483.062 221.802 483.059 221.782C483.054 221.7 483.039 221.632 483.026 221.578C483.015 221.529 482.994 221.484 482.962 221.456C482.934 221.426 482.895 221.405 482.85 221.397C482.8 221.386 482.732 221.384 482.656 221.384H481.148Z" fill="#F2A92D"/>
<path d="M480.474 215.83C480.474 215.804 480.478 215.784 480.482 215.76C480.488 215.739 480.507 215.731 480.546 215.736C480.578 215.743 480.611 215.744 480.646 215.744H480.759C480.88 215.744 480.994 215.74 481.096 215.734C481.108 215.734 481.115 215.739 481.12 215.752C481.126 215.766 481.13 215.782 481.13 215.796C481.132 215.818 481.13 215.834 481.126 215.848C481.123 215.866 481.112 215.875 481.096 215.879C480.994 215.898 480.912 215.919 480.85 215.94C480.792 215.959 480.746 215.988 480.718 216.026C480.686 216.064 480.667 216.112 480.662 216.176C480.654 216.239 480.644 216.323 480.643 216.426V216.691C480.643 216.766 480.644 216.827 480.646 216.872C480.651 216.919 480.662 216.956 480.678 216.982C480.694 217.008 480.722 217.024 480.759 217.035C480.794 217.044 480.848 217.047 480.919 217.047H481.616C481.655 217.047 481.678 217.04 481.688 217.024C481.699 217.011 481.702 216.996 481.702 216.982C481.702 216.848 481.698 216.739 481.686 216.663C481.674 216.584 481.655 216.526 481.627 216.484C481.6 216.447 481.563 216.419 481.518 216.406C481.472 216.392 481.414 216.382 481.339 216.374C481.326 216.37 481.312 216.362 481.304 216.347C481.298 216.332 481.294 216.315 481.294 216.299C481.294 216.28 481.298 216.264 481.304 216.25C481.312 216.234 481.326 216.227 481.339 216.227C481.382 216.227 481.423 216.23 481.452 216.232C481.488 216.234 481.524 216.236 481.556 216.24C481.591 216.246 481.623 216.248 481.658 216.25C481.696 216.252 481.736 216.255 481.783 216.255C481.867 216.255 481.94 216.25 482.003 216.24C482.068 216.232 482.151 216.227 482.244 216.227C482.256 216.227 482.267 216.234 482.275 216.25C482.28 216.264 482.28 216.28 482.28 216.299C482.28 216.315 482.276 216.332 482.27 216.347C482.264 216.362 482.252 216.37 482.236 216.374C482.158 216.382 482.094 216.392 482.046 216.406C481.998 216.419 481.962 216.447 481.936 216.484C481.914 216.526 481.895 216.584 481.886 216.663C481.875 216.739 481.872 216.848 481.872 216.982C481.872 216.996 481.875 217.011 481.886 217.024C481.895 217.04 481.915 217.047 481.943 217.047H482.467C482.558 217.047 482.627 217.042 482.688 217.027C482.75 217.015 482.8 216.995 482.838 216.967C482.88 216.942 482.904 216.908 482.93 216.872C482.952 216.834 482.966 216.788 482.983 216.734C482.988 216.694 482.994 216.647 482.998 216.596C483 216.543 483.002 216.491 483.002 216.434C483.002 216.364 483 216.299 482.996 216.235C482.991 216.174 482.984 216.127 482.97 216.094C482.954 216.035 482.932 215.984 482.914 215.943C482.891 215.898 482.862 215.863 482.828 215.834C482.792 215.803 482.75 215.779 482.696 215.76C482.644 215.742 482.579 215.728 482.498 215.714C482.48 215.711 482.468 215.7 482.463 215.682C482.46 215.667 482.458 215.647 482.458 215.626C482.458 215.606 482.462 215.587 482.467 215.57C482.476 215.556 482.487 215.548 482.5 215.551C482.614 215.566 482.719 215.58 482.822 215.592C482.915 215.602 483.014 215.608 483.116 215.606C483.124 215.606 483.135 215.612 483.151 215.623C483.167 215.634 483.174 215.663 483.174 215.706V217.308C483.174 217.419 483.175 217.53 483.18 217.635C483.187 217.743 483.191 217.84 483.196 217.926C483.196 217.947 483.191 217.966 483.179 217.979C483.168 217.99 483.152 217.998 483.135 217.999C483.116 218.002 483.103 217.998 483.088 217.988C483.07 217.974 483.062 217.956 483.059 217.93C483.054 217.86 483.039 217.796 483.024 217.75C483.008 217.698 482.991 217.658 482.962 217.626C482.934 217.594 482.898 217.568 482.856 217.554C482.814 217.538 482.758 217.53 482.69 217.53H481.146C481.087 217.53 481.03 217.531 480.975 217.536C480.919 217.539 480.863 217.55 480.815 217.564C480.766 217.579 480.726 217.6 480.692 217.631C480.66 217.663 480.634 217.704 480.62 217.758C480.612 217.791 480.606 217.824 480.603 217.86C480.596 217.896 480.591 217.928 480.588 217.959C480.588 217.979 480.58 217.991 480.568 217.999C480.554 218.01 480.538 218.014 480.52 218.014C480.504 218.014 480.491 218.01 480.479 217.999C480.464 217.991 480.456 217.979 480.456 217.959C480.456 217.862 480.458 217.771 480.467 217.691C480.472 217.611 480.474 217.519 480.474 217.412V215.83Z" fill="#F2A92D"/>
<mask id="mask0_1_340" style="mask-type:luminance" maskUnits="userSpaceOnUse" x="487" y="182" width="13" height="27">
<mask id="mask1_1_340" style="mask-type:luminance" maskUnits="userSpaceOnUse" x="487" y="182" width="13" height="27">
<path d="M499.03 182.5H487.5V208.36H499.03V182.5Z" fill="white" stroke="white"/>
</mask>
<g mask="url(#mask1_1_340)">
<path d="M499.03 182.5H487.499V208.359H499.03V182.5Z" fill="#F2AF43" stroke="black"/>
<mask id="mask2_1_340" style="mask-type:luminance" maskUnits="userSpaceOnUse" x="486" y="182" width="14" height="27">
<path d="M499.03 182.5H487.499V208.36H499.03V182.5Z" fill="white" stroke="white"/>
</mask>
<g mask="url(#mask2_1_340)">
<path d="M492.897 205.337C492.883 205.33 492.869 205.322 492.856 205.314M492.897 205.337L492.873 205.23C492.87 205.244 492.867 205.258 492.864 205.273M492.897 205.337C492.93 205.355 492.964 205.374 492.996 205.391M492.897 205.337L492.996 205.391M492.856 205.314L492.864 205.273M492.856 205.314L492.878 205.276L492.864 205.273M492.856 205.314L492.905 205.323L492.905 205.323L493.02 205.345L492.996 205.391M492.864 205.273L492.878 205.276L495.099 204.469C494.782 204.559 494.467 204.649 494.152 204.738L494.151 204.738C494.091 204.755 494.038 204.772 493.992 204.789C493.987 204.79 493.983 204.792 493.979 204.793C493.847 204.841 493.766 204.888 493.706 204.94C493.667 204.974 493.626 205.019 493.584 205.087L493.632 205.125C493.633 205.125 493.635 205.126 493.636 205.126M492.996 205.391L493.021 205.345L493.197 205.378L493.408 205.475C493.47 205.369 493.565 205.216 493.634 205.129C493.635 205.128 493.635 205.127 493.636 205.126M493.636 205.126C493.703 205.047 493.836 204.965 494.01 204.922L494.02 204.92L494.029 204.917C494.394 204.812 494.76 204.707 495.127 204.602C495.14 204.664 495.154 204.726 495.167 204.788C494.821 204.903 494.475 205.018 494.13 205.133C493.958 205.188 493.798 205.176 493.636 205.126Z" fill="#F2AF43" stroke="black"/>
<path d="M493.72 200.37C493.949 200.332 494.178 200.295 494.407 200.257C494.4 200.2 494.394 200.142 494.388 200.086C493.979 200.14 493.57 200.194 493.161 200.247L493.161 200.248L493.149 200.249C492.974 200.268 492.827 200.326 492.743 200.392C492.831 200.425 492.893 200.444 492.96 200.454C493.027 200.465 493.115 200.468 493.245 200.448C493.403 200.422 493.561 200.396 493.72 200.37Z" fill="#F2AF43" stroke="black"/>
<path d="M492.558 193.892C492.519 194.001 492.48 194.106 492.442 194.206C492.419 194.267 492.397 194.326 492.376 194.383C492.219 194.811 492.121 195.139 492.124 195.429L492.243 195.584C492.257 195.469 492.285 195.363 492.316 195.272C492.367 195.119 492.44 194.962 492.501 194.83C492.509 194.814 492.516 194.798 492.523 194.783C492.643 194.524 492.72 194.33 492.735 194.151L492.558 193.892ZM495.533 196.321L492.813 196.326L493.299 196.959L495.389 196.955C495.389 196.955 495.389 196.955 495.389 196.955C496.021 196.954 496.389 196.633 496.628 196.163C496.855 195.715 496.945 195.155 496.96 194.7L496.913 194.63C496.877 194.866 496.823 195.079 496.753 195.269C496.546 195.828 496.131 196.319 495.533 196.321L495.533 196.321Z" fill="#F2AF43" stroke="black"/>
<path d="M493.203 190.945L494.332 191.076C494.337 191.023 494.342 190.969 494.347 190.917C494.274 190.905 494.201 190.893 494.128 190.882C493.818 190.832 493.508 190.782 493.198 190.733L493.198 190.733L493.191 190.731C493.015 190.701 492.854 190.717 492.75 190.762C492.819 190.813 492.871 190.847 492.928 190.873C492.988 190.901 493.072 190.929 493.203 190.945Z" fill="#F2AF43" stroke="black"/>
<path d="M494.563 186.375C494.718 186.417 494.873 186.459 495.029 186.501C495.04 186.447 495.051 186.393 495.061 186.34C494.72 186.23 494.379 186.121 494.038 186.011L494.038 186.011L494.032 186.009C493.863 185.953 493.708 185.948 493.607 185.979C493.669 186.043 493.714 186.084 493.766 186.119C493.818 186.154 493.893 186.192 494.015 186.227C494.198 186.276 494.38 186.325 494.563 186.375Z" fill="#F2AF43" stroke="black"/>
<mask id="path-36-inside-1_1_340" fill="white">
<path d="M498.259 185.593C497.913 187.296 497.734 188.268 497.429 190.82C497.417 190.92 497.384 191.041 497.29 191.041C497.169 191.041 497.155 190.914 497.162 190.815C497.29 189.011 497.58 187.19 497.95 185.421C497.97 185.322 498.277 184.65 498.369 184.671C498.45 184.691 498.306 185.359 498.259 185.593Z"/>
</mask>
<path d="M498.259 185.593C497.913 187.296 497.734 188.268 497.429 190.82C497.417 190.92 497.384 191.041 497.29 191.041C497.169 191.041 497.155 190.914 497.162 190.815C497.29 189.011 497.58 187.19 497.95 185.421C497.97 185.322 498.277 184.65 498.369 184.671C498.45 184.691 498.306 185.359 498.259 185.593Z" fill="#F2AF43"/>
<path d="M498.259 185.593L499.239 185.792L499.239 185.792L498.259 185.593ZM497.429 190.82L496.436 190.703L496.436 190.701L497.429 190.82ZM497.29 191.041L497.293 192.041H497.29V191.041ZM497.162 190.815L498.159 190.886L498.159 190.886L497.162 190.815ZM497.95 185.421L498.929 185.624L498.929 185.625L497.95 185.421ZM498.369 184.671L498.6 183.698L498.601 183.699L498.369 184.671ZM499.239 185.792C498.898 187.471 498.723 188.416 498.422 190.939L496.436 190.701C496.745 188.12 496.929 187.121 497.279 185.395L499.239 185.792ZM498.422 190.937C498.412 191.023 498.384 191.217 498.284 191.417C498.176 191.631 497.873 192.039 497.293 192.041L497.286 190.041C497.078 190.042 496.884 190.115 496.734 190.233C496.599 190.338 496.529 190.455 496.497 190.519C496.464 190.585 496.449 190.637 496.444 190.659C496.438 190.684 496.436 190.699 496.436 190.703L498.422 190.937ZM497.29 192.041C497.075 192.041 496.836 191.981 496.623 191.824C496.419 191.673 496.308 191.484 496.249 191.338C496.145 191.077 496.158 190.834 496.164 190.743L498.159 190.886C498.16 190.876 498.161 190.848 498.158 190.808C498.155 190.771 498.145 190.692 498.106 190.593C498.065 190.491 497.979 190.34 497.812 190.216C497.636 190.085 497.444 190.041 497.29 190.041V192.041ZM496.164 190.744C496.297 188.883 496.595 187.016 496.971 185.216L498.929 185.625C498.565 187.364 498.284 189.139 498.159 190.886L496.164 190.744ZM496.971 185.217C497.001 185.073 497.071 184.913 497.093 184.862C497.134 184.767 497.187 184.655 497.242 184.546C497.294 184.444 497.365 184.315 497.442 184.201C497.477 184.15 497.543 184.059 497.635 183.971C497.679 183.928 497.767 183.85 497.893 183.785C498.015 183.723 498.274 183.621 498.6 183.698L498.139 185.645C498.453 185.719 498.699 185.62 498.806 185.565C498.918 185.508 498.989 185.442 499.017 185.416C499.05 185.384 499.071 185.359 499.079 185.348C499.084 185.342 499.088 185.337 499.09 185.334C499.092 185.332 499.093 185.33 499.093 185.33C499.094 185.329 499.091 185.333 499.087 185.34C499.083 185.347 499.077 185.356 499.07 185.368C499.057 185.392 499.041 185.422 499.023 185.456C498.988 185.525 498.954 185.598 498.929 185.656C498.916 185.685 498.909 185.704 498.905 185.714C498.903 185.719 498.904 185.716 498.907 185.708C498.908 185.706 498.919 185.673 498.929 185.624L496.971 185.217ZM498.601 183.699C498.972 183.787 499.17 184.044 499.254 184.193C499.335 184.337 499.363 184.468 499.374 184.53C499.397 184.66 499.394 184.776 499.392 184.832C499.387 184.962 499.367 185.102 499.35 185.21C499.314 185.435 499.26 185.689 499.239 185.792L497.279 185.395C497.305 185.264 497.347 185.067 497.375 184.894C497.381 184.853 497.386 184.818 497.39 184.791C497.393 184.761 497.394 184.748 497.394 184.749C497.394 184.75 497.393 184.761 497.394 184.779C497.394 184.794 497.396 184.832 497.406 184.884C497.413 184.926 497.436 185.04 497.51 185.172C497.587 185.309 497.777 185.558 498.137 185.644L498.601 183.699Z" fill="black" mask="url(#path-36-inside-1_1_340)"/>
<mask id="path-38-inside-2_1_340" fill="white">
<path d="M498.259 205.214C497.913 203.511 497.734 202.539 497.429 199.987C497.417 199.887 497.384 199.766 497.29 199.766C497.169 199.766 497.155 199.893 497.162 199.992C497.29 201.796 497.58 203.617 497.95 205.386C497.97 205.485 498.277 206.157 498.369 206.136C498.45 206.116 498.306 205.448 498.259 205.214Z"/>
</mask>
<path d="M498.259 205.214C497.913 203.511 497.734 202.539 497.429 199.987C497.417 199.887 497.384 199.766 497.29 199.766C497.169 199.766 497.155 199.893 497.162 199.992C497.29 201.796 497.58 203.617 497.95 205.386C497.97 205.485 498.277 206.157 498.369 206.136C498.45 206.116 498.306 205.448 498.259 205.214Z" fill="#F2AF43"/>
<path d="M498.259 205.214L499.239 205.015L499.239 205.015L498.259 205.214ZM497.429 199.987L496.436 200.106L496.436 200.105L497.429 199.987ZM497.29 199.766V198.766L497.293 198.766L497.29 199.766ZM497.162 199.992L498.159 199.921L498.159 199.921L497.162 199.992ZM497.95 205.386L498.929 205.182L498.929 205.183L497.95 205.386ZM498.369 206.136L498.601 207.108L498.6 207.109L498.369 206.136ZM497.279 205.412C496.929 203.686 496.745 202.687 496.436 200.106L498.422 199.869C498.723 202.391 498.898 203.336 499.239 205.015L497.279 205.412ZM496.436 200.105C496.436 200.108 496.438 200.123 496.444 200.148C496.449 200.17 496.464 200.222 496.497 200.288C496.529 200.352 496.599 200.469 496.734 200.574C496.884 200.692 497.078 200.765 497.286 200.766L497.293 198.766C497.873 198.768 498.176 199.177 498.284 199.39C498.384 199.59 498.412 199.784 498.422 199.87L496.436 200.105ZM497.29 200.766C497.444 200.766 497.636 200.722 497.812 200.591C497.979 200.467 498.065 200.316 498.106 200.214C498.145 200.116 498.155 200.036 498.158 200C498.161 199.959 498.16 199.932 498.159 199.921L496.164 200.064C496.158 199.973 496.145 199.73 496.249 199.469C496.308 199.323 496.419 199.134 496.623 198.983C496.836 198.826 497.075 198.766 497.29 198.766V200.766ZM498.159 199.921C498.284 201.668 498.565 203.443 498.929 205.182L496.971 205.591C496.595 203.791 496.297 201.924 496.164 200.063L498.159 199.921ZM498.929 205.183C498.919 205.134 498.908 205.101 498.907 205.099C498.904 205.091 498.903 205.088 498.905 205.093C498.909 205.103 498.916 205.122 498.929 205.151C498.954 205.209 498.988 205.282 499.023 205.351C499.041 205.385 499.057 205.415 499.07 205.439C499.077 205.451 499.083 205.46 499.087 205.467C499.091 205.474 499.094 205.478 499.093 205.477C499.093 205.477 499.092 205.475 499.09 205.473C499.088 205.47 499.084 205.465 499.079 205.459C499.071 205.448 499.05 205.423 499.017 205.391C498.989 205.365 498.918 205.3 498.806 205.242C498.699 205.187 498.453 205.088 498.139 205.163L498.6 207.109C498.274 207.186 498.015 207.084 497.893 207.022C497.767 206.957 497.679 206.879 497.635 206.836C497.543 206.749 497.477 206.657 497.442 206.606C497.365 206.492 497.294 206.363 497.242 206.261C497.187 206.152 497.134 206.04 497.093 205.945C497.071 205.894 497.001 205.734 496.971 205.59L498.929 205.183ZM498.137 205.163C497.777 205.249 497.587 205.498 497.51 205.635C497.436 205.767 497.413 205.881 497.406 205.923C497.396 205.975 497.394 206.013 497.394 206.028C497.393 206.046 497.394 206.057 497.394 206.058C497.394 206.059 497.393 206.046 497.39 206.017C497.386 205.989 497.381 205.954 497.375 205.913C497.347 205.741 497.305 205.543 497.279 205.412L499.239 205.015C499.26 205.118 499.314 205.372 499.35 205.597C499.367 205.705 499.387 205.845 499.392 205.975C499.394 206.031 499.397 206.147 499.374 206.277C499.363 206.339 499.335 206.47 499.254 206.614C499.17 206.764 498.972 207.02 498.601 207.108L498.137 205.163Z" fill="black" mask="url(#path-38-inside-2_1_340)"/>
</g>
</g>
</mask>
<g mask="url(#mask0_1_340)">
<mask id="mask3_1_340" style="mask-type:luminance" maskUnits="userSpaceOnUse" x="487" y="182" width="13" height="27">
<path d="M499.03 182.5H487.5V208.36H499.03V182.5Z" fill="white" stroke="white"/>
</mask>
<g mask="url(#mask3_1_340)">
<mask id="path-41-inside-3_1_340" fill="white">
<path d="M490.39 208.099C490.331 208.209 490.271 208.318 490.212 208.427C489.747 208.572 489.284 208.717 488.824 208.859C488.744 208.569 488.597 207.961 488.534 207.708C488.764 207.645 488.995 207.581 489.226 207.518C489.186 207.354 489.143 207.147 489.099 206.953C488.864 207.013 488.63 207.072 488.397 207.131C488.327 206.84 488.209 206.286 488.144 205.983C488.382 205.929 488.62 205.874 488.858 205.819C488.811 205.602 488.77 205.369 488.748 205.255C488.507 205.306 488.266 205.357 488.026 205.408C487.99 205.243 487.873 204.644 487.805 204.264C488.295 204.174 488.785 204.082 489.276 203.989C489.385 204.062 489.493 204.135 489.6 204.209C489.716 204.919 489.927 206.007 490.081 206.742C490.109 206.735 490.136 206.728 490.164 206.721C490.047 205.869 489.929 205.018 489.809 204.17C490.44 204.046 491.073 203.92 491.707 203.792C491.698 203.734 491.688 203.672 491.678 203.607C491.493 203.643 491.307 203.679 491.122 203.715C491.061 203.332 491.01 202.978 490.964 202.652C491.151 202.62 491.338 202.589 491.525 202.557C491.516 202.498 491.509 202.439 491.501 202.381C490.79 202.498 490.08 202.614 489.371 202.727C489.287 202.832 489.204 202.936 489.12 203.04C488.625 203.121 488.131 203.202 487.638 203.282C487.591 203.005 487.5 202.377 487.466 202.133C487.719 202.098 487.972 202.063 488.225 202.028C488.21 201.917 488.181 201.677 488.155 201.464C487.9 201.496 487.645 201.528 487.391 201.559C487.355 201.301 487.289 200.701 487.258 200.414C487.516 200.388 487.773 200.363 488.031 200.337C488.007 200.127 487.991 199.876 487.978 199.772C487.72 199.795 487.462 199.818 487.204 199.84C487.197 199.795 487.148 199.224 487.112 198.698C487.623 198.665 488.133 198.631 488.644 198.597C488.752 198.681 488.859 198.765 488.967 198.849C488.997 199.482 489.165 201.122 489.196 201.384C489.225 201.38 489.254 201.376 489.282 201.373C489.248 200.527 489.214 199.681 489.18 198.836C489.832 198.789 490.484 198.741 491.137 198.692C491.131 198.633 491.128 198.57 491.124 198.502C490.934 198.516 490.744 198.528 490.554 198.541C490.543 198.422 490.51 197.761 490.5 197.479C490.692 197.47 490.883 197.461 491.075 197.453C491.073 197.389 491.07 197.327 491.067 197.267C490.339 197.297 489.612 197.328 488.884 197.358C488.786 197.454 488.688 197.55 488.591 197.645C488.078 197.668 487.566 197.691 487.053 197.713C487.027 197.188 487.012 196.618 487.013 196.573C487.275 196.567 487.539 196.561 487.801 196.555C487.8 196.45 487.793 196.158 487.793 195.991C487.53 195.993 487.267 195.996 487.004 195.998C486.999 195.685 486.999 195.085 487.004 194.857C487.267 194.86 487.53 194.864 487.793 194.867C487.794 194.656 487.8 194.383 487.801 194.302C487.539 194.295 487.275 194.289 487.013 194.283C487.014 194.051 487.042 193.419 487.054 193.143C487.566 193.166 488.079 193.189 488.592 193.213C488.69 193.306 488.789 193.399 488.887 193.492C488.855 194.204 488.845 195.29 488.854 196.026C488.883 196.026 488.911 196.027 488.94 196.027C488.993 195.186 489.048 194.345 489.102 193.503C489.757 193.529 490.413 193.557 491.068 193.584C491.069 193.525 491.072 193.466 491.075 193.404C490.883 193.395 490.692 193.387 490.5 193.378C490.51 193.096 490.543 192.435 490.554 192.315C490.744 192.329 490.934 192.342 491.124 192.356C491.128 192.291 491.131 192.229 491.135 192.173C490.415 192.119 489.696 192.066 488.976 192.014C488.866 192.098 488.755 192.182 488.644 192.266C488.133 192.231 487.623 192.198 487.112 192.165C487.148 191.638 487.197 191.067 487.204 191.021C487.462 191.044 487.72 191.068 487.978 191.092C487.991 190.986 488.007 190.736 488.031 190.526C487.773 190.5 487.516 190.475 487.258 190.449C487.289 190.162 487.355 189.562 487.391 189.303C487.645 189.335 487.9 189.366 488.155 189.398C488.181 189.185 488.21 188.946 488.225 188.835C487.972 188.8 487.719 188.765 487.466 188.73C487.5 188.486 487.591 187.858 487.638 187.581C488.131 187.661 488.625 187.742 489.12 187.823C489.204 187.927 489.287 188.032 489.371 188.136C489.272 188.821 489.134 189.978 489.072 190.681C489.101 190.684 489.129 190.687 489.158 190.69C489.3 189.853 489.441 189.013 489.581 188.17C490.22 188.273 490.86 188.377 491.501 188.482C491.509 188.424 491.518 188.366 491.527 188.305C491.339 188.273 491.151 188.24 490.964 188.208C491.01 187.882 491.06 187.527 491.122 187.145C491.307 187.181 491.493 187.217 491.678 187.254C491.689 187.189 491.698 187.126 491.707 187.067C491.012 186.927 490.32 186.79 489.629 186.654C489.512 186.726 489.394 186.798 489.276 186.869C488.785 186.777 488.295 186.685 487.805 186.595C487.873 186.215 487.99 185.616 488.026 185.45C488.266 185.501 488.507 185.552 488.748 185.603C488.771 185.49 488.811 185.256 488.858 185.039C488.62 184.984 488.382 184.93 488.144 184.875C488.209 184.574 488.327 184.018 488.397 183.728C488.63 183.787 488.864 183.846 489.099 183.905C489.143 183.712 489.186 183.504 489.226 183.342C488.995 183.277 488.764 183.214 488.534 183.15C488.597 182.898 488.744 182.289 488.824 182C489.284 182.143 489.747 182.287 490.212 182.432C490.27 182.54 490.329 182.648 490.387 182.755C490.219 183.446 489.958 184.704 489.843 185.313C489.87 185.319 489.896 185.326 489.923 185.332C490.148 184.498 490.37 183.66 490.587 182.818L499.519 186.091L499.521 186.091C498.363 192.429 498.422 198.737 499.53 204.732H499.529L490.39 208.099Z"/>
</mask>
<path d="M490.39 208.099C490.331 208.209 490.271 208.318 490.212 208.427C489.747 208.572 489.284 208.717 488.824 208.859C488.744 208.569 488.597 207.961 488.534 207.708C488.764 207.645 488.995 207.581 489.226 207.518C489.186 207.354 489.143 207.147 489.099 206.953C488.864 207.013 488.63 207.072 488.397 207.131C488.327 206.84 488.209 206.286 488.144 205.983C488.382 205.929 488.62 205.874 488.858 205.819C488.811 205.602 488.77 205.369 488.748 205.255C488.507 205.306 488.266 205.357 488.026 205.408C487.99 205.243 487.873 204.644 487.805 204.264C488.295 204.174 488.785 204.082 489.276 203.989C489.385 204.062 489.493 204.135 489.6 204.209C489.716 204.919 489.927 206.007 490.081 206.742C490.109 206.735 490.136 206.728 490.164 206.721C490.047 205.869 489.929 205.018 489.809 204.17C490.44 204.046 491.073 203.92 491.707 203.792C491.698 203.734 491.688 203.672 491.678 203.607C491.493 203.643 491.307 203.679 491.122 203.715C491.061 203.332 491.01 202.978 490.964 202.652C491.151 202.62 491.338 202.589 491.525 202.557C491.516 202.498 491.509 202.439 491.501 202.381C490.79 202.498 490.08 202.614 489.371 202.727C489.287 202.832 489.204 202.936 489.12 203.04C488.625 203.121 488.131 203.202 487.638 203.282C487.591 203.005 487.5 202.377 487.466 202.133C487.719 202.098 487.972 202.063 488.225 202.028C488.21 201.917 488.181 201.677 488.155 201.464C487.9 201.496 487.645 201.528 487.391 201.559C487.355 201.301 487.289 200.701 487.258 200.414C487.516 200.388 487.773 200.363 488.031 200.337C488.007 200.127 487.991 199.876 487.978 199.772C487.72 199.795 487.462 199.818 487.204 199.84C487.197 199.795 487.148 199.224 487.112 198.698C487.623 198.665 488.133 198.631 488.644 198.597C488.752 198.681 488.859 198.765 488.967 198.849C488.997 199.482 489.165 201.122 489.196 201.384C489.225 201.38 489.254 201.376 489.282 201.373C489.248 200.527 489.214 199.681 489.18 198.836C489.832 198.789 490.484 198.741 491.137 198.692C491.131 198.633 491.128 198.57 491.124 198.502C490.934 198.516 490.744 198.528 490.554 198.541C490.543 198.422 490.51 197.761 490.5 197.479C490.692 197.47 490.883 197.461 491.075 197.453C491.073 197.389 491.07 197.327 491.067 197.267C490.339 197.297 489.612 197.328 488.884 197.358C488.786 197.454 488.688 197.55 488.591 197.645C488.078 197.668 487.566 197.691 487.053 197.713C487.027 197.188 487.012 196.618 487.013 196.573C487.275 196.567 487.539 196.561 487.801 196.555C487.8 196.45 487.793 196.158 487.793 195.991C487.53 195.993 487.267 195.996 487.004 195.998C486.999 195.685 486.999 195.085 487.004 194.857C487.267 194.86 487.53 194.864 487.793 194.867C487.794 194.656 487.8 194.383 487.801 194.302C487.539 194.295 487.275 194.289 487.013 194.283C487.014 194.051 487.042 193.419 487.054 193.143C487.566 193.166 488.079 193.189 488.592 193.213C488.69 193.306 488.789 193.399 488.887 193.492C488.855 194.204 488.845 195.29 488.854 196.026C488.883 196.026 488.911 196.027 488.94 196.027C488.993 195.186 489.048 194.345 489.102 193.503C489.757 193.529 490.413 193.557 491.068 193.584C491.069 193.525 491.072 193.466 491.075 193.404C490.883 193.395 490.692 193.387 490.5 193.378C490.51 193.096 490.543 192.435 490.554 192.315C490.744 192.329 490.934 192.342 491.124 192.356C491.128 192.291 491.131 192.229 491.135 192.173C490.415 192.119 489.696 192.066 488.976 192.014C488.866 192.098 488.755 192.182 488.644 192.266C488.133 192.231 487.623 192.198 487.112 192.165C487.148 191.638 487.197 191.067 487.204 191.021C487.462 191.044 487.72 191.068 487.978 191.092C487.991 190.986 488.007 190.736 488.031 190.526C487.773 190.5 487.516 190.475 487.258 190.449C487.289 190.162 487.355 189.562 487.391 189.303C487.645 189.335 487.9 189.366 488.155 189.398C488.181 189.185 488.21 188.946 488.225 188.835C487.972 188.8 487.719 188.765 487.466 188.73C487.5 188.486 487.591 187.858 487.638 187.581C488.131 187.661 488.625 187.742 489.12 187.823C489.204 187.927 489.287 188.032 489.371 188.136C489.272 188.821 489.134 189.978 489.072 190.681C489.101 190.684 489.129 190.687 489.158 190.69C489.3 189.853 489.441 189.013 489.581 188.17C490.22 188.273 490.86 188.377 491.501 188.482C491.509 188.424 491.518 188.366 491.527 188.305C491.339 188.273 491.151 188.24 490.964 188.208C491.01 187.882 491.06 187.527 491.122 187.145C491.307 187.181 491.493 187.217 491.678 187.254C491.689 187.189 491.698 187.126 491.707 187.067C491.012 186.927 490.32 186.79 489.629 186.654C489.512 186.726 489.394 186.798 489.276 186.869C488.785 186.777 488.295 186.685 487.805 186.595C487.873 186.215 487.99 185.616 488.026 185.45C488.266 185.501 488.507 185.552 488.748 185.603C488.771 185.49 488.811 185.256 488.858 185.039C488.62 184.984 488.382 184.93 488.144 184.875C488.209 184.574 488.327 184.018 488.397 183.728C488.63 183.787 488.864 183.846 489.099 183.905C489.143 183.712 489.186 183.504 489.226 183.342C488.995 183.277 488.764 183.214 488.534 183.15C488.597 182.898 488.744 182.289 488.824 182C489.284 182.143 489.747 182.287 490.212 182.432C490.27 182.54 490.329 182.648 490.387 182.755C490.219 183.446 489.958 184.704 489.843 185.313C489.87 185.319 489.896 185.326 489.923 185.332C490.148 184.498 490.37 183.66 490.587 182.818L499.519 186.091L499.521 186.091C498.363 192.429 498.422 198.737 499.53 204.732H499.529L490.39 208.099Z" fill="#FFAF01" stroke="black" stroke-opacity="0.2" stroke-width="2" mask="url(#path-41-inside-3_1_340)"/>
</g>
</g>
<mask id="mask4_1_340" style="mask-type:luminance" maskUnits="userSpaceOnUse" x="43" y="179" width="80" height="40">
<mask id="mask5_1_340" style="mask-type:luminance" maskUnits="userSpaceOnUse" x="43" y="179" width="80" height="40">
<path d="M121.56 217.89V179.5H43.5V217.89H121.56Z" fill="white" stroke="white"/>
</mask>
<g mask="url(#mask5_1_340)">
<path d="M121.561 217.891V179.496H43.5027V217.891H121.561Z" fill="#F2AF43" stroke="black"/>
<mask id="mask6_1_340" style="mask-type:luminance" maskUnits="userSpaceOnUse" x="43" y="178" width="80" height="41">
<path d="M121.56 217.89V179.496H43.5V217.89H121.56Z" fill="white" stroke="white"/>
</mask>
<g mask="url(#mask6_1_340)">
<path d="M54.346 205.924C55.1018 205.741 56.051 205.522 56.7656 205.365C56.3565 203.836 55.9473 202.312 55.5374 200.791L55.5351 200.783L55.533 200.774C55.3682 200.062 55.0309 199.4 54.576 199.008C54.2995 198.774 53.8716 198.485 53.5565 198.286C53.1199 199.21 52.6344 200.394 53.0506 201.759C53.4827 203.143 53.9141 204.531 54.346 205.924Z" fill="#F2AF43" stroke="black"/>
<path d="M69.9236 203.176C69.2346 203.253 68.2892 203.364 67.5184 203.465C67.3564 202.411 67.1942 201.356 67.0321 200.303C66.9553 199.804 66.8784 199.305 66.8017 198.806C66.655 197.806 66.818 197.235 67.0291 196.638L69.9236 203.176ZM69.9236 203.176C69.7198 201.525 69.5162 199.874 69.3133 198.225L69.3131 198.225L69.312 198.213C69.2372 197.463 68.9822 196.726 68.581 196.257C68.3359 195.973 67.9531 195.619 67.6679 195.366C67.434 195.737 67.184 196.2 67.0291 196.638L69.9236 203.176Z" fill="#F2AF43" stroke="black"/>
<path d="M80.8637 197.053L80.8629 196.638L81.2709 196.561C81.7649 196.468 82.2517 196.572 82.6973 196.731C83.0936 196.873 83.5043 197.076 83.8989 197.272C83.9452 197.295 83.9913 197.318 84.0372 197.341C84.9036 197.769 85.7239 198.138 86.5802 198.106L89.3281 196.098C88.3311 195.847 87.3722 195.463 86.4715 195.103C86.2905 195.031 86.112 194.96 85.9359 194.89C84.5617 194.35 83.3468 193.946 82.1919 194.052L77.0554 198.266L77.0689 205.375C77.0689 205.375 77.0689 205.375 77.0689 205.375C77.0741 207.873 78.3219 209.349 79.9443 210.229C81.5395 211.093 83.4952 211.373 84.9589 211.389L87.9811 209.21C86.0466 209.34 84.4901 209.109 83.3305 208.651C81.821 208.055 80.883 207.016 80.8805 205.824V205.824L80.8637 197.053Z" fill="#F2AF43" stroke="black"/>
<path d="M94.8954 203.08C95.4914 203.139 96.1143 203.2 96.6253 203.26C96.7092 202.701 96.7929 202.142 96.8766 201.582C97.0225 200.608 97.1684 199.634 97.3145 198.66L97.3144 198.66L97.3156 198.653C97.4372 197.917 97.3853 197.131 97.1138 196.539C96.9483 196.182 96.6642 195.704 96.4544 195.371C96.1402 195.646 95.7915 196 95.543 196.36L95.5414 196.362C95.1865 196.869 94.884 197.358 94.7663 198.37L94.262 203.017C94.4651 203.038 94.6784 203.059 94.8954 203.08Z" fill="#F2AF43" stroke="black"/>
<path d="M108.245 205.211C108.821 205.334 109.436 205.465 109.939 205.582C110.351 204.206 110.763 202.832 111.175 201.463L111.175 201.463L111.177 201.457C111.395 200.764 111.45 200.009 111.259 199.395L111.259 199.393C111.146 199.024 110.925 198.511 110.76 198.145C110.41 198.364 110.014 198.651 109.712 198.958C109.296 199.386 108.935 199.808 108.684 200.759C108.539 201.335 108.393 201.91 108.247 202.486C108.029 203.347 107.811 204.209 107.593 205.072C107.798 205.116 108.019 205.163 108.245 205.211Z" fill="#F2AF43" stroke="black"/>
<path d="M95.4476 211.347L95.9475 211.346C95.9476 211.345 95.9476 211.345 95.9476 211.345C95.9477 211.345 95.9476 211.346 95.9476 211.347H95.9473H95.4476ZM95.4476 211.347C95.4486 211.644 95.8043 211.748 96.0995 211.785L95.4476 211.347ZM101.891 212.076C105.62 212.639 108.08 213.145 111.589 213.905C111.589 213.905 111.589 213.905 111.589 213.905L101.891 212.076ZM101.891 212.076C105.245 212.544 108.593 213.177 111.883 213.911L111.883 213.911C111.88 213.91 111.881 213.91 111.886 213.912C111.897 213.916 111.928 213.926 111.984 213.949C112.039 213.971 112.105 214 112.18 214.034L101.891 212.076ZM95.8912 211.218C95.8908 211.218 95.8906 211.217 95.8906 211.217L95.8912 211.218Z" fill="#F2AF43" stroke="black"/>
<path d="M63.3249 212.076C59.9705 212.544 56.6224 213.177 53.3329 213.911L53.3323 213.911C53.3353 213.91 53.3346 213.91 53.3295 213.912C53.3187 213.916 53.2879 213.926 53.2312 213.949C53.177 213.971 53.1109 214 53.0357 214.034C53.1851 214.002 53.3241 213.971 53.4447 213.945C53.5114 213.93 53.5725 213.917 53.6266 213.905L63.3249 212.076ZM63.3249 212.076C59.5959 212.639 57.1358 213.145 53.6268 213.905L63.3249 212.076ZM69.1161 211.785C61.604 212.744 58.7443 213.308 53.7325 214.394L69.1161 211.785ZM69.1161 211.785C69.4113 211.748 69.7671 211.644 69.768 211.347L69.1161 211.785Z" fill="#F2AF43" stroke="black"/>
</g>
</g>
</mask>
<g mask="url(#mask4_1_340)">
<mask id="mask7_1_340" style="mask-type:luminance" maskUnits="userSpaceOnUse" x="43" y="179" width="80" height="40">
<path d="M121.56 217.89V179.5H43.5V217.89H121.56Z" fill="white" stroke="white"/>
</mask>
<g mask="url(#mask7_1_340)">
<mask id="path-53-inside-4_1_340" fill="white">
<path d="M45.2388 189.657C44.9176 189.47 44.5954 189.284 44.2741 189.099C43.8467 187.637 43.422 186.182 43.002 184.733C43.8569 184.484 45.6467 184.021 46.3917 183.822C46.577 184.546 46.7632 185.271 46.9513 185.998C47.4318 185.872 48.0418 185.738 48.6117 185.598C48.4366 184.861 48.2634 184.126 48.0902 183.391C48.946 183.173 50.5765 182.8 51.4677 182.597C51.6279 183.343 51.789 184.092 51.951 184.841C52.5889 184.694 53.2752 184.566 53.6114 184.494C53.4605 183.736 53.3106 182.98 53.1607 182.224C53.6449 182.112 55.4105 181.745 56.5279 181.531C56.7943 183.07 57.0634 184.612 57.3362 186.156C57.1211 186.496 56.9069 186.836 56.6909 187.175C54.5994 187.539 51.3988 188.202 49.2356 188.686C49.2551 188.773 49.2747 188.86 49.2952 188.946C51.8048 188.58 54.3079 188.207 56.8054 187.83C57.1705 189.813 57.5411 191.803 57.9173 193.797C58.0886 193.771 58.2693 193.739 58.4621 193.707C58.3559 193.124 58.2507 192.541 58.1445 191.959C59.2704 191.766 60.3133 191.607 61.2725 191.461C61.3656 192.049 61.4587 192.636 61.5528 193.224C61.7269 193.198 61.8982 193.176 62.0705 193.15C61.725 190.914 61.3851 188.682 61.0508 186.454C60.7435 186.191 60.4372 185.927 60.1308 185.664C59.8915 184.109 59.6531 182.556 59.4193 181.005C60.2342 180.859 62.0817 180.572 62.7997 180.466C62.903 181.26 63.0064 182.055 63.1107 182.85C63.4366 182.804 64.1415 182.712 64.7682 182.63C64.6751 181.829 64.5811 181.029 64.4889 180.229C65.2478 180.115 67.0153 179.908 67.8599 179.812C67.9353 180.622 68.0107 181.431 68.0871 182.24C68.7045 182.167 69.4448 182.117 69.7493 182.075C69.6813 181.263 69.6143 180.451 69.5482 179.64C69.6823 179.621 71.3631 179.466 72.9117 179.353C73.0095 180.958 73.1082 182.563 73.2088 184.169C72.9611 184.507 72.7134 184.845 72.4657 185.183C70.6032 185.277 65.7768 185.805 65.0057 185.905C65.0169 185.994 65.0271 186.085 65.0374 186.174C67.5284 186.066 70.0166 185.959 72.5038 185.853C72.6426 187.902 72.7851 189.954 72.9285 192.005C73.1035 191.987 73.2889 191.977 73.4872 191.966C73.4481 191.368 73.4099 190.77 73.3717 190.173C73.7219 190.139 75.6681 190.034 76.4997 190.004C76.5258 190.606 76.5509 191.208 76.577 191.81C76.7641 191.803 76.9467 191.794 77.1236 191.784C77.0333 189.497 76.9439 187.21 76.8554 184.924C76.5732 184.616 76.2911 184.308 76.0099 184.001C75.9419 182.389 75.8758 180.778 75.8106 179.167C77.3555 179.086 79.0326 179.039 79.1648 179.04C79.1825 179.865 79.2002 180.693 79.2179 181.519C79.528 181.514 80.3866 181.492 80.8801 181.492C80.8717 180.665 80.8643 179.838 80.8568 179.012C81.7797 178.996 83.5452 178.997 84.2167 179.013C84.2064 179.838 84.1971 180.665 84.1869 181.492C84.807 181.496 85.6116 181.515 85.8509 181.519C85.8696 180.693 85.8882 179.865 85.9059 179.04C86.5875 179.044 88.449 179.133 89.261 179.171C89.1931 180.781 89.1251 182.392 89.0562 184.004C88.7824 184.313 88.5077 184.624 88.233 184.934C86.1396 184.83 82.9428 184.801 80.7749 184.83C80.7749 184.919 80.774 185.009 80.774 185.099C83.2482 185.266 85.7243 185.438 88.2032 185.609C88.124 187.669 88.0439 189.728 87.9629 191.788C88.1361 191.793 88.3121 191.802 88.4937 191.81C88.5189 191.208 88.544 190.606 88.5691 190.004C89.4007 190.034 91.347 190.139 91.6999 190.173C91.6589 190.77 91.6179 191.368 91.577 191.966C91.7688 191.977 91.9513 191.986 92.118 192C92.2763 189.737 92.4318 187.474 92.5855 185.212C92.3378 184.865 92.091 184.518 91.8442 184.169C91.9448 182.563 92.0435 180.958 92.1413 179.353C93.6918 179.465 95.3717 179.621 95.5067 179.64C95.4387 180.451 95.3698 181.263 95.3 182.075C95.611 182.115 96.3467 182.167 96.964 182.24C97.0404 181.431 97.1149 180.622 97.1903 179.812C98.0359 179.907 99.8015 180.115 100.563 180.229C100.471 181.029 100.378 181.829 100.285 182.63C100.912 182.713 101.615 182.804 101.943 182.85C102.046 182.055 102.148 181.259 102.25 180.466C102.969 180.571 104.818 180.859 105.632 181.005C105.397 182.556 105.159 184.109 104.919 185.664C104.613 185.927 104.306 186.191 103.999 186.454C101.982 186.142 98.5769 185.709 96.5087 185.515C96.4994 185.604 96.4901 185.694 96.4807 185.783C98.9466 186.229 101.419 186.673 103.898 187.114C103.597 189.122 103.291 191.134 102.981 193.15C103.152 193.175 103.323 193.203 103.502 193.231C103.597 192.641 103.692 192.051 103.788 191.461C104.748 191.605 105.791 191.763 106.915 191.959C106.809 192.541 106.704 193.124 106.597 193.707C106.787 193.741 106.973 193.771 107.147 193.797C107.558 191.614 107.962 189.437 108.36 187.265C108.149 186.897 107.938 186.527 107.728 186.156C108 184.612 108.27 183.07 108.536 181.531C109.654 181.745 111.416 182.112 111.904 182.224C111.755 182.98 111.606 183.737 111.455 184.494C111.788 184.567 112.475 184.694 113.115 184.841C113.276 184.092 113.437 183.343 113.597 182.597C114.483 182.8 116.119 183.173 116.974 183.391C116.801 184.126 116.627 184.861 116.452 185.598C117.02 185.738 117.633 185.872 118.111 185.998C118.3 185.271 118.488 184.546 118.675 183.822C119.417 184.02 121.208 184.484 122.06 184.733C121.64 186.182 121.216 187.637 120.787 189.099C120.471 189.281 120.153 189.465 119.837 189.648C117.805 189.118 114.102 188.299 112.309 187.938C112.29 188.022 112.27 188.105 112.252 188.19C114.708 188.898 117.175 189.594 119.653 190.277L110.019 218.354L110.018 218.362C91.3647 214.721 72.7962 214.907 55.1516 218.39V218.387L45.2388 189.657Z"/>
</mask>
<path d="M45.2388 189.657C44.9176 189.47 44.5954 189.284 44.2741 189.099C43.8467 187.637 43.422 186.182 43.002 184.733C43.8569 184.484 45.6467 184.021 46.3917 183.822C46.577 184.546 46.7632 185.271 46.9513 185.998C47.4318 185.872 48.0418 185.738 48.6117 185.598C48.4366 184.861 48.2634 184.126 48.0902 183.391C48.946 183.173 50.5765 182.8 51.4677 182.597C51.6279 183.343 51.789 184.092 51.951 184.841C52.5889 184.694 53.2752 184.566 53.6114 184.494C53.4605 183.736 53.3106 182.98 53.1607 182.224C53.6449 182.112 55.4105 181.745 56.5279 181.531C56.7943 183.07 57.0634 184.612 57.3362 186.156C57.1211 186.496 56.9069 186.836 56.6909 187.175C54.5994 187.539 51.3988 188.202 49.2356 188.686C49.2551 188.773 49.2747 188.86 49.2952 188.946C51.8048 188.58 54.3079 188.207 56.8054 187.83C57.1705 189.813 57.5411 191.803 57.9173 193.797C58.0886 193.771 58.2693 193.739 58.4621 193.707C58.3559 193.124 58.2507 192.541 58.1445 191.959C59.2704 191.766 60.3133 191.607 61.2725 191.461C61.3656 192.049 61.4587 192.636 61.5528 193.224C61.7269 193.198 61.8982 193.176 62.0705 193.15C61.725 190.914 61.3851 188.682 61.0508 186.454C60.7435 186.191 60.4372 185.927 60.1308 185.664C59.8915 184.109 59.6531 182.556 59.4193 181.005C60.2342 180.859 62.0817 180.572 62.7997 180.466C62.903 181.26 63.0064 182.055 63.1107 182.85C63.4366 182.804 64.1415 182.712 64.7682 182.63C64.6751 181.829 64.5811 181.029 64.4889 180.229C65.2478 180.115 67.0153 179.908 67.8599 179.812C67.9353 180.622 68.0107 181.431 68.0871 182.24C68.7045 182.167 69.4448 182.117 69.7493 182.075C69.6813 181.263 69.6143 180.451 69.5482 179.64C69.6823 179.621 71.3631 179.466 72.9117 179.353C73.0095 180.958 73.1082 182.563 73.2088 184.169C72.9611 184.507 72.7134 184.845 72.4657 185.183C70.6032 185.277 65.7768 185.805 65.0057 185.905C65.0169 185.994 65.0271 186.085 65.0374 186.174C67.5284 186.066 70.0166 185.959 72.5038 185.853C72.6426 187.902 72.7851 189.954 72.9285 192.005C73.1035 191.987 73.2889 191.977 73.4872 191.966C73.4481 191.368 73.4099 190.77 73.3717 190.173C73.7219 190.139 75.6681 190.034 76.4997 190.004C76.5258 190.606 76.5509 191.208 76.577 191.81C76.7641 191.803 76.9467 191.794 77.1236 191.784C77.0333 189.497 76.9439 187.21 76.8554 184.924C76.5732 184.616 76.2911 184.308 76.0099 184.001C75.9419 182.389 75.8758 180.778 75.8106 179.167C77.3555 179.086 79.0326 179.039 79.1648 179.04C79.1825 179.865 79.2002 180.693 79.2179 181.519C79.528 181.514 80.3866 181.492 80.8801 181.492C80.8717 180.665 80.8643 179.838 80.8568 179.012C81.7797 178.996 83.5452 178.997 84.2167 179.013C84.2064 179.838 84.1971 180.665 84.1869 181.492C84.807 181.496 85.6116 181.515 85.8509 181.519C85.8696 180.693 85.8882 179.865 85.9059 179.04C86.5875 179.044 88.449 179.133 89.261 179.171C89.1931 180.781 89.1251 182.392 89.0562 184.004C88.7824 184.313 88.5077 184.624 88.233 184.934C86.1396 184.83 82.9428 184.801 80.7749 184.83C80.7749 184.919 80.774 185.009 80.774 185.099C83.2482 185.266 85.7243 185.438 88.2032 185.609C88.124 187.669 88.0439 189.728 87.9629 191.788C88.1361 191.793 88.3121 191.802 88.4937 191.81C88.5189 191.208 88.544 190.606 88.5691 190.004C89.4007 190.034 91.347 190.139 91.6999 190.173C91.6589 190.77 91.6179 191.368 91.577 191.966C91.7688 191.977 91.9513 191.986 92.118 192C92.2763 189.737 92.4318 187.474 92.5855 185.212C92.3378 184.865 92.091 184.518 91.8442 184.169C91.9448 182.563 92.0435 180.958 92.1413 179.353C93.6918 179.465 95.3717 179.621 95.5067 179.64C95.4387 180.451 95.3698 181.263 95.3 182.075C95.611 182.115 96.3467 182.167 96.964 182.24C97.0404 181.431 97.1149 180.622 97.1903 179.812C98.0359 179.907 99.8015 180.115 100.563 180.229C100.471 181.029 100.378 181.829 100.285 182.63C100.912 182.713 101.615 182.804 101.943 182.85C102.046 182.055 102.148 181.259 102.25 180.466C102.969 180.571 104.818 180.859 105.632 181.005C105.397 182.556 105.159 184.109 104.919 185.664C104.613 185.927 104.306 186.191 103.999 186.454C101.982 186.142 98.5769 185.709 96.5087 185.515C96.4994 185.604 96.4901 185.694 96.4807 185.783C98.9466 186.229 101.419 186.673 103.898 187.114C103.597 189.122 103.291 191.134 102.981 193.15C103.152 193.175 103.323 193.203 103.502 193.231C103.597 192.641 103.692 192.051 103.788 191.461C104.748 191.605 105.791 191.763 106.915 191.959C106.809 192.541 106.704 193.124 106.597 193.707C106.787 193.741 106.973 193.771 107.147 193.797C107.558 191.614 107.962 189.437 108.36 187.265C108.149 186.897 107.938 186.527 107.728 186.156C108 184.612 108.27 183.07 108.536 181.531C109.654 181.745 111.416 182.112 111.904 182.224C111.755 182.98 111.606 183.737 111.455 184.494C111.788 184.567 112.475 184.694 113.115 184.841C113.276 184.092 113.437 183.343 113.597 182.597C114.483 182.8 116.119 183.173 116.974 183.391C116.801 184.126 116.627 184.861 116.452 185.598C117.02 185.738 117.633 185.872 118.111 185.998C118.3 185.271 118.488 184.546 118.675 183.822C119.417 184.02 121.208 184.484 122.06 184.733C121.64 186.182 121.216 187.637 120.787 189.099C120.471 189.281 120.153 189.465 119.837 189.648C117.805 189.118 114.102 188.299 112.309 187.938C112.29 188.022 112.27 188.105 112.252 188.19C114.708 188.898 117.175 189.594 119.653 190.277L110.019 218.354L110.018 218.362C91.3647 214.721 72.7962 214.907 55.1516 218.39V218.387L45.2388 189.657Z" fill="#FFAF01" stroke="black" stroke-opacity="0.2" stroke-width="2" mask="url(#path-53-inside-4_1_340)"/>
</g>
</g>
<path d="M572.827 413.386C534.654 413.399 496.481 413.399 458.307 413.399C456.734 413.399 455.147 413.293 453.587 413.453C448.694 413.973 445.107 417.866 445.454 422.573C445.814 427.493 448.507 430.533 453.561 431.066C455.321 431.253 457.107 431.146 458.867 431.146C488.974 431.159 519.081 431.159 549.187 431.159H555.947V567.506H493.187V560.413C493.187 541.333 493.214 522.239 493.174 503.159C493.147 493.306 490.281 490.453 480.507 490.453C449.627 490.426 418.734 490.426 387.841 490.453C378.347 490.453 375.614 493.239 375.601 502.759C375.574 522.039 375.587 541.333 375.587 560.613V567.439H312.987V431.159H319.694C350.387 431.159 381.081 431.173 411.774 431.146C419.401 431.133 423.041 428.173 422.987 422.199C422.947 416.346 419.174 413.399 411.574 413.399C380.881 413.386 350.187 413.399 319.494 413.399H312.881V380.586H319.561C397.667 380.586 475.787 380.626 553.894 380.479C558.414 380.466 561.041 381.733 563.254 385.679C568.334 394.719 573.894 403.479 579.694 413.092C576.921 413.213 574.867 413.386 572.827 413.386ZM474.641 567.573H393.814V508.959H474.641V567.573ZM294.361 560.266V567.533H215.107C215.107 562.386 215.107 557.173 215.094 551.973C215.094 546.066 215.267 540.159 215.027 534.266C214.814 528.959 210.841 525.413 205.827 525.573C201.107 525.719 197.521 529.199 197.414 534.346C197.227 543.399 197.347 552.453 197.307 561.493C197.294 563.546 197.121 565.599 197.014 567.666H116.134V461.399H197.321C197.321 471.986 197.267 482.173 197.334 492.373C197.374 499.519 200.374 503.133 206.107 503.146C211.814 503.159 215.054 499.373 215.081 492.479C215.134 479.493 215.147 466.506 215.081 453.519C215.041 446.413 211.721 443.026 204.601 443.013C172.534 442.946 140.467 442.959 108.401 442.999C100.587 443.013 97.3074 446.533 97.2941 454.879C97.2541 489.906 97.2807 524.919 97.2807 559.933V567.426H17.9607V561.186C17.9607 493.719 17.9208 426.239 18.0941 358.759C18.1074 356.053 19.3207 352.346 21.2941 350.799C65.4274 316.293 109.761 282.026 154.054 247.719C154.667 247.253 155.374 246.906 156.534 246.186C167.307 254.493 178.161 262.839 188.987 271.226C222.401 297.119 255.761 323.092 289.294 348.826C293.161 351.799 294.481 354.812 294.467 359.613C294.307 426.493 294.361 493.386 294.361 560.266ZM18.2007 264.919H18.5261L18.5047 246.652H18.2541V218.853H18.4727L18.4514 200.439H18.2674V174.986H18.4221L18.3981 154.139C18.3354 153.156 18.3354 152.163 18.3941 151.166V150.971H18.4061C19.3034 137.596 30.8581 123.493 47.9741 123.079C71.174 122.533 94.4141 122.626 117.614 123.066C134.841 123.386 147.894 138.439 146.747 156.133H146.607L146.655 174.986H146.801V200.439H146.721L146.773 220.948C146.842 222.293 146.863 223.558 146.783 224.758L146.801 231.658L18.6007 330.133V329.947C18.5194 330.01 18.4407 330.07 18.3607 330.133V308.786H18.5754L18.5554 290.626H18.2007V264.919ZM71.5607 82.7858H93.4274V104.692H71.5607V82.7858ZM93.4407 35.4391C96.0941 23.9858 106.454 17.9725 119.761 17.9592C171.907 17.9325 224.041 17.9192 276.187 17.9858C282.454 17.9992 288.827 17.9192 294.961 18.9725C305.601 20.8125 313.041 29.1859 314.547 39.7991C314.827 41.7458 315.067 43.7192 315.067 45.6658C315.094 78.1325 315.094 110.599 315.081 143.066C315.081 144.399 314.907 145.746 314.774 147.786C311.441 147.786 308.374 147.746 305.294 147.799C298.027 147.919 294.667 151.253 294.547 158.799C294.401 167.652 294.507 176.506 294.467 185.359C294.467 186.119 294.254 186.879 294.094 187.839C289.161 188.492 284.241 188.719 279.534 189.853C256.734 195.372 241.627 214.492 241.321 238.212C241.134 252.772 241.281 267.333 241.281 281.893V289.052C221.414 273.666 202.774 259.239 184.134 244.812C179.161 240.959 173.921 237.386 169.334 233.119C167.347 231.279 165.614 228.039 165.574 225.426C165.294 202.013 165.521 178.599 165.374 155.186C165.241 130.479 149.334 110.932 125.347 105.919C121.361 105.079 117.187 105.132 112.201 104.692V79.5592C112.201 66.3192 110.201 64.3192 96.814 64.1591C95.454 64.1458 94.0941 64.0391 91.2141 63.9191C91.8674 54.2525 91.3341 44.5325 93.4407 35.4391ZM335.307 187.879H313.281V166.039H335.307V187.879ZM360.321 206.812C374.307 207.066 385.99 218.87 388.067 232.906H388.347V235.675C388.409 236.782 388.41 237.898 388.347 239.021V258.319H388.454V283.773H388.347V302.626H388.507V329.466C388.453 329.469 388.402 329.474 388.347 329.477V348.559V357.546V362.279H312.881V348.559V344.027L292.351 327.971C291.362 327.504 290.421 326.97 289.587 326.372C280.974 320.212 272.747 313.519 264.387 306.999C262.934 305.866 261.601 304.559 259.401 302.626H259.946V232.906H260.201C262.013 218.838 273.582 207.066 287.747 206.812C311.934 206.359 336.134 206.359 360.321 206.812ZM457.147 86.6792C457.387 82.0258 460.827 79.1192 466.521 79.0659C475.174 78.9725 483.827 79.0392 492.467 79.0392C501.121 79.0392 509.774 79.0525 518.427 79.0392C523.521 79.0258 526.707 81.3058 527.161 86.5325C527.587 91.4658 524.467 94.9992 518.854 95.0659C501.161 95.2792 483.467 95.2792 465.774 95.0792C460.214 95.0125 456.907 91.3458 457.147 86.6792ZM575.281 370.973C571.654 364.733 567.214 361.906 560.027 362.586C555.041 363.052 549.987 362.666 544.867 362.666C543.521 341.786 542.201 321.799 540.934 301.799C540.027 287.479 539.321 273.133 538.281 258.826C537.787 252.079 533.814 248.679 528.027 249.279C522.761 249.812 519.761 254.133 520.187 260.426C521.987 286.906 523.787 313.386 525.521 339.866C526.014 347.266 526.321 354.666 526.734 362.212H457.761C463.121 279.012 468.441 196.319 473.761 113.746H510.627C510.907 115.986 511.241 117.906 511.361 119.839C513.401 152.226 515.414 184.599 517.441 216.973C517.841 223.293 521.414 226.986 526.854 226.812C532.307 226.639 535.614 222.692 535.281 216.279C534.667 204.492 533.854 192.732 533.121 180.959C531.774 159.172 530.321 137.399 529.214 115.599C529.121 113.679 530.761 110.919 532.427 109.799C542.907 102.772 547.507 91.9325 544.481 80.3192C541.534 69.0258 531.894 61.1058 519.334 60.8392C501.241 60.4658 483.121 60.3992 465.027 60.8658C453.387 61.1725 444.707 67.1325 440.801 78.3058C437.187 88.5992 438.521 99.3725 447.547 105.546C455.587 111.039 456.587 116.946 454.907 124.999C454.801 125.573 454.881 126.172 454.854 126.759C453.161 153.853 451.494 180.932 449.761 208.013C447.534 242.932 445.267 277.853 442.987 312.773C441.921 329.226 440.774 345.679 439.654 362.346H406.454V355.106C406.441 315.759 406.574 276.399 406.361 237.052C406.241 214.159 391.374 195.599 369.054 190.066C364.001 188.812 358.734 188.492 353.241 187.706C353.241 177.466 353.334 167.439 353.214 157.426C353.147 151.319 349.827 148.039 343.721 147.812C340.281 147.679 336.827 147.786 333.094 147.786V140.466C333.094 108.786 333.147 77.1058 333.081 45.4258C333.027 18.8525 314.334 0.212463 287.747 0.199158C231.481 0.172485 175.201 0.172485 118.934 0.199158C92.374 0.212463 73.7341 18.8792 73.6007 45.4658C73.5607 51.5192 73.5874 57.5591 73.5874 64.1725C70.0407 64.1725 67.1474 64.1058 64.2407 64.1859C56.7474 64.3859 53.5208 67.6525 53.4274 75.0525C53.3874 78.1992 53.4141 81.3459 53.4141 84.4925V104.812C51.6407 104.959 50.8541 105.133 50.0807 105.079C25.4274 103.599 -0.159253 125.746 0.00074653 157.559C0.640746 296.066 0.267389 434.586 0.267389 573.106C0.267389 583.213 2.73408 585.719 12.6674 585.719H561.627C571.467 585.719 574.001 583.119 574.001 573.039V431.159C580.827 431.159 586.907 430.879 592.947 431.239C598.254 431.546 602.094 429.746 604.721 425.186V419.279C594.867 403.199 584.774 387.253 575.281 370.973Z" fill="white"/>
</svg>
