<svg width="105" height="70" viewBox="0 0 105 70" fill="none" xmlns="http://www.w3.org/2000/svg">
<path d="M103.306 34.4457C103.764 34.2484 104.404 34.556 104.438 35.1596C104.444 36.8293 104.439 38.4998 104.44 40.1702C104.445 40.6567 104.011 41.0012 103.611 40.9827C103.214 40.9989 102.781 40.6559 102.792 40.1718C102.788 38.526 102.792 36.8809 102.79 35.2351C102.767 34.8705 103.012 34.5521 103.306 34.4457Z" fill="white"/>
<path d="M27.3004 29.308C28.5742 29.3126 29.8493 29.2995 31.1238 29.3149C32.7525 34.7565 34.3994 40.1911 36.0321 45.6312C34.9811 45.6312 33.9301 45.6312 32.8791 45.6312C32.4816 44.1858 32.08 42.7412 31.6832 41.2958C30.0559 41.2973 28.4286 41.2912 26.8013 41.2989C26.4085 42.7489 26.0076 44.1958 25.6074 45.6427C24.5638 45.6389 23.5209 45.6412 22.478 45.6412C24.083 40.1965 25.692 34.7526 27.3004 29.308ZM28.4557 35.3447C28.1936 36.3044 27.9227 37.2618 27.6566 38.2208C28.7143 38.2223 29.7715 38.2215 30.8286 38.2215C30.5739 37.2873 30.3139 36.3553 30.0626 35.4194C29.7857 34.1768 29.5344 32.9264 29.2527 31.6846C28.9642 32.8979 28.7313 34.1275 28.4557 35.3447Z" fill="white"/>
<path d="M54.9298 29.298C56.2022 29.2957 57.4747 29.3019 58.7471 29.2949C60.3894 34.7357 62.0295 40.1773 63.6629 45.6212C62.6126 45.6204 61.5623 45.622 60.5126 45.6204C60.1137 44.1751 59.7142 42.7304 59.3153 41.2851H54.4354C54.0379 42.7304 53.6397 44.1758 53.2422 45.6212C52.1986 45.6212 51.1544 45.6204 50.1108 45.6212C51.7151 40.1796 53.3228 34.7388 54.9298 29.298ZM56.876 31.6823C56.5991 32.8987 56.3573 34.126 56.0837 35.344C55.8223 36.2975 55.5535 37.2488 55.2894 38.2023C56.3458 38.2016 57.4022 38.2016 58.4593 38.2016C58.1194 36.9142 57.7158 35.6461 57.4612 34.331C57.2614 33.4499 57.1015 32.5549 56.876 31.6823Z" fill="white"/>
<path d="M65.1707 29.3555H68.9034C70.1847 32.2694 71.4626 35.1848 72.7398 38.1002C73.3675 39.4408 73.7596 40.9 74.2865 42.2915L74.4571 42.2884C74.2777 40.8862 74.0854 39.4855 73.9113 38.0825C73.8998 35.174 73.91 32.2647 73.9066 29.3555C74.8743 29.3562 75.842 29.3547 76.8097 29.3562C76.8172 34.7747 76.8206 40.1924 76.8178 45.6108C75.5745 45.6139 74.3312 45.6054 73.0885 45.6155C71.8438 42.7871 70.6235 39.9449 69.3863 37.1128C69.175 36.5924 68.9116 36.0983 68.7524 35.5525C68.4274 34.5565 68.1158 33.5536 67.78 32.5623C67.738 32.5631 67.6533 32.5638 67.6113 32.5646C67.7468 33.7656 67.8917 34.9659 68.0312 36.1669C68.0671 36.503 68.1274 36.8383 68.1172 37.179C68.1104 39.9896 68.1213 42.8002 68.124 45.6116C67.1393 45.6116 66.1554 45.6116 65.1707 45.6116C65.17 40.1924 65.1707 34.7739 65.1707 29.3555Z" fill="white"/>
<path d="M41.4692 29.4129C44.5877 29.416 47.7069 29.4083 50.8254 29.4167C50.8186 30.3726 50.8241 31.3285 50.8227 32.2844H47.6399C47.6358 36.73 47.6548 41.1748 47.648 45.6205C46.6573 45.6166 45.6672 45.6382 44.6765 45.6289C44.6751 41.1795 44.6819 36.73 44.6737 32.2805C43.6051 32.2898 42.5372 32.2805 41.4692 32.2844V29.4129Z" fill="white"/>
<path d="M79.1714 29.375H82.1253C82.1233 31.491 82.128 33.6063 82.1226 35.7223C83.7269 33.5986 85.3468 31.491 86.9585 29.3742C88.1334 29.3819 89.309 29.3657 90.4847 29.3657C88.6664 31.8564 86.8454 34.3432 85.0271 36.8339C86.863 39.7548 88.6935 42.6794 90.5273 45.6018C89.3869 45.6018 88.2472 45.6011 87.1068 45.6026C85.7084 43.4457 84.3127 41.2865 82.9129 39.1304C82.6502 39.4287 82.3874 39.7278 82.1253 40.0269C82.1253 41.8885 82.1247 43.7494 82.1253 45.6111C81.1441 45.6126 80.1628 45.6095 79.1816 45.6126C79.1748 40.2003 79.1883 34.7873 79.1714 29.375Z" fill="white"/>
<path d="M13.8973 29.4814H16.8431C16.8478 33.8322 16.8566 38.1838 16.8492 42.5346C18.4982 42.5416 20.1465 42.5362 21.7948 42.5377C21.7954 43.5722 21.7941 44.6067 21.7954 45.6405C19.1652 45.6389 16.5357 45.6405 13.9061 45.6405C13.9088 40.2536 13.8912 34.8675 13.8973 29.4814Z" fill="white"/>
<path d="M3.08509 29.8996C3.53745 29.7122 4.18012 30.0083 4.20382 30.6103C4.21127 35.2093 4.20381 39.8091 4.20788 44.4089C4.20517 44.6826 4.25461 44.9871 4.10765 45.2276C3.79682 45.7564 3.02211 45.7664 2.69096 45.2576C2.51218 44.9917 2.5887 44.6386 2.5738 44.3303C2.56432 39.7582 2.56093 35.1854 2.56703 30.6134C2.56906 30.2734 2.81421 29.9982 3.08509 29.8996Z" fill="white"/>
<path d="M100.714 29.8595C101.184 29.6367 101.876 29.9752 101.858 30.615C101.851 35.3412 101.875 40.0682 101.865 44.7944C101.857 45.415 101.187 45.7287 100.728 45.5206C100.434 45.4119 100.195 45.0881 100.224 44.7243C100.229 40.0713 100.223 35.4183 100.215 30.7661C100.165 30.3714 100.38 29.9782 100.714 29.8595Z" fill="white"/>
<path d="M0 35.1162C0.0690742 34.7547 0.363657 34.4956 0.679232 34.4556C1.10451 34.3661 1.63815 34.6938 1.63273 35.2326C1.62935 36.9039 1.65305 38.5759 1.63882 40.2479C1.64153 40.6387 1.33747 40.9463 1.01648 41.0134C0.599998 41.1267 0.0948077 40.863 0 40.3612V35.1162Z" fill="white"/>
<path d="M92.6333 55.6275C93.6708 55.6121 94.7083 55.6206 95.7457 55.6167C95.7478 55.9894 95.7464 56.3628 95.7478 56.7362C94.7089 56.7323 93.6715 56.754 92.6333 56.7462C92.6326 56.3728 92.6326 56.0002 92.6333 55.6275Z" fill="white"/>
<path d="M58.3492 57.5453C59.0311 57.543 59.713 57.5476 60.395 57.543C60.4011 59.918 60.3936 62.2931 60.3991 64.6689C60.4079 65.4436 60.3754 66.2245 60.204 66.9784C60.0307 67.9613 59.4605 68.7884 58.7968 69.4167C57.6876 69.4614 56.5715 69.419 55.4596 69.4367C54.8697 68.8941 54.3551 68.2018 54.1228 67.3677C53.9345 66.6431 53.8682 65.8853 53.8424 65.1322C53.8241 62.6068 53.8302 60.0799 53.8296 57.5538C54.5149 57.5545 55.2002 57.5538 55.8855 57.5545C55.8889 60.2719 55.8801 62.9899 55.8896 65.708C55.8842 66.3486 56.0833 66.9908 56.4882 67.4448C56.904 67.4826 57.3253 67.4479 57.7431 67.4618C57.9991 67.1311 58.2259 66.7479 58.2909 66.3055C58.3891 65.6919 58.3356 65.0651 58.3492 64.4446V57.5453Z" fill="white"/>
<path d="M61.7422 57.5487C63.0661 57.5463 64.3914 57.5386 65.7153 57.5525C66.8828 57.9719 67.8146 59.2045 67.9548 60.5998C68.0422 61.4123 67.9758 62.2641 67.6744 63.0141C67.413 63.664 66.9573 64.1982 66.4182 64.5574C66.9072 66.1886 67.4232 67.809 67.9216 69.4363C67.2214 69.4355 66.5219 69.4363 65.823 69.4363C65.3991 67.994 64.9812 66.5494 64.5526 65.1094H63.7751V69.4363C63.1006 69.4355 62.4268 69.4355 61.753 69.4363C61.7483 65.474 61.7632 61.5109 61.7422 57.5487ZM63.767 59.5876C63.7684 60.7925 63.7636 61.9966 63.769 63.2015C64.1591 63.2007 64.5498 63.2038 64.9399 63.2015C65.1498 63.2207 65.3097 63.0326 65.437 62.8677C66.083 62.0444 66.0532 60.6969 65.4519 59.8536C65.3564 59.7256 65.2331 59.5899 65.076 59.5899C64.6399 59.583 64.2031 59.5899 63.767 59.5876Z" fill="white"/>
<path d="M69.0493 57.5459C69.7353 57.5459 70.4213 57.5428 71.1073 57.5475C71.1046 61.5105 71.1073 65.4728 71.106 69.4359C70.4234 69.4351 69.7407 69.4351 69.0581 69.4359C69.052 65.472 69.0683 61.509 69.0493 57.5459Z" fill="white"/>
<path d="M72.1704 57.5485C74.07 57.5462 75.9688 57.5362 77.869 57.5347C77.869 58.1421 77.8677 58.7503 77.8704 59.3578C77.8921 59.5906 77.7532 59.7802 77.6747 59.9814C76.5654 62.4706 75.4548 64.9597 74.349 67.4512C75.5307 67.4504 76.7131 67.4512 77.8954 67.4512C77.8948 68.1087 77.8948 68.767 77.8954 69.4254C75.9878 69.4254 74.0801 69.4223 72.1731 69.4354C72.1731 68.8233 72.1711 68.212 72.1731 67.6007C72.1731 67.4134 72.2815 67.2592 72.3458 67.095C73.4598 64.5935 74.5724 62.0913 75.6817 59.5867H72.1724C72.1711 58.9076 72.1758 58.2277 72.1704 57.5485Z" fill="white"/>
<path d="M80.4138 57.5347C81.4465 57.5378 82.4785 57.5308 83.5113 57.5385C84.1431 61.5023 84.7864 65.4631 85.423 69.4261C84.7546 69.4261 84.0869 69.4223 83.4192 69.4277C83.3074 68.8017 83.2086 68.1735 83.1022 67.5467C82.3194 67.5467 81.5359 67.546 80.7531 67.5475C80.6488 68.1735 80.5458 68.7994 80.4415 69.4261C79.763 69.4254 79.0851 69.4238 78.4072 69.4269C79.0702 65.4615 79.7461 61.4993 80.4138 57.5347ZM81.9036 59.7139C81.6097 61.7166 81.33 63.7217 80.9935 65.7159H82.8463C82.4785 63.7263 82.228 61.712 81.9036 59.7139Z" fill="white"/>
<path d="M84.7944 57.5356H91.3375V59.5777H89.0858V69.4256H87.0543C87.057 66.1424 87.0529 62.8601 87.0461 59.5777H84.7944V57.5356Z" fill="white"/>
<path d="M92.6688 57.5362C93.7002 57.5346 94.7316 57.5207 95.7629 57.5261C96.4029 61.49 97.0395 65.4538 97.6787 69.4168C97.009 69.4153 96.3392 69.4191 95.6695 69.4145C95.5618 68.7909 95.4724 68.1619 95.3505 67.5421C94.5704 67.5321 93.7896 67.5405 93.0095 67.5375C92.9038 68.1649 92.8056 68.794 92.6946 69.4199C92.0167 69.406 91.3388 69.4338 90.6616 69.4269C91.3266 65.4623 92.0004 61.5 92.6688 57.5362ZM93.2499 65.7082C93.8668 65.7059 94.4837 65.7082 95.1013 65.7066C94.7397 63.7201 94.4756 61.7135 94.1675 59.7154C93.8533 61.7112 93.5912 63.7178 93.2499 65.7082Z" fill="white"/>
<path d="M6.74704 57.5738C7.25223 57.573 7.75742 57.573 8.26261 57.5738C9.12739 59.7269 9.99691 61.8776 10.861 64.0306C10.9199 64.1609 10.9497 64.3251 11.071 64.4022C11.033 63.6953 10.9565 62.9923 10.9145 62.2862C10.9091 60.7159 10.9145 59.1449 10.9118 57.5738C11.5409 57.573 12.17 57.573 12.7992 57.5738C12.7992 61.54 12.7992 65.5069 12.7992 69.4738C12.3366 69.4738 11.8734 69.4722 11.4109 69.4738C10.5197 67.3778 9.62649 65.2825 8.73936 63.1842C8.68451 63.0809 8.66419 62.9352 8.55584 62.8851C8.56464 63.7392 8.652 64.5911 8.63439 65.446C8.64861 66.788 8.64116 68.1309 8.64319 69.473C8.01408 69.4738 7.38496 69.4738 6.75584 69.4738C6.75991 65.5069 6.74027 61.54 6.74704 57.5738Z" fill="white"/>
<path d="M14.2217 57.5738C16.0075 57.573 17.7932 57.573 19.5797 57.5738V59.6159C18.4765 59.6166 17.3727 59.6159 16.2695 59.6159C16.2695 60.5571 16.2709 61.4976 16.2689 62.4388C17.2542 62.4419 18.2388 62.4396 19.2241 62.4396C19.2235 63.0979 19.2241 63.757 19.2235 64.4153C18.2388 64.4138 17.2542 64.4153 16.2702 64.4145C16.2695 65.4359 16.2695 66.4581 16.2702 67.4795C17.3937 67.4818 18.5172 67.4741 19.6413 67.4834C19.6359 68.1402 19.6399 68.7969 19.6393 69.4537C17.8332 69.4707 16.0278 69.4792 14.2217 69.4738V57.5738Z" fill="white"/>
<path d="M20.7829 57.564C22.1319 57.5709 23.4829 57.5494 24.8319 57.5748C25.8172 58.0396 26.5729 59.0541 26.8608 60.2181C27.1235 61.3066 27.0653 62.4968 26.6874 63.5421C26.386 64.4047 25.8429 65.171 25.1122 65.6019C24.8989 65.7167 24.6842 65.8786 24.4384 65.8617C23.8926 65.8624 23.3475 65.854 22.8016 65.8655C22.8098 67.0619 22.803 68.2583 22.805 69.4547C22.1312 69.4539 21.4567 69.4539 20.7822 69.4547C20.7829 65.4909 20.7822 61.5271 20.7829 57.564ZM22.7962 59.6176C22.7908 61.0275 22.8084 62.4367 22.805 63.8466C23.2438 63.8482 23.682 63.8443 24.1208 63.8489C24.8014 63.2276 25.0208 62.1592 24.9158 61.2095C24.8414 60.6143 24.6226 60.0162 24.2177 59.6145C23.7443 59.6192 23.2703 59.6138 22.7962 59.6176Z" fill="white"/>
<path d="M26.8643 69.4543C27.5347 65.4904 28.2017 61.5251 28.8762 57.562C29.9069 57.5674 30.9376 57.562 31.9683 57.5643C32.6062 61.5281 33.2455 65.4904 33.8821 69.4543C33.2137 69.455 32.5446 69.4527 31.8762 69.4558C31.7706 68.826 31.6656 68.1962 31.5613 67.5664C30.7791 67.5664 29.997 67.5656 29.2141 67.5664C29.1098 68.1962 29.0056 68.8252 28.9013 69.455C28.2227 69.4535 27.5435 69.455 26.8643 69.4543ZM29.4586 65.7518C30.0742 65.7379 30.6898 65.7471 31.3053 65.7464C30.943 63.7552 30.6809 61.7425 30.3688 59.7413C30.0667 61.7448 29.7843 63.7529 29.4586 65.7518Z" fill="white"/>
<path d="M34.414 59.5044C34.4756 58.6557 34.9707 57.8671 35.6783 57.5726C36.8777 57.5603 38.0783 57.5626 39.2777 57.5557C39.2777 58.2394 39.2777 58.9232 39.2777 59.6077C38.3946 59.607 37.5108 59.6093 36.6271 59.6062C36.533 59.6031 36.4416 59.617 36.3522 59.6486C36.9928 61.0246 37.6659 62.3821 38.3194 63.7504C38.7352 64.6477 39.2411 65.5149 39.4442 66.5147C39.6007 67.5801 39.3054 68.7996 38.5036 69.444C37.179 69.441 35.8544 69.4602 34.5291 69.4556C34.5298 68.7934 34.5291 68.132 34.5298 67.4706C35.5693 67.4683 36.6095 67.4768 37.6497 67.466C37.6402 67.3719 37.6158 67.2841 37.5745 67.2039C36.749 65.5265 35.9282 63.846 35.1048 62.1678C34.7025 61.3599 34.2799 60.4657 34.414 59.5044Z" fill="white"/>
<path d="M39.9546 57.5537C42.1325 57.5537 44.3103 57.5545 46.4889 57.5537C46.4909 58.2336 46.4862 58.9128 46.4909 59.5927C45.7399 59.6027 44.9889 59.5942 44.2372 59.5965C44.2399 62.8797 44.2304 66.162 44.246 69.4444H42.2063C42.2063 66.1651 42.2063 62.8851 42.2063 59.6058C41.4559 59.6073 40.7056 59.6058 39.9553 59.6065V57.5537H39.9546Z" fill="white"/>
<path d="M47.3538 69.4457C47.3511 65.4812 47.3375 61.5173 47.3484 57.5527C49.1335 57.5597 50.9186 57.5535 52.703 57.5558C52.703 58.2365 52.7023 58.9172 52.703 59.5979C51.6025 59.5986 50.5014 59.5979 49.401 59.5979C49.3996 60.5383 49.4044 61.478 49.3989 62.4185C50.3816 62.4262 51.3642 62.4193 52.3468 62.4216C52.3441 63.0837 52.3529 63.7467 52.3427 64.4096C51.3621 64.4027 50.3816 64.4081 49.401 64.4066V67.4615H52.7707C52.7707 68.1229 52.7707 68.7843 52.7707 69.4457H47.3538Z" fill="white"/>
<path d="M59.3615 3.23279C59.5863 3.48872 59.5863 3.9073 59.3615 4.16323L58.7175 4.8971C58.4927 5.15303 58.1256 5.15303 57.9008 4.8971L57.2575 4.16323C57.0333 3.9073 57.0333 3.48872 57.2575 3.23279L57.9001 2.50201C58.125 2.24608 58.4927 2.24608 58.7175 2.50201L59.3602 3.23279H59.3615Z" fill="white"/>
<path d="M71.1975 3.23279C71.4223 3.48872 71.4223 3.9073 71.1975 4.16323L70.5534 4.8971C70.3286 5.15303 69.9616 5.15303 69.7367 4.8971L69.0934 4.16323C68.8693 3.9073 68.8693 3.48872 69.0934 3.23279L69.7361 2.50201C69.9609 2.24608 70.3286 2.24608 70.5534 2.50201L71.1961 3.23279H71.1975Z" fill="white"/>
<path d="M60.3042 9.36738C60.3042 8.49398 60.2934 7.6545 60.1586 6.99926C59.9507 5.94548 58.853 5.9925 58.853 5.9925H57.0205C57.6652 6.77956 57.5853 7.92431 57.5853 9.36738V17.4245H60.3049V9.36738" fill="white"/>
<path d="M72.208 9.36738C72.208 8.49398 72.1972 7.6545 72.0624 6.99926C71.8545 5.94548 70.7568 5.9925 70.7568 5.9925H68.9243C69.569 6.77956 69.4891 7.92431 69.4891 9.36738V17.4245H72.2087V9.36738" fill="white"/>
<path d="M98.9131 17.4258C98.267 16.6349 98.349 15.4917 98.349 14.0525V5.99224H95.6286V14.0525C95.6286 14.5474 95.6327 15.0323 95.6611 15.4801C94.688 15.1379 94.0772 14.5651 94.0772 13.0519V9.3517C94.0772 8.47137 94.0664 7.62649 93.9282 6.96817C93.6573 5.95216 92.3727 5.9776 92.3727 5.9776H90.7935C91.4409 6.7662 91.3576 7.9094 91.3576 9.3517V13.112C91.3576 15.3761 92.2664 16.5848 93.232 17.2971C93.6858 17.6224 94.0427 17.294 94.0427 17.294L95.6666 15.5564C95.7228 16.3736 95.8677 17.0519 96.2293 17.4258H98.9137H98.9131Z" fill="white"/>
<path d="M89.6473 14.7864V9.02185H89.6459C89.6459 7.58109 89.2951 5.88672 86.7909 5.88672C86.0385 5.88672 84.4898 6.22205 83.5071 7.22649V9.70793C84.6076 8.79368 85.1636 8.69963 85.876 8.69963C86.9236 8.69963 86.8193 10.5096 86.8193 10.5096C85.3992 10.7918 82.5679 11.7808 82.5679 14.788C82.5679 16.0645 83.3189 16.8894 83.8254 17.3002C84.3144 17.6448 84.7376 17.291 84.7376 17.291L86.8457 15.8225C86.946 16.9194 87.4884 17.4251 87.4884 17.4251H90.2629C89.6602 16.4839 89.6486 15.6236 89.6486 14.7872M85.2692 13.6825C85.2692 12.6681 86.1509 12.0491 86.8227 11.9704C86.8227 12.1015 86.8268 15.1534 86.8268 15.4702C86.8268 15.5072 86.8288 15.5357 86.8295 15.5681C86.346 15.3353 85.2692 14.6932 85.2692 13.6825Z" fill="white"/>
<path d="M55.4004 14.0661V10.305C55.4004 8.48343 54.8126 7.34485 54.0799 6.59865C53.144 5.46238 52.2555 6.61561 52.2555 6.61561L51.0772 7.87521V4.90273C51.0772 4.13648 51.069 3.39568 50.9905 2.78206C50.8354 1.4261 49.5223 1.52862 49.5223 1.52862H47.895C48.4381 2.31646 48.3569 3.4612 48.3569 4.90273V17.4232H51.0765V7.92686C52.0618 8.27144 52.6801 8.84111 52.6801 10.3667V14.0653C52.6801 15.5076 52.7106 16.8551 53.2808 17.4402H55.9625C55.3178 16.6485 55.3997 15.5076 55.3997 14.0653" fill="white"/>
<path d="M81.112 14.0655V10.3045C81.112 8.47826 80.5214 7.33891 79.786 6.59271C78.8934 5.65071 77.9535 6.62894 77.9535 6.62894L76.8036 7.85848C76.7813 7.53086 76.7447 7.2256 76.6851 6.95348C76.4833 5.95135 75.1248 5.99143 75.1248 5.99143H73.5571C74.2025 6.77772 74.1219 7.92323 74.1219 9.36631V17.4242H76.8402V9.36631H76.8395C76.8395 8.86909 76.8361 8.38422 76.8077 7.93557C77.7801 8.27938 78.391 8.85213 78.391 10.3669V14.0655C78.391 15.5078 78.4214 16.8553 78.9916 17.4404H81.6761C81.0293 16.6487 81.1113 15.5078 81.1113 14.0655" fill="white"/>
<path d="M47.8476 2.4994L45.2803 4.87214C43.8433 5.02708 42.6331 3.30187 41.637 3.53853V12.6425C41.637 14.1866 43.5677 15.7491 47.3546 14.9382L44.1555 17.8544C42.0968 17.8544 38.3857 16.9039 38.3857 12.2517V4.3703L42.0643 0.554486C43.8751 0.263868 45.7638 2.16715 47.8469 2.50017" fill="white"/>
<path d="M88.2583 2.78662C87.5059 2.78662 86.8883 3.24606 86.8883 3.24606L86.5795 3.51355L86.2707 3.24606C86.2707 3.24606 85.6538 2.78662 84.9007 2.78662H83.9561C83.9561 2.78662 86.0174 4.58352 86.2416 4.76314C86.4468 4.91577 86.5673 5.06455 86.9147 4.76468C87.2919 4.44245 89.2023 2.78662 89.2023 2.78662H88.2576H88.2583Z" fill="white"/>
<path d="M63.825 19.2339C64.3024 18.9463 64.5245 18.51 64.6485 18.0475C64.1893 18.0506 63.6984 17.945 63.3706 17.8101C63.4959 18.1477 63.5101 18.4815 63.4708 18.779C63.4343 19.1429 63.4641 19.2685 63.5494 19.3094C63.6408 19.3456 63.7464 19.2817 63.825 19.2346V19.2339Z" fill="white"/>
<path d="M66.0739 10.3193C64.3024 8.95256 63.7708 8.58408 63.5236 8.10614C63.4146 7.89184 63.5135 7.79779 63.6414 7.79779C64.5516 7.79779 65.3371 8.99341 66.3374 8.97954L67.8631 6.83497C66.3299 6.75789 65.1915 5.33023 63.9496 5.78505L61.7839 8.58254C61.6335 8.80918 61.4771 9.25011 61.4582 9.65405C61.4277 10.2654 61.8624 11.5396 63.4064 12.6651C65.0053 13.8299 65.4069 14.7248 65.5952 15.3562C65.6541 15.5582 65.5315 15.794 65.3148 15.7054C64.3837 15.3662 63.5134 14.0403 63.2453 13.3003L61.3071 15.8665C63.2629 17.8908 64.8076 17.6904 65.3033 17.5432L68.092 14.0303C67.9938 13.0798 67.5875 11.4864 66.0739 10.3193Z" fill="white"/>
<path d="M90.9281 3.02893C90.9281 2.98884 90.9274 2.95107 90.924 2.91407C90.922 2.87707 90.9152 2.84007 90.9071 2.80615C90.8989 2.77454 90.8867 2.74679 90.8671 2.72366C90.8481 2.70285 90.8238 2.68512 90.7926 2.67664C90.7723 2.67124 90.7527 2.66739 90.7317 2.66354C90.712 2.66122 90.691 2.65737 90.6734 2.65506C90.6619 2.65506 90.6531 2.64966 90.6497 2.64041C90.6436 2.6327 90.6416 2.62268 90.6416 2.61035C90.6416 2.59878 90.6436 2.58953 90.6497 2.58105C90.6538 2.5718 90.6626 2.56641 90.6734 2.56641C90.731 2.56641 90.7838 2.56949 90.8312 2.57257C90.8793 2.57874 90.9328 2.57951 90.9944 2.57951C91.0208 2.57951 91.0506 2.57874 91.0818 2.57797C91.1136 2.5772 91.1468 2.57566 91.1806 2.5718C91.2138 2.57026 91.247 2.57026 91.2802 2.56949C91.3113 2.56795 91.3391 2.56641 91.3669 2.56641C91.4346 2.56641 91.505 2.57334 91.5788 2.58568C91.6533 2.5957 91.7231 2.61805 91.7847 2.65197C91.8484 2.68358 91.8998 2.72598 91.9411 2.78379C91.9818 2.84084 92.0028 2.91484 92.0028 3.00272C92.0028 3.05822 91.9946 3.10679 91.977 3.14764C91.9608 3.1885 91.9384 3.22319 91.9107 3.25402C91.8822 3.28717 91.8511 3.31261 91.8125 3.33419C91.7739 3.35809 91.7332 3.37505 91.6926 3.39124C91.6784 3.39741 91.673 3.40434 91.6737 3.41282C91.675 3.4213 91.6818 3.42824 91.6926 3.4321C91.7597 3.45214 91.8199 3.47912 91.8727 3.50764C91.9262 3.53462 91.9709 3.56623 92.0068 3.60323C92.0427 3.64023 92.0698 3.68725 92.0894 3.73813C92.1084 3.78824 92.1186 3.84837 92.1186 3.91929C92.1186 4.01333 92.103 4.09042 92.0705 4.15286C92.0393 4.21145 91.9967 4.26155 91.9425 4.29393C91.8883 4.33093 91.8281 4.3556 91.759 4.36948C91.6913 4.38412 91.6215 4.39106 91.5477 4.39106C91.5145 4.39106 91.4773 4.39106 91.438 4.38875C91.3974 4.38798 91.3554 4.38643 91.3113 4.38566C91.2687 4.38489 91.2253 4.38412 91.1806 4.38258C91.1373 4.38104 91.096 4.38027 91.0567 4.38027C91.0208 4.38027 90.9876 4.38027 90.9572 4.38104C90.9287 4.38181 90.901 4.38335 90.8752 4.38412C90.8475 4.38489 90.819 4.38721 90.7919 4.38952C90.7621 4.3926 90.7296 4.39491 90.6931 4.39954C90.6809 4.40108 90.6714 4.398 90.6646 4.38875C90.6578 4.38181 90.6524 4.37025 90.6518 4.35868C90.6511 4.34866 90.6538 4.33864 90.6606 4.32862C90.6667 4.31474 90.6761 4.30935 90.6897 4.30781C90.731 4.30472 90.7669 4.29393 90.7987 4.28545C90.8292 4.27774 90.8536 4.26387 90.8739 4.24382C90.8922 4.22532 90.9044 4.2022 90.9138 4.17367C90.9226 4.14746 90.9274 4.10815 90.9274 4.06036V3.02816L90.9281 3.02893ZM91.2104 3.31338C91.2104 3.33034 91.2152 3.34653 91.226 3.36118C91.2348 3.37505 91.2511 3.38276 91.2741 3.38276H91.3229C91.3798 3.38276 91.4326 3.37659 91.4793 3.36811C91.5274 3.3604 91.5687 3.33959 91.6032 3.31415C91.6384 3.28871 91.6642 3.25017 91.6845 3.20546C91.7041 3.15921 91.7143 3.09908 91.7143 3.02662C91.7143 2.90251 91.6845 2.81231 91.6256 2.76067C91.5646 2.70825 91.4793 2.68358 91.3676 2.68358H91.2795C91.2457 2.68358 91.2267 2.69129 91.2213 2.70979C91.2138 2.72752 91.2111 2.76067 91.2111 2.80461V3.31338H91.2104ZM91.2104 3.85222C91.2104 3.95089 91.2132 4.02721 91.2206 4.08348C91.226 4.14207 91.2396 4.18215 91.2599 4.21145C91.2802 4.23843 91.3107 4.2577 91.3493 4.26387C91.3885 4.27003 91.4407 4.27312 91.505 4.27312C91.6093 4.27312 91.6838 4.24305 91.7298 4.18755C91.7766 4.12665 91.7989 4.038 91.7989 3.9162C91.7989 3.82755 91.7874 3.75894 91.763 3.70421C91.7387 3.64871 91.7055 3.60631 91.6655 3.57779C91.6249 3.54696 91.5768 3.52537 91.5213 3.51381C91.4658 3.50224 91.4075 3.49608 91.3445 3.49608H91.2951C91.2612 3.49608 91.2375 3.50841 91.2274 3.53154C91.2159 3.55389 91.2098 3.58396 91.2098 3.61788V3.85222H91.2104Z" fill="white"/>
<path d="M94.1268 2.57566C94.1417 2.57566 94.1546 2.57797 94.1675 2.58105C94.1803 2.58645 94.1844 2.59801 94.1817 2.62345C94.1783 2.64504 94.177 2.66816 94.177 2.69129V2.76683C94.177 2.84855 94.179 2.92409 94.1844 2.9927C94.1844 3.00118 94.1803 3.0058 94.1729 3.00889C94.1661 3.01274 94.156 3.01582 94.1451 3.01582C94.1357 3.01737 94.1255 3.01582 94.1167 3.01274C94.1065 3.01043 94.1004 3.00349 94.0984 2.9927C94.0869 2.92409 94.0747 2.87013 94.0625 2.82773C94.0497 2.78919 94.0334 2.75835 94.0117 2.73908C93.9901 2.71827 93.9596 2.70593 93.923 2.70208C93.8858 2.69591 93.8377 2.69052 93.7767 2.68897H93.621C93.577 2.68897 93.5411 2.68975 93.5147 2.69052C93.4876 2.6936 93.4666 2.70131 93.4503 2.7121C93.4348 2.72289 93.4253 2.74217 93.4199 2.76606C93.4151 2.78996 93.4117 2.82619 93.4117 2.87321V3.34113C93.4117 3.36734 93.4165 3.38199 93.4253 3.38893C93.4334 3.39586 93.4415 3.39818 93.4503 3.39818C93.5302 3.39818 93.5919 3.39586 93.6393 3.38738C93.6846 3.37968 93.7192 3.36734 93.7436 3.34807C93.7659 3.33034 93.7808 3.30567 93.7896 3.27484C93.7977 3.244 93.8045 3.20469 93.8092 3.15535C93.8106 3.1461 93.816 3.13762 93.8248 3.13223C93.8336 3.12683 93.8438 3.12452 93.8533 3.12452C93.8641 3.12452 93.8729 3.12683 93.8824 3.13223C93.8905 3.13762 93.8959 3.1461 93.8959 3.15535C93.8959 3.18387 93.8946 3.21163 93.8925 3.2309L93.8864 3.30105C93.8858 3.32417 93.8837 3.34576 93.8824 3.36888C93.8803 3.39509 93.879 3.42207 93.879 3.45368C93.879 3.50995 93.8824 3.55852 93.8871 3.60092C93.8932 3.64408 93.8966 3.70036 93.8966 3.7628C93.8966 3.77051 93.8912 3.77822 93.883 3.78284C93.8736 3.7867 93.8648 3.78747 93.8539 3.78747C93.8445 3.78747 93.8343 3.78515 93.8255 3.77976C93.8167 3.77667 93.8113 3.76897 93.8099 3.7574C93.8045 3.70421 93.7984 3.66181 93.7903 3.63021C93.7822 3.59706 93.7672 3.57316 93.7442 3.55621C93.7198 3.54079 93.6853 3.52922 93.6399 3.52306C93.5925 3.51612 93.5309 3.51381 93.451 3.51381C93.4422 3.51381 93.4341 3.51612 93.4259 3.52306C93.4171 3.52922 93.4124 3.5431 93.4124 3.5616V3.91235C93.4124 3.97325 93.4171 4.01873 93.4239 4.06036C93.432 4.10121 93.4435 4.13436 93.4584 4.1598C93.4747 4.18832 93.4937 4.20528 93.5167 4.22147C93.5384 4.23689 93.5661 4.24614 93.5959 4.2577C93.621 4.26232 93.6467 4.26541 93.6785 4.26772C93.7083 4.27003 93.7402 4.2708 93.7734 4.2708C93.8147 4.2708 93.8533 4.27003 93.8898 4.26772C93.9271 4.26464 93.9535 4.25924 93.9724 4.24922C94.0063 4.2392 94.0368 4.22455 94.0618 4.21145C94.0876 4.1968 94.1086 4.17753 94.1262 4.1544C94.1431 4.1305 94.1573 4.10198 94.1688 4.06652C94.1797 4.03183 94.1885 3.98712 94.1959 3.93393C94.1973 3.92237 94.2041 3.91466 94.2149 3.91081C94.225 3.90849 94.2366 3.90695 94.2487 3.90695C94.2603 3.90695 94.2711 3.90926 94.2799 3.91389C94.2901 3.92006 94.2941 3.92699 94.2921 3.93625C94.2833 4.01256 94.2758 4.08271 94.2697 4.15132C94.2623 4.21376 94.2596 4.28005 94.2609 4.34866C94.2609 4.35406 94.2582 4.361 94.2515 4.37179C94.2447 4.38258 94.2284 4.38721 94.2013 4.38721H93.2594C93.1943 4.38721 93.1293 4.38798 93.067 4.39183C93.0027 4.39646 92.9465 4.39877 92.8964 4.40262C92.8828 4.40262 92.872 4.398 92.8652 4.39029C92.8578 4.38335 92.8544 4.37256 92.853 4.36022C92.851 4.34789 92.853 4.33864 92.8598 4.32939C92.8666 4.31629 92.8781 4.31166 92.8937 4.31012C92.9343 4.30703 92.9709 4.29624 92.9993 4.28699C93.0291 4.2762 93.0528 4.26464 93.0718 4.24459C93.0914 4.22609 93.1056 4.2022 93.1151 4.17367C93.1239 4.14515 93.1287 4.10815 93.1287 4.06267V3.02816C93.1287 2.98884 93.1287 2.95107 93.1246 2.91407C93.1226 2.8763 93.1165 2.83929 93.109 2.80692C93.1002 2.77454 93.086 2.74756 93.0677 2.72443C93.0494 2.70285 93.025 2.68589 92.9946 2.67664C92.9756 2.67124 92.9553 2.66662 92.9336 2.66431C92.9133 2.65968 92.8943 2.6566 92.8747 2.65506C92.8646 2.65506 92.8557 2.64966 92.8524 2.64118C92.8463 2.63193 92.8442 2.62037 92.8442 2.60958C92.8442 2.59878 92.8463 2.5903 92.8524 2.58182C92.8564 2.5718 92.8646 2.56641 92.8747 2.56641C92.9336 2.56641 92.9858 2.56795 93.0325 2.57334C93.0799 2.5772 93.1348 2.57797 93.1977 2.57797H94.1282L94.1268 2.57566Z" fill="white"/>
<path d="M95.2707 3.02746C95.2707 2.98815 95.2701 2.95038 95.2681 2.9126C95.266 2.8756 95.2606 2.83937 95.2504 2.80468C95.243 2.77308 95.2294 2.74533 95.2118 2.7222C95.1936 2.70139 95.1685 2.68366 95.1367 2.67518C95.1177 2.67055 95.0974 2.66593 95.0764 2.66284C95.0561 2.65976 95.0364 2.65668 95.0188 2.65359C95.0073 2.65359 94.9999 2.6482 94.9951 2.63895C94.989 2.63124 94.9863 2.62044 94.9863 2.60888C94.9863 2.59732 94.989 2.58807 94.9951 2.57959C94.9999 2.57034 95.0073 2.56494 95.0188 2.56494C95.0764 2.56494 95.1292 2.56802 95.1766 2.57111C95.2234 2.5765 95.2782 2.57805 95.3391 2.57805C95.4428 2.57573 95.5301 2.57342 95.5978 2.57034C95.6662 2.56802 95.7326 2.56494 95.7942 2.56494C95.864 2.56494 95.9317 2.57573 95.9987 2.59192C96.0665 2.60888 96.1267 2.6374 96.1796 2.67441C96.2324 2.71218 96.2744 2.75997 96.3062 2.82164C96.3394 2.88331 96.3543 2.95577 96.3543 3.04211C96.3543 3.10995 96.3448 3.1693 96.3238 3.21787C96.3048 3.26798 96.2777 3.31192 96.2425 3.34738C96.2087 3.38361 96.1674 3.41136 96.1193 3.43526C96.0719 3.45684 96.0204 3.4738 95.9669 3.48767C95.9534 3.48999 95.9473 3.49693 95.9473 3.50618C95.9473 3.51388 95.9527 3.52082 95.9669 3.52776C96.0468 3.56862 96.1105 3.61487 96.1545 3.66266C96.1985 3.71354 96.2317 3.76673 96.2554 3.81838C96.2791 3.87311 96.296 3.93016 96.3062 3.9872C96.3163 4.04193 96.3272 4.09743 96.3394 4.15294C96.3475 4.19456 96.3624 4.22232 96.382 4.24082C96.4017 4.26163 96.4227 4.27011 96.443 4.27011C96.4647 4.27011 96.4843 4.2624 96.5039 4.24236C96.5229 4.22617 96.5378 4.19919 96.548 4.1645C96.5513 4.14908 96.5574 4.13983 96.5676 4.13444C96.5784 4.13135 96.5879 4.12904 96.5974 4.13135C96.6075 4.13444 96.6163 4.13983 96.6238 4.14908C96.6319 4.15756 96.6346 4.16604 96.6333 4.17375C96.6279 4.21846 96.6157 4.25778 96.5967 4.28707C96.5771 4.32176 96.554 4.34874 96.5283 4.36801C96.5019 4.38882 96.4701 4.40424 96.4362 4.41426C96.4024 4.42428 96.3698 4.42891 96.336 4.42891C96.2804 4.42891 96.231 4.41812 96.185 4.39191C96.1409 4.36647 96.1105 4.33178 96.0942 4.28244C96.0848 4.25546 96.0746 4.22 96.0651 4.18608C96.0556 4.14908 96.0461 4.11362 96.038 4.07585C96.0292 4.03885 96.0204 4.00262 96.0116 3.97024C96.0028 3.93247 95.9954 3.9024 95.9886 3.87388C95.9561 3.76056 95.9168 3.67731 95.8674 3.62643C95.8179 3.57787 95.7495 3.55089 95.6608 3.55089C95.631 3.55089 95.6066 3.55782 95.5863 3.56939C95.564 3.58249 95.5545 3.60639 95.5545 3.64493V4.00956C95.5545 4.07122 95.5599 4.12133 95.5721 4.15756C95.585 4.19379 95.6039 4.22077 95.627 4.24082C95.65 4.26317 95.6811 4.27782 95.7157 4.28553C95.7509 4.29555 95.7922 4.30326 95.8389 4.3048C95.8504 4.3048 95.8579 4.31097 95.864 4.32022C95.8701 4.33101 95.8735 4.34103 95.8735 4.35413C95.8735 4.36493 95.8694 4.37649 95.864 4.38343C95.8579 4.39268 95.8484 4.3973 95.8369 4.3973C95.7502 4.3973 95.6737 4.39268 95.6087 4.38651C95.543 4.38112 95.48 4.37803 95.417 4.37803C95.3513 4.37803 95.2863 4.38112 95.2227 4.38651C95.159 4.39345 95.096 4.3973 95.0351 4.3973C95.0249 4.3973 95.0182 4.39268 95.0114 4.38343C95.006 4.37649 95.0039 4.36493 95.0033 4.35413C95.0012 4.34334 95.0039 4.33332 95.0094 4.32407C95.0141 4.31097 95.0229 4.30634 95.0351 4.3048C95.0838 4.30172 95.1238 4.29092 95.1549 4.28244C95.1847 4.27473 95.2112 4.26086 95.2274 4.23927C95.2443 4.22077 95.2572 4.19456 95.262 4.16373C95.268 4.13058 95.2701 4.08587 95.2701 4.03422V3.02438L95.2707 3.02746ZM95.5552 3.34583C95.5552 3.3944 95.5674 3.42061 95.5924 3.42832C95.6175 3.4368 95.6547 3.43988 95.7048 3.43988C95.7719 3.43988 95.8288 3.43294 95.8748 3.42061C95.9202 3.40673 95.9568 3.38361 95.9845 3.35354C96.0123 3.32348 96.0313 3.28262 96.0434 3.2302C96.055 3.18241 96.061 3.12305 96.061 3.05136C96.061 2.97967 96.0543 2.92571 96.0414 2.87946C96.0292 2.83012 96.0096 2.79081 95.9838 2.76228C95.9568 2.73222 95.9222 2.71141 95.8782 2.70139C95.8342 2.68674 95.782 2.68211 95.7204 2.68211C95.652 2.68211 95.608 2.68982 95.587 2.70755C95.564 2.72528 95.5538 2.76151 95.5538 2.81625V3.34583H95.5552Z" fill="white"/>
<path d="M98.5388 2.57566C98.5537 2.57566 98.5659 2.57797 98.5795 2.58105C98.5924 2.58645 98.5971 2.59801 98.5944 2.62345C98.5903 2.64504 98.589 2.66816 98.589 2.69129V2.76683C98.589 2.84855 98.5917 2.92409 98.5957 2.9927C98.5957 3.00118 98.5924 3.0058 98.5849 3.00889C98.5768 3.01274 98.5673 3.01582 98.5585 3.01582C98.5463 3.01737 98.5368 3.01582 98.528 3.01274C98.5185 3.01043 98.5124 3.00349 98.5104 2.9927C98.4996 2.92409 98.4867 2.87013 98.4745 2.82773C98.463 2.78919 98.4461 2.75835 98.4244 2.73908C98.4014 2.71827 98.3729 2.70593 98.3357 2.70208C98.2984 2.69591 98.2497 2.69052 98.1887 2.68897H98.0323C97.989 2.68897 97.9531 2.68975 97.926 2.69052C97.8989 2.6936 97.8765 2.70131 97.8616 2.7121C97.8461 2.72289 97.8366 2.74217 97.8298 2.76606C97.8251 2.78996 97.8231 2.82619 97.8231 2.87321V3.34113C97.8231 3.36734 97.8271 3.38199 97.8366 3.38893C97.8441 3.39586 97.8528 3.39818 97.8616 3.39818C97.9402 3.39818 98.0039 3.39586 98.0492 3.38738C98.0953 3.37968 98.1291 3.36734 98.1542 3.34807C98.1759 3.33034 98.1921 3.30567 98.2002 3.27484C98.2084 3.244 98.2145 3.20469 98.2199 3.15535C98.2219 3.1461 98.2267 3.13762 98.2355 3.13223C98.2443 3.12683 98.2538 3.12452 98.2632 3.12452C98.2741 3.12452 98.2836 3.12683 98.2924 3.13223C98.3018 3.13762 98.3059 3.1461 98.3059 3.15535C98.3059 3.18387 98.3045 3.21163 98.3032 3.2309C98.3018 3.25479 98.3005 3.27946 98.2978 3.30105C98.2951 3.32417 98.293 3.34576 98.2924 3.36888C98.291 3.39509 98.2896 3.42207 98.2896 3.45368C98.2896 3.50995 98.2924 3.55852 98.2985 3.60092C98.3039 3.64408 98.3066 3.70036 98.3066 3.7628C98.3066 3.77051 98.3018 3.77822 98.293 3.78284C98.2842 3.7867 98.2748 3.78747 98.2639 3.78747C98.2544 3.78747 98.2449 3.78515 98.2361 3.77976C98.2273 3.77667 98.2226 3.76897 98.2206 3.7574C98.2152 3.70421 98.2091 3.66181 98.2009 3.63021C98.1935 3.59706 98.1772 3.57316 98.1549 3.55621C98.1298 3.54079 98.096 3.52922 98.0499 3.52306C98.0045 3.51612 97.9409 3.51381 97.8623 3.51381C97.8535 3.51381 97.8447 3.51612 97.8373 3.52306C97.8278 3.52922 97.8237 3.5431 97.8237 3.5616V3.91235C97.8237 3.97325 97.8264 4.01873 97.8359 4.06036C97.8427 4.10121 97.8542 4.13436 97.8711 4.1598C97.8867 4.18832 97.9057 4.20528 97.9273 4.22147C97.9504 4.23689 97.9768 4.24614 98.0086 4.2577C98.0323 4.26232 98.0601 4.26541 98.0899 4.26772C98.121 4.27003 98.1515 4.2708 98.1854 4.2708C98.2267 4.2708 98.2646 4.27003 98.3025 4.26772C98.3391 4.26464 98.3662 4.25924 98.3858 4.24922C98.4197 4.2392 98.4501 4.22455 98.4745 4.21145C98.5009 4.1968 98.5212 4.17753 98.5388 4.1544C98.5565 4.1305 98.5707 4.10198 98.5815 4.06652C98.593 4.03183 98.6012 3.98712 98.6093 3.93393C98.6106 3.92237 98.6167 3.91466 98.6282 3.91081C98.637 3.90849 98.6479 3.90695 98.6607 3.90695C98.6729 3.90695 98.6838 3.90926 98.6933 3.91389C98.7021 3.92006 98.7061 3.92699 98.7048 3.93625C98.696 4.01256 98.6872 4.08271 98.6811 4.15132C98.675 4.21376 98.6716 4.28005 98.6729 4.34866C98.6729 4.35406 98.6689 4.361 98.6628 4.37179C98.656 4.38258 98.6391 4.38721 98.614 4.38721H97.67C97.6057 4.38721 97.54 4.38798 97.4784 4.39183C97.4147 4.39646 97.3578 4.39877 97.3077 4.40262C97.2948 4.40262 97.284 4.398 97.2766 4.39029C97.2698 4.38335 97.2657 4.37256 97.2644 4.36022C97.263 4.34789 97.265 4.33864 97.2711 4.32939C97.2793 4.31629 97.2894 4.31166 97.305 4.31012C97.3463 4.30703 97.3836 4.29624 97.4113 4.28699C97.4418 4.2762 97.4655 4.26464 97.4838 4.24459C97.5034 4.22609 97.5176 4.2022 97.5264 4.17367C97.5359 4.14515 97.5407 4.10815 97.5407 4.06267V3.02816C97.5407 2.98884 97.5407 2.95107 97.5373 2.91407C97.5352 2.8763 97.5291 2.83929 97.5203 2.80692C97.5115 2.77454 97.4987 2.74756 97.4811 2.72443C97.4621 2.70285 97.4377 2.68589 97.4059 2.67664C97.3869 2.67124 97.3673 2.66662 97.3456 2.66431C97.3246 2.65968 97.305 2.6566 97.2874 2.65506C97.2759 2.65506 97.2684 2.64966 97.2637 2.64118C97.2576 2.63193 97.2549 2.62037 97.2549 2.60958C97.2549 2.59878 97.2576 2.5903 97.2637 2.58182C97.2684 2.5718 97.2759 2.56641 97.2874 2.56641C97.3449 2.56641 97.3985 2.56795 97.4452 2.57334C97.4926 2.5772 97.5468 2.57797 97.6091 2.57797H98.5409L98.5388 2.57566Z" fill="white"/>
<path d="M5.45176 5.12304C5.33122 5.04364 5.21068 4.96424 5.09082 4.88561C4.93032 4.26198 4.77186 3.64143 4.61475 3.02396C4.93506 2.91835 5.60481 2.721 5.88381 2.63621C5.95357 2.94456 6.02332 3.25368 6.09307 3.56357C6.27321 3.51038 6.50142 3.45256 6.71474 3.3932C6.64905 3.07946 6.58404 2.76572 6.5197 2.45274C6.84002 2.36024 7.45086 2.20067 7.78471 2.11433C7.84499 2.4327 7.90525 2.75184 7.96552 3.07098C8.20457 3.00777 8.46123 2.95381 8.58719 2.92297C8.53031 2.59998 8.4741 2.27698 8.41857 1.95476C8.59938 1.90696 9.261 1.75048 9.67951 1.65951C9.77906 2.31553 9.87996 2.97231 9.98222 3.6314C9.90163 3.77633 9.82105 3.92125 9.74046 4.0654C8.95762 4.22035 7.75898 4.50326 6.94838 4.70985C6.95583 4.74686 6.96327 4.78386 6.97072 4.82086C7.91067 4.66437 8.84792 4.50557 9.78313 4.34446C9.91992 5.19011 10.0587 6.03807 10.1996 6.88834C10.2639 6.87754 10.3317 6.86367 10.4041 6.84979C10.3642 6.60157 10.3249 6.35258 10.2849 6.10513C10.7061 6.02265 11.0969 5.95481 11.4558 5.89314C11.491 6.14367 11.5256 6.39421 11.5608 6.64474C11.6258 6.63395 11.6901 6.62393 11.7544 6.61314C11.6251 5.65957 11.4978 4.70831 11.3725 3.7586C11.2574 3.64605 11.1429 3.53427 11.0278 3.42173C10.9377 2.75878 10.849 2.0966 10.761 1.43596C11.0664 1.37352 11.7578 1.25095 12.0267 1.20624C12.0653 1.54465 12.1039 1.88384 12.1432 2.22225C12.2651 2.20298 12.5292 2.16366 12.7642 2.12898C12.7289 1.78748 12.6944 1.44598 12.6599 1.10526C12.9443 1.05669 13.6059 0.968814 13.9222 0.927958C13.9506 1.27254 13.9784 1.61789 14.0075 1.96324C14.2384 1.9324 14.5161 1.91082 14.6298 1.89232C14.6048 1.5462 14.5797 1.20008 14.5547 0.854725C14.6048 0.846245 15.2346 0.77995 15.8142 0.732156C15.8508 1.41669 15.8881 2.10045 15.9253 2.78576C15.8325 2.92991 15.7398 3.07406 15.647 3.21822C14.9495 3.2583 13.1427 3.4834 12.8535 3.52579C12.8576 3.56434 12.8617 3.60211 12.8651 3.64065C13.7976 3.5944 14.7301 3.54892 15.6612 3.50344C15.7133 4.37761 15.7668 5.25178 15.8203 6.12672C15.886 6.11901 15.9551 6.11438 16.0296 6.10976C16.0154 5.8546 16.0005 5.60021 15.9863 5.34505C16.117 5.33041 16.8463 5.28569 17.1578 5.27336C17.1673 5.53006 17.1768 5.78676 17.1863 6.04269C17.2567 6.03961 17.3251 6.03575 17.3914 6.0319C17.3576 5.05675 17.3237 4.08236 17.2912 3.10721C17.1856 2.97616 17.0799 2.84512 16.9743 2.7133C16.9492 2.02645 16.9242 1.3396 16.8998 0.652756C17.4781 0.618067 18.1066 0.598025 18.156 0.598025C18.1628 0.950313 18.1689 1.30337 18.1756 1.65566C18.2914 1.65335 18.6131 1.6441 18.798 1.6441C18.7953 1.29181 18.7919 0.939521 18.7892 0.586462C19.1346 0.579524 19.7962 0.580295 20.0474 0.586462C20.044 0.93875 20.04 1.29104 20.0366 1.64333C20.2689 1.64487 20.5702 1.65258 20.6596 1.65489C20.6664 1.3026 20.6731 0.949542 20.6799 0.597254C20.9352 0.599566 21.6321 0.637339 21.9361 0.653527C21.9111 1.34037 21.8853 2.02645 21.8596 2.7133C21.7573 2.84512 21.6544 2.97771 21.5515 3.1103C20.7673 3.06636 19.5707 3.05325 18.7587 3.06558C18.7587 3.10413 18.7587 3.1419 18.7587 3.18044C19.6851 3.25214 20.6122 3.3246 21.5406 3.39783C21.5108 4.27585 21.481 5.15388 21.4506 6.0319C21.5156 6.03344 21.5813 6.03729 21.649 6.04115C21.6585 5.78445 21.668 5.52775 21.6774 5.27182C21.9889 5.28415 22.7176 5.32886 22.8497 5.34351C22.8341 5.59867 22.8192 5.85306 22.8036 6.10821C22.8754 6.11284 22.9438 6.11669 23.0061 6.12286C23.0657 5.15773 23.1239 4.19337 23.1815 3.22901C23.0887 3.081 22.9959 2.93299 22.9038 2.78422C22.9418 2.09968 22.9783 1.41515 23.0156 0.730614C23.5959 0.778409 24.2251 0.844703 24.2758 0.853183C24.2501 1.1993 24.2244 1.54543 24.198 1.89078C24.3144 1.90851 24.5901 1.93009 24.821 1.96093C24.8494 1.61558 24.8779 1.271 24.9056 0.925645C25.2226 0.96573 25.8835 1.05438 26.1686 1.10295C26.1341 1.44367 26.0989 1.78517 26.0643 2.12666C26.2993 2.16212 26.5627 2.20067 26.6853 2.21994C26.7239 1.88075 26.7618 1.54234 26.8004 1.20393C27.07 1.24941 27.7621 1.37121 28.0668 1.43365C27.9788 2.09506 27.8901 2.75647 27.8 3.42019C27.6855 3.53196 27.5704 3.64451 27.4553 3.75706C26.7002 3.6237 25.425 3.43946 24.6503 3.35697C24.6469 3.39475 24.6436 3.43329 24.6402 3.47106C25.5632 3.6607 26.4889 3.85033 27.4174 4.03842C27.3043 4.89486 27.1898 5.75284 27.074 6.61159C27.1384 6.62239 27.2027 6.63472 27.2691 6.64628C27.3049 6.39498 27.3402 6.1429 27.3761 5.8916C27.7356 5.9525 28.1264 6.02034 28.5469 6.10359C28.5077 6.35181 28.4677 6.60003 28.4277 6.84825C28.4995 6.8629 28.5686 6.87523 28.6336 6.8868C28.7873 5.95635 28.939 5.02822 29.088 4.10241C29.0088 3.94515 28.9302 3.78712 28.851 3.62909C28.9533 2.97077 29.0542 2.31321 29.1537 1.6572C29.5722 1.74817 30.2325 1.90465 30.4153 1.95245C30.3598 2.27467 30.3036 2.59767 30.2467 2.92066C30.3713 2.9515 30.6286 3.00546 30.8684 3.06867C30.9286 2.74953 30.9889 2.43039 31.0492 2.11202C31.381 2.19835 31.9932 2.35792 32.3135 2.45043C32.2485 2.7634 32.1835 3.07715 32.1178 3.39089C32.3304 3.45102 32.5607 3.50806 32.7395 3.56125C32.8106 3.25136 32.881 2.94225 32.9507 2.6339C33.2284 2.71869 33.8988 2.91604 34.2185 3.02164C34.0614 3.63911 33.9022 4.25966 33.7417 4.8833C33.6232 4.96116 33.5047 5.03902 33.3855 5.11764C32.625 4.89178 31.2381 4.5418 30.5663 4.3884C30.5596 4.42463 30.5521 4.46009 30.5453 4.49555C31.465 4.79696 32.3894 5.09452 33.3171 5.38514L29.7097 17.3537V17.3568C22.7244 15.805 15.7709 15.8844 9.16349 17.3691V17.3676L5.45108 5.11996L5.45176 5.12304Z" fill="white"/>
<path d="M93.3213 24.6681H93.32C94.4698 26.4642 95.3617 28.4754 95.9719 30.65C96.5895 32.8524 96.9023 35.1581 96.901 37.5039C96.8996 39.8489 96.584 42.153 95.9637 44.3515C95.3414 46.557 94.4285 48.5921 93.2502 50.4021H11.5659C11.3573 50.4021 11.2645 50.3767 11.2368 50.3674C11.2266 50.3558 11.2063 50.3312 11.1772 50.2834C8.82322 46.4606 7.5853 42.0127 7.59682 37.4198C7.60833 32.8648 8.84895 28.4608 11.1853 24.6758C11.2361 24.6712 11.3079 24.6681 11.4074 24.6681H93.322M93.3213 22.3555H11.4067C10.6259 22.3555 10.0469 22.5042 9.58642 23.2435C6.9677 27.4409 5.57741 32.3406 5.56454 37.4137C5.55168 42.486 6.91759 47.3949 9.51329 51.6108C10.0286 52.4472 10.6808 52.7147 11.5652 52.7147H93.3701C94.1929 52.7147 94.6195 52.1766 94.8023 51.8999C100.301 43.5675 100.309 31.451 94.8213 23.0893C94.5606 22.6923 94.1224 22.3555 93.3213 22.3555Z" fill="white"/>
</svg>
