<svg width="2072" height="1248" viewBox="0 0 2072 1248" fill="none" xmlns="http://www.w3.org/2000/svg">
<mask id="mask0_1_480" style="mask-type:luminance" maskUnits="userSpaceOnUse" x="0" y="0" width="2072" height="1248">
<path d="M0.340332 -2.32458e-05H2071.67V1248H0.340332V-2.32458e-05Z" fill="white"/>
</mask>
<g mask="url(#mask0_1_480)">
<path d="M2048.68 614.008C2057.75 610.446 2070.44 615.997 2071.11 626.891C2071.23 657.027 2071.14 687.176 2071.15 717.326C2071.24 726.105 2062.64 732.324 2054.72 731.99C2046.85 732.282 2038.26 726.091 2038.47 717.354C2038.39 687.649 2038.46 657.959 2038.43 628.254C2037.98 621.674 2042.85 615.928 2048.68 614.008Z" fill="white"/>
<path d="M564.91 630.213C559.715 647.534 554.346 664.814 549.07 682.122C570.038 682.15 590.993 682.136 611.948 682.136C606.901 665.273 601.746 648.453 596.766 631.562C591.275 609.134 586.295 586.567 580.711 564.153C574.992 586.053 570.374 608.244 564.91 630.213ZM542.009 521.26C567.26 521.343 592.537 521.106 617.801 521.385C650.086 619.597 682.733 717.684 715.099 815.868C694.264 815.868 673.43 815.882 652.596 815.868C644.716 789.781 636.756 763.708 628.889 737.621C596.631 737.649 564.373 737.538 532.116 737.677C524.33 763.847 516.383 789.962 508.449 816.077C487.763 816.007 467.09 816.049 446.417 816.049C478.231 717.781 510.127 619.527 542.009 521.26Z" fill="white"/>
<path d="M1128.28 564.126C1122.79 586.081 1117.99 608.23 1112.57 630.213C1107.39 647.423 1102.06 664.592 1096.82 681.802C1117.77 681.788 1138.71 681.788 1159.66 681.788C1152.92 658.554 1144.92 635.667 1139.88 611.931C1135.92 596.028 1132.75 579.875 1128.28 564.126ZM1089.7 521.093C1114.92 521.051 1140.14 521.162 1165.37 521.037C1197.92 619.235 1230.43 717.448 1262.81 815.701C1241.99 815.688 1221.17 815.715 1200.36 815.687C1192.46 789.601 1184.54 763.527 1176.63 737.441H1079.9C1072.02 763.527 1064.12 789.614 1056.24 815.701C1035.56 815.701 1014.86 815.688 994.171 815.701C1025.97 717.489 1057.84 619.291 1089.7 521.093Z" fill="white"/>
<path d="M1292.71 522.136H1366.7C1392.1 574.728 1417.43 627.347 1442.75 679.966C1455.19 704.161 1462.97 730.498 1473.41 755.611C1474.25 755.597 1475.95 755.569 1476.79 755.555C1473.23 730.248 1469.42 704.967 1465.97 679.646C1465.74 627.152 1465.95 574.644 1465.88 522.136C1485.06 522.15 1504.24 522.122 1523.43 522.15C1523.57 619.945 1523.64 717.726 1523.59 815.521C1498.94 815.576 1474.3 815.423 1449.66 815.604C1424.99 764.557 1400.8 713.26 1376.27 662.143C1372.08 652.752 1366.86 643.834 1363.71 633.983C1357.26 616.008 1351.09 597.907 1344.43 580.014C1343.6 580.028 1341.92 580.042 1341.09 580.056C1343.77 601.733 1346.65 623.395 1349.41 645.072C1350.12 651.138 1351.32 657.19 1351.12 663.34C1350.98 714.067 1351.2 764.794 1351.25 815.534C1331.73 815.521 1312.23 815.521 1292.71 815.534C1292.69 717.726 1292.71 619.931 1292.71 522.136Z" fill="white"/>
<path d="M822.867 523.18C884.684 523.235 946.516 523.096 1008.33 523.249C1008.2 540.501 1008.31 557.754 1008.28 575.006H945.187C945.106 655.242 945.482 735.465 945.348 815.701C925.708 815.632 906.082 816.021 886.443 815.854C886.416 735.548 886.55 655.242 886.389 574.936C865.206 575.103 844.036 574.95 822.867 575.006V523.18Z" fill="white"/>
<path d="M1570.25 522.484H1628.81C1628.77 560.675 1628.86 598.853 1628.75 637.044C1660.55 598.714 1692.66 560.675 1724.61 522.47C1747.9 522.609 1771.21 522.317 1794.51 522.317C1758.47 567.27 1722.37 612.154 1686.33 657.107C1722.72 709.823 1759.01 762.609 1795.36 815.354C1772.75 815.354 1750.16 815.34 1727.55 815.367C1699.83 776.439 1672.17 737.468 1644.42 698.554C1639.21 703.938 1634 709.336 1628.81 714.734C1628.81 748.334 1628.79 781.921 1628.81 815.521C1609.36 815.548 1589.9 815.493 1570.45 815.548C1570.32 717.865 1570.59 620.167 1570.25 522.484Z" fill="white"/>
<path d="M276.334 524.404H334.729C334.822 602.929 334.997 681.468 334.849 759.993C367.537 760.119 400.211 760.021 432.885 760.049C432.898 778.72 432.872 797.392 432.898 816.049C380.76 816.021 328.634 816.049 276.508 816.049C276.562 718.825 276.213 621.614 276.334 524.404Z" fill="white"/>
<path d="M61.9993 531.949C70.9665 528.568 83.706 533.91 84.1758 544.776C84.3235 627.782 84.1758 710.801 84.2564 793.82C84.2027 798.759 85.1826 804.255 82.2696 808.596C76.108 818.14 60.7508 818.321 54.1865 809.138C50.6425 804.338 52.1595 797.966 51.8641 792.401C51.6762 709.883 51.6091 627.35 51.7299 544.832C51.7702 538.696 56.6297 533.729 61.9993 531.949Z" fill="white"/>
<path d="M1997.3 531.225C2006.61 527.204 2020.34 533.312 2019.98 544.86C2019.84 630.161 2020.31 715.476 2020.11 800.777C2019.95 811.977 2006.67 817.639 1997.57 813.883C1991.75 811.921 1987.01 806.077 1987.58 799.51C1987.69 715.531 1987.56 631.552 1987.41 547.587C1986.42 540.463 1990.69 533.368 1997.3 531.225Z" fill="white"/>
<path d="M0.835938 626.112C2.20519 619.587 8.04465 614.912 14.3003 614.189C22.7306 612.575 33.3087 618.488 33.2013 628.213C33.1342 658.377 33.604 688.554 33.3221 718.731C33.3758 725.785 27.3484 731.337 20.9854 732.547C12.7296 734.592 2.7153 729.834 0.835938 720.777V626.112Z" fill="white"/>
<path d="M1837.1 996.3C1857.67 996.021 1878.23 996.175 1898.8 996.105C1898.84 1002.82 1898.81 1009.56 1898.84 1016.29C1878.25 1016.22 1857.68 1016.61 1837.1 1016.47C1837.09 1009.74 1837.09 1003.02 1837.1 996.3Z" fill="white"/>
<path d="M1157.5 1030.92C1171.01 1030.87 1184.53 1030.96 1198.05 1030.87C1198.17 1073.74 1198.02 1116.61 1198.13 1159.49C1198.31 1173.47 1197.66 1187.56 1194.26 1201.17C1190.83 1218.91 1179.52 1233.84 1166.37 1245.18C1144.38 1245.98 1122.26 1245.22 1100.22 1245.54C1088.52 1235.74 1078.32 1223.25 1073.72 1208.2C1069.98 1195.12 1068.67 1181.44 1068.16 1167.85C1067.8 1122.27 1067.92 1076.66 1067.9 1031.07C1081.49 1031.08 1095.07 1031.07 1108.66 1031.08C1108.73 1080.13 1108.55 1129.18 1108.74 1178.24C1108.63 1189.8 1112.58 1201.39 1120.61 1209.59C1128.85 1210.27 1137.2 1209.64 1145.48 1209.89C1150.56 1203.92 1155.05 1197.01 1156.34 1189.02C1158.29 1177.95 1157.23 1166.64 1157.5 1155.44V1030.92Z" fill="white"/>
<path d="M1264.89 1067.76C1264.91 1089.5 1264.82 1111.24 1264.93 1132.98C1272.66 1132.97 1280.41 1133.02 1288.14 1132.98C1292.3 1133.33 1295.47 1129.93 1297.99 1126.96C1310.8 1112.1 1310.21 1087.78 1298.29 1072.56C1296.39 1070.25 1293.95 1067.8 1290.84 1067.8C1282.19 1067.67 1273.53 1067.8 1264.89 1067.76ZM1224.75 1030.96C1250.99 1030.92 1277.26 1030.78 1303.51 1031.03C1326.65 1038.6 1345.12 1060.84 1347.9 1086.03C1349.63 1100.69 1348.32 1116.06 1342.34 1129.6C1337.16 1141.33 1328.13 1150.97 1317.44 1157.45C1327.13 1186.89 1337.36 1216.14 1347.24 1245.51C1333.36 1245.5 1319.5 1245.51 1305.64 1245.51C1297.24 1219.48 1288.96 1193.41 1280.46 1167.42H1265.05V1245.51C1251.68 1245.5 1238.32 1245.5 1224.96 1245.51C1224.87 1174 1225.17 1102.47 1224.75 1030.96Z" fill="white"/>
<path d="M1369.6 1030.92C1383.19 1030.92 1396.79 1030.86 1410.39 1030.94C1410.34 1102.47 1410.39 1173.98 1410.36 1245.51C1396.83 1245.5 1383.3 1245.5 1369.77 1245.51C1369.65 1173.97 1369.97 1102.44 1369.6 1030.92Z" fill="white"/>
<path d="M1431.47 1030.97C1469.12 1030.93 1506.76 1030.75 1544.43 1030.72C1544.44 1041.68 1544.4 1052.66 1544.46 1063.63C1544.89 1067.83 1542.14 1071.25 1540.58 1074.88C1518.59 1119.81 1496.57 1164.73 1474.65 1209.7C1498.08 1209.68 1521.52 1209.7 1544.95 1209.7C1544.94 1221.57 1544.94 1233.45 1544.95 1245.33C1507.14 1245.33 1469.32 1245.27 1431.52 1245.51C1431.52 1234.46 1431.48 1223.43 1431.52 1212.4C1431.51 1209.02 1433.67 1206.23 1434.94 1203.27C1457.03 1158.12 1479.08 1112.96 1501.07 1067.76H1431.51C1431.48 1055.5 1431.57 1043.23 1431.47 1030.97Z" fill="white"/>
<path d="M1624.41 1070.05C1618.58 1106.2 1613.04 1142.39 1606.37 1178.38H1643.1C1635.81 1142.47 1630.84 1106.12 1624.41 1070.05ZM1594.88 1030.72C1615.35 1030.78 1635.81 1030.65 1656.28 1030.79C1668.8 1102.33 1681.56 1173.82 1694.18 1245.34C1680.93 1245.34 1667.69 1245.27 1654.45 1245.37C1652.24 1234.07 1650.28 1222.73 1648.17 1211.42C1632.65 1211.42 1617.12 1211.41 1601.6 1211.44C1599.54 1222.73 1597.5 1234.03 1595.43 1245.34C1581.98 1245.33 1568.54 1245.3 1555.1 1245.36C1568.24 1173.79 1581.64 1102.28 1594.88 1030.72Z" fill="white"/>
<path d="M1681.71 1030.73H1811.41V1067.59H1766.77V1245.33H1726.5C1726.56 1186.07 1726.47 1126.83 1726.34 1067.59H1681.71V1030.73Z" fill="white"/>
<path d="M1849.32 1178.23C1861.55 1178.19 1873.78 1178.23 1886.02 1178.2C1878.85 1142.35 1873.62 1106.13 1867.51 1070.07C1861.28 1106.09 1856.08 1142.3 1849.32 1178.23ZM1837.8 1030.73C1858.24 1030.71 1878.69 1030.46 1899.13 1030.55C1911.82 1102.09 1924.44 1173.64 1937.11 1245.16C1923.83 1245.13 1910.56 1245.2 1897.28 1245.12C1895.15 1233.87 1893.38 1222.51 1890.96 1211.33C1875.49 1211.15 1860.02 1211.3 1844.55 1211.24C1842.46 1222.57 1840.51 1233.92 1838.31 1245.22C1824.87 1244.97 1811.44 1245.47 1798.01 1245.34C1811.19 1173.79 1824.55 1102.28 1837.8 1030.73Z" fill="white"/>
<path d="M134.584 1031.43C144.598 1031.42 154.613 1031.42 164.627 1031.43C181.769 1070.29 199.006 1109.11 216.135 1147.97C217.303 1150.32 217.893 1153.28 220.296 1154.67C219.545 1141.91 218.028 1129.23 217.195 1116.48C217.088 1088.14 217.182 1059.79 217.142 1031.43C229.613 1031.42 242.084 1031.42 254.555 1031.43C254.555 1103.01 254.568 1174.61 254.555 1246.21C245.386 1246.21 236.204 1246.18 227.035 1246.21C209.369 1208.38 191.663 1170.56 174.077 1132.69C172.99 1130.83 172.587 1128.2 170.439 1127.29C170.614 1142.71 172.346 1158.08 171.997 1173.51C172.279 1197.73 172.131 1221.97 172.171 1246.19C159.7 1246.21 147.229 1246.21 134.758 1246.21C134.839 1174.61 134.45 1103.01 134.584 1031.43Z" fill="white"/>
<path d="M282.759 1031.43C318.158 1031.42 353.557 1031.42 388.97 1031.43V1068.29C367.102 1068.3 345.221 1068.29 323.353 1068.29C323.353 1085.27 323.38 1102.25 323.339 1119.24C342.871 1119.29 362.39 1119.25 381.922 1119.25C381.909 1131.13 381.922 1143.03 381.909 1154.91C362.39 1154.88 342.871 1154.91 323.366 1154.89C323.353 1173.33 323.353 1191.78 323.366 1210.21C345.637 1210.25 367.907 1210.12 390.191 1210.28C390.084 1222.14 390.164 1233.99 390.151 1245.84C354.349 1246.15 318.56 1246.3 282.759 1246.21V1031.43Z" fill="white"/>
<path d="M452.72 1068.31C452.613 1093.76 452.962 1119.19 452.895 1144.64C461.594 1144.67 470.279 1144.6 478.978 1144.68C492.469 1133.47 496.818 1114.18 494.737 1097.04C493.261 1086.3 488.925 1075.51 480.897 1068.26C471.514 1068.34 462.117 1068.24 452.72 1068.31ZM412.811 1031.25C439.551 1031.37 466.332 1030.98 493.073 1031.44C512.605 1039.83 527.586 1058.14 533.291 1079.15C538.5 1098.8 537.345 1120.28 529.855 1139.14C523.881 1154.71 513.115 1168.54 498.63 1176.32C494.402 1178.39 490.146 1181.32 485.274 1181.01C474.454 1181.02 463.647 1180.87 452.828 1181.08C452.989 1202.67 452.854 1224.26 452.895 1245.86C439.538 1245.84 426.167 1245.84 412.797 1245.86C412.811 1174.32 412.797 1102.78 412.811 1031.25Z" fill="white"/>
<path d="M584.799 1179.02C597.002 1178.77 609.204 1178.94 621.407 1178.92C614.225 1142.99 609.03 1106.66 602.841 1070.54C596.854 1106.7 591.256 1142.94 584.799 1179.02ZM533.372 1245.84C546.662 1174.3 559.884 1102.73 573.255 1031.21C593.686 1031.31 614.117 1031.22 634.549 1031.25C647.194 1102.79 659.867 1174.3 672.485 1245.84C659.236 1245.86 645.973 1245.82 632.723 1245.87C630.629 1234.51 628.548 1223.14 626.481 1211.77C610.976 1211.77 595.471 1211.76 579.953 1211.77C577.886 1223.14 575.819 1234.49 573.751 1245.86C560.3 1245.83 546.836 1245.86 533.372 1245.84Z" fill="white"/>
<path d="M683.023 1066.25C684.245 1050.94 694.058 1036.7 708.086 1031.39C731.86 1031.17 755.661 1031.21 779.435 1031.08C779.435 1043.42 779.448 1055.76 779.435 1068.12C761.93 1068.11 744.411 1068.15 726.893 1068.09C725.027 1068.04 723.215 1068.29 721.443 1068.86C734.142 1093.69 747.486 1118.19 760.44 1142.89C768.682 1159.08 778.71 1174.73 782.737 1192.78C785.838 1212.01 779.985 1234.02 764.091 1245.65C737.834 1245.59 711.576 1245.94 685.305 1245.86C685.319 1233.91 685.305 1221.97 685.319 1210.03C705.925 1209.99 726.544 1210.14 747.163 1209.95C746.975 1208.25 746.492 1206.67 745.673 1205.22C729.309 1174.94 713.039 1144.61 696.716 1114.32C688.742 1099.74 680.365 1083.6 683.023 1066.25Z" fill="white"/>
<path d="M792.872 1031.07C836.044 1031.07 879.216 1031.08 922.401 1031.07C922.441 1043.34 922.347 1055.6 922.441 1067.87C907.554 1068.05 892.666 1067.9 877.766 1067.94C877.819 1127.19 877.632 1186.44 877.94 1245.68H837.507C837.507 1186.49 837.507 1127.29 837.494 1068.11C822.62 1068.13 807.746 1068.11 792.872 1068.12V1031.07Z" fill="white"/>
<path d="M939.53 1245.68C939.476 1174.12 939.207 1102.58 939.422 1031.03C974.808 1031.15 1010.19 1031.04 1045.57 1031.08C1045.58 1043.37 1045.55 1055.65 1045.58 1067.94C1023.77 1067.95 1001.94 1067.94 980.124 1067.94C980.097 1084.91 980.191 1101.87 980.084 1118.85C999.562 1118.99 1019.04 1118.86 1038.52 1118.9C1038.46 1130.85 1038.64 1142.82 1038.44 1154.78C1019 1154.66 999.562 1154.76 980.124 1154.73V1209.87H1046.92C1046.91 1221.8 1046.91 1233.74 1046.91 1245.68H939.53Z" fill="white"/>
<path d="M1177.57 50.6708C1182.02 55.2844 1182.03 62.8391 1177.58 67.4597L1164.81 80.7104C1160.36 85.331 1153.08 85.331 1148.63 80.7091L1135.87 67.4611C1131.42 62.8391 1131.43 55.2844 1135.88 50.6694L1148.62 37.4854C1153.07 32.8718 1160.37 32.8718 1164.82 37.4854L1177.57 50.6708Z" fill="white"/>
<path d="M1412.18 50.6708C1416.64 55.2844 1416.65 62.8391 1412.19 67.4597L1399.43 80.7104C1394.98 85.331 1387.7 85.331 1383.25 80.7091L1370.49 67.4611C1366.04 62.8391 1366.04 55.2844 1370.5 50.6694L1383.23 37.4854C1387.69 32.8718 1394.98 32.8718 1399.44 37.4854L1412.18 50.6708Z" fill="white"/>
<path d="M1196.23 161.385C1196.23 145.622 1196.02 130.473 1193.34 118.643C1189.22 99.6268 1167.46 100.477 1167.46 100.477H1131.14C1143.92 114.688 1142.33 135.339 1142.33 161.385V306.802H1196.24V161.385" fill="white"/>
<path d="M1432.21 161.385C1432.21 145.622 1432 130.473 1429.32 118.643C1425.2 99.6268 1403.44 100.477 1403.44 100.477H1367.12C1379.9 114.688 1378.31 135.339 1378.31 161.385V306.802H1432.22V161.385" fill="white"/>
<path d="M1961.56 306.834C1948.75 292.565 1950.38 271.922 1950.38 245.949V100.476H1896.46V245.949C1896.46 254.887 1896.54 263.63 1897.1 271.711C1877.8 265.532 1865.7 255.197 1865.7 227.886V161.099C1865.7 145.216 1865.48 129.956 1862.74 118.084C1857.37 99.7439 1831.91 100.199 1831.91 100.199H1800.61C1813.43 114.426 1811.78 135.069 1811.78 161.099V228.971C1811.78 269.831 1829.8 291.648 1848.94 304.508C1857.93 310.373 1865.01 304.458 1865.01 304.458L1897.19 273.098C1898.31 287.848 1901.18 300.083 1908.36 306.834H1961.56Z" fill="white"/>
<path d="M1691.12 239.273C1691.12 220.963 1708.59 209.79 1721.91 208.369C1721.91 210.727 1721.99 265.809 1721.99 271.539C1721.99 272.201 1722.03 272.723 1722.05 273.31C1712.47 269.107 1691.12 257.516 1691.12 239.273ZM1777.89 259.189V155.141H1777.87C1777.87 129.136 1770.92 98.5591 1721.26 98.5591C1706.35 98.5591 1675.65 104.615 1656.17 122.736V167.523C1677.98 151.027 1689 149.321 1703.12 149.321C1723.89 149.321 1721.82 181.987 1721.82 181.987C1693.67 187.072 1637.54 204.933 1637.54 259.205C1637.54 282.243 1652.42 297.129 1662.46 304.549C1672.15 310.762 1680.54 304.382 1680.54 304.382L1722.34 277.873C1724.32 297.667 1735.07 306.801 1735.07 306.801H1790.07C1778.12 289.808 1777.89 274.289 1777.89 259.189Z" fill="white"/>
<path d="M1099.02 246.186V178.306C1099.02 145.428 1087.37 124.878 1072.85 111.416C1054.29 90.9094 1036.68 111.721 1036.68 111.721L1013.32 134.457V80.8127C1013.32 66.979 1013.16 53.6071 1011.61 42.5393C1008.53 18.0635 982.513 19.9125 982.513 19.9125H950.259C961.027 34.1317 959.415 54.7912 959.415 80.8127V306.784H1013.32V135.395C1032.86 141.615 1045.11 151.9 1045.11 179.424V246.186C1045.11 272.217 1045.71 296.54 1057.02 307.103H1110.18C1097.4 292.818 1099.02 272.217 1099.02 246.186Z" fill="white"/>
<path d="M1608.71 246.186V178.306C1608.71 145.348 1597 124.779 1582.43 111.32C1564.74 94.3181 1546.11 111.971 1546.11 111.971L1523.31 134.155C1522.87 128.245 1522.14 122.737 1520.97 117.828C1516.96 99.7428 1490.04 100.459 1490.04 100.459H1458.97C1471.77 114.646 1470.17 135.323 1470.17 161.369V306.801H1524.05V161.369H1524.04C1524.04 152.39 1523.97 143.648 1523.41 135.542C1542.68 141.746 1554.79 152.079 1554.79 179.424V246.186C1554.79 272.217 1555.39 296.54 1566.7 307.103H1619.9C1607.08 292.818 1608.71 272.217 1608.71 246.186Z" fill="white"/>
<path d="M949.31 37.4253L898.418 80.2468C869.939 83.042 845.947 51.9102 826.199 56.1745V220.486C826.199 248.357 864.478 276.554 939.538 261.922L876.125 314.549C835.321 314.549 761.756 297.399 761.756 213.427V71.1811L834.681 2.30738C870.581 -2.93506 908.022 31.4162 949.31 37.4253Z" fill="white"/>
<path d="M1750.37 42.6262C1735.45 42.6262 1723.21 50.9142 1723.21 50.9142L1717.1 55.7351L1710.98 50.9142C1710.98 50.9142 1698.74 42.6262 1683.83 42.6262H1665.1C1665.1 42.6262 1705.96 75.0547 1710.41 78.2979C1714.47 81.0526 1716.87 83.7392 1723.75 78.3243C1731.22 72.5045 1769.1 42.6262 1769.1 42.6262H1750.37Z" fill="white"/>
<path d="M1266.03 339.462C1275.5 334.273 1279.89 326.395 1282.36 318.053C1273.26 318.111 1263.53 316.202 1257.02 313.761C1259.5 319.853 1259.78 325.876 1259.01 331.245C1258.28 337.807 1258.87 340.074 1260.56 340.817C1262.38 341.469 1264.46 340.321 1266.03 339.462Z" fill="white"/>
<path d="M1310.62 178.568C1275.51 153.9 1264.96 147.257 1260.07 138.621C1257.91 134.752 1259.87 133.061 1262.41 133.061C1280.45 133.061 1296.02 154.635 1315.84 154.39L1346.08 115.683C1315.69 114.296 1293.13 88.5174 1268.51 96.7289L1225.58 147.224C1222.6 151.313 1219.5 159.279 1219.12 166.56C1218.52 177.589 1227.14 200.598 1257.74 220.899C1289.44 241.917 1297.4 258.072 1301.13 269.473C1302.29 273.116 1299.87 277.383 1295.57 275.774C1277.11 269.653 1259.87 245.729 1254.55 232.367L1216.14 278.691C1254.91 315.225 1285.52 311.609 1295.35 308.947L1350.63 245.548C1348.68 228.401 1340.62 199.642 1310.62 178.568Z" fill="white"/>
<path d="M1808.91 61.8197C1808.91 63.5992 1808.97 64.9724 1809.12 65.9894C1809.22 67.0524 1809.49 67.7703 1809.9 68.3004C1810.3 68.7943 1810.91 69.1407 1811.67 69.2493C1812.45 69.3564 1813.49 69.419 1814.77 69.419C1816.83 69.419 1818.31 68.8708 1819.22 67.8705C1820.15 66.7755 1820.59 65.1644 1820.59 62.9745C1820.59 61.3717 1820.36 60.132 1819.89 59.1456C1819.4 58.1425 1818.74 57.38 1817.95 56.8639C1817.14 56.3087 1816.2 55.915 1815.09 55.7147C1813.98 55.506 1812.83 55.3919 1811.58 55.3919H1810.6C1809.93 55.3919 1809.47 55.6145 1809.26 56.0319C1809.03 56.4312 1808.91 56.9794 1808.91 57.5874V61.8197ZM1808.91 52.1C1808.91 52.4089 1809.01 52.7011 1809.21 52.964C1809.39 53.2173 1809.7 53.3494 1810.16 53.3494H1811.13C1812.25 53.3494 1813.3 53.2409 1814.23 53.0795C1815.18 52.9334 1816 52.5634 1816.69 52.1C1817.39 51.6451 1817.9 50.9439 1818.3 50.1425C1818.69 49.3021 1818.89 48.2239 1818.89 46.9133C1818.89 44.6705 1818.3 43.0524 1817.14 42.1119C1815.92 41.1644 1814.23 40.7164 1812.01 40.7164H1810.27C1809.6 40.7164 1809.22 40.8555 1809.12 41.195C1808.97 41.5178 1808.91 42.1119 1808.91 42.9133V52.1ZM1803.31 46.9592C1803.31 46.2427 1803.3 45.5567 1803.23 44.8861C1803.19 44.2239 1803.06 43.5449 1802.9 42.9439C1802.73 42.3734 1802.49 41.8726 1802.11 41.4566C1801.74 41.0781 1801.25 40.7637 1800.64 40.6093C1800.23 40.516 1799.85 40.4395 1799.43 40.3783C1799.04 40.331 1798.62 40.2698 1798.27 40.2239C1798.05 40.2239 1797.87 40.1223 1797.8 39.9609C1797.67 39.8148 1797.63 39.6381 1797.63 39.4141C1797.63 39.2054 1797.67 39.0357 1797.8 38.8827C1797.87 38.7199 1798.05 38.6197 1798.27 38.6197C1799.42 38.6197 1800.46 38.6823 1801.4 38.7282C1802.36 38.8354 1803.42 38.859 1804.63 38.859C1805.16 38.859 1805.75 38.8437 1806.37 38.8354C1807 38.82 1807.65 38.7894 1808.33 38.7282C1808.98 38.7046 1809.64 38.6976 1810.3 38.6823C1810.92 38.6517 1811.47 38.6197 1812.01 38.6197C1813.35 38.6197 1814.75 38.7435 1816.22 38.9745C1817.7 39.1595 1819.08 39.5602 1820.3 40.178C1821.56 40.747 1822.58 41.5178 1823.4 42.5585C1824.21 43.5839 1824.62 44.9181 1824.62 46.5126C1824.62 47.5143 1824.46 48.3936 1824.12 49.1324C1823.79 49.8656 1823.35 50.4973 1822.8 51.0524C1822.24 51.6451 1821.62 52.1084 1820.86 52.5007C1820.09 52.9334 1819.29 53.234 1818.49 53.5331C1818.21 53.6416 1818.1 53.7724 1818.12 53.9199C1818.15 54.0729 1818.28 54.1967 1818.49 54.2663C1819.82 54.628 1821.01 55.1136 1822.06 55.6228C1823.11 56.1154 1824 56.6872 1824.72 57.3481C1825.42 58.0201 1825.97 58.8674 1826.35 59.7842C1826.73 60.6858 1826.93 61.7724 1826.93 63.0524C1826.93 64.747 1826.61 66.1425 1825.97 67.268C1825.34 68.324 1824.5 69.234 1823.42 69.8197C1822.35 70.482 1821.16 70.9286 1819.79 71.1762C1818.44 71.4378 1817.06 71.5616 1815.61 71.5616C1814.94 71.5616 1814.22 71.5547 1813.44 71.5157C1812.63 71.499 1811.79 71.4684 1810.92 71.4531C1810.08 71.4378 1809.21 71.4225 1808.33 71.3988C1807.47 71.3766 1806.65 71.3613 1805.88 71.3613C1805.16 71.3613 1804.51 71.3613 1803.91 71.3766C1803.35 71.3919 1802.79 71.4155 1802.28 71.4378C1801.73 71.4531 1801.17 71.499 1800.62 71.538C1800.03 71.5922 1799.38 71.6381 1798.67 71.716C1798.42 71.7467 1798.24 71.6924 1798.11 71.5157C1797.97 71.3919 1797.87 71.1762 1797.86 70.9675C1797.84 70.7908 1797.9 70.6058 1798.04 70.4291C1798.15 70.1731 1798.34 70.0813 1798.61 70.0507C1799.43 69.9894 1800.14 69.8044 1800.76 69.65C1801.37 69.5122 1801.85 69.2646 1802.26 68.8945C1802.61 68.5634 1802.87 68.1474 1803.05 67.6312C1803.22 67.1609 1803.31 66.4514 1803.31 65.5887V46.9592Z" fill="white"/>
<path d="M1866.72 38.79C1867.01 38.79 1867.27 38.8359 1867.53 38.8818C1867.78 38.975 1867.87 39.1907 1867.81 39.654C1867.74 40.0463 1867.71 40.454 1867.71 40.8714V42.2349C1867.71 43.7152 1867.75 45.0717 1867.86 46.3128C1867.86 46.4658 1867.78 46.5437 1867.62 46.6049C1867.48 46.6745 1867.29 46.7288 1867.08 46.7288C1866.88 46.7594 1866.68 46.7288 1866.51 46.6745C1866.3 46.6356 1866.18 46.5131 1866.15 46.3128C1865.93 45.0717 1865.68 44.1006 1865.45 43.3298C1865.19 42.6356 1864.87 42.0804 1864.44 41.734C1864.01 41.3569 1863.41 41.1329 1862.68 41.0703C1861.94 40.9632 1860.99 40.8547 1859.78 40.8394H1856.68C1855.82 40.8394 1855.1 40.8547 1854.57 40.8714C1854.04 40.9326 1853.62 41.0703 1853.3 41.2568C1852.99 41.4571 1852.8 41.7952 1852.69 42.2349C1852.59 42.6662 1852.53 43.3215 1852.53 44.1688V52.6098C1852.53 53.0787 1852.62 53.3486 1852.8 53.4724C1852.96 53.6032 1853.12 53.6338 1853.3 53.6338C1854.88 53.6338 1856.1 53.5879 1857.04 53.4418C1857.94 53.3027 1858.62 53.0787 1859.11 52.7323C1859.55 52.4095 1859.85 51.9615 1860.01 51.4147C1860.18 50.8596 1860.3 50.15 1860.41 49.2568C1860.43 49.087 1860.54 48.9326 1860.71 48.8394C1860.88 48.7476 1861.08 48.7016 1861.28 48.7016C1861.49 48.7016 1861.66 48.7476 1861.85 48.8394C1862.01 48.9326 1862.12 49.087 1862.12 49.2568C1862.12 49.7729 1862.09 50.2655 1862.05 50.6203L1861.93 51.8849C1861.92 52.3009 1861.87 52.6863 1861.85 53.1023C1861.81 53.5726 1861.78 54.0582 1861.78 54.6286C1861.78 55.6373 1861.85 56.5166 1861.93 57.2804C1862.05 58.0665 1862.12 59.0752 1862.12 60.2008C1862.12 60.3399 1862.01 60.4776 1861.85 60.5639C1861.66 60.6321 1861.49 60.6404 1861.28 60.6404C1861.08 60.6321 1860.88 60.5945 1860.71 60.5013C1860.54 60.4387 1860.43 60.3009 1860.41 60.1006C1860.3 59.1448 1860.18 58.3823 1860.01 57.8036C1859.85 57.2109 1859.55 56.7796 1859.11 56.4707C1858.62 56.1938 1857.94 55.9768 1857.04 55.8683C1856.1 55.7375 1854.88 55.6999 1853.3 55.6999C1853.12 55.6999 1852.96 55.7375 1852.8 55.8683C1852.62 55.9768 1852.53 56.2244 1852.53 56.5625V62.8985C1852.53 63.9921 1852.62 64.8255 1852.75 65.5726C1852.92 66.3128 1853.14 66.9138 1853.44 67.3688C1853.77 67.8849 1854.14 68.1855 1854.6 68.479C1855.03 68.7629 1855.57 68.9187 1856.17 69.126C1856.66 69.2025 1857.18 69.2651 1857.81 69.3027C1858.4 69.3416 1859.03 69.3569 1859.69 69.3569C1860.51 69.3569 1861.28 69.3416 1862 69.2957C1862.73 69.2331 1863.25 69.1413 1863.64 68.9632C1864.31 68.7796 1864.91 68.5166 1865.41 68.2856C1865.92 68.0241 1866.33 67.6693 1866.68 67.2533C1867.02 66.8206 1867.3 66.3128 1867.53 65.6658C1867.74 65.0411 1867.91 64.2397 1868.06 63.2686C1868.09 63.0529 1868.22 62.9138 1868.44 62.8443C1868.64 62.8067 1868.86 62.7747 1869.1 62.7747C1869.33 62.7747 1869.55 62.8206 1869.72 62.8985C1869.92 63.0056 1870 63.1364 1869.97 63.2992C1869.79 64.671 1869.65 65.9427 1869.52 67.1768C1869.37 68.3009 1869.32 69.4961 1869.35 70.7441C1869.35 70.8443 1869.3 70.9681 1869.16 71.1601C1869.02 71.3604 1868.69 71.4383 1868.17 71.4383H1849.49C1848.2 71.4383 1846.92 71.4536 1845.68 71.5149C1844.4 71.5914 1843.29 71.6387 1842.29 71.7152C1842.01 71.7152 1841.8 71.6387 1841.67 71.4996C1841.53 71.3771 1841.46 71.1754 1841.43 70.9611C1841.39 70.7441 1841.43 70.5743 1841.57 70.4046C1841.7 70.1736 1841.92 70.0818 1842.24 70.0512C1843.05 69.9886 1843.77 69.8049 1844.34 69.6352C1844.93 69.4418 1845.39 69.2331 1845.78 68.8714C1846.17 68.5319 1846.45 68.1006 1846.64 67.5928C1846.82 67.0766 1846.92 66.4046 1846.92 65.5879V46.9138C1846.92 46.2043 1846.91 45.5183 1846.84 44.8477C1846.8 44.1688 1846.68 43.4996 1846.53 42.9124C1846.35 42.3267 1846.07 41.8425 1845.71 41.4265C1845.34 41.0397 1844.87 40.7323 1844.26 40.5625C1843.88 40.4707 1843.48 40.3844 1843.05 40.3469C1842.64 40.2703 1842.27 40.2077 1841.88 40.1771C1841.67 40.1771 1841.51 40.0769 1841.43 39.9309C1841.31 39.7611 1841.28 39.5608 1841.28 39.3604C1841.28 39.1601 1841.31 39.0056 1841.43 38.8596C1841.51 38.6815 1841.67 38.5813 1841.88 38.5813C1843.05 38.5813 1844.09 38.6049 1845.01 38.7051C1845.94 38.7747 1847.03 38.79 1848.28 38.79H1866.72Z" fill="white"/>
<path d="M1895.02 52.7019C1895.02 53.5728 1895.27 54.0501 1895.76 54.1962C1896.25 54.352 1897 54.4048 1897.99 54.4048C1899.32 54.4048 1900.45 54.2824 1901.37 54.0501C1902.27 53.7968 1903 53.3795 1903.54 52.841C1904.09 52.3012 1904.47 51.561 1904.71 50.6205C1904.94 49.7579 1905.06 48.6866 1905.06 47.3913C1905.06 46.1433 1904.93 45.1179 1904.67 44.2859C1904.44 43.3913 1904.05 42.6817 1903.53 42.1739C1902.99 41.6341 1902.3 41.257 1901.44 41.0706C1900.57 40.8021 1899.54 40.7172 1898.32 40.7172C1896.97 40.7172 1896.09 40.8549 1895.68 41.1791C1895.22 41.4949 1895.02 42.1572 1895.02 43.1436V52.7019ZM1889.38 46.9516C1889.38 46.2435 1889.36 45.5575 1889.33 44.8855C1889.28 44.2233 1889.18 43.561 1888.98 42.9447C1888.83 42.3742 1888.56 41.8734 1888.21 41.4574C1887.85 41.0789 1887.35 40.7631 1886.73 40.6087C1886.35 40.5238 1885.95 40.4389 1885.53 40.3847C1885.13 40.3318 1884.74 40.2706 1884.39 40.2233C1884.15 40.2233 1884.01 40.1231 1883.92 39.9617C1883.8 39.8156 1883.75 39.6222 1883.75 39.4149C1883.75 39.2062 1883.8 39.0365 1883.92 38.8821C1884.01 38.7207 1884.15 38.6205 1884.39 38.6205C1885.53 38.6205 1886.58 38.6817 1887.51 38.729C1888.44 38.8208 1889.52 38.8598 1890.74 38.8598C1892.8 38.8208 1894.52 38.7749 1895.86 38.7207C1897.21 38.6817 1898.53 38.6205 1899.75 38.6205C1901.13 38.6205 1902.47 38.8208 1903.8 39.1144C1905.14 39.4149 1906.34 39.9311 1907.4 40.6087C1908.44 41.2876 1909.28 42.1572 1909.9 43.2688C1910.55 44.3777 1910.85 45.6953 1910.85 47.2522C1910.85 48.4779 1910.67 49.5492 1910.25 50.4202C1909.88 51.3301 1909.34 52.1231 1908.64 52.7631C1907.97 53.4101 1907.15 53.9193 1906.19 54.352C1905.25 54.7443 1904.24 55.0518 1903.17 55.2995C1902.89 55.3454 1902.78 55.4692 1902.78 55.6375C1902.78 55.7767 1902.89 55.9005 1903.17 56.0313C1904.75 56.7631 1906 57.6035 1906.88 58.4661C1907.75 59.3843 1908.41 60.3401 1908.88 61.2723C1909.35 62.2671 1909.69 63.2911 1909.89 64.3165C1910.09 65.3113 1910.31 66.313 1910.55 67.3148C1910.72 68.0633 1911.01 68.5628 1911.39 68.8939C1911.79 69.264 1912.2 69.4184 1912.6 69.4184C1913.03 69.4184 1913.42 69.2807 1913.81 68.9175C1914.18 68.6254 1914.48 68.1315 1914.69 67.5151C1914.75 67.2382 1914.87 67.0755 1915.08 66.9753C1915.3 66.9141 1915.49 66.8835 1915.67 66.921C1915.88 66.9753 1916.05 67.0755 1916.2 67.2382C1916.35 67.3913 1916.41 67.5457 1916.38 67.6848C1916.28 68.4862 1916.04 69.2028 1915.66 69.7356C1915.27 70.3589 1914.82 70.8445 1914.3 71.1923C1913.77 71.561 1913.15 71.8393 1912.48 72.0243C1911.8 72.2094 1911.16 72.2859 1910.49 72.2859C1909.39 72.2859 1908.41 72.0855 1907.5 71.6222C1906.62 71.1603 1906.02 70.544 1905.7 69.6494C1905.51 69.1638 1905.31 68.5168 1905.13 67.9075C1904.94 67.2382 1904.75 66.6052 1904.59 65.9123C1904.41 65.2487 1904.24 64.5934 1904.07 64.0007C1903.89 63.3148 1903.75 62.7749 1903.61 62.2671C1902.97 60.2163 1902.19 58.7137 1901.21 57.8038C1900.23 56.9328 1898.87 56.4473 1897.12 56.4473C1896.53 56.4473 1896.05 56.5711 1895.64 56.7784C1895.21 57.0108 1895.02 57.449 1895.02 58.1433V64.7172C1895.02 65.8275 1895.13 66.729 1895.37 67.3913C1895.63 68.0382 1895.99 68.5321 1896.46 68.8939C1896.92 69.296 1897.54 69.5575 1898.22 69.6967C1898.92 69.8803 1899.75 70.0125 1900.66 70.0501C1900.88 70.0501 1901.04 70.1586 1901.16 70.3283C1901.28 70.5287 1901.35 70.7054 1901.35 70.9447C1901.35 71.1381 1901.28 71.3454 1901.16 71.4692C1901.04 71.6389 1900.85 71.7155 1900.62 71.7155C1898.9 71.7155 1897.38 71.6389 1896.09 71.5151C1894.78 71.4149 1893.53 71.3607 1892.29 71.3607C1890.98 71.3607 1889.7 71.4149 1888.44 71.5151C1887.18 71.6389 1885.93 71.7155 1884.73 71.7155C1884.53 71.7155 1884.39 71.6389 1884.26 71.4692C1884.15 71.3454 1884.11 71.1381 1884.09 70.9447C1884.06 70.7443 1884.11 70.5746 1884.21 70.4048C1884.3 70.1739 1884.49 70.0821 1884.73 70.0501C1885.69 69.9888 1886.49 69.8038 1887.1 69.6494C1887.69 69.5116 1888.21 69.264 1888.54 68.8716C1888.88 68.5321 1889.13 68.0702 1889.22 67.5151C1889.34 66.9141 1889.38 66.1043 1889.38 65.1791V46.9516Z" fill="white"/>
<path d="M1954.17 38.79C1954.46 38.79 1954.7 38.8359 1954.97 38.8818C1955.22 38.975 1955.32 39.1907 1955.26 39.654C1955.19 40.0463 1955.15 40.454 1955.15 40.8714V42.2349C1955.15 43.7152 1955.21 45.0717 1955.29 46.3128C1955.29 46.4658 1955.22 46.5437 1955.07 46.6049C1954.92 46.6745 1954.72 46.7288 1954.55 46.7288C1954.31 46.7594 1954.12 46.7288 1953.94 46.6745C1953.75 46.6356 1953.63 46.5131 1953.59 46.3128C1953.38 45.0717 1953.13 44.1006 1952.88 43.3298C1952.65 42.6356 1952.32 42.0804 1951.88 41.734C1951.43 41.3569 1950.87 41.1329 1950.12 41.0703C1949.39 40.9632 1948.41 40.8547 1947.21 40.8394H1944.11C1943.25 40.8394 1942.53 40.8547 1942 40.8714C1941.46 40.9326 1941.02 41.0703 1940.73 41.2568C1940.42 41.4571 1940.23 41.7952 1940.1 42.2349C1940 42.6662 1939.96 43.3215 1939.96 44.1688V52.6098C1939.96 53.0787 1940.04 53.3486 1940.23 53.4724C1940.38 53.6032 1940.56 53.6338 1940.73 53.6338C1942.29 53.6338 1943.55 53.5879 1944.45 53.4418C1945.37 53.3027 1946.04 53.0787 1946.53 52.7323C1946.96 52.4095 1947.29 51.9615 1947.44 51.4147C1947.6 50.8596 1947.72 50.15 1947.83 49.2568C1947.87 49.087 1947.96 48.9326 1948.14 48.8394C1948.31 48.7476 1948.5 48.7016 1948.69 48.7016C1948.9 48.7016 1949.09 48.7476 1949.26 48.8394C1949.45 48.9326 1949.54 49.087 1949.54 49.2568C1949.54 49.7729 1949.51 50.2655 1949.48 50.6203C1949.45 51.0516 1949.42 51.4996 1949.37 51.8849C1949.32 52.3009 1949.28 52.6863 1949.26 53.1023C1949.23 53.5726 1949.2 54.0582 1949.2 54.6286C1949.2 55.6373 1949.26 56.5166 1949.37 57.2804C1949.48 58.0665 1949.54 59.0752 1949.54 60.2008C1949.54 60.3399 1949.45 60.4776 1949.26 60.5639C1949.09 60.6321 1948.9 60.6404 1948.69 60.6404C1948.5 60.6321 1948.31 60.5945 1948.14 60.5013C1947.96 60.4387 1947.87 60.3009 1947.83 60.1006C1947.72 59.1448 1947.6 58.3823 1947.44 57.8036C1947.29 57.2109 1946.96 56.7796 1946.53 56.4707C1946.04 56.1938 1945.37 55.9768 1944.45 55.8683C1943.55 55.7375 1942.29 55.6999 1940.73 55.6999C1940.56 55.6999 1940.38 55.7375 1940.23 55.8683C1940.04 55.9768 1939.96 56.2244 1939.96 56.5625V62.8985C1939.96 63.9921 1940.02 64.8255 1940.2 65.5726C1940.33 66.3128 1940.56 66.9138 1940.89 67.3688C1941.2 67.8849 1941.58 68.1855 1942.01 68.479C1942.46 68.7629 1942.98 68.9187 1943.61 69.126C1944.09 69.2025 1944.63 69.2651 1945.22 69.3027C1945.84 69.3416 1946.45 69.3569 1947.11 69.3569C1947.93 69.3569 1948.69 69.3416 1949.44 69.2957C1950.16 69.2331 1950.7 69.1413 1951.09 68.9632C1951.77 68.7796 1952.36 68.5166 1952.85 68.2856C1953.38 68.0241 1953.78 67.6693 1954.12 67.2533C1954.47 66.8206 1954.75 66.3128 1954.97 65.6658C1955.2 65.0411 1955.36 64.2397 1955.52 63.2686C1955.55 63.0529 1955.67 62.9138 1955.9 62.8443C1956.07 62.8067 1956.29 62.7747 1956.54 62.7747C1956.78 62.7747 1957 62.8206 1957.19 62.8985C1957.36 63.0056 1957.44 63.1364 1957.41 63.2992C1957.24 64.671 1957.07 65.9427 1956.94 67.1768C1956.82 68.3009 1956.75 69.4961 1956.78 70.7441C1956.78 70.8443 1956.71 70.9681 1956.58 71.1601C1956.45 71.3604 1956.11 71.4383 1955.61 71.4383H1936.91C1935.63 71.4383 1934.33 71.4536 1933.1 71.5149C1931.85 71.5914 1930.71 71.6387 1929.72 71.7152C1929.47 71.7152 1929.25 71.6387 1929.1 71.4996C1928.96 71.3771 1928.88 71.1754 1928.85 70.9611C1928.83 70.7441 1928.87 70.5743 1928.99 70.4046C1929.15 70.1736 1929.35 70.0818 1929.66 70.0512C1930.48 69.9886 1931.22 69.8049 1931.77 69.6352C1932.37 69.4418 1932.84 69.2331 1933.21 68.8714C1933.59 68.5319 1933.88 68.1006 1934.05 67.5928C1934.25 67.0766 1934.33 66.4046 1934.33 65.5879V46.9138C1934.33 46.2043 1934.32 45.5183 1934.26 44.8477C1934.22 44.1688 1934.1 43.4996 1933.93 42.9124C1933.76 42.3267 1933.5 41.8425 1933.15 41.4265C1932.78 41.0397 1932.29 40.7323 1931.67 40.5625C1931.29 40.4707 1930.9 40.3844 1930.48 40.3469C1930.06 40.2703 1929.68 40.2077 1929.32 40.1771C1929.1 40.1771 1928.95 40.0769 1928.85 39.9309C1928.73 39.7611 1928.68 39.5608 1928.68 39.3604C1928.68 39.1601 1928.73 39.0056 1928.85 38.8596C1928.95 38.6815 1929.1 38.5813 1929.32 38.5813C1930.46 38.5813 1931.52 38.6049 1932.45 38.7051C1933.38 38.7747 1934.46 38.79 1935.7 38.79H1954.17Z" fill="white"/>
<mask id="mask1_1_480" style="mask-type:luminance" maskUnits="userSpaceOnUse" x="92" y="2" width="588" height="304">
<mask id="mask2_1_480" style="mask-type:luminance" maskUnits="userSpaceOnUse" x="92" y="2" width="588" height="304">
<path d="M92.3108 2.78527H679.17V305.849H92.3108V2.78527Z" fill="white"/>
</mask>
<g mask="url(#mask2_1_480)">
<path d="M92.3113 2.75315H679.17V305.85H92.3113V2.75315Z" fill="white"/>
<mask id="mask3_1_480" style="mask-type:luminance" maskUnits="userSpaceOnUse" x="92" y="2" width="588" height="304">
<path d="M92.3108 2.75325H679.17V305.849H92.3108V2.75325Z" fill="white"/>
</mask>
<g mask="url(#mask3_1_480)">
<path d="M177.505 226.655C176.847 224.427 176.188 222.201 175.529 219.978C183.174 218.01 194.709 215.288 203.353 213.323C199.853 199.662 196.352 186.033 192.854 172.442C189.564 159.62 185.367 152.543 171.738 147.324C174.121 148.858 178.09 151.559 180.63 153.798C184.808 157.519 187.606 163.467 188.944 169.439C192.317 182.435 195.693 195.469 199.068 208.533C192.971 209.866 181.156 212.683 174.005 214.522C170.452 202.65 166.901 190.813 163.351 179.016C159.538 166.07 164.745 155.039 168.08 147.822C168.472 147.021 168.864 146.219 169.257 145.419C169.428 145.084 169.601 144.747 169.771 144.412C170.069 144.476 170.367 144.54 170.665 144.604C192.271 149.663 195.822 163.438 197.107 168.59C201.304 185.416 205.502 202.297 209.702 219.229C199.908 221.366 190.905 223.274 177.505 226.655Z" fill="#042E73"/>
<path d="M273.134 208.141C272.761 205.754 272.389 203.369 272.016 200.982C279.041 199.954 291.472 198.431 299.863 197.56C298.166 182.998 296.472 168.442 294.774 153.897C293.074 140.374 289.815 132.478 276.988 125.03C279.138 126.967 282.729 130.322 284.999 133.044C288.636 137.453 290.7 143.972 291.301 150.23C292.963 164.208 294.628 178.199 296.291 192.194C290.572 192.83 278.589 194.238 271.178 195.337C269.221 182.124 267.263 168.925 265.304 155.735C264.099 147.205 265.472 142.146 267.162 137.202C268.684 132.766 271.233 128.169 273.317 124.982C273.793 124.223 274.271 123.464 274.748 122.703C274.968 122.399 275.186 122.093 275.407 121.791C275.697 121.894 275.988 121.997 276.277 122.103C296.974 130.726 298.79 145.272 299.421 150.646C301.477 168.538 303.534 186.445 305.588 204.361C295.719 205.405 286.553 206.228 273.134 208.141Z" fill="#042E73"/>
<path d="M440.034 229.613L404.946 255.832C382.336 255.876 341.557 247.438 341.479 205.718L341.372 149.197L381.716 114.896C401.603 112.251 422.383 129.276 445.266 132.216L417.106 153.547C401.329 154.968 388.004 139.527 377.067 141.668L377.194 209.154C377.22 223.001 398.456 236.966 440.034 229.613Z" fill="#042E73"/>
<path d="M506.833 157.743C504.268 174.341 501.704 190.959 499.139 207.595C491.612 206.478 476.588 204.901 467.357 204.06C467.597 201.615 467.836 199.173 468.077 196.729C475.115 197.391 487.327 198.575 495.525 199.84C497.552 186.308 499.579 172.79 501.606 159.282C503.289 145.826 502.119 137.231 491.678 125.796C493.274 128.361 495.869 132.784 497.352 136.118C499.776 141.575 500.129 148.455 499.141 154.622C497.259 167.65 495.377 180.69 493.494 193.736C487.317 192.811 476.363 191.848 468.722 190.995C470.105 177.785 471.488 164.58 472.869 151.383C473.836 142.741 476.421 138.377 479.27 134.153C481.784 130.394 485.399 126.855 488.174 124.509C488.825 123.943 489.475 123.378 490.127 122.812C490.412 122.593 490.696 122.376 490.983 122.159C491.222 122.344 491.461 122.53 491.699 122.716C509.403 137.984 507.566 152.377 506.833 157.743Z" fill="#042E73"/>
<path d="M609.143 180.939C604.637 195.839 600.128 210.809 595.618 225.835C587.933 223.732 572.87 220.539 564.186 218.681C564.726 216.365 565.268 214.052 565.809 211.739C572.5 213.185 584.613 215.775 593.006 217.979C596.576 205.8 600.145 193.657 603.714 181.552C607.152 168.897 607.096 160.46 598.287 147.632C599.518 150.423 601.529 155.145 602.532 158.559C604.239 164.254 603.682 170.896 601.92 176.715C598.525 188.407 595.128 200.136 591.732 211.899C585.483 210.226 574.092 207.887 567.239 206.284C570.252 193.907 573.267 181.556 576.282 169.235C578.359 161.046 581.483 157.247 584.856 153.65C587.869 150.455 591.888 147.641 594.951 145.8C595.676 145.364 596.4 144.93 597.123 144.496C597.429 144.332 597.737 144.168 598.043 144.006C598.258 144.226 598.472 144.447 598.687 144.67C614.263 162.387 610.563 175.871 609.143 180.939Z" fill="#042E73"/>
<path d="M600.651 275.098C563.449 266.742 542.22 262.4 486.458 255.026C484.267 254.737 481.627 253.939 481.621 251.651C481.616 248.729 484.393 248.391 486.565 248.562C525.97 251.677 565.769 258.685 604.425 267.627C606.58 268.124 621.274 275.537 620.793 277.771C620.37 279.733 605.766 276.248 600.651 275.098Z" fill="#042E73"/>
<path d="M171.96 275.098C209.16 266.742 230.391 262.4 286.151 255.026C288.342 254.737 290.983 253.939 290.988 251.651C290.995 248.729 288.217 248.391 286.043 248.562C246.639 251.677 206.841 258.685 168.185 267.627C166.029 268.124 151.336 275.537 151.818 277.771C152.24 279.733 166.844 276.248 171.96 275.098Z" fill="#042E73"/>
</g>
</g>
</mask>
<g mask="url(#mask1_1_480)">
<mask id="mask4_1_480" style="mask-type:luminance" maskUnits="userSpaceOnUse" x="92" y="2" width="588" height="304">
<path d="M92.3108 2.78527H679.17V305.849H92.3108V2.78527Z" fill="white"/>
</mask>
<g mask="url(#mask4_1_480)">
<g filter="url(#filter0_d_1_480)">
<path d="M104.534 98.989C102.146 97.5546 99.759 96.1257 97.3748 94.701C94.196 83.4481 91.0494 72.2481 87.9324 61.1038C94.2793 59.1921 107.562 55.629 113.089 54.1C114.466 59.668 115.85 65.2471 117.242 70.8387C120.811 69.8732 125.344 68.8394 129.57 67.7598C128.273 62.0916 126.984 56.4304 125.702 50.7803C132.053 49.1052 144.158 46.2279 150.772 44.6697C151.962 50.4172 153.16 56.1744 154.363 61.9386C159.095 60.8005 164.192 59.8238 166.686 59.2728C165.565 53.4405 164.451 47.6178 163.342 41.8036C166.932 40.9424 180.04 38.1111 188.335 36.4721C190.312 48.3107 192.312 60.173 194.335 72.0575C192.742 74.6732 191.144 77.2874 189.544 79.8961C174.019 82.694 150.26 87.7973 134.201 91.5274C134.349 92.1911 134.495 92.8561 134.643 93.5253C153.274 90.7052 171.857 87.8363 190.394 84.9326C193.106 100.195 195.856 115.502 198.646 130.844C199.921 130.644 201.262 130.395 202.695 130.151C201.905 125.666 201.12 121.184 200.336 116.706C208.691 115.217 216.438 113.996 223.551 112.874C224.243 117.392 224.938 121.914 225.636 126.435C226.925 126.236 228.196 126.06 229.477 125.866C226.914 108.663 224.392 91.4871 221.91 74.349C219.63 72.3205 217.354 70.2947 215.081 68.2718C213.3 56.3038 211.537 44.3567 209.795 32.4262C215.843 31.2979 229.561 29.0927 234.891 28.276C235.656 34.3866 236.425 40.5 237.2 46.6175C239.623 46.2683 244.85 45.5587 249.504 44.9285C248.809 38.7664 248.117 32.6057 247.431 26.4506C253.066 25.5782 266.181 23.9852 272.455 23.2478C273.015 29.4725 273.576 35.6986 274.14 41.9274C278.723 41.3667 284.221 40.9772 286.477 40.6544C285.976 34.4102 285.478 28.166 284.983 21.9232C285.977 21.7702 298.46 20.5807 309.95 19.7125C310.676 32.0617 311.412 44.4137 312.157 56.7699C310.32 59.373 308.481 61.972 306.64 64.5723C292.815 65.293 256.991 69.3542 251.267 70.1236C251.345 70.8137 251.422 71.5052 251.5 72.1966C269.991 71.3646 288.463 70.5382 306.923 69.7201C307.959 85.4947 309.012 101.274 310.082 117.059C311.378 116.92 312.753 116.842 314.224 116.755C313.937 112.155 313.651 107.555 313.368 102.96C315.964 102.698 330.415 101.887 336.59 101.662C336.779 106.292 336.969 110.922 337.159 115.552C338.551 115.501 339.907 115.429 341.22 115.363C340.546 97.7633 339.883 80.1702 339.23 62.5758C337.132 60.2078 335.04 57.8398 332.949 55.4718C332.45 43.0739 331.957 30.676 331.47 18.2808C342.938 17.6589 355.386 17.2972 356.374 17.2986C356.503 23.6596 356.635 30.022 356.766 36.3817C359.063 36.3386 365.441 36.1744 369.102 36.1716C369.045 29.8119 368.988 23.4509 368.93 17.0885C375.781 16.9674 388.89 16.973 393.872 17.0899C393.799 23.4509 393.724 29.8106 393.65 36.1716C398.253 36.2008 404.23 36.3413 406.003 36.3831C406.14 30.022 406.276 23.6582 406.411 17.2986C411.471 17.3348 425.289 18.0151 431.317 18.3087C430.815 30.701 430.307 43.0948 429.794 55.4913C427.762 57.876 425.726 60.2634 423.685 62.6509C408.143 61.8537 384.414 61.6255 368.323 61.8495C368.32 62.5396 368.318 63.2283 368.315 63.9184C386.68 65.2123 405.063 66.5243 423.465 67.8488C422.88 83.693 422.285 99.5413 421.681 115.391C422.967 115.426 424.272 115.495 425.618 115.554C425.806 110.924 425.993 106.292 426.178 101.663C432.352 101.89 446.8 102.697 449.42 102.96C449.117 107.558 448.814 112.156 448.509 116.756C449.928 116.844 451.285 116.915 452.521 117.022C453.699 99.6053 454.857 82.196 455.996 64.7935C454.156 62.1208 452.321 59.4467 450.49 56.7699C451.235 44.4137 451.972 32.0617 452.701 19.7125C464.204 20.5751 476.678 21.7716 477.682 21.9219C477.173 28.1647 476.662 34.4088 476.145 40.6558C478.453 40.9688 483.914 41.3695 488.499 41.9261C489.062 35.6986 489.62 29.4711 490.174 23.2478C496.45 23.9782 509.557 25.5768 515.216 26.4492C514.53 32.6043 513.84 38.765 513.144 44.9271C517.807 45.5629 523.026 46.2655 525.456 46.6161C526.218 40.4986 526.978 34.3852 527.731 28.2746C533.07 29.0885 546.796 31.2993 552.835 32.4234C551.093 44.3553 549.33 56.3024 547.548 68.2704C545.275 70.292 542.998 72.3205 540.719 74.3476C525.747 71.9448 500.472 68.6182 485.118 67.124C485.049 67.8113 484.981 68.5 484.912 69.1859C503.213 72.6154 521.565 76.0325 539.97 79.4231C537.732 94.8763 535.463 110.359 533.158 125.866C534.431 126.057 535.705 126.279 537.028 126.49C537.739 121.95 538.443 117.411 539.148 112.876C546.279 113.978 554.023 115.194 562.362 116.704C561.578 121.183 560.793 125.667 560.004 130.151C561.421 130.413 562.795 130.643 564.087 130.843C567.136 114.048 570.136 97.2958 573.092 80.5932C571.523 77.7521 569.959 74.9069 568.396 72.0575C570.419 60.173 572.42 48.3107 574.397 36.4721C582.694 38.1125 595.783 40.941 599.399 41.8022C598.294 47.6193 597.18 53.4419 596.063 59.2728C598.537 59.828 603.637 60.8005 608.388 61.9372C609.588 56.173 610.78 50.4172 611.968 44.6697C618.541 46.2279 630.685 49.1052 637.031 50.7803C635.745 56.4304 634.452 62.0916 633.154 67.7598C637.37 68.8394 641.931 69.8746 645.471 70.8387C646.875 65.2471 648.272 59.6694 649.66 54.1C655.171 55.6235 668.461 59.1894 674.791 61.1038C671.672 72.2481 668.521 83.4481 665.339 94.6996C662.989 96.1048 660.636 97.5142 658.281 98.9278C643.202 94.8471 615.719 88.5403 602.401 85.7619C602.261 86.4088 602.12 87.0544 601.979 87.7027C620.213 93.1469 638.526 98.5118 656.917 103.763L585.406 319.783L585.395 319.84C446.932 291.831 309.095 293.261 178.119 320.064L178.115 320.039L104.534 98.989Z" fill="white"/>
</g>
</g>
</g>
<path d="M1850.73 395.793H226.95C211.468 395.793 199.998 398.48 190.863 411.814C138.957 487.569 111.388 576.006 111.134 667.568C110.88 759.113 137.948 847.718 189.405 923.806C199.622 938.907 212.553 943.732 230.087 943.732H1851.7C1868.01 943.732 1876.47 934.016 1880.1 929.02C1989.1 778.638 1989.26 559.952 1880.47 409.037C1875.31 401.869 1866.62 395.793 1850.73 395.793ZM1850.73 437.532H1850.71C1873.5 469.95 1891.18 506.253 1903.27 545.502C1915.52 585.25 1921.72 626.867 1921.68 669.197C1921.66 711.523 1915.4 753.104 1903.1 792.784C1890.76 832.585 1872.67 869.315 1849.31 901.993H230.087C225.958 901.993 224.108 901.534 223.563 901.364C223.364 901.159 222.962 900.703 222.384 899.849C175.72 830.848 151.176 750.569 151.406 667.687C151.634 585.474 176.224 505.987 222.543 437.677C223.547 437.598 224.974 437.532 226.95 437.532H1850.73Z" fill="white"/>
</g>
<defs>
<filter id="filter0_d_1_480" x="83.9324" y="16.9999" width="594.859" height="311.065" filterUnits="userSpaceOnUse" color-interpolation-filters="sRGB">
<feFlood flood-opacity="0" result="BackgroundImageFix"/>
<feColorMatrix in="SourceAlpha" type="matrix" values="0 0 0 0 0 0 0 0 0 0 0 0 0 0 0 0 0 0 127 0" result="hardAlpha"/>
<feOffset dy="4"/>
<feGaussianBlur stdDeviation="2"/>
<feComposite in2="hardAlpha" operator="out"/>
<feColorMatrix type="matrix" values="0 0 0 0 0 0 0 0 0 0 0 0 0 0 0 0 0 0 0.25 0"/>
<feBlend mode="normal" in2="BackgroundImageFix" result="effect1_dropShadow_1_480"/>
<feBlend mode="normal" in="SourceGraphic" in2="effect1_dropShadow_1_480" result="shape"/>
</filter>
</defs>
</svg>
