<svg xmlns="http://www.w3.org/2000/svg" xmlns:xlink="http://www.w3.org/1999/xlink" viewBox="0 0 275.99 50.02"><defs><style>.cls-1{fill:#fff;}.cls-2{isolation:isolate;}.cls-3{mix-blend-mode:darken;}.cls-4{fill:#231f20;}.cls-5{fill:#f2af43;}.cls-6{mask:url(#mask);}.cls-7{filter:url(#luminosity-invert-noclip);}</style><filter id="luminosity-invert-noclip" x="0" y="0.6" width="85.43" height="42.57" filterUnits="userSpaceOnUse" color-interpolation-filters="sRGB"><feColorMatrix values="-1 0 0 0 1 0 -1 0 0 1 0 0 -1 0 1 0 0 0 1 0" result="invert"/><feFlood flood-color="#fff" result="bg"/><feBlend in="invert" in2="bg"/></filter><mask id="mask" x="0" y="0.6" width="85.43" height="42.57" maskUnits="userSpaceOnUse"><g class="cls-7"><path class="cls-1" d="M12.4,32.05c-.09-.32-.19-.63-.29-.94,1.12-.28,2.8-.66,4.05-.93q-.75-2.88-1.52-5.75a4.33,4.33,0,0,0-3.08-3.53,13.48,13.48,0,0,1,1.3.91A4.22,4.22,0,0,1,14.07,24l1.47,5.49c-.89.19-2.61.59-3.65.84-.51-1.66-1-3.33-1.55-5A5.87,5.87,0,0,1,11,21l.17-.33.08-.14.13,0c3.14.71,3.66,2.65,3.85,3.37L17.09,31C15.66,31.3,14.35,31.57,12.4,32.05Z"/><path class="cls-1" d="M26.32,29.45c-.05-.34-.11-.67-.16-1,1-.14,2.83-.36,4.05-.48-.24-2-.49-4.09-.74-6.13a4.56,4.56,0,0,0-2.59-4.06,13.57,13.57,0,0,1,1.17,1.13A4.49,4.49,0,0,1,29,21.31l.72,5.9c-.83.09-2.57.28-3.65.44-.29-1.86-.57-3.71-.86-5.56a5,5,0,0,1,.27-2.61,8.06,8.06,0,0,1,.9-1.71l.21-.32.09-.13.13,0c3,1.21,3.28,3.26,3.37,4l.9,7.55C29.61,29.06,28.28,29.18,26.32,29.45Z"/><path class="cls-1" d="M50.62,32.46l-5.11,3.69c-3.29,0-9.23-1.18-9.24-7V21.17l5.87-4.82c2.89-.37,5.92,2,9.25,2.43l-4.1,3c-2.3.2-4.24-2-5.83-1.67l0,9.48C41.48,31.53,44.57,33.5,50.62,32.46Z"/><path class="cls-1" d="M60.34,22.37q-.56,3.49-1.12,7c-1.09-.16-3.28-.38-4.62-.5,0-.34.07-.68.1-1,1,.1,2.8.26,4,.44.29-1.9.59-3.8.88-5.7a4.87,4.87,0,0,0-1.44-4.7A12.92,12.92,0,0,1,59,19.33a4.49,4.49,0,0,1,.26,2.6q-.4,2.75-.82,5.49c-.9-.13-2.49-.26-3.6-.38l.6-5.56a4.69,4.69,0,0,1,.93-2.42,7.08,7.08,0,0,1,1.3-1.36l.28-.24.13-.09.1.08C60.72,19.59,60.45,21.61,60.34,22.37Z"/><path class="cls-1" d="M75.24,25.63q-1,3.14-2,6.3c-1.12-.29-3.31-.74-4.58-1l.24-1c1,.21,2.74.57,4,.88l1.56-5.12A4.75,4.75,0,0,0,73.66,21a12.83,12.83,0,0,1,.61,1.53A4.44,4.44,0,0,1,74.19,25c-.5,1.65-1,3.29-1.49,4.95-.91-.24-2.57-.57-3.56-.79.44-1.74.87-3.48,1.31-5.21a4.48,4.48,0,0,1,1.25-2.19,7.12,7.12,0,0,1,1.47-1.1l.32-.18.13-.07.09.09C76,23,75.44,24.91,75.24,25.63Z"/><path class="cls-1" d="M74,38.85A161.71,161.71,0,0,0,57.38,36c-.32,0-.71-.15-.71-.47s.41-.46.72-.44A123.18,123.18,0,0,1,74.55,37.8c.31.07,2.45,1.11,2.38,1.43S74.74,39,74,38.85Z"/><path class="cls-1" d="M11.59,38.85A161.49,161.49,0,0,1,28.22,36c.32,0,.7-.15.7-.47s-.4-.46-.72-.44A123,123,0,0,0,11.05,37.8c-.32.07-2.46,1.11-2.39,1.43S10.85,39,11.59,38.85Z"/></g></mask></defs><g class="cls-2"><g id="Layer_2" data-name="Layer 2"><g id="Horizontal_White" data-name="Horizontal White"><g class="cls-3"><path class="cls-4" d="M111.67,35.53a4.6,4.6,0,0,1-1.85-3.47V9.42a8.56,8.56,0,0,1,3.77,1.46c1.86,1,4,2.19,6.3,2l.15,0L128.45,6l-1.13-.16a28.33,28.33,0,0,1-7.45-2.55c-3.24-1.45-6.29-2.82-9.38-2.38l-.15,0-10.9,9.93v20.2c0,5.37,2.14,9.39,6.34,12a21.9,21.9,0,0,0,10.81,2.75h.18L127.7,37l-2,.37C119.61,38.54,114.48,37.86,111.67,35.53Z"/><path class="cls-4" d="M155.66,13.27a2.33,2.33,0,0,0,3.29,0l1.86-1.87a2.32,2.32,0,0,0,0-3.29L159,6.26a2.33,2.33,0,0,0-3.29,0l-1.85,1.85a2.33,2.33,0,0,0,0,3.29Z"/><path class="cls-4" d="M189.82,13.27a2.32,2.32,0,0,0,1.64.68,2.36,2.36,0,0,0,1.65-.68L195,11.4a2.32,2.32,0,0,0,0-3.29l-1.85-1.85a2.34,2.34,0,0,0-3.3,0L188,8.11a2.32,2.32,0,0,0,0,3.29Z"/><path class="cls-4" d="M163.28,18a4.21,4.21,0,0,0-4.35-3.07h-6.86l1,1.11c1.49,1.6,1.48,4,1.46,7,0,.36,0,.73,0,1.1V45.22h9.17V23.47h0A25.49,25.49,0,0,0,163.28,18Z"/><path class="cls-4" d="M197.63,18a4.2,4.2,0,0,0-4.35-3.07h-6.86l1,1.11c1.49,1.6,1.48,4,1.46,7,0,.36,0,.73,0,1.1V45.22h9.17V23.47h0A25.49,25.49,0,0,0,197.63,18Z"/><path class="cls-4" d="M275,44.11c-1.49-1.6-1.47-4-1.45-7V14.92h-9.17V36c0,.87,0,1.79,0,2.67-2-.81-3.2-2.11-3.2-5.21V24.09a28.77,28.77,0,0,0-.44-6.2c-.89-2.93-4.68-3-5.11-3h-6.1l1,1.11c1.49,1.59,1.47,4,1.45,7V33.62c0,5,1.92,8.71,5.71,11.17a2.86,2.86,0,0,0,1.54.47,2.67,2.67,0,0,0,1.57-.52l0,0h0l3.72-3.5a6.18,6.18,0,0,0,1.69,3.84l.19.17H276Z"/><path class="cls-4" d="M248.39,37.87V22.59h0c-.06-2.56-.78-7.94-8.89-7.94-2.39,0-7,.95-9.92,3.56l-.22.2v7.88l1.05-.76c3.1-2.26,4.57-2.43,6.45-2.43a1.55,1.55,0,0,1,1.2.49,4.83,4.83,0,0,1,.87,2.88,21.69,21.69,0,0,0-7.38,2.83,9.86,9.86,0,0,0-4.9,8.57,8.64,8.64,0,0,0,3.91,6.91,3.11,3.11,0,0,0,1.67.5,3.16,3.16,0,0,0,1.7-.51l5.23-3.2a6.62,6.62,0,0,0,1.93,3.5l.18.15h9.54l-.76-1A9.5,9.5,0,0,1,248.39,37.87Zm-9.46.93c-1.29-.68-3.17-2-3.17-3.73,0-1.91,1.69-3.13,3.16-3.54V38.8Z"/><path class="cls-4" d="M149.56,37.15c0-.36,0-.73,0-1.11V26.51c0-4.16-1.35-7.48-4-9.87a4.12,4.12,0,0,0-3-1.46,4.73,4.73,0,0,0-3.19,1.51l-2.27,2.13v-6a41.61,41.61,0,0,0-.25-5.47c-.36-2.76-2.67-3.75-4.71-3.75h-6.24l.84,1.07c1.24,1.58,1.22,3.91,1.2,6.88,0,.41,0,.83,0,1.26v32.4h9.17V21.41c2.07.8,3.31,2.11,3.31,5.25V36c0,4.13.14,7.42,1.95,9.05l.19.17H152l-1-1.11C149.53,42.54,149.54,40.16,149.56,37.15Z"/><path class="cls-4" d="M223.76,37.16V26.51c0-4.18-1.36-7.51-4-9.9a4.19,4.19,0,0,0-2.9-1.21,5.32,5.32,0,0,0-3.27,1.3l-2.37,2.22c-.06-.38-.13-.74-.21-1.07-.64-2.8-4.34-2.94-5.08-2.94h-6.1l1,1.11c1.5,1.6,1.48,4,1.46,7V45.22h9.16V23.47h0c0-.65,0-1.34,0-2,2,.81,3.2,2.11,3.2,5.21V36c0,4.13.14,7.42,2,9.05l.18.17h9.52l-1-1.11C223.72,42.54,223.74,40.16,223.76,37.16Z"/><path class="cls-4" d="M180.08,26l-1.73-1.17c-3.33-2.25-4.65-3.14-5.27-4a8.43,8.43,0,0,1,3,1.32,8.62,8.62,0,0,0,4.38,1.65h.37l.19-.24,4.41-5.43.82-1-1.31-.06a14.47,14.47,0,0,1-5.11-1.51A12.08,12.08,0,0,0,175,14.16a5.44,5.44,0,0,0-1.66.26l-.17.06-.13.13-6.24,7.09,0,0,0,0a6.25,6.25,0,0,0-1.07,3.08c-.09,1.58,1.05,5.09,5.88,8.2l-.56.65-5.59,6.51-.42.48.47.43a19.57,19.57,0,0,0,5.31,3.56l.48,1.14a3.81,3.81,0,0,1,.24,2.1c-.07.65-.19,1.7.63,2a1.15,1.15,0,0,0,.42.08,2.13,2.13,0,0,0,.94-.29,5.46,5.46,0,0,0,2.7-3.4l.19-.63a8.47,8.47,0,0,0,1.23-.2l.2,0,.13-.15,8-8.91.21-.22,0-.3A13.74,13.74,0,0,0,180.08,26Zm-2.37,13.57c-2.37-.77-4.79-3.87-5.55-5.72l-.27-.66c4.17,2.72,5.3,4.81,5.81,6.33A.09.09,0,0,1,177.71,39.57Z"/><path class="cls-4" d="M237.53,13l.16.11a2.05,2.05,0,0,0,1.17.45,2.34,2.34,0,0,0,1.39-.57l6.6-5,1.56-1.19h-4.68a8.71,8.71,0,0,0-4.32,1.27h0l0,0-.49.37-.49-.37,0,0h0A8.7,8.7,0,0,0,234,6.79h-4.68L230.91,8C231.15,8.16,236.88,12.54,237.53,13Z"/></g><path class="cls-5" d="M154.73,12.06a2.33,2.33,0,0,0,3.29,0l1.86-1.87a2.33,2.33,0,0,0,0-3.29L158,5.05a2.33,2.33,0,0,0-3.29,0L152.88,6.9a2.33,2.33,0,0,0,0,3.29Z"/><path class="cls-5" d="M188.88,12.06a2.36,2.36,0,0,0,1.65.68,2.32,2.32,0,0,0,1.64-.68L194,10.19a2.32,2.32,0,0,0,0-3.29l-1.85-1.85a2.34,2.34,0,0,0-3.3,0L187,6.9a2.32,2.32,0,0,0,0,3.29Z"/><path class="cls-5" d="M162.35,16.77A4.21,4.21,0,0,0,158,13.7h-6.87l1,1.11c1.49,1.6,1.48,4,1.46,7,0,.36,0,.73,0,1.1V44h9.17V22.26h0A26.14,26.14,0,0,0,162.35,16.77Z"/><path class="cls-5" d="M196.7,16.77a4.21,4.21,0,0,0-4.35-3.07h-6.86l1,1.11c1.49,1.6,1.48,4,1.46,7,0,.36,0,.73,0,1.1V44h9.17V22.26h0A25.49,25.49,0,0,0,196.7,16.77Z"/><path class="cls-5" d="M274,42.9c-1.49-1.6-1.48-4-1.45-7V13.71H263.4V34.8c0,.87,0,1.79,0,2.67-2-.8-3.2-2.11-3.2-5.21V22.88a28.63,28.63,0,0,0-.44-6.19c-.9-2.94-4.68-3-5.11-3h-6.1l1,1.11c1.5,1.59,1.48,4,1.46,7,0,.37,0,.75,0,1.13v9.53c0,5,1.93,8.71,5.71,11.17a2.92,2.92,0,0,0,1.55.47,2.67,2.67,0,0,0,1.57-.52l0,0h0l3.73-3.5a6.18,6.18,0,0,0,1.69,3.84l.19.17h9.51Z"/><path class="cls-5" d="M247.46,36.66V21.38h0c-.06-2.56-.78-7.94-8.89-7.94-2.39,0-7,1-9.92,3.56l-.22.2v7.88l1.05-.76c3.1-2.26,4.56-2.43,6.45-2.43a1.55,1.55,0,0,1,1.2.49,4.75,4.75,0,0,1,.86,2.88,21.73,21.73,0,0,0-7.37,2.83,9.86,9.86,0,0,0-4.9,8.57,8.66,8.66,0,0,0,3.9,6.91,3.08,3.08,0,0,0,3.38,0l5.23-3.2a6.54,6.54,0,0,0,1.93,3.5l.18.15h9.54l-.76-1A9.5,9.5,0,0,1,247.46,36.66Zm-9.46.93c-1.29-.68-3.17-2-3.17-3.73,0-1.91,1.69-3.13,3.16-3.54v2.13C238,34.24,238,36.41,238,37.59Z"/><path class="cls-5" d="M148.63,35.94c0-.36,0-.73,0-1.11V25.3c0-4.16-1.35-7.48-4-9.87a4.12,4.12,0,0,0-3-1.46,4.73,4.73,0,0,0-3.19,1.51l-2.27,2.13v-6a39.89,39.89,0,0,0-.26-5.47c-.36-2.76-2.66-3.74-4.71-3.74H125l.84,1.07C127,5,127,7.38,127,10.34c0,.41,0,.83,0,1.26V44h9.17V20.2c2.06.8,3.31,2.11,3.31,5.25v9.38c0,4.13.14,7.42,1.95,9.05l.19.17h9.5l-1-1.11C148.59,41.33,148.61,39,148.63,35.94Z"/><path class="cls-5" d="M222.83,36V25.3c0-4.18-1.36-7.51-4-9.9a4.19,4.19,0,0,0-2.9-1.21,5.39,5.39,0,0,0-3.28,1.3l-2.36,2.22c-.06-.38-.13-.74-.21-1.07-.64-2.79-4.35-2.94-5.08-2.94h-6.11l1,1.11c1.5,1.6,1.48,4,1.46,7,0,.36,0,.72,0,1.1V44h9.17V22.26h0c0-.65,0-1.34,0-2,2,.81,3.19,2.11,3.19,5.21v9.38c0,4.13.15,7.42,2,9.05l.19.17h9.52l-1-1.11C222.79,41.33,222.81,39,222.83,36Z"/><path class="cls-5" d="M179.15,24.79l-1.73-1.17c-3.33-2.25-4.65-3.14-5.27-4a8.28,8.28,0,0,1,3,1.33,8.66,8.66,0,0,0,4.38,1.64h.37l.19-.24,4.4-5.43.83-1L184,15.84a14.41,14.41,0,0,1-5.11-1.51A12.13,12.13,0,0,0,174.11,13a5.44,5.44,0,0,0-1.66.26l-.18.06-.12.13-6.25,7.1h0l0,0a6.25,6.25,0,0,0-1.07,3.08c-.09,1.58,1,5.09,5.88,8.2l-.56.65L164.52,39l-.41.48.47.44a19.74,19.74,0,0,0,5.31,3.55l.48,1.14a3.91,3.91,0,0,1,.24,2.1c-.07.65-.19,1.7.62,2a1.23,1.23,0,0,0,.43.08,2.17,2.17,0,0,0,.94-.29,5.46,5.46,0,0,0,2.7-3.4l.19-.63a8.72,8.72,0,0,0,1.23-.2l.19,0,.14-.15,8-8.91.2-.22,0-.29A13.74,13.74,0,0,0,179.15,24.79Zm-2.37,13.57c-2.37-.77-4.79-3.87-5.55-5.72L171,32c4.16,2.71,5.29,4.8,5.81,6.32A.09.09,0,0,1,176.78,38.36Z"/><path class="cls-5" d="M236.6,11.79l.16.11a2.05,2.05,0,0,0,1.17.45,2.34,2.34,0,0,0,1.39-.57l6.6-5,1.56-1.19h-4.69a8.7,8.7,0,0,0-4.31,1.27h0l0,0-.49.37-.49-.37,0,0h0a8.7,8.7,0,0,0-4.31-1.27h-4.68L230,6.76C230.22,7,236,11.33,236.6,11.79Z"/><path class="cls-5" d="M110.61,34.7a4.62,4.62,0,0,1-1.85-3.48V8.59c1.09,0,2.4.7,3.77,1.45,1.85,1,4,2.2,6.29,2H119l8.42-6.84L126.25,5a28.36,28.36,0,0,1-7.44-2.54C115.57,1,112.51-.35,109.42.08l-.15,0L98.38,10v20.2c0,5.38,2.13,9.4,6.34,12a21.9,21.9,0,0,0,10.81,2.75h.17l10.94-8.75-2,.37C118.54,37.7,113.42,37,110.61,34.7Z"/><path class="cls-1" d="M159.41,7.37a1.67,1.67,0,0,1,0,2.36l-1.86,1.86a1.66,1.66,0,0,1-2.35,0l-1.86-1.86a1.67,1.67,0,0,1,0-2.36l1.86-1.85a1.67,1.67,0,0,1,2.36,0Z"/><path class="cls-1" d="M193.56,7.37a1.68,1.68,0,0,1,0,2.36l-1.86,1.86a1.67,1.67,0,0,1-2.36,0l-1.86-1.86a1.68,1.68,0,0,1,0-2.36l1.85-1.85a1.67,1.67,0,0,1,2.36,0Z"/><path class="cls-1" d="M162.13,22.92a28.17,28.17,0,0,0-.42-6c-.6-2.67-3.77-2.55-3.77-2.55h-5.29c1.86,2,1.63,4.89,1.63,8.55V43.35h7.85V22.92"/><path class="cls-1" d="M196.48,22.92a28.17,28.17,0,0,0-.42-6c-.6-2.67-3.77-2.55-3.77-2.55H187c1.86,2,1.63,4.89,1.63,8.55V43.35h7.85V22.92"/><path class="cls-1" d="M273.54,43.35c-1.87-2-1.63-4.9-1.63-8.55V14.37h-7.85V34.8c0,1.25,0,2.48.09,3.62-2.8-.87-4.57-2.32-4.57-6.16V22.88a27.82,27.82,0,0,0-.43-6c-.78-2.58-4.49-2.51-4.49-2.51h-4.55c1.86,2,1.62,4.89,1.62,8.55v9.53h0c0,5.74,2.63,8.81,5.41,10.61a2,2,0,0,0,2.34,0l4.69-4.41c.16,2.07.58,3.79,1.62,4.74Z"/><path class="cls-1" d="M246.8,36.66V22h0c0-3.65-1-7.94-8.24-7.94-2.17,0-6.64.85-9.48,3.39v6.29c3.18-2.31,4.78-2.55,6.84-2.55,3,0,2.72,4.58,2.72,4.58-4.1.72-12.27,3.23-12.27,10.85A7.94,7.94,0,0,0,230,43a2.42,2.42,0,0,0,2.63,0l6.08-3.73a6.26,6.26,0,0,0,1.86,4.07h8c-1.74-2.39-1.77-4.57-1.77-6.69m-12.63-2.8c0-2.57,2.54-4.14,4.48-4.34,0,.33,0,8.07,0,8.87,0,.1,0,.17,0,.25-1.39-.59-4.5-2.22-4.5-4.78"/><path class="cls-1" d="M148,34.83V25.3c0-4.62-1.69-7.51-3.8-9.4-2.71-2.88-5.27,0-5.27,0l-3.4,3.19V11.6a38.8,38.8,0,0,0-.25-5.37C134.8,2.79,131,3.05,131,3.05h-4.7c1.57,2,1.33,4.9,1.33,8.55V43.34h7.85V19.27c2.84.87,4.63,2.32,4.63,6.18v9.38c0,3.66.08,7.07,1.73,8.56h7.74c-1.86-2-1.63-4.9-1.63-8.56"/><path class="cls-1" d="M222.17,34.83V25.3h0c0-4.63-1.7-7.52-3.82-9.41-2.58-2.39-5.29.09-5.29.09l-3.32,3.12a13.94,13.94,0,0,0-.34-2.3c-.58-2.54-4.5-2.44-4.5-2.44h-4.53c1.87,2,1.63,4.9,1.63,8.56V43.35h7.85V22.92h0c0-1.26,0-2.49-.1-3.63,2.81.87,4.57,2.32,4.57,6.16v9.38c0,3.66.09,7.07,1.74,8.56h7.74c-1.86-2-1.63-4.9-1.63-8.56"/><path class="cls-1" d="M126.18,5.51l-7.41,6c-4.14.4-7.63-4-10.51-3.38V31.22c0,3.92,5.57,7.88,16.5,5.82l-9.23,7.39c-5.94,0-16.65-2.41-16.65-14.2v-20L109.49.58c5.23-.74,10.68,4.09,16.69,4.93"/><path class="cls-1" d="M242.79,6.24a8.06,8.06,0,0,0-3.95,1.16l-.89.68-.89-.68a8.06,8.06,0,0,0-3.95-1.16h-2.73s6,4.56,6.6,5,.94.76,1.94,0,6.6-5,6.6-5Z"/><path class="cls-1" d="M172.29,47.93a4.7,4.7,0,0,0,2.37-3,11.41,11.41,0,0,1-3.68-.61,4.57,4.57,0,0,1,.29,2.46c-.11.92,0,1.24.22,1.34A1.1,1.1,0,0,0,172.29,47.93Z"/><path class="cls-1" d="M178.78,25.33c-5.11-3.46-6.65-4.39-7.36-5.61-.31-.54,0-.78.34-.78,2.63,0,4.89,3,7.78,3l4.4-5.44c-4.42-.19-7.71-3.81-11.29-2.66l-6.25,7.09a5.52,5.52,0,0,0-.94,2.72c-.09,1.55,1.17,4.78,5.62,7.63,4.62,2.95,5.77,5.22,6.32,6.82.17.51-.19,1.11-.81.89-2.69-.86-5.2-4.22-6-6.1L165,39.4c5.65,5.13,10.1,4.62,11.54,4.25l8-8.91A13,13,0,0,0,178.78,25.33Z"/><path class="cls-5" d="M250.5,6.85a2.71,2.71,0,0,0,0-.29,1.86,1.86,0,0,0-.05-.27.42.42,0,0,0-.11-.21.43.43,0,0,0-.22-.12l-.17,0-.17,0a.08.08,0,0,1-.07,0,.11.11,0,0,1,0-.08.13.13,0,0,1,0-.08.08.08,0,0,1,.07,0h.45a3.47,3.47,0,0,0,.47,0H251l.28,0h.54a3.27,3.27,0,0,1,.61.05,1.56,1.56,0,0,1,.59.17,1.11,1.11,0,0,1,.46.33.89.89,0,0,1,.17.56.8.8,0,0,1-.07.36.77.77,0,0,1-.19.27,1,1,0,0,1-.28.21,2.55,2.55,0,0,1-.35.14s-.06,0-.05.06,0,0,.05,0a2.44,2.44,0,0,1,.52.19,1.84,1.84,0,0,1,.39.24,1,1,0,0,1,.24.34,1.26,1.26,0,0,1,.08.46,1.17,1.17,0,0,1-.14.59.92.92,0,0,1-.37.36,1.52,1.52,0,0,1-.53.19,3.08,3.08,0,0,1-.61.05h-2.18l-.28,0a.12.12,0,0,1-.09,0,.11.11,0,0,1,0-.08.07.07,0,0,1,0-.07.11.11,0,0,1,.09-.06l.31-.05a.51.51,0,0,0,.22-.11.42.42,0,0,0,.11-.18.69.69,0,0,0,0-.28Zm.82.72a.17.17,0,0,0,0,.12.16.16,0,0,0,.14.06h.14a3,3,0,0,0,.45,0,.82.82,0,0,0,.36-.14.61.61,0,0,0,.23-.27,1,1,0,0,0,.09-.46.8.8,0,0,0-.26-.67,1.14,1.14,0,0,0-.74-.2h-.26c-.09,0-.15,0-.16.07a.49.49,0,0,0,0,.24Zm0,1.37a3.1,3.1,0,0,0,0,.58.59.59,0,0,0,.11.33.43.43,0,0,0,.26.13l.45,0a.88.88,0,0,0,.65-.21,1.05,1.05,0,0,0,.2-.69,1.17,1.17,0,0,0-.11-.54.73.73,0,0,0-.28-.32,1.07,1.07,0,0,0-.41-.16,2.84,2.84,0,0,0-.51-.05h-.15a.2.2,0,0,0-.19.09.4.4,0,0,0-.05.22Z"/><path class="cls-5" d="M259.73,5.7h.12s0,0,0,.11a1,1,0,0,0,0,.17v.2a5.24,5.24,0,0,0,0,.57s0,0,0,0l-.08,0h-.08s-.05,0-.05,0a3.78,3.78,0,0,0-.1-.42.47.47,0,0,0-.15-.22.41.41,0,0,0-.26-.1,3.7,3.7,0,0,0-.42,0H258a.42.42,0,0,0-.18.06.18.18,0,0,0-.09.14,1,1,0,0,0,0,.27V7.64q0,.11,0,.12a.13.13,0,0,0,.08,0,3.75,3.75,0,0,0,.54,0,.7.7,0,0,0,.3-.1.38.38,0,0,0,.14-.19,1.54,1.54,0,0,0,.05-.3.13.13,0,0,1,.05-.06l.08,0,.08,0a.07.07,0,0,1,0,.06,1.09,1.09,0,0,1,0,.19l0,.18a1,1,0,0,1,0,.17c0,.07,0,.14,0,.22s0,.26,0,.37a2.37,2.37,0,0,1,0,.41.05.05,0,0,1,0,0h-.08l-.08,0s0,0-.05-.06a2,2,0,0,0-.05-.32.38.38,0,0,0-.14-.19,1.26,1.26,0,0,0-.3-.08,4,4,0,0,0-.54,0,.12.12,0,0,0-.08,0,.13.13,0,0,0,0,.1v.89a1.9,1.9,0,0,0,0,.37.62.62,0,0,0,.1.26.49.49,0,0,0,.17.15,1,1,0,0,0,.23.09l.23,0H259a.89.89,0,0,0,.24-.05,1.28,1.28,0,0,0,.26-.1.52.52,0,0,0,.19-.14.66.66,0,0,0,.12-.22,1.9,1.9,0,0,0,.08-.34.06.06,0,0,1,.05-.06h.1l.09,0s0,0,0,.05c0,.2,0,.38-.06.55a4,4,0,0,0,0,.5.1.1,0,0,1,0,.06s-.07,0-.15,0h-3.27l-.5,0s-.07,0-.08,0a.09.09,0,0,1,0-.08.08.08,0,0,1,0-.08s.05,0,.1-.05a1.13,1.13,0,0,0,.3-.06.41.41,0,0,0,.21-.1.46.46,0,0,0,.13-.18,1.11,1.11,0,0,0,0-.28V6.84a2.81,2.81,0,0,0,0-.29,2.16,2.16,0,0,0,0-.27.45.45,0,0,0-.12-.21.43.43,0,0,0-.21-.12l-.17,0-.17,0a.08.08,0,0,1-.07,0,.11.11,0,0,1,0-.08.1.1,0,0,1,.09-.11l.45,0h3.16Z"/><path class="cls-5" d="M263,6.85a2.71,2.71,0,0,0,0-.29.76.76,0,0,0,0-.27.42.42,0,0,0-.11-.21.4.4,0,0,0-.22-.12.86.86,0,0,0-.17,0l-.17,0a.09.09,0,0,1-.07,0,.19.19,0,0,1,0-.08.24.24,0,0,1,0-.08.09.09,0,0,1,.07,0h.46a3.32,3.32,0,0,0,.47,0l.74,0h.57a2.88,2.88,0,0,1,.59.07,1.5,1.5,0,0,1,.52.21.94.94,0,0,1,.37.37,1.11,1.11,0,0,1,.14.56,1.06,1.06,0,0,1-.09.45.93.93,0,0,1-.24.32,1,1,0,0,1-.35.23A3.19,3.19,0,0,1,265,8s-.06,0-.06.05,0,0,.06,0a1.94,1.94,0,0,1,.54.35,1.71,1.71,0,0,1,.29.39,1.69,1.69,0,0,1,.15.43l.09.42a.51.51,0,0,0,.12.22.27.27,0,0,0,.36,0,.44.44,0,0,0,.12-.19.1.1,0,0,1,.06-.08h.09a.12.12,0,0,1,.07,0s0,0,0,.06a.67.67,0,0,1-.1.29.76.76,0,0,1-.2.2,1.11,1.11,0,0,1-.27.12,1,1,0,0,1-.29,0,.88.88,0,0,1-.43-.1.46.46,0,0,1-.26-.27c0-.07-.06-.16-.09-.25s-.05-.18-.08-.28-.05-.18-.07-.27-.05-.17-.07-.24a1.34,1.34,0,0,0-.35-.63.89.89,0,0,0-.59-.19.48.48,0,0,0-.22.05.19.19,0,0,0-.09.19v.92a1.25,1.25,0,0,0,0,.38.49.49,0,0,0,.16.21.56.56,0,0,0,.26.11,1.23,1.23,0,0,0,.35.05.1.1,0,0,1,.08,0,.24.24,0,0,1,0,.09.19.19,0,0,1,0,.07.09.09,0,0,1-.08,0,6.38,6.38,0,0,1-.66,0,5.33,5.33,0,0,0-.56,0,5.24,5.24,0,0,0-.56,0l-.54,0a.08.08,0,0,1-.07,0,.19.19,0,0,1,0-.07.12.12,0,0,1,0-.08s0,0,.07-.05l.35-.05a.47.47,0,0,0,.21-.11.44.44,0,0,0,.1-.19,2.92,2.92,0,0,0,0-.33Zm.82.81c0,.12,0,.18.11.21a1.38,1.38,0,0,0,.32,0,1.83,1.83,0,0,0,.5,0,.7.7,0,0,0,.31-.16.62.62,0,0,0,.17-.32,1.47,1.47,0,0,0,.05-.45,1.78,1.78,0,0,0-.05-.44.64.64,0,0,0-.17-.29.62.62,0,0,0-.3-.16,1.58,1.58,0,0,0-.46,0A.64.64,0,0,0,264,6c-.07,0-.1.13-.1.27Z"/><path class="cls-5" d="M272.46,5.7h.12s.05,0,0,.11a1,1,0,0,0,0,.17v.2c0,.2,0,.39,0,.57,0,0,0,0,0,0l-.07,0h-.09s-.05,0-.05,0a2.27,2.27,0,0,0-.11-.42.4.4,0,0,0-.14-.22.43.43,0,0,0-.26-.1,3.89,3.89,0,0,0-.42,0h-.76a.38.38,0,0,0-.18.06.22.22,0,0,0-.1.14,1.65,1.65,0,0,0,0,.27V7.64c0,.07,0,.11,0,.12a.11.11,0,0,0,.08,0,3.85,3.85,0,0,0,.54,0,.7.7,0,0,0,.3-.1.36.36,0,0,0,.13-.19,1.42,1.42,0,0,0,.06-.3.21.21,0,0,1,0-.06l.08,0,.09,0s0,0,0,.06,0,.14,0,.19,0,.13,0,.18,0,.11,0,.17a1.55,1.55,0,0,0,0,.22c0,.14,0,.26,0,.37a2.37,2.37,0,0,1,0,.41.07.07,0,0,1,0,0h-.09l-.08,0a.09.09,0,0,1,0-.06,1.84,1.84,0,0,0-.06-.32.36.36,0,0,0-.13-.19,1.26,1.26,0,0,0-.3-.08,4.11,4.11,0,0,0-.54,0,.11.11,0,0,0-.08,0,.11.11,0,0,0,0,.1v.89a1.31,1.31,0,0,0,0,.37.62.62,0,0,0,.1.26.46.46,0,0,0,.16.15,1.1,1.1,0,0,0,.24.09l.23,0h.61a.89.89,0,0,0,.24-.05,1.28,1.28,0,0,0,.26-.1.45.45,0,0,0,.19-.14.66.66,0,0,0,.12-.22c0-.09.05-.2.08-.34a.06.06,0,0,1,0-.06h.1l.09,0s0,0,0,.05c0,.2-.05.38-.06.55a4,4,0,0,0,0,.5.15.15,0,0,1,0,.06s-.06,0-.14,0H269.4l-.5,0a.14.14,0,0,1-.09,0,.11.11,0,0,1,0-.08.08.08,0,0,1,0-.08.13.13,0,0,1,.09-.05,1.22,1.22,0,0,0,.31-.06.41.41,0,0,0,.21-.1.36.36,0,0,0,.12-.18.79.79,0,0,0,0-.28V6.84a2.81,2.81,0,0,0,0-.29,1.17,1.17,0,0,0,0-.27.72.72,0,0,0-.12-.21.43.43,0,0,0-.21-.12l-.18,0-.17,0a.07.07,0,0,1-.06,0,.11.11,0,0,1,0-.08.09.09,0,0,1,0-.07.07.07,0,0,1,.06,0l.46,0h3.16Z"/><g class="cls-6"><path class="cls-5" d="M2.42,12.12l-1-.6L0,6.8c.92-.27,2.86-.77,3.66-1,.2.79.4,1.57.61,2.36.52-.14,1.18-.29,1.79-.44-.19-.79-.38-1.59-.56-2.38.92-.24,2.68-.64,3.65-.86.17.81.35,1.62.52,2.43.69-.16,1.43-.3,1.79-.38L11,4.09c.52-.12,2.43-.52,3.64-.75.28,1.66.57,3.33.87,5l-.7,1.1c-2.26.39-5.72,1.11-8,1.63l.06.28c2.71-.39,5.42-.8,8.12-1.2q.59,3.21,1.2,6.44l.59-.09c-.12-.63-.23-1.26-.35-1.89,1.22-.21,2.35-.38,3.38-.54.1.63.2,1.27.31,1.9l.56-.08Q20,12.28,19.5,8.66l-1-.86c-.26-1.68-.52-3.35-.77-5,.88-.16,2.88-.47,3.65-.58.11.86.23,1.71.34,2.57l1.79-.23-.3-2.6c.82-.12,2.73-.35,3.64-.45.08.88.16,1.75.25,2.62l1.79-.17L28.69,1.3c.14,0,2-.19,3.63-.32.11,1.74.21,3.47.32,5.21l-.8,1.1c-2,.1-7.23.67-8.06.78l0,.29L31.88,8q.23,3.32.46,6.65l.6-.05-.12-1.93c.38,0,2.48-.15,3.38-.19,0,.66,0,1.31.08,2l.59,0c-.1-2.47-.19-4.94-.29-7.41-.3-.34-.61-.67-.91-1-.07-1.74-.15-3.49-.22-5.23C37.12.7,38.93.65,39.08.65c0,.89,0,1.78.05,2.68l1.8,0,0-2.68c1,0,2.9,0,3.63,0,0,.89,0,1.78,0,2.68.67,0,1.54,0,1.8,0L46.36.65c.74,0,2.75.1,3.63.14-.08,1.74-.15,3.48-.22,5.22-.3.33-.6.67-.89,1-2.27-.12-5.72-.15-8.06-.12v.29l8,.56c-.08,2.22-.17,4.45-.26,6.67l.58,0c0-.65.05-1.3.08-1.95.9,0,3,.14,3.38.18,0,.64-.09,1.29-.13,1.93l.58,0c.18-2.44.34-4.89.51-7.33-.27-.38-.54-.75-.8-1.13.11-1.74.21-3.47.32-5.21,1.67.13,3.49.29,3.64.31-.08.88-.15,1.76-.23,2.64l1.8.17c.08-.87.16-1.74.25-2.62.91.1,2.82.33,3.64.45l-.3,2.6,1.79.23L64,2.19c.78.11,2.78.42,3.66.58-.26,1.68-.51,3.35-.77,5l-1,.86c-2.18-.34-5.86-.81-8.09-1l0,.29c2.66.49,5.34,1,8,1.44-.32,2.17-.65,4.35-1,6.52l.57.09.3-1.91c1,.15,2.17.33,3.38.54-.11.63-.22,1.26-.34,1.89l.6.09q.66-3.54,1.31-7l-.69-1.2c.3-1.67.59-3.34.88-5,1.2.23,3.11.63,3.64.75-.17.81-.33,1.63-.49,2.45.36.08,1.1.22,1.79.38.18-.81.35-1.62.53-2.43.95.22,2.72.62,3.64.86-.18.79-.37,1.59-.56,2.38.61.15,1.28.3,1.79.44.21-.79.41-1.57.61-2.36.8.22,2.74.72,3.66,1-.45,1.56-.91,3.14-1.38,4.72l-1,.59c-2.2-.57-6.2-1.46-8.14-1.85l-.06.27c2.66.77,5.32,1.52,8,2.26L72.42,43.13h0a153.78,153.78,0,0,0-59.29,0h0Z"/></g></g></g></g></svg>