<svg width="125" height="158" viewBox="0 0 125 158" fill="none" xmlns="http://www.w3.org/2000/svg">
<path d="M123.497 100.146L109.365 79.4856C108.029 77.5296 106.01 76.2141 103.684 75.7779C101.358 75.3417 99 75.8367 97.044 77.173L96.8329 77.3185C96.4209 76.633 96.0054 75.9475 95.5796 75.2621C96.3412 73.4238 96.2996 71.447 95.4549 69.7784C93.9767 66.8669 90.4179 65.5375 87.0286 66.5657C86.1874 65.9079 85.2458 65.444 84.2764 65.1913V62.2521C84.2764 61.0404 84.318 59.4653 84.266 57.8901C84.1656 54.8782 82.7116 52.6453 80.1082 51.212C79.3362 50.7897 79.0246 50.3708 79.035 49.4776C79.0835 45.441 79.0351 41.4044 79.0801 37.3677C79.087 36.7584 79.2981 36.0591 79.6409 35.5572C81.0499 33.5112 81.7353 31.2817 81.7284 28.8029C81.7111 23.0284 81.7492 17.2539 81.7007 11.4829C81.6903 10.3266 81.538 9.12876 81.2126 8.02094C79.7759 3.11192 74.7804 -0.128449 69.9163 0.598556C64.4707 1.41211 60.7352 5.67029 60.6764 11.2994C60.6141 17.2262 60.5864 23.1565 60.711 29.0799C60.7457 30.6654 60.9672 32.5383 61.8396 33.7466C63.4633 36.0003 63.3767 38.3786 63.3559 40.8539C63.3421 42.4879 63.3559 44.1254 63.3559 45.7595V50.215C57.2144 50.215 51.2911 50.2288 45.3712 50.1804C44.9938 50.1804 44.5784 49.7338 44.253 49.4187C43.069 48.2624 41.8885 47.0992 40.7599 45.8841C40.3687 45.4617 39.8944 44.8974 39.8737 44.3816C39.7802 41.934 39.8079 39.4761 39.8529 37.025C39.8598 36.5542 40.0121 35.9968 40.296 35.6299C44.5542 30.0769 42.1447 22.7134 36.5606 19.8504C34.0991 18.5902 32.2262 16.6135 30.8934 14.1936C30.6441 13.7366 30.7619 13.0027 30.8796 12.4349C31.2085 10.8632 31.9873 9.2984 31.9354 7.75438C31.8246 4.42746 29.4671 1.75138 26.3548 0.827045C23.2598 -0.093829 20.0299 0.920512 17.9666 3.46157C15.9206 5.97493 15.6401 9.35032 17.3677 12.3276C17.835 13.1342 17.7381 13.6812 17.2984 14.3874C15.7475 16.8696 13.6668 18.7356 11.1292 20.2035C6.18906 23.063 4.1915 29.0453 6.94374 33.7708C8.25235 36.0176 8.50509 38.1744 8.43931 40.5666C8.40469 41.7921 8.37701 43.0211 8.45317 44.2431C8.5051 45.1259 8.1762 45.5517 7.39727 45.9776C4.79736 47.4004 3.2464 49.6161 3.23255 52.6383C3.18755 61.5286 3.19447 70.4188 3.23255 79.3091C3.2464 82.2794 4.75233 84.4881 7.28993 85.8729C8.28696 86.4164 8.4601 87.0188 8.45664 88.0124C8.43241 103.598 8.43931 119.18 8.43931 134.766V136.376C8.14505 136.49 8.01344 136.573 7.86804 136.594C3.07327 137.331 0.539149 140.291 0.528764 145.172C0.525302 147.063 0.625759 148.96 0.504591 150.843C0.300337 154.024 1.49817 156.278 4.48581 157.507H109.348C110.154 156.922 111.086 156.451 111.747 155.735C113.647 153.675 113.651 145.806 111.84 143.653C110.535 142.098 108.801 141.787 106.876 141.79C87.5618 141.811 68.2477 141.797 48.9335 141.821C47.8257 141.821 47.1161 141.652 46.5448 140.509C45.4855 138.387 43.5953 137.071 41.2619 136.743C40.0156 136.566 39.8078 136.106 39.8113 135.008C39.8425 124.892 39.8286 114.773 39.8286 104.657C39.8286 99.0386 39.8079 93.4164 39.8598 87.7977C39.8633 87.2438 40.1333 86.406 40.5418 86.1879C43.7787 84.4466 45.1634 81.7428 45.0873 78.1459C45.0423 75.9094 45.0804 73.673 45.0804 71.2878C46.7872 71.2878 48.3104 71.3051 49.8337 71.2843C52.4751 71.2497 55.0127 70.4915 56.3248 68.1928C57.5261 66.0879 59.0458 65.8664 61.0503 66.0395C62.165 66.1364 63.2971 66.0568 64.4222 66.0568H68.5661L70.7991 65.991C69.6116 67.0919 68.7773 68.5424 68.4657 70.1107C66.6482 70.5504 64.99 71.6201 63.858 73.1053C62.8713 74.3931 62.3589 75.9198 62.3935 77.4535C61.4345 78.0697 60.5968 78.8763 59.9425 79.8145C59.2536 80.8011 59.4993 82.0751 60.5102 82.7814C61.5107 83.4807 62.7847 83.266 63.4702 82.2829C64.3253 81.0608 65.9005 80.2853 67.2991 80.403C68.0642 80.4653 68.7427 80.1503 69.1685 79.5375C69.6255 78.8763 69.7017 77.9831 69.3624 77.2596C69.0474 76.5914 68.4208 76.1726 67.6488 76.1102C67.448 76.0929 67.2437 76.086 67.0395 76.086C67.1225 75.9371 67.2091 75.816 67.2748 75.726C67.7249 75.1374 68.3757 74.6735 69.0889 74.4174C69.2308 74.677 69.3832 74.9124 69.5494 75.1305C70.2798 76.0825 71.5676 76.2383 72.5439 75.4905C73.3886 74.8432 73.8075 73.6142 72.9662 72.5133C72.627 72.0667 72.5232 71.5336 72.6616 70.9277C72.8728 70.0034 73.6378 69.041 74.5206 68.5944C75.3307 68.1824 76.2344 68.082 77.0029 68.2897C76.9821 68.3243 76.9648 68.359 76.944 68.3936C76.584 69.0756 76.6048 69.8303 76.9994 70.4638C77.4287 71.1458 78.2214 71.5786 79.0108 71.5405C79.7482 71.5128 80.3782 71.1043 80.7417 70.4223C81.0256 69.8891 81.4653 69.5256 82.0054 69.3733C82.3066 69.2868 82.6355 69.2729 82.9643 69.3214C82.7705 69.5706 82.5939 69.8337 82.4347 70.1003C81.8254 71.1354 82.1612 72.3886 83.2205 73.0153C84.2729 73.6384 85.5262 73.3268 86.1424 72.2952C86.7759 71.2289 88.2541 70.4707 89.5904 70.5054C90.2413 70.5261 91.1207 70.7581 91.6157 71.7309C91.955 72.4025 91.9342 73.1087 91.543 73.8288C90.9926 74.8432 89.7774 75.6706 88.6488 75.7952C87.7106 75.899 86.8798 76.7126 86.7551 77.6473C86.6928 78.1182 86.4366 78.544 86.042 78.8382C85.7858 79.0286 85.4881 79.1463 85.1799 79.1879C84.9688 78.4782 84.6433 77.8274 84.221 77.2769C83.7536 76.6676 83.0578 76.3768 82.3204 76.4772C81.5241 76.5845 80.8145 77.128 80.5098 77.8654C80.2294 78.5474 80.3402 79.2917 80.8145 79.908C81.6592 81.0054 80.8733 82.6083 79.9801 83.3457C79.222 83.9723 78.9866 85.1043 79.4332 85.9802L84.633 96.231C84.9273 96.8126 84.6953 97.5257 84.1171 97.82C83.8367 97.9619 83.5182 97.9862 83.2171 97.8858C82.9159 97.7854 82.6735 97.5777 82.5281 97.2972C82.5281 97.2972 78.0311 88.4312 77.9999 88.3655C77.491 87.3615 76.1097 86.908 75.1058 87.4169C74.6661 87.6385 74.1676 87.6765 73.7002 87.5242C73.2294 87.3684 72.8485 87.043 72.6235 86.6034C72.44 86.2433 72.3812 85.769 72.4643 85.3674C72.7101 84.1973 71.9796 83.1241 70.768 82.8714C69.7294 82.6567 68.5315 83.138 68.2511 84.4777C68.123 85.0905 68.0954 85.7309 68.1715 86.3956C67.3026 86.8976 66.2605 87.1088 65.2981 86.9599C64.1937 86.7903 63.2729 86.0875 62.9578 85.1736C62.7086 84.45 62.1443 83.9515 61.4103 83.8096C60.621 83.6572 59.7694 83.9481 59.2466 84.5504C58.7654 85.1078 58.6339 85.8487 58.8901 86.5826C59.7417 89.0267 61.9469 90.8027 64.6472 91.2181C64.8549 91.2493 65.0696 91.2735 65.305 91.2873C65.6339 92.094 65.9697 92.9041 66.3124 93.7038C67.5518 96.6049 68.8604 99.416 70.1967 102.054C73.0216 107.628 76.2793 113.101 79.8797 118.328C82.5904 122.265 85.4362 125.997 88.3442 129.417C88.7423 130.189 90.719 133.783 93.0316 133.783C93.3708 133.783 93.7171 133.706 94.0668 133.53L102.067 129.521C102.206 129.452 102.33 129.369 102.445 129.279L112.917 123.968C113.402 123.791 113.775 123.442 113.997 122.947C114.797 121.178 113.405 117.747 113.038 116.906C112.823 116.012 112.595 115.123 112.363 114.237L121.838 108.424L121.946 108.355C123.247 107.465 124.123 106.122 124.414 104.571C124.705 103.02 124.376 101.452 123.483 100.15L123.497 100.146ZM47.8327 147.17H107.734V152.19H47.8327V147.17ZM24.115 5.87454C25.517 5.87454 26.6041 6.96505 26.6145 8.39137C26.6283 9.85231 25.6105 10.9255 24.1842 10.9601C22.7579 10.9913 21.6535 9.95616 21.6016 8.53677C21.5497 7.04467 22.6506 5.878 24.1115 5.878L24.115 5.87454ZM14.0546 24.6417C17.2949 22.7515 19.9294 20.2589 21.8196 17.015C22.2074 16.3469 22.6401 16.2707 23.3671 16.1634C25.3924 15.8691 26.3963 16.8454 27.383 18.4379C28.9893 21.0309 31.3261 22.9453 33.9607 24.4894C36.5779 26.023 37.5957 28.114 36.9691 30.5443C36.3459 32.9572 34.0438 34.5463 31.1392 34.5532C28.792 34.5601 26.4448 34.5532 24.0976 34.5532C21.65 34.5532 19.199 34.5705 16.7514 34.5497C14.1342 34.5255 11.8216 32.8153 11.2434 30.5131C10.6549 28.1728 11.6312 26.0507 14.0476 24.6417H14.0546ZM11.465 50.305C12.9952 50.2565 14.5323 50.3292 16.0625 50.2738C17.8869 50.2115 18.9359 49.1695 18.8874 47.5597C18.8424 46.0607 17.7346 45.0498 16.0382 44.9944C15.3251 44.9701 14.6119 44.9909 13.788 44.9909V39.6457H34.4211V44.9909C33.6837 44.9909 32.8909 44.9632 32.1016 44.9978C30.4641 45.0705 29.3286 46.1784 29.332 47.6601C29.3355 49.121 30.3533 50.1804 31.9735 50.2565C33.5522 50.3292 35.1412 50.2565 36.7233 50.3015C38.9008 50.3638 39.7559 51.2605 39.7594 53.4415C39.7663 61.7674 39.7663 70.0934 39.7594 78.4193C39.7594 80.7008 38.9147 81.542 36.6263 81.5732C35.1966 81.5939 33.7634 81.5351 32.337 81.5939C30.4018 81.677 29.2836 82.7433 29.3355 84.3496C29.3874 85.9248 30.5853 86.9115 32.4997 86.9426C33.109 86.953 33.7183 86.9426 34.4869 86.9426V136.414H13.7845V86.9426C14.4665 86.9426 15.1589 86.9565 15.8478 86.9426C17.6723 86.9011 18.8251 85.9352 18.8909 84.4016C18.9601 82.7537 17.8904 81.6839 15.9586 81.5974C14.4284 81.5282 12.8948 81.6043 11.3612 81.5662C9.39132 81.5178 8.4705 80.5969 8.4705 78.6236C8.45665 70.1972 8.45665 61.7674 8.4705 53.3411C8.4705 51.3055 9.39827 50.3708 11.472 50.305H11.465ZM42.3455 144.3C42.4597 146.886 42.3766 149.482 42.3766 152.19H5.96398C5.96398 149.368 5.87055 146.623 6.0021 143.888C6.06788 142.51 7.18607 141.856 8.93781 141.856C18.1292 141.849 27.3206 141.852 36.5155 141.852C37.5368 141.852 38.5581 141.832 39.5794 141.859C41.2307 141.901 42.2797 142.707 42.3489 144.303L42.3455 144.3ZM52.8698 63.1522C52.8179 64.9282 51.8277 65.8352 50.0621 65.8768C48.6877 65.9079 47.3134 65.8871 45.939 65.8802C45.7382 65.8802 45.5408 65.8387 45.212 65.8006V55.6779H52.887C52.887 58.2709 52.939 60.715 52.8698 63.1522ZM89.1335 123.584L87.4822 121.448C82.3654 114.763 77.8684 107.624 74.1087 100.236L78.1591 98.1835L78.6958 99.2394C79.357 100.545 80.489 101.517 81.8842 101.974C83.2793 102.431 84.7645 102.321 86.0697 101.659C88.7631 100.292 89.8432 96.9822 88.4722 94.2819L87.9356 93.226L93.1424 90.5846C93.8348 90.2349 94.2537 89.6048 94.2952 88.8605C94.3402 88.0608 93.9352 87.2646 93.2671 86.8284C92.6439 86.4233 91.8892 86.3922 91.1934 86.7418L85.9866 89.3833L83.944 85.357C84.3941 84.772 84.7472 84.1488 84.9965 83.4876H85.0103C85.9693 83.4876 86.8971 83.273 87.728 82.8506C89.0366 82.1859 90.044 81.0954 90.6014 79.7453C91.0791 79.6068 91.4911 79.4441 91.8754 79.2502C92.1488 79.1117 92.4154 78.9525 92.6854 78.769C93.8451 80.6731 94.9287 82.546 95.9154 84.3496C95.2403 84.7028 94.8353 85.3224 94.7937 86.0564C94.7487 86.8561 95.1538 87.6523 95.8219 88.0885C96.4451 88.4936 97.1998 88.5247 97.8956 88.1751L97.9268 88.1612C101.669 95.5594 104.768 103.408 107.139 111.481L107.883 114.067C108.24 115.372 108.576 116.688 108.887 117.979C109.109 118.893 109.438 119.783 109.891 120.676C107.184 122.05 98.0791 126.668 98.0203 126.696C97.906 126.755 97.8021 126.817 97.7052 126.89L93.2947 129.099C92.8481 128.23 92.3115 127.426 91.6953 126.703C90.8402 125.689 89.9747 124.636 89.1369 123.587L89.1335 123.584ZM99.8205 81.227C100.689 80.6315 101.742 80.41 102.777 80.6073C103.812 80.8012 104.712 81.3897 105.308 82.2586L119.439 102.919C119.588 103.138 119.644 103.401 119.595 103.66C119.547 103.913 119.408 104.131 119.2 104.28L110.989 109.317C108.576 101.306 105.46 93.5168 101.686 86.0771C100.932 84.592 100.132 83.0929 99.2977 81.587L99.8205 81.2304V81.227ZM70.1101 90.2661C71.4153 91.4743 73.1843 92.0594 74.9499 91.8586L76.2066 94.3338C75.8985 94.4896 75.5939 94.642 75.2858 94.7977C74.2818 95.3032 73.2502 95.8225 72.2289 96.3487C72.0004 95.864 71.7373 95.3032 71.6992 95.2201C71.3392 94.4377 70.2487 91.9105 69.6567 90.5084C69.7952 90.4392 69.944 90.3596 70.1136 90.2626L70.1101 90.2661ZM66.0597 11.1055C66.0943 8.10749 68.22 5.92648 71.0968 5.85031C73.9356 5.77761 76.2793 7.89284 76.3278 10.9047C76.4247 17.0808 76.4212 23.2604 76.3312 29.4364C76.2862 32.4449 73.9702 34.5844 71.1418 34.5497C68.2338 34.5151 66.0839 32.2752 66.0562 29.1768C66.0251 26.1649 66.0493 23.1531 66.0493 20.1412C66.0493 17.1293 66.0216 14.1174 66.0597 11.1055ZM73.6794 39.6942V50.1319H68.6631V39.6942H73.6794ZM58.2461 60.6596V55.6779C58.6719 55.6398 59.1878 55.5533 59.7002 55.5533C64.9588 55.5429 70.2175 55.5394 75.4761 55.5533C78.2457 55.5602 78.997 56.3322 79.0005 59.1156V63.2041V64.4331C77.4114 63.7719 75.5628 63.6957 73.8145 64.2427C73.8145 64.0454 73.8145 63.855 73.8075 63.6611C73.7487 61.667 72.7863 60.6804 70.7506 60.6666C66.6206 60.6389 62.487 60.6596 58.2426 60.6596H58.2461Z" fill="white"/>
<path d="M84.1108 109.507C84.0243 109.5 83.9412 109.497 83.8546 109.49C83.6192 109.234 83.3873 108.974 83.1519 108.718C83.3042 108.579 83.6227 108.306 83.7577 108.188C83.8685 108.32 83.9792 108.448 84.09 108.579C84.1766 108.507 84.2873 108.417 84.3912 108.33C84.2804 108.195 84.1696 108.064 84.0623 107.929C84.2181 107.797 84.5158 107.558 84.6785 107.427C84.7859 107.565 84.8966 107.704 85.0039 107.839C85.1216 107.745 85.2498 107.648 85.3121 107.6C85.2048 107.458 85.0974 107.319 84.9901 107.177C85.0766 107.105 85.4055 106.852 85.6132 106.696C85.8244 106.987 86.0322 107.274 86.2433 107.565C86.233 107.655 86.2225 107.749 86.2121 107.839C85.8175 108.122 85.2255 108.583 84.8308 108.901C84.8447 108.919 84.8551 108.933 84.869 108.95C85.3467 108.621 85.8244 108.292 86.3022 107.963C86.5757 108.334 86.8527 108.708 87.1331 109.078C87.1642 109.054 87.1988 109.029 87.2369 109.005C87.1572 108.894 87.0776 108.787 86.9945 108.676C87.2057 108.524 87.4065 108.386 87.5865 108.257C87.6662 108.368 87.7424 108.479 87.822 108.593C87.8566 108.569 87.8878 108.548 87.9224 108.528C87.6247 108.102 87.3304 107.676 87.0396 107.254C86.9496 107.229 86.8596 107.209 86.7696 107.184C86.5653 106.89 86.3576 106.592 86.1533 106.298C86.3056 106.187 86.6588 105.941 86.7938 105.848C86.8942 106 86.9946 106.153 87.0984 106.308C87.1607 106.267 87.2957 106.177 87.4169 106.097C87.3165 105.941 87.2162 105.786 87.1192 105.63C87.2646 105.529 87.6073 105.311 87.77 105.204C87.867 105.363 87.9639 105.523 88.0609 105.682C88.182 105.606 88.3274 105.519 88.3863 105.481C88.2893 105.322 88.1958 105.159 88.0989 105C88.1231 104.982 88.4555 104.782 88.7636 104.602C88.9437 104.924 89.1271 105.242 89.3106 105.564C89.2933 105.658 89.276 105.755 89.2587 105.848C88.8848 106.056 87.9466 106.648 87.7977 106.748C87.8081 106.765 87.8185 106.783 87.8324 106.8C88.3344 106.527 88.8363 106.253 89.3348 105.983C89.5702 106.392 89.8057 106.8 90.0411 107.205C90.0757 107.184 90.1138 107.164 90.1519 107.139C90.0826 107.022 90.0168 106.9 89.9476 106.783C90.0168 106.741 90.4046 106.523 90.5742 106.433C90.64 106.554 90.7058 106.675 90.7716 106.797C90.8097 106.776 90.8477 106.755 90.8823 106.738C90.633 106.277 90.3838 105.813 90.138 105.353C90.048 105.318 89.9614 105.284 89.8714 105.249C89.6949 104.924 89.5183 104.598 89.3452 104.276C89.6533 104.103 89.996 103.927 90.0237 103.913C90.1103 104.082 90.1968 104.249 90.2834 104.418C90.3457 104.387 90.5223 104.294 90.6226 104.245C90.5396 104.075 90.453 103.906 90.3699 103.736C90.5569 103.639 90.9204 103.463 91.0623 103.397C91.1419 103.567 91.225 103.74 91.3046 103.909C91.4327 103.847 91.5989 103.771 91.6508 103.747C91.5712 103.573 91.4916 103.404 91.412 103.231C91.5539 103.162 91.9451 102.995 92.1148 102.919C92.2636 103.258 92.4125 103.594 92.5579 103.934C92.5337 104.024 92.506 104.117 92.4817 104.207C92.0421 104.397 91.3809 104.712 90.9377 104.937C90.9481 104.955 90.955 104.976 90.9654 104.993C91.4916 104.778 92.0178 104.564 92.544 104.349C92.7344 104.782 92.9249 105.211 93.1153 105.644C93.1499 105.626 93.1879 105.613 93.226 105.595C93.1706 105.471 93.1153 105.343 93.0599 105.218C93.233 105.142 93.645 104.965 93.7211 104.937C93.7731 105.066 93.825 105.19 93.8769 105.318C93.9185 105.301 93.9565 105.284 93.9911 105.27C93.7972 104.789 93.5999 104.307 93.4026 103.826C93.316 103.781 93.2295 103.733 93.1464 103.688C93.0045 103.348 92.866 103.006 92.7241 102.666C93.0529 102.535 93.4165 102.396 93.4442 102.386C93.5134 102.559 93.5791 102.732 93.6449 102.909C93.7141 102.885 93.8699 102.822 94.005 102.774C93.9392 102.601 93.8735 102.424 93.8077 102.251C93.9912 102.185 94.3754 102.05 94.545 101.998C94.6074 102.171 94.6697 102.348 94.7285 102.521C94.867 102.476 95.0194 102.424 95.0921 102.4C95.0332 102.227 94.9743 102.054 94.9155 101.877C95.0747 101.825 95.4832 101.701 95.6667 101.649C95.774 101.991 95.8813 102.334 95.9886 102.68C95.9506 102.767 95.916 102.85 95.8779 102.937C95.4313 103.075 94.6869 103.328 94.2438 103.497C94.2507 103.518 94.2577 103.535 94.2646 103.556C94.8151 103.4 95.369 103.241 95.9229 103.082C96.0614 103.525 96.2033 103.972 96.3418 104.415C96.3798 104.401 96.418 104.391 96.456 104.38C96.418 104.249 96.3764 104.117 96.3383 103.989C96.5495 103.923 96.7814 103.85 97.0307 103.778C97.0688 103.909 97.1034 104.037 97.1415 104.169C97.183 104.155 97.2246 104.145 97.2627 104.131C97.1277 103.639 96.9926 103.151 96.8541 102.666C96.7745 102.611 96.6914 102.556 96.6118 102.5C96.5114 102.154 96.4111 101.811 96.3141 101.469C96.5669 101.399 96.965 101.299 97.0757 101.271C97.1207 101.441 97.1657 101.614 97.2107 101.784C97.2869 101.766 97.4392 101.721 97.5881 101.687C97.5466 101.517 97.505 101.347 97.46 101.178C97.6642 101.129 98.0381 101.043 98.2354 101.001C98.2735 101.171 98.3116 101.337 98.3497 101.507C98.4813 101.479 98.6198 101.444 98.7306 101.424C98.6959 101.254 98.6613 101.088 98.6267 100.918C98.7998 100.884 99.2152 100.8 99.416 100.766C99.4749 101.105 99.5337 101.448 99.5926 101.791C99.5441 101.86 99.499 101.929 99.4506 101.998C98.9798 102.095 98.1351 102.296 97.73 102.403C97.7335 102.424 97.7404 102.441 97.7439 102.462C98.322 102.362 98.8967 102.254 99.4748 102.147L100.32 108.894C96.1167 110.023 92.3156 111.931 89.0371 114.423L84.1074 109.511L84.1108 109.507Z" fill="#F2AF43"/>
</svg>
