<svg width="479" height="605" viewBox="0 0 479 605" fill="none" xmlns="http://www.w3.org/2000/svg">
<path d="M223.322 231.744V212.564C224.959 212.417 226.943 212.089 228.927 212.085C249.18 212.046 269.432 212.033 289.686 212.074C300.348 212.096 303.24 215.076 303.252 225.8L303.256 241.541V246.278C297.135 243.73 290.02 243.436 283.288 245.54C283.288 244.785 283.283 244.041 283.263 243.305C283.042 235.62 279.328 231.83 271.495 231.777C255.582 231.666 239.668 231.744 223.322 231.744ZM282.759 191.208H263.446V151.005H282.759V191.208ZM253.411 40.8929C253.547 29.3463 261.726 20.9409 272.814 20.6556C283.752 20.3743 292.78 28.5249 292.962 40.1236C293.338 63.9116 293.328 87.7116 292.976 111.5C292.806 123.084 283.882 131.321 272.992 131.193C261.79 131.061 253.518 122.43 253.4 110.505C253.286 98.9035 253.376 87.3009 253.376 75.6996C253.38 64.0969 253.274 52.4929 253.411 40.8929ZM266.012 343.738L266.01 343.74C266.011 343.74 266.012 343.738 266.012 343.738ZM269.016 345.777C274.047 350.428 280.856 352.68 287.662 351.916L292.499 361.454C291.316 362.05 290.132 362.646 288.95 363.242C285.082 365.19 281.108 367.192 277.17 369.22C276.291 367.354 275.283 365.197 275.135 364.874C273.752 361.856 269.55 352.132 267.263 346.728C267.791 346.462 268.374 346.148 269.016 345.777ZM383.443 310.964C386.794 308.669 390.843 307.818 394.831 308.57C398.823 309.32 402.284 311.58 404.58 314.932L459.003 394.506C459.578 395.346 459.79 396.358 459.603 397.354C459.422 398.324 458.884 399.169 458.088 399.742L426.464 419.142C417.171 388.29 405.175 358.289 390.639 329.634C387.738 323.913 384.659 318.137 381.436 312.336L383.443 310.964ZM342.28 474.086L335.919 465.861C316.214 440.108 298.887 412.625 284.411 384.168L300.008 376.256L302.07 380.322C304.62 385.352 308.982 389.094 314.348 390.857C319.72 392.621 325.442 392.188 330.463 389.641C340.842 384.377 344.995 371.629 339.719 361.224L337.658 357.16L357.715 346.988C360.379 345.636 361.996 343.216 362.152 340.346C362.32 337.268 360.764 334.194 358.19 332.514C355.791 330.952 352.879 330.829 350.21 332.185L330.15 342.36L322.288 326.858C324.024 324.61 325.382 322.198 326.343 319.652H326.398C330.095 319.652 333.668 318.822 336.859 317.202C341.899 314.645 345.778 310.438 347.926 305.245C349.76 304.706 351.347 304.088 352.83 303.336C353.882 302.802 354.906 302.19 355.944 301.476C360.408 308.812 364.582 316.017 368.391 322.966C365.796 324.326 364.226 326.72 364.071 329.546C363.903 332.626 365.458 335.7 368.032 337.377C370.43 338.942 373.338 339.062 376.012 337.706L376.127 337.648C390.539 366.146 402.478 396.365 411.61 427.462L414.478 437.42C415.847 442.446 417.15 447.517 418.35 452.489C419.2 456.016 420.475 459.438 422.219 462.878C411.786 468.17 376.727 485.954 376.498 486.069C376.063 486.29 375.658 486.541 375.283 486.817L358.294 495.321C356.575 491.98 354.508 488.882 352.134 486.093C348.834 482.189 345.508 478.138 342.28 474.086ZM202.611 241.349C202.415 248.19 198.603 251.676 191.796 251.838C186.506 251.964 181.208 251.876 175.914 251.854C175.146 251.852 174.376 251.689 173.114 251.542V212.556H202.679C202.679 222.549 202.88 231.956 202.611 241.349ZM162.079 553.877C162.516 563.842 162.196 573.841 162.196 584.257H21.9511C21.9511 573.385 21.5977 562.813 22.099 552.282C22.3524 546.972 26.6644 544.458 33.4031 544.453C68.8057 544.425 104.207 544.44 139.61 544.44C143.543 544.44 147.479 544.362 151.41 544.464C157.771 544.628 161.81 547.734 162.079 553.877ZM43.1417 191.862C49.0377 191.678 54.9484 191.95 60.8444 191.748C67.8777 191.506 71.9084 187.492 71.7231 181.301C71.5511 175.521 67.2831 171.638 60.7511 171.421C58.0097 171.329 55.2617 171.405 52.0871 171.405V150.825H131.558V171.409C128.72 171.409 125.664 171.3 122.619 171.432C116.314 171.705 111.936 175.981 111.955 181.688C111.974 187.318 115.887 191.39 122.126 191.682C128.212 191.966 134.322 191.676 140.415 191.853C148.796 192.097 152.1 195.544 152.108 203.95C152.138 236.016 152.135 268.081 152.111 300.146C152.104 308.933 148.864 312.174 140.044 312.294C134.538 312.368 129.02 312.146 123.523 312.38C116.075 312.694 111.759 316.812 111.956 322.996C112.151 329.062 116.77 332.861 124.147 332.984C126.492 333.022 128.839 332.99 131.795 332.99V523.526H52.0551V332.99C54.6791 332.99 57.3431 333.041 60.0031 332.981C67.0351 332.82 71.4657 329.096 71.7204 323.192C71.9937 316.849 67.8711 312.725 60.4271 312.393C54.5364 312.13 48.6244 312.413 42.7257 312.273C35.1351 312.092 31.5991 308.542 31.5857 300.933C31.5324 268.474 31.5364 236.016 31.5831 203.557C31.5937 195.714 35.1591 192.112 43.1417 191.862ZM53.1217 93.0222C65.5977 85.7422 75.7551 76.1409 83.0284 63.6542C84.5271 61.0809 86.1844 60.7822 88.9884 60.3755C96.7897 59.2436 100.651 62.9969 104.46 69.1396C110.654 79.1235 119.65 86.4943 129.795 92.4476C139.87 98.3582 143.794 106.41 141.384 115.765C138.99 125.056 130.115 131.174 118.932 131.201C109.894 131.224 100.856 131.206 91.8191 131.206C82.3871 131.205 72.9551 131.269 63.5257 131.186C53.4391 131.098 44.543 124.509 42.3177 115.641C40.055 106.625 43.8137 98.4529 53.1217 93.0222ZM91.8631 20.7422C97.2657 20.7396 101.444 24.9449 101.49 30.4316C101.536 36.0542 97.6177 40.1956 92.1311 40.3209C86.6337 40.4462 82.3844 36.4569 82.1911 30.9863C81.9871 25.2436 86.2337 20.7462 91.8631 20.7422ZM183.211 564.934H413.914V584.27H183.211V564.934ZM474.627 383.818L420.206 304.246C415.058 296.717 407.286 291.645 398.324 289.964C389.358 288.28 380.279 290.186 372.754 295.337L371.935 295.897C370.348 293.254 368.743 290.612 367.102 287.972C370.034 280.888 369.882 273.281 366.622 266.856C360.932 255.637 347.22 250.522 334.167 254.488C330.932 251.948 327.303 250.166 323.56 249.192V237.878C323.56 233.206 323.727 227.14 323.524 221.084C323.138 209.485 317.542 200.877 307.51 195.358C304.542 193.725 303.334 192.112 303.375 188.682C303.562 173.138 303.366 157.589 303.554 142.045C303.582 139.692 304.387 137.001 305.714 135.072C311.136 127.188 313.782 118.6 313.752 109.053C313.684 86.8156 313.831 64.5782 313.646 42.3422C313.608 37.8823 313.016 33.2755 311.766 29.0049C306.231 10.1035 286.991 -2.3858 268.255 0.414246C247.282 3.54755 232.896 19.9516 232.67 41.6236C232.43 64.4489 232.328 87.2836 232.807 110.101C232.935 116.202 233.791 123.417 237.148 128.078C243.404 136.761 243.066 145.914 242.988 155.45C242.939 161.748 242.979 168.045 242.979 174.342V191.498C219.326 191.498 196.516 191.553 173.71 191.369C172.259 191.357 170.654 189.652 169.41 188.437C164.843 183.984 160.299 179.497 155.962 174.824C154.451 173.194 152.627 171.02 152.552 169.033C152.195 159.601 152.304 150.146 152.471 140.704C152.503 138.888 153.088 136.748 154.171 135.334C170.574 113.952 161.291 85.5889 139.788 74.5649C130.314 69.7076 123.09 62.0956 117.958 52.7742C116.992 51.0196 117.45 48.1916 117.908 45.9969C119.172 39.9435 122.172 33.9169 121.972 27.9649C121.544 15.1503 112.471 4.84753 100.486 1.28619C88.5671 -2.25647 76.1311 1.64624 68.1724 11.4262C60.2991 21.1009 59.2177 34.1116 65.8671 45.5716C67.6657 48.6716 67.3004 50.7889 65.6057 53.4996C59.6311 63.0582 51.6137 70.2462 41.8471 75.8996C22.8191 86.9129 15.1311 109.95 25.7244 128.16C30.7577 136.813 31.7311 145.125 31.4817 154.337C31.3537 159.056 31.2471 163.794 31.5297 168.501C31.7337 171.902 30.4671 173.537 27.4564 175.186C17.4404 180.67 11.4711 189.202 11.4111 200.838C11.2351 235.078 11.2604 269.32 11.4057 303.56C11.4537 314.996 17.2537 323.502 27.0311 328.84C30.8751 330.937 31.5311 333.254 31.5257 337.077C31.4311 397.098 31.4591 457.118 31.4591 517.138V523.34C30.3257 523.78 29.8124 524.093 29.2644 524.177C10.8031 527.013 1.03505 538.416 0.996386 557.222C0.98172 564.504 1.37639 571.809 0.908394 579.06C0.117727 591.309 4.73506 599.989 16.2417 604.724H420.104C423.216 602.474 426.798 600.66 429.35 597.893C436.672 589.957 436.683 559.653 429.716 551.356C424.687 545.366 418.004 544.172 410.602 544.181C336.216 544.265 261.83 544.205 187.444 544.301C183.179 544.308 180.444 543.644 178.248 539.245C174.168 531.073 166.886 526.008 157.907 524.738C153.102 524.06 152.304 522.285 152.318 518.064C152.443 479.1 152.391 440.136 152.391 401.17C152.391 379.525 152.318 357.877 152.507 336.232C152.526 334.098 153.562 330.873 155.132 330.028C167.6 323.317 172.931 312.902 172.644 299.058C172.467 290.448 172.612 281.83 172.612 272.648C179.183 272.648 185.054 272.712 190.922 272.633C201.091 272.497 210.871 269.58 215.923 260.729C220.551 252.621 226.403 251.768 234.123 252.429C238.42 252.797 242.776 252.494 247.106 252.494H263.062L271.667 252.237C267.092 256.477 263.883 262.062 262.674 268.109C255.671 269.806 249.294 273.925 244.927 279.64C241.123 284.605 239.159 290.484 239.292 296.388C235.604 298.757 232.366 301.869 229.848 305.478C227.202 309.273 228.144 314.185 232.04 316.905C235.9 319.596 240.798 318.774 243.442 314.99C246.728 310.284 252.804 307.298 258.184 307.756C261.13 308 263.748 306.785 265.382 304.426C267.147 301.878 267.438 298.433 266.124 295.654C264.908 293.081 262.503 291.465 259.528 291.222C258.752 291.157 257.966 291.125 257.176 291.124C257.502 290.545 257.827 290.077 258.086 289.738C259.814 287.478 262.326 285.688 265.078 284.702C265.62 285.696 266.207 286.606 266.851 287.449C269.658 291.122 274.619 291.721 278.387 288.84C281.644 286.352 283.248 281.614 280.011 277.372C278.698 275.653 278.303 273.596 278.835 271.264C279.651 267.697 282.595 264.001 285.994 262.276C289.114 260.693 292.596 260.3 295.551 261.097C295.478 261.229 295.403 261.364 295.331 261.498C293.938 264.122 294.018 267.028 295.548 269.472C297.195 272.101 300.256 273.762 303.299 273.613C306.138 273.509 308.568 271.937 309.96 269.306C311.059 267.246 312.743 265.848 314.831 265.261C315.995 264.933 317.255 264.868 318.528 265.065C317.776 266.032 317.095 267.034 316.486 268.069C314.138 272.057 315.438 276.882 319.511 279.292C323.56 281.685 328.395 280.493 330.759 276.518C333.198 272.416 338.894 269.494 344.044 269.625C346.551 269.709 349.94 270.597 351.846 274.349C353.158 276.94 353.066 279.658 351.568 282.426C349.451 286.338 344.762 289.524 340.416 290.004C336.807 290.401 333.603 293.534 333.123 297.138C332.882 298.957 331.903 300.586 330.371 301.721C329.382 302.453 328.232 302.913 327.051 303.07C326.239 300.336 324.982 297.826 323.351 295.712C321.546 293.369 318.872 292.242 316.035 292.63C312.966 293.041 310.231 295.141 309.066 297.977C307.982 300.609 308.411 303.476 310.238 305.845C313.498 310.068 310.468 316.245 307.027 319.082C304.11 321.492 303.2 325.857 304.915 329.233L324.942 368.72C326.079 370.962 325.188 373.708 322.955 374.84C321.882 375.382 320.652 375.478 319.495 375.1C318.336 374.718 317.395 373.912 316.846 372.828C316.846 372.828 299.526 338.678 299.399 338.429C297.435 334.558 292.124 332.814 288.258 334.778C286.571 335.633 284.65 335.778 282.839 335.185C281.03 334.59 279.558 333.329 278.696 331.632C277.996 330.249 277.763 328.425 278.088 326.869C279.03 322.361 276.224 318.228 271.56 317.25C267.566 316.418 262.951 318.273 261.867 323.444C261.372 325.798 261.271 328.273 261.56 330.828C258.219 332.762 254.2 333.57 250.49 333C246.231 332.346 242.696 329.645 241.482 326.117C240.522 323.326 238.352 321.412 235.527 320.865C232.486 320.274 229.208 321.392 227.196 323.713C225.338 325.86 224.835 328.713 225.82 331.538C229.096 340.952 237.591 347.794 247.991 349.397C248.787 349.518 249.618 349.606 250.526 349.664C251.786 352.765 253.087 355.888 254.406 358.977C259.18 370.156 264.215 380.977 269.371 391.141C280.256 412.604 292.803 433.693 306.659 453.825C317.095 468.988 328.064 483.357 339.263 496.537C340.794 499.505 348.414 513.352 357.322 513.35C358.63 513.35 359.967 513.053 361.315 512.377L392.132 496.94C392.662 496.672 393.15 496.358 393.59 496.008L433.926 475.55C435.796 474.876 437.232 473.524 438.088 471.624C441.162 464.812 435.806 451.593 434.4 448.361C433.57 444.925 432.694 441.5 431.795 438.081L468.284 415.696L468.698 415.424C473.71 411.996 477.088 406.818 478.21 400.849C479.33 394.878 478.058 388.83 474.627 383.818Z" fill="white"/>
<mask id="mask0_1_295" style="mask-type:luminance" maskUnits="userSpaceOnUse" x="317" y="381" width="83" height="69">
<mask id="mask1_1_295" style="mask-type:luminance" maskUnits="userSpaceOnUse" x="317" y="381" width="83" height="69">
<path d="M399.169 419.018L381.882 381.946L317.84 411.81L335.127 448.881L399.169 419.018Z" fill="white" stroke="white"/>
</mask>
<g mask="url(#mask1_1_295)">
<path d="M399.17 419.019L381.881 381.943L317.841 411.805L335.13 448.881L399.17 419.019Z" fill="#F2AF43" stroke="black"/>
<mask id="mask2_1_295" style="mask-type:luminance" maskUnits="userSpaceOnUse" x="317" y="381" width="83" height="69">
<path d="M399.169 419.018L381.88 381.943L317.839 411.806L335.127 448.881L399.169 419.018Z" fill="white" stroke="white"/>
</mask>
<g mask="url(#mask2_1_295)">
<path d="M337.207 427.76C336.741 427.122 336.156 426.607 335.605 426.402C335.307 426.295 334.888 426.192 334.554 426.12C334.613 427.168 334.761 428.502 335.723 429.666C336.697 430.831 337.672 432 338.649 433.173C339.177 432.719 339.824 432.172 340.322 431.762C339.285 430.428 338.25 429.098 337.216 427.772L337.212 427.766L337.207 427.76Z" fill="#F2AF43" stroke="black"/>
<path d="M350.14 424.614C349.627 424.941 348.94 425.384 348.371 425.764C347.762 424.807 347.154 423.851 346.546 422.895C346.258 422.443 345.97 421.991 345.683 421.539C345.1 420.612 344.974 419.981 344.878 419.317L350.14 424.614ZM350.14 424.614C349.222 423.086 348.304 421.559 347.387 420.032L347.387 420.032L347.382 420.024C346.975 419.314 346.423 418.689 345.873 418.385C345.575 418.223 345.16 418.048 344.826 417.917C344.805 418.348 344.812 418.858 344.878 419.317L350.14 424.614ZM351.878 425.655C351.875 425.65 351.872 425.645 351.869 425.64L351.791 425.689C351.066 426.138 350.059 426.785 349.332 427.27C349.332 427.27 349.332 427.27 349.333 427.271C350.26 426.652 351.006 426.192 351.734 425.744C351.782 425.714 351.83 425.685 351.878 425.655Z" fill="#F2AF43" stroke="black"/>
<path d="M362.935 410.277C361.975 410.427 360.987 410.424 360.069 410.422C359.888 410.422 359.71 410.421 359.535 410.422C358.172 410.428 357.031 410.505 356.164 411.016L353.84 417.042L357.064 423.927C357.064 423.927 357.064 423.927 357.064 423.927C358.214 426.381 359.929 427.321 361.633 427.544C363.297 427.762 364.993 427.299 366.188 426.766L367.734 423.414C366.178 424.299 364.767 424.685 363.581 424.687C362.031 424.691 360.823 424.029 360.312 422.939L360.312 422.938L356.355 414.489L356.185 414.125L356.504 413.88C356.895 413.58 357.369 413.492 357.813 413.475C358.208 413.46 358.643 413.499 359.054 413.536C359.102 413.541 359.15 413.545 359.198 413.55C360.097 413.63 360.896 413.666 361.546 413.341L362.935 410.277Z" fill="#F2AF43" stroke="black"/>
<path d="M370.655 414.931C371.149 414.766 371.666 414.594 372.102 414.458C371.919 413.884 371.735 413.31 371.552 412.736C371.234 411.741 370.916 410.746 370.598 409.751L370.598 409.751L370.596 409.745C370.361 408.975 369.955 408.216 369.45 407.735C369.171 407.471 368.762 407.145 368.446 406.908C368.326 407.272 368.216 407.703 368.177 408.108L368.177 408.111C368.113 408.738 368.083 409.34 368.448 410.382L370.14 415.102C370.306 415.047 370.479 414.989 370.655 414.931ZM373.213 416C372.449 416.216 371.483 416.536 370.741 416.788C370.743 416.793 370.745 416.798 370.747 416.803C371.505 416.546 372.447 416.236 373.213 416Z" fill="#F2AF43" stroke="black"/>
<path d="M382.594 411.867C383.094 411.77 383.629 411.666 384.081 411.587C383.802 410.107 383.524 408.63 383.248 407.157L383.248 407.157L383.247 407.151C383.112 406.388 382.812 405.617 382.362 405.078L382.361 405.077C382.111 404.775 381.722 404.385 381.427 404.099C381.256 404.423 381.085 404.809 380.986 405.182C380.837 405.753 380.726 406.307 380.953 407.341C381.092 407.952 381.231 408.562 381.37 409.174C381.583 410.108 381.796 411.044 382.009 411.98C382.193 411.945 382.39 411.906 382.594 411.867Z" fill="#F2AF43" stroke="black"/>
<path d="M389.254 418.967C389.305 418.958 389.361 418.947 389.423 418.936C389.567 418.909 389.74 418.876 389.924 418.84C389.873 418.836 389.823 418.833 389.776 418.83C389.666 418.823 389.572 418.82 389.502 418.819C389.437 418.819 389.412 418.821 389.412 418.821C389.412 418.821 389.413 418.821 389.414 418.82C385.47 419.539 381.523 420.46 377.731 421.676C382.711 420.253 385.22 419.732 389.254 418.968L389.254 418.967ZM389.419 418.819L389.418 418.819L389.419 418.819Z" fill="#F2AF43" stroke="black"/>
<path d="M351.071 434.108C347.702 436.231 344.459 438.662 341.374 441.222C341.375 441.221 341.375 441.221 341.375 441.221C341.376 441.221 341.357 441.239 341.317 441.289C341.272 441.343 341.214 441.417 341.148 441.505C341.12 441.543 341.091 441.584 341.061 441.626C341.207 441.508 341.343 441.396 341.457 441.303C341.505 441.263 341.549 441.227 341.589 441.194L351.071 434.108ZM351.071 434.108C346.78 437.008 344.768 438.595 341.589 441.194L351.071 434.108ZM353.37 433.173C347.63 436.975 345.534 438.615 341.905 441.581L353.37 433.173ZM353.37 433.173C353.596 433.024 353.842 432.788 353.709 432.501L353.37 433.173Z" fill="#F2AF43" stroke="black"/>
</g>
</g>
</mask>
<g mask="url(#mask0_1_295)">
<mask id="mask3_1_295" style="mask-type:luminance" maskUnits="userSpaceOnUse" x="317" y="381" width="83" height="69">
<path d="M399.169 419.018L381.882 381.946L317.84 411.81L335.127 448.881L399.169 419.018Z" fill="white" stroke="white"/>
</mask>
<g mask="url(#mask3_1_295)">
<mask id="path-13-inside-1_1_295" fill="white">
<path d="M323.806 420.985C323.459 420.928 323.11 420.872 322.763 420.816C321.755 419.571 320.751 418.33 319.755 417.094C320.345 416.527 321.608 415.395 322.13 414.917C322.608 415.545 323.087 416.172 323.568 416.801C323.906 416.496 324.347 416.133 324.752 415.779C324.277 415.136 323.804 414.493 323.332 413.851C323.937 413.313 325.108 412.329 325.749 411.791C326.216 412.45 326.685 413.11 327.155 413.77C327.613 413.384 328.119 412.998 328.363 412.8C327.899 412.127 327.436 411.455 326.972 410.784C327.32 410.491 328.605 409.46 329.427 408.826C330.338 410.207 331.252 411.591 332.171 412.976C332.147 413.386 332.124 413.795 332.098 414.205C330.544 415.357 328.213 417.222 326.653 418.518C326.708 418.594 326.763 418.67 326.819 418.746C328.716 417.431 330.605 416.113 332.487 414.792C333.678 416.565 334.878 418.341 336.083 420.119C336.212 420.029 336.346 419.929 336.49 419.824C336.141 419.303 335.792 418.781 335.444 418.261C336.281 417.643 337.067 417.091 337.789 416.582C338.13 417.113 338.471 417.644 338.812 418.175C338.943 418.083 339.074 417.996 339.204 417.905C337.915 415.881 336.632 413.859 335.356 411.84C334.985 411.704 334.615 411.567 334.245 411.43C333.349 410.023 332.455 408.616 331.566 407.211C332.17 406.758 333.558 405.774 334.101 405.396C334.543 406.123 334.985 406.849 335.428 407.576C335.675 407.407 336.213 407.048 336.691 406.729C336.254 405.992 335.817 405.256 335.381 404.52C335.954 404.12 337.313 403.244 337.964 402.828C338.389 403.579 338.815 404.33 339.242 405.081C339.716 404.775 340.302 404.443 340.533 404.286C340.112 403.529 339.692 402.772 339.273 402.015C339.374 401.945 340.686 401.152 341.907 400.45C342.709 401.959 343.512 403.469 344.317 404.979C344.265 405.4 344.214 405.821 344.162 406.242C342.674 407.046 338.947 409.404 338.358 409.795C338.407 409.877 338.456 409.96 338.505 410.043C340.503 408.984 342.499 407.928 344.494 406.873C345.53 408.795 346.569 410.719 347.609 412.642C347.745 412.557 347.893 412.477 348.051 412.39C347.75 411.828 347.45 411.267 347.149 410.705C347.422 410.539 348.974 409.692 349.643 409.344C349.935 409.914 350.227 410.485 350.518 411.055C350.669 410.977 350.815 410.899 350.956 410.822C349.854 408.651 348.752 406.481 347.651 404.31C347.281 404.121 346.911 403.932 346.542 403.744C345.761 402.216 344.983 400.688 344.205 399.16C345.438 398.49 346.794 397.802 346.903 397.752C347.289 398.541 347.676 399.333 348.062 400.122C348.314 399.998 349.01 399.649 349.415 399.46C349.036 398.666 348.658 397.871 348.281 397.077C349.032 396.708 350.482 396.033 351.041 395.791C351.404 396.591 351.768 397.392 352.131 398.193C352.643 397.959 353.312 397.669 353.511 397.581C353.155 396.778 352.798 395.973 352.441 395.17C353.003 394.913 354.572 394.285 355.256 394.011C355.924 395.589 356.593 397.168 357.261 398.749C357.175 399.152 357.089 399.557 357.003 399.961C355.236 400.663 352.597 401.859 350.829 402.718C350.869 402.804 350.909 402.891 350.949 402.977C353.057 402.191 355.168 401.408 357.282 400.623C358.143 402.64 359.003 404.656 359.862 406.673C360.007 406.611 360.156 406.553 360.308 406.49C360.058 405.901 359.808 405.31 359.558 404.721C360.255 404.431 361.901 403.787 362.206 403.684C362.441 404.276 362.676 404.868 362.911 405.46C363.074 405.397 363.228 405.337 363.371 405.286C362.484 403.043 361.594 400.802 360.703 398.562C360.344 398.322 359.985 398.082 359.626 397.841C358.986 396.253 358.345 394.668 357.704 393.084C359.028 392.597 360.478 392.104 360.598 392.071C360.907 392.879 361.215 393.688 361.523 394.498C361.796 394.417 362.424 394.186 362.964 394.019C362.663 393.21 362.36 392.401 362.059 391.592C362.796 391.36 364.34 390.884 365.017 390.701C365.3 391.508 365.584 392.316 365.867 393.123C366.42 392.963 367.039 392.781 367.329 392.7C367.055 391.894 366.782 391.088 366.509 390.284C367.147 390.11 368.795 389.679 369.53 389.508C370.034 391.093 370.536 392.682 371.039 394.273C370.906 394.644 370.772 395.016 370.638 395.388C368.841 395.859 365.849 396.746 364.062 397.351C364.095 397.441 364.127 397.531 364.16 397.62C366.386 397.106 368.617 396.587 370.851 396.062C371.507 398.114 372.16 400.171 372.812 402.234C372.964 402.191 373.117 402.154 373.277 402.112C373.089 401.506 372.902 400.901 372.716 400.296C373.569 400.066 374.497 399.819 375.509 399.578C375.683 400.18 375.859 400.782 376.033 401.385C376.205 401.345 376.37 401.302 376.525 401.261C375.881 398.999 375.234 396.745 374.586 394.499C374.246 394.224 373.907 393.949 373.567 393.672C373.096 392.078 372.625 390.488 372.152 388.903C373.166 388.681 374.779 388.36 375.231 388.281C375.448 389.067 375.665 389.854 375.882 390.642C376.188 390.584 376.81 390.443 377.401 390.34C377.197 389.556 376.993 388.773 376.789 387.991C377.608 387.848 379.12 387.581 379.92 387.464C380.108 388.238 380.295 389.014 380.483 389.791C381.013 389.709 381.577 389.604 382.026 389.542C381.854 388.768 381.683 387.998 381.511 387.228C382.21 387.134 383.89 386.896 384.701 386.809C385.008 388.367 385.313 389.933 385.619 391.506C385.441 391.803 385.262 392.102 385.085 392.4C383.177 392.668 379.767 393.296 378.131 393.635C378.154 393.723 378.175 393.811 378.198 393.9C380.534 393.641 382.874 393.368 385.217 393.076L389.925 423.838L389.928 423.845C372.967 427.481 357.797 434.773 344.868 444.891L344.866 444.887L323.806 420.985Z"/>
</mask>
<path d="M323.806 420.985C323.459 420.928 323.11 420.872 322.763 420.816C321.755 419.571 320.751 418.33 319.755 417.094C320.345 416.527 321.608 415.395 322.13 414.917C322.608 415.545 323.087 416.172 323.568 416.801C323.906 416.496 324.347 416.133 324.752 415.779C324.277 415.136 323.804 414.493 323.332 413.851C323.937 413.313 325.108 412.329 325.749 411.791C326.216 412.45 326.685 413.11 327.155 413.77C327.613 413.384 328.119 412.998 328.363 412.8C327.899 412.127 327.436 411.455 326.972 410.784C327.32 410.491 328.605 409.46 329.427 408.826C330.338 410.207 331.252 411.591 332.171 412.976C332.147 413.386 332.124 413.795 332.098 414.205C330.544 415.357 328.213 417.222 326.653 418.518C326.708 418.594 326.763 418.67 326.819 418.746C328.716 417.431 330.605 416.113 332.487 414.792C333.678 416.565 334.878 418.341 336.083 420.119C336.212 420.029 336.346 419.929 336.49 419.824C336.141 419.303 335.792 418.781 335.444 418.261C336.281 417.643 337.067 417.091 337.789 416.582C338.13 417.113 338.471 417.644 338.812 418.175C338.943 418.083 339.074 417.996 339.204 417.905C337.915 415.881 336.632 413.859 335.356 411.84C334.985 411.704 334.615 411.567 334.245 411.43C333.349 410.023 332.455 408.616 331.566 407.211C332.17 406.758 333.558 405.774 334.101 405.396C334.543 406.123 334.985 406.849 335.428 407.576C335.675 407.407 336.213 407.048 336.691 406.729C336.254 405.992 335.817 405.256 335.381 404.52C335.954 404.12 337.313 403.244 337.964 402.828C338.389 403.579 338.815 404.33 339.242 405.081C339.716 404.775 340.302 404.443 340.533 404.286C340.112 403.529 339.692 402.772 339.273 402.015C339.374 401.945 340.686 401.152 341.907 400.45C342.709 401.959 343.512 403.469 344.317 404.979C344.265 405.4 344.214 405.821 344.162 406.242C342.674 407.046 338.947 409.404 338.358 409.795C338.407 409.877 338.456 409.96 338.505 410.043C340.503 408.984 342.499 407.928 344.494 406.873C345.53 408.795 346.569 410.719 347.609 412.642C347.745 412.557 347.893 412.477 348.051 412.39C347.75 411.828 347.45 411.267 347.149 410.705C347.422 410.539 348.974 409.692 349.643 409.344C349.935 409.914 350.227 410.485 350.518 411.055C350.669 410.977 350.815 410.899 350.956 410.822C349.854 408.651 348.752 406.481 347.651 404.31C347.281 404.121 346.911 403.932 346.542 403.744C345.761 402.216 344.983 400.688 344.205 399.16C345.438 398.49 346.794 397.802 346.903 397.752C347.289 398.541 347.676 399.333 348.062 400.122C348.314 399.998 349.01 399.649 349.415 399.46C349.036 398.666 348.658 397.871 348.281 397.077C349.032 396.708 350.482 396.033 351.041 395.791C351.404 396.591 351.768 397.392 352.131 398.193C352.643 397.959 353.312 397.669 353.511 397.581C353.155 396.778 352.798 395.973 352.441 395.17C353.003 394.913 354.572 394.285 355.256 394.011C355.924 395.589 356.593 397.168 357.261 398.749C357.175 399.152 357.089 399.557 357.003 399.961C355.236 400.663 352.597 401.859 350.829 402.718C350.869 402.804 350.909 402.891 350.949 402.977C353.057 402.191 355.168 401.408 357.282 400.623C358.143 402.64 359.003 404.656 359.862 406.673C360.007 406.611 360.156 406.553 360.308 406.49C360.058 405.901 359.808 405.31 359.558 404.721C360.255 404.431 361.901 403.787 362.206 403.684C362.441 404.276 362.676 404.868 362.911 405.46C363.074 405.397 363.228 405.337 363.371 405.286C362.484 403.043 361.594 400.802 360.703 398.562C360.344 398.322 359.985 398.082 359.626 397.841C358.986 396.253 358.345 394.668 357.704 393.084C359.028 392.597 360.478 392.104 360.598 392.071C360.907 392.879 361.215 393.688 361.523 394.498C361.796 394.417 362.424 394.186 362.964 394.019C362.663 393.21 362.36 392.401 362.059 391.592C362.796 391.36 364.34 390.884 365.017 390.701C365.3 391.508 365.584 392.316 365.867 393.123C366.42 392.963 367.039 392.781 367.329 392.7C367.055 391.894 366.782 391.088 366.509 390.284C367.147 390.11 368.795 389.679 369.53 389.508C370.034 391.093 370.536 392.682 371.039 394.273C370.906 394.644 370.772 395.016 370.638 395.388C368.841 395.859 365.849 396.746 364.062 397.351C364.095 397.441 364.127 397.531 364.16 397.62C366.386 397.106 368.617 396.587 370.851 396.062C371.507 398.114 372.16 400.171 372.812 402.234C372.964 402.191 373.117 402.154 373.277 402.112C373.089 401.506 372.902 400.901 372.716 400.296C373.569 400.066 374.497 399.819 375.509 399.578C375.683 400.18 375.859 400.782 376.033 401.385C376.205 401.345 376.37 401.302 376.525 401.261C375.881 398.999 375.234 396.745 374.586 394.499C374.246 394.224 373.907 393.949 373.567 393.672C373.096 392.078 372.625 390.488 372.152 388.903C373.166 388.681 374.779 388.36 375.231 388.281C375.448 389.067 375.665 389.854 375.882 390.642C376.188 390.584 376.81 390.443 377.401 390.34C377.197 389.556 376.993 388.773 376.789 387.991C377.608 387.848 379.12 387.581 379.92 387.464C380.108 388.238 380.295 389.014 380.483 389.791C381.013 389.709 381.577 389.604 382.026 389.542C381.854 388.768 381.683 387.998 381.511 387.228C382.21 387.134 383.89 386.896 384.701 386.809C385.008 388.367 385.313 389.933 385.619 391.506C385.441 391.803 385.262 392.102 385.085 392.4C383.177 392.668 379.767 393.296 378.131 393.635C378.154 393.723 378.175 393.811 378.198 393.9C380.534 393.641 382.874 393.368 385.217 393.076L389.925 423.838L389.928 423.845C372.967 427.481 357.797 434.773 344.868 444.891L344.866 444.887L323.806 420.985Z" fill="#FFAF01" stroke="black" stroke-opacity="0.2" stroke-width="2" mask="url(#path-13-inside-1_1_295)"/>
</g>
</g>
</svg>
