<svg width="75" height="75" viewBox="0 0 75 75" fill="none" xmlns="http://www.w3.org/2000/svg">
<path d="M37.5 0C47.4456 0 56.9839 3.95088 64.0165 10.9835C71.0491 18.0161 75 27.5544 75 37.5C75 47.4456 71.0491 56.9839 64.0165 64.0165C56.9839 71.0491 47.4456 75 37.5 75C27.5544 75 18.0161 71.0491 10.9835 64.0165C3.95088 56.9839 0 47.4456 0 37.5C0 27.5544 3.95088 18.0161 10.9835 10.9835C18.0161 3.95088 27.5544 0 37.5 0ZM7.03125 37.5C7.03125 45.5808 10.2413 53.3307 15.9553 59.0447C21.6693 64.7587 29.4192 67.9688 37.5 67.9688C45.5808 67.9688 53.3307 64.7587 59.0447 59.0447C64.7587 53.3307 67.9688 45.5808 67.9688 37.5C67.9688 29.4192 64.7587 21.6693 59.0447 15.9553C53.3307 10.2413 45.5808 7.03125 37.5 7.03125C29.4192 7.03125 21.6693 10.2413 15.9553 15.9553C10.2413 21.6693 7.03125 29.4192 7.03125 37.5ZM29.9016 24.5016L49.8891 36.4969C50.0618 36.6012 50.2047 36.7484 50.3038 36.9241C50.403 37.0998 50.4551 37.2982 50.4551 37.5C50.4551 37.7018 50.403 37.9002 50.3038 38.0759C50.2047 38.2516 50.0618 38.3988 49.8891 38.5031L29.9016 50.4984C29.7238 50.6055 29.5208 50.6635 29.3134 50.6664C29.1059 50.6693 28.9014 50.6171 28.7207 50.5151C28.54 50.413 28.3897 50.2649 28.285 50.0857C28.1803 49.9066 28.1251 49.7028 28.125 49.4953V25.5094C28.1243 25.3015 28.1789 25.0971 28.2832 24.9173C28.3875 24.7375 28.5378 24.5887 28.7186 24.4861C28.8995 24.3835 29.1043 24.3309 29.3122 24.3336C29.5201 24.3363 29.7235 24.3943 29.9016 24.5016Z" fill="white"/>
</svg>
