<svg width="605" height="599" viewBox="0 0 605 599" fill="none" xmlns="http://www.w3.org/2000/svg">
<path d="M484.34 382.213C484.34 382.543 484.352 382.799 484.38 382.989C484.4 383.186 484.452 383.321 484.531 383.419C484.608 383.511 484.726 383.575 484.874 383.595C485.024 383.615 485.223 383.627 485.47 383.627C485.868 383.627 486.154 383.525 486.33 383.339C486.51 383.135 486.594 382.835 486.594 382.427C486.594 382.13 486.55 381.898 486.458 381.715C486.364 381.529 486.238 381.386 486.086 381.29C485.928 381.187 485.747 381.114 485.534 381.077C485.319 381.038 485.098 381.017 484.856 381.017H484.667C484.538 381.017 484.448 381.058 484.408 381.135C484.363 381.21 484.34 381.311 484.34 381.425V382.213ZM484.34 380.403C484.34 380.461 484.359 380.515 484.399 380.565C484.434 380.611 484.494 380.637 484.583 380.637H484.77C484.986 380.637 485.187 380.617 485.367 380.586C485.55 380.559 485.708 380.49 485.842 380.403C485.976 380.319 486.075 380.189 486.152 380.039C486.227 379.883 486.266 379.682 486.266 379.438C486.266 379.021 486.152 378.719 485.927 378.545C485.694 378.369 485.367 378.285 484.939 378.285H484.603C484.474 378.285 484.4 378.311 484.38 378.374C484.352 378.434 484.34 378.545 484.34 378.694V380.403ZM483.26 379.447C483.26 379.314 483.258 379.186 483.244 379.061C483.238 378.938 483.212 378.811 483.18 378.699C483.148 378.594 483.102 378.501 483.028 378.423C482.956 378.353 482.863 378.294 482.744 378.265C482.667 378.247 482.592 378.234 482.512 378.222C482.436 378.214 482.356 378.202 482.288 378.194C482.246 378.194 482.211 378.175 482.198 378.145C482.172 378.118 482.166 378.085 482.166 378.043C482.166 378.005 482.172 377.973 482.198 377.943C482.211 377.914 482.246 377.895 482.288 377.895C482.51 377.895 482.711 377.906 482.892 377.915C483.078 377.935 483.282 377.939 483.516 377.939C483.618 377.939 483.731 377.937 483.85 377.935C483.972 377.933 484.098 377.927 484.228 377.915C484.355 377.911 484.482 377.91 484.608 377.906C484.728 377.901 484.835 377.895 484.939 377.895C485.198 377.895 485.467 377.918 485.751 377.961C486.036 377.995 486.302 378.07 486.538 378.185C486.78 378.291 486.978 378.434 487.136 378.629C487.292 378.819 487.371 379.067 487.371 379.363C487.371 379.55 487.34 379.714 487.274 379.851C487.212 379.987 487.126 380.106 487.02 380.209C486.912 380.319 486.792 380.405 486.646 380.478C486.498 380.559 486.343 380.615 486.188 380.67C486.134 380.691 486.114 380.715 486.116 380.742C486.122 380.771 486.148 380.794 486.188 380.807C486.444 380.874 486.674 380.965 486.876 381.059C487.08 381.151 487.251 381.258 487.39 381.381C487.526 381.506 487.631 381.663 487.706 381.834C487.778 382.002 487.815 382.203 487.815 382.442C487.815 382.758 487.755 383.017 487.631 383.227C487.51 383.423 487.348 383.593 487.14 383.702C486.932 383.825 486.703 383.907 486.439 383.954C486.179 384.003 485.914 384.026 485.632 384.026C485.504 384.026 485.364 384.025 485.214 384.017C485.059 384.014 484.896 384.009 484.728 384.006C484.567 384.003 484.399 383.999 484.228 383.995C484.063 383.991 483.904 383.989 483.755 383.989C483.618 383.989 483.492 383.989 483.375 383.991C483.268 383.994 483.16 383.998 483.062 384.003C482.955 384.006 482.847 384.014 482.742 384.022C482.627 384.031 482.503 384.041 482.364 384.054C482.318 384.061 482.282 384.05 482.258 384.017C482.231 383.994 482.211 383.954 482.208 383.915C482.206 383.882 482.218 383.847 482.243 383.815C482.266 383.767 482.302 383.75 482.354 383.745C482.512 383.733 482.648 383.699 482.77 383.67C482.887 383.645 482.979 383.598 483.058 383.529C483.126 383.467 483.175 383.39 483.21 383.294C483.242 383.206 483.26 383.075 483.26 382.914V379.447Z" fill="#F2A92D"/>
<path d="M495.491 377.927C495.547 377.927 495.596 377.935 495.647 377.944C495.696 377.961 495.714 378.001 495.702 378.088C495.687 378.16 495.683 378.236 495.683 378.313V378.568C495.683 378.843 495.69 379.096 495.711 379.327C495.711 379.355 495.696 379.369 495.666 379.381C495.639 379.393 495.602 379.404 495.56 379.404C495.523 379.409 495.484 379.404 495.451 379.393C495.411 379.387 495.388 379.364 495.382 379.327C495.339 379.096 495.291 378.915 495.246 378.772C495.198 378.643 495.134 378.539 495.052 378.475C494.97 378.404 494.852 378.363 494.712 378.351C494.57 378.331 494.386 378.311 494.152 378.308H493.555C493.388 378.308 493.25 378.311 493.148 378.313C493.046 378.325 492.964 378.351 492.902 378.385C492.843 378.423 492.806 378.485 492.784 378.568C492.766 378.648 492.754 378.771 492.754 378.928V380.499C492.754 380.585 492.771 380.636 492.806 380.659C492.838 380.684 492.868 380.689 492.902 380.689C493.207 380.689 493.444 380.681 493.624 380.653C493.798 380.628 493.93 380.585 494.023 380.521C494.108 380.461 494.166 380.377 494.198 380.276C494.23 380.173 494.254 380.041 494.274 379.875C494.278 379.843 494.299 379.815 494.332 379.797C494.366 379.78 494.404 379.771 494.442 379.771C494.482 379.771 494.516 379.78 494.552 379.797C494.583 379.815 494.603 379.843 494.603 379.875C494.603 379.971 494.598 380.063 494.591 380.128L494.568 380.364C494.564 380.441 494.556 380.513 494.552 380.591C494.544 380.677 494.538 380.768 494.538 380.875C494.538 381.063 494.552 381.225 494.568 381.368C494.591 381.515 494.603 381.701 494.603 381.912C494.603 381.937 494.583 381.963 494.552 381.979C494.516 381.992 494.482 381.993 494.442 381.993C494.404 381.992 494.366 381.984 494.332 381.968C494.299 381.956 494.278 381.931 494.274 381.893C494.254 381.715 494.23 381.573 494.198 381.465C494.166 381.355 494.108 381.275 494.023 381.217C493.93 381.165 493.798 381.125 493.624 381.105C493.444 381.081 493.207 381.073 492.902 381.073C492.868 381.073 492.838 381.081 492.806 381.105C492.771 381.125 492.754 381.171 492.754 381.235V382.413C492.754 382.617 492.771 382.772 492.796 382.911C492.828 383.049 492.872 383.161 492.931 383.245C492.994 383.341 493.066 383.397 493.152 383.452C493.236 383.505 493.34 383.533 493.456 383.572C493.551 383.587 493.651 383.599 493.772 383.605C493.887 383.612 494.008 383.616 494.135 383.616C494.294 383.616 494.442 383.612 494.58 383.604C494.723 383.592 494.823 383.575 494.898 383.543C495.027 383.508 495.143 383.459 495.239 383.416C495.336 383.367 495.416 383.301 495.484 383.224C495.55 383.144 495.604 383.049 495.647 382.928C495.687 382.812 495.722 382.663 495.751 382.483C495.756 382.443 495.78 382.416 495.822 382.403C495.86 382.396 495.904 382.391 495.951 382.391C495.995 382.391 496.036 382.399 496.07 382.413C496.108 382.433 496.124 382.457 496.118 382.488C496.083 382.743 496.056 382.98 496.031 383.209C496.003 383.419 495.992 383.641 495.999 383.873C495.999 383.892 495.988 383.915 495.962 383.951C495.935 383.988 495.872 384.003 495.77 384.003H492.168C491.919 384.003 491.671 384.005 491.432 384.017C491.186 384.031 490.972 384.04 490.779 384.055C490.726 384.055 490.686 384.04 490.659 384.015C490.632 383.991 490.618 383.953 490.614 383.913C490.606 383.873 490.614 383.841 490.639 383.811C490.666 383.768 490.708 383.751 490.77 383.744C490.926 383.733 491.064 383.699 491.174 383.667C491.287 383.631 491.378 383.592 491.452 383.525C491.527 383.461 491.582 383.381 491.619 383.287C491.654 383.191 491.671 383.067 491.671 382.915V379.439C491.671 379.307 491.671 379.179 491.656 379.055C491.648 378.928 491.626 378.803 491.598 378.693C491.563 378.585 491.508 378.495 491.438 378.417C491.368 378.345 491.276 378.288 491.159 378.256C491.086 378.24 491.008 378.224 490.926 378.216C490.847 378.203 490.776 378.191 490.699 378.185C490.659 378.185 490.628 378.167 490.614 378.139C490.591 378.107 490.584 378.071 490.584 378.033C490.584 377.996 490.591 377.967 490.614 377.94C490.628 377.907 490.659 377.888 490.699 377.888C490.924 377.888 491.126 377.892 491.303 377.911C491.484 377.924 491.694 377.927 491.934 377.927H495.491Z" fill="#F2A92D"/>
<path d="M297.903 416.348C296.322 415.037 295.451 413.4 295.451 411.741V381.752C296.89 381.704 298.634 382.676 300.446 383.681C302.903 385.045 305.684 386.59 308.782 386.302L308.982 386.282L320.134 377.228L318.627 377.016C315.243 376.541 311.948 375.066 308.762 373.64C304.472 371.718 300.422 369.905 296.332 370.481L296.13 370.509L281.696 383.662V410.428C281.696 417.553 284.522 422.881 290.094 426.265C295.514 429.554 301.918 429.91 304.419 429.91H304.652L319.136 418.312L316.528 418.802C308.412 420.329 301.624 419.436 297.903 416.348Z" fill="white"/>
<path d="M495.491 98.8512C495.547 98.8512 495.596 98.8592 495.647 98.8685C495.696 98.8859 495.714 98.9259 495.702 99.0125C495.687 99.0845 495.683 99.1605 495.683 99.2392V99.4925C495.683 99.7672 495.69 100.021 495.711 100.251C495.711 100.279 495.696 100.294 495.666 100.306C495.639 100.319 495.602 100.329 495.56 100.329C495.523 100.334 495.484 100.329 495.451 100.319C495.411 100.311 495.388 100.289 495.382 100.251C495.339 100.021 495.291 99.8392 495.246 99.6965C495.198 99.5672 495.134 99.4632 495.052 99.3992C494.97 99.3285 494.852 99.2872 494.712 99.2752C494.57 99.2552 494.386 99.2352 494.152 99.2325H493.555C493.388 99.2325 493.25 99.2352 493.148 99.2392C493.046 99.2499 492.964 99.2752 492.902 99.3099C492.843 99.3472 492.806 99.4099 492.784 99.4925C492.766 99.5725 492.754 99.6952 492.754 99.8525V101.423C492.754 101.51 492.771 101.561 492.806 101.583C492.838 101.609 492.868 101.614 492.902 101.614C493.207 101.614 493.444 101.606 493.624 101.578C493.798 101.553 493.93 101.51 494.023 101.446C494.108 101.386 494.166 101.303 494.198 101.201C494.23 101.098 494.254 100.966 494.274 100.799C494.278 100.767 494.299 100.739 494.332 100.722C494.366 100.705 494.404 100.695 494.442 100.695C494.482 100.695 494.516 100.705 494.552 100.722C494.583 100.739 494.603 100.767 494.603 100.799C494.603 100.895 494.598 100.987 494.591 101.053L494.568 101.289C494.564 101.366 494.556 101.438 494.552 101.515C494.544 101.602 494.538 101.693 494.538 101.799C494.538 101.987 494.552 102.15 494.568 102.293C494.591 102.439 494.603 102.626 494.603 102.837C494.603 102.862 494.583 102.887 494.552 102.903C494.516 102.917 494.482 102.918 494.442 102.918C494.404 102.917 494.366 102.909 494.332 102.893C494.299 102.881 494.278 102.855 494.274 102.818C494.254 102.639 494.23 102.498 494.198 102.39C494.166 102.279 494.108 102.199 494.023 102.142C493.93 102.09 493.798 102.05 493.624 102.03C493.444 102.006 493.207 101.998 492.902 101.998C492.868 101.998 492.838 102.006 492.806 102.03C492.771 102.05 492.754 102.095 492.754 102.159V103.338C492.754 103.542 492.771 103.697 492.796 103.835C492.828 103.974 492.872 104.086 492.931 104.17C492.994 104.266 493.066 104.322 493.152 104.377C493.236 104.43 493.34 104.458 493.456 104.497C493.551 104.511 493.651 104.523 493.772 104.53C493.887 104.537 494.008 104.541 494.135 104.541C494.294 104.541 494.442 104.537 494.58 104.529C494.723 104.517 494.823 104.499 494.898 104.467C495.027 104.433 495.143 104.383 495.239 104.341C495.336 104.293 495.416 104.226 495.484 104.149C495.55 104.069 495.604 103.974 495.647 103.853C495.687 103.737 495.722 103.587 495.751 103.407C495.756 103.367 495.78 103.341 495.822 103.327C495.86 103.321 495.904 103.315 495.951 103.315C495.995 103.315 496.036 103.323 496.07 103.338C496.108 103.358 496.124 103.382 496.118 103.413C496.083 103.667 496.056 103.905 496.031 104.134C496.003 104.343 495.992 104.566 495.999 104.798C495.999 104.817 495.988 104.839 495.962 104.875C495.935 104.913 495.872 104.927 495.77 104.927H492.168C491.919 104.927 491.671 104.93 491.432 104.942C491.186 104.955 490.972 104.965 490.779 104.979C490.726 104.979 490.686 104.965 490.659 104.939C490.632 104.915 490.618 104.878 490.614 104.838C490.606 104.798 490.614 104.767 490.639 104.735C490.666 104.693 490.708 104.675 490.77 104.669C490.926 104.658 491.064 104.623 491.174 104.591C491.287 104.555 491.378 104.517 491.452 104.45C491.527 104.386 491.582 104.306 491.619 104.211C491.654 104.115 491.671 103.991 491.671 103.839V100.363C491.671 100.231 491.671 100.103 491.656 99.9792C491.648 99.8525 491.626 99.7272 491.598 99.6192C491.563 99.5099 491.508 99.4192 491.438 99.3419C491.368 99.2699 491.276 99.2125 491.159 99.1805C491.086 99.1645 491.008 99.1485 490.926 99.1405C490.847 99.1272 490.776 99.1152 490.699 99.1099C490.659 99.1099 490.628 99.0912 490.614 99.0632C490.591 99.0312 490.584 98.9952 490.584 98.9579C490.584 98.9205 490.591 98.8912 490.614 98.8645C490.628 98.8312 490.659 98.8125 490.699 98.8125C490.924 98.8125 491.126 98.8165 491.303 98.8352C491.484 98.8485 491.694 98.8512 491.934 98.8512H495.491Z" fill="#F2A92D"/>
<path d="M500.95 101.44C500.95 101.602 500.998 101.691 501.094 101.719C501.187 101.747 501.331 101.758 501.523 101.758C501.781 101.758 501.998 101.735 502.174 101.691C502.347 101.644 502.489 101.567 502.593 101.466C502.699 101.366 502.773 101.228 502.819 101.052C502.863 100.892 502.887 100.692 502.887 100.452C502.887 100.219 502.861 100.028 502.813 99.8737C502.766 99.707 502.691 99.575 502.591 99.4804C502.487 99.3804 502.355 99.3097 502.189 99.2764C502.021 99.2257 501.822 99.2097 501.587 99.2097C501.326 99.2097 501.157 99.235 501.077 99.2964C500.989 99.355 500.95 99.4777 500.95 99.6617V101.44ZM499.862 100.37C499.862 100.238 499.859 100.111 499.853 99.9857C499.843 99.863 499.823 99.739 499.785 99.6244C499.755 99.5177 499.705 99.4244 499.637 99.347C499.566 99.2777 499.47 99.219 499.35 99.1897C499.278 99.1737 499.201 99.1577 499.119 99.1484C499.042 99.1377 498.967 99.127 498.898 99.1177C498.854 99.1177 498.827 99.099 498.809 99.0697C498.785 99.0417 498.775 99.0057 498.775 98.967C498.775 98.9284 498.785 98.8977 498.809 98.8684C498.827 98.8377 498.854 98.819 498.898 98.819C499.119 98.819 499.322 98.831 499.502 98.8404C499.682 98.8564 499.889 98.8644 500.125 98.8644C500.521 98.8564 500.854 98.8484 501.113 98.8377C501.373 98.831 501.627 98.819 501.862 98.819C502.129 98.819 502.387 98.8564 502.645 98.911C502.903 98.967 503.133 99.063 503.337 99.1897C503.539 99.3164 503.699 99.4777 503.821 99.6844C503.946 99.891 504.003 100.136 504.003 100.426C504.003 100.654 503.967 100.854 503.887 101.016C503.815 101.186 503.711 101.332 503.577 101.452C503.447 101.572 503.29 101.667 503.105 101.747C502.925 101.82 502.727 101.878 502.521 101.924C502.469 101.932 502.447 101.955 502.447 101.987C502.447 102.012 502.469 102.035 502.521 102.06C502.826 102.196 503.069 102.352 503.238 102.514C503.406 102.684 503.533 102.862 503.623 103.035C503.714 103.22 503.781 103.411 503.819 103.602C503.858 103.787 503.899 103.974 503.946 104.16C503.978 104.299 504.035 104.392 504.109 104.454C504.185 104.523 504.263 104.551 504.341 104.551C504.423 104.551 504.499 104.526 504.574 104.458C504.646 104.404 504.705 104.312 504.743 104.198C504.757 104.146 504.779 104.115 504.819 104.096C504.861 104.086 504.898 104.079 504.934 104.087C504.973 104.096 505.007 104.115 505.034 104.146C505.065 104.174 505.075 104.203 505.07 104.228C505.05 104.378 505.005 104.511 504.931 104.611C504.857 104.727 504.77 104.816 504.669 104.882C504.567 104.95 504.447 105.002 504.318 105.036C504.187 105.071 504.063 105.086 503.935 105.086C503.723 105.086 503.533 105.048 503.357 104.962C503.187 104.875 503.071 104.76 503.01 104.595C502.973 104.504 502.935 104.384 502.899 104.27C502.863 104.146 502.826 104.028 502.795 103.899C502.762 103.775 502.727 103.654 502.695 103.543C502.662 103.415 502.633 103.315 502.607 103.22C502.483 102.839 502.334 102.559 502.145 102.39C501.955 102.228 501.693 102.138 501.354 102.138C501.241 102.138 501.147 102.16 501.07 102.199C500.986 102.242 500.95 102.324 500.95 102.452V103.676C500.95 103.883 500.971 104.051 501.018 104.174C501.067 104.295 501.138 104.387 501.229 104.454C501.315 104.528 501.437 104.578 501.567 104.603C501.702 104.638 501.862 104.662 502.038 104.67C502.081 104.67 502.111 104.69 502.134 104.72C502.157 104.758 502.171 104.791 502.171 104.835C502.171 104.871 502.157 104.91 502.134 104.934C502.111 104.964 502.075 104.979 502.03 104.979C501.698 104.979 501.406 104.964 501.157 104.942C500.905 104.923 500.663 104.912 500.423 104.912C500.171 104.912 499.923 104.923 499.682 104.942C499.438 104.964 499.197 104.979 498.965 104.979C498.926 104.979 498.898 104.964 498.874 104.934C498.854 104.91 498.846 104.871 498.842 104.835C498.835 104.798 498.846 104.767 498.866 104.735C498.883 104.692 498.919 104.675 498.965 104.67C499.151 104.658 499.305 104.623 499.422 104.595C499.535 104.568 499.637 104.523 499.701 104.45C499.766 104.387 499.813 104.3 499.831 104.198C499.854 104.086 499.862 103.935 499.862 103.763V100.37Z" fill="#F2A92D"/>
<path d="M512.359 377.927C512.415 377.927 512.462 377.935 512.514 377.944C512.563 377.961 512.582 378.001 512.57 378.088C512.555 378.16 512.55 378.236 512.55 378.313V378.568C512.55 378.843 512.562 379.096 512.575 379.327C512.575 379.355 512.563 379.369 512.534 379.381C512.503 379.393 512.467 379.404 512.434 379.404C512.386 379.409 512.35 379.404 512.316 379.393C512.279 379.387 512.256 379.364 512.248 379.327C512.207 379.096 512.158 378.915 512.111 378.772C512.067 378.643 512.003 378.539 511.919 378.475C511.831 378.404 511.722 378.363 511.579 378.351C511.438 378.331 511.25 378.311 511.016 378.308H510.419C510.252 378.308 510.115 378.311 510.012 378.313C509.908 378.325 509.823 378.351 509.767 378.385C509.707 378.423 509.671 378.485 509.646 378.568C509.627 378.648 509.619 378.771 509.619 378.928V380.499C509.619 380.585 509.634 380.636 509.671 380.659C509.699 380.684 509.734 380.689 509.767 380.689C510.068 380.689 510.312 380.681 510.484 380.653C510.662 380.628 510.792 380.585 510.887 380.521C510.97 380.461 511.032 380.377 511.062 380.276C511.094 380.173 511.116 380.041 511.136 379.875C511.144 379.843 511.162 379.815 511.196 379.797C511.23 379.78 511.267 379.771 511.303 379.771C511.344 379.771 511.38 379.78 511.412 379.797C511.448 379.815 511.466 379.843 511.466 379.875C511.466 379.971 511.46 380.063 511.455 380.128C511.448 380.209 511.443 380.292 511.434 380.364C511.424 380.441 511.416 380.513 511.412 380.591C511.407 380.677 511.402 380.768 511.402 380.875C511.402 381.063 511.412 381.225 511.434 381.368C511.455 381.515 511.466 381.701 511.466 381.912C511.466 381.937 511.448 381.963 511.412 381.979C511.38 381.992 511.344 381.993 511.303 381.993C511.267 381.992 511.23 381.984 511.196 381.968C511.162 381.956 511.144 381.931 511.136 381.893C511.116 381.715 511.094 381.573 511.062 381.465C511.032 381.355 510.97 381.275 510.887 381.217C510.792 381.165 510.662 381.125 510.484 381.105C510.312 381.081 510.068 381.073 509.767 381.073C509.734 381.073 509.699 381.081 509.671 381.105C509.634 381.125 509.619 381.171 509.619 381.235V382.413C509.619 382.617 509.631 382.772 509.664 382.911C509.691 383.049 509.735 383.161 509.799 383.245C509.858 383.341 509.93 383.397 510.014 383.452C510.1 383.505 510.202 383.533 510.323 383.572C510.415 383.587 510.519 383.599 510.635 383.605C510.754 383.612 510.871 383.616 510.998 383.616C511.156 383.616 511.303 383.612 511.447 383.604C511.586 383.592 511.691 383.575 511.766 383.543C511.896 383.508 512.011 383.459 512.106 383.416C512.207 383.367 512.284 383.301 512.35 383.224C512.418 383.144 512.472 383.049 512.514 382.928C512.558 382.812 512.588 382.663 512.62 382.483C512.626 382.443 512.648 382.416 512.692 382.403C512.726 382.396 512.768 382.391 512.818 382.391C512.863 382.391 512.906 382.399 512.942 382.413C512.975 382.433 512.991 382.457 512.986 382.488C512.952 382.743 512.919 382.98 512.894 383.209C512.871 383.419 512.858 383.641 512.863 383.873C512.863 383.892 512.85 383.915 512.824 383.951C512.799 383.988 512.735 384.003 512.638 384.003H509.03C508.783 384.003 508.532 384.005 508.296 384.017C508.054 384.031 507.835 384.04 507.644 384.055C507.595 384.055 507.554 384.04 507.523 384.015C507.498 383.991 507.482 383.953 507.476 383.913C507.471 383.873 507.479 383.841 507.502 383.811C507.534 383.768 507.572 383.751 507.632 383.744C507.79 383.733 507.932 383.699 508.038 383.667C508.154 383.631 508.246 383.592 508.316 383.525C508.391 383.461 508.446 383.381 508.479 383.287C508.516 383.191 508.532 383.067 508.532 382.915V379.439C508.532 379.307 508.531 379.179 508.52 379.055C508.512 378.928 508.488 378.803 508.455 378.693C508.422 378.585 508.374 378.495 508.306 378.417C508.234 378.345 508.14 378.288 508.019 378.256C507.946 378.24 507.872 378.224 507.79 378.216C507.71 378.203 507.635 378.191 507.567 378.185C507.523 378.185 507.495 378.167 507.476 378.139C507.454 378.107 507.443 378.071 507.443 378.033C507.443 377.996 507.454 377.967 507.476 377.94C507.495 377.907 507.523 377.888 507.567 377.888C507.786 377.888 507.991 377.892 508.17 377.911C508.351 377.924 508.558 377.927 508.796 377.927H512.359Z" fill="#F2A92D"/>
<path d="M500.95 380.516C500.95 380.677 500.998 380.766 501.094 380.794C501.187 380.822 501.331 380.833 501.523 380.833C501.781 380.833 501.998 380.81 502.174 380.766C502.347 380.72 502.489 380.642 502.593 380.541C502.699 380.441 502.773 380.304 502.819 380.129C502.863 379.968 502.887 379.768 502.887 379.528C502.887 379.294 502.861 379.104 502.813 378.949C502.766 378.782 502.691 378.65 502.591 378.556C502.487 378.456 502.355 378.385 502.189 378.352C502.021 378.301 501.822 378.285 501.587 378.285C501.326 378.285 501.157 378.31 501.077 378.372C500.989 378.43 500.95 378.553 500.95 378.737V380.516ZM499.862 379.445C499.862 379.313 499.859 379.186 499.853 379.061C499.843 378.938 499.823 378.814 499.785 378.7C499.755 378.593 499.705 378.5 499.637 378.422C499.566 378.353 499.47 378.294 499.35 378.265C499.278 378.249 499.201 378.233 499.119 378.224C499.042 378.213 498.967 378.202 498.898 378.193C498.854 378.193 498.827 378.174 498.809 378.145C498.785 378.117 498.775 378.081 498.775 378.042C498.775 378.004 498.785 377.973 498.809 377.944C498.827 377.913 498.854 377.896 498.898 377.896C499.119 377.896 499.322 377.906 499.502 377.916C499.682 377.933 499.889 377.94 500.125 377.94C500.521 377.933 500.854 377.924 501.113 377.913C501.373 377.906 501.627 377.896 501.862 377.896C502.129 377.896 502.387 377.933 502.645 377.986C502.903 378.042 503.133 378.138 503.337 378.265C503.539 378.392 503.699 378.553 503.821 378.76C503.946 378.966 504.003 379.212 504.003 379.501C504.003 379.729 503.967 379.929 503.887 380.092C503.815 380.261 503.711 380.408 503.577 380.528C503.447 380.648 503.29 380.742 503.105 380.822C502.925 380.896 502.727 380.953 502.521 381C502.469 381.008 502.447 381.03 502.447 381.062C502.447 381.088 502.469 381.11 502.521 381.136C502.826 381.272 503.069 381.428 503.238 381.589C503.406 381.76 503.533 381.937 503.623 382.11C503.714 382.296 503.781 382.486 503.819 382.677C503.858 382.862 503.899 383.049 503.946 383.236C503.978 383.374 504.035 383.468 504.109 383.529C504.185 383.598 504.263 383.626 504.341 383.626C504.423 383.626 504.499 383.601 504.574 383.533C504.646 383.48 504.705 383.388 504.743 383.273C504.757 383.221 504.779 383.19 504.819 383.172C504.861 383.161 504.898 383.154 504.934 383.162C504.973 383.172 505.007 383.19 505.034 383.221C505.065 383.249 505.075 383.278 505.07 383.304C505.05 383.453 505.005 383.586 504.931 383.686C504.857 383.802 504.77 383.892 504.669 383.957C504.567 384.025 504.447 384.077 504.318 384.112C504.187 384.146 504.063 384.161 503.935 384.161C503.723 384.161 503.533 384.124 503.357 384.037C503.187 383.95 503.071 383.836 503.01 383.67C502.973 383.58 502.935 383.46 502.899 383.345C502.863 383.221 502.826 383.104 502.795 382.974C502.762 382.85 502.727 382.729 502.695 382.618C502.662 382.49 502.633 382.39 502.607 382.296C502.483 381.914 502.334 381.634 502.145 381.465C501.955 381.304 501.693 381.213 501.354 381.213C501.241 381.213 501.147 381.236 501.07 381.274C500.986 381.317 500.95 381.4 500.95 381.528V382.752C500.95 382.958 500.971 383.126 501.018 383.249C501.067 383.37 501.138 383.462 501.229 383.529C501.315 383.604 501.437 383.653 501.567 383.678C501.702 383.713 501.862 383.737 502.038 383.745C502.081 383.745 502.111 383.765 502.134 383.796C502.157 383.833 502.171 383.866 502.171 383.91C502.171 383.946 502.157 383.985 502.134 384.009C502.111 384.04 502.075 384.054 502.03 384.054C501.698 384.054 501.406 384.04 501.157 384.017C500.905 383.998 500.663 383.988 500.423 383.988C500.171 383.988 499.923 383.998 499.682 384.017C499.438 384.04 499.197 384.054 498.965 384.054C498.926 384.054 498.898 384.04 498.874 384.009C498.854 383.985 498.846 383.946 498.842 383.91C498.835 383.873 498.846 383.842 498.866 383.81C498.883 383.768 498.919 383.75 498.965 383.745C499.151 383.733 499.305 383.698 499.422 383.67C499.535 383.644 499.637 383.598 499.701 383.525C499.766 383.462 499.813 383.376 499.831 383.273C499.854 383.161 499.862 383.01 499.862 382.838V379.445Z" fill="#F2A92D"/>
<path d="M512.359 98.8512C512.415 98.8512 512.462 98.8592 512.514 98.8685C512.563 98.8859 512.582 98.9259 512.57 99.0125C512.555 99.0845 512.55 99.1605 512.55 99.2392V99.4925C512.55 99.7672 512.562 100.021 512.575 100.251C512.575 100.279 512.563 100.294 512.534 100.306C512.503 100.319 512.467 100.329 512.434 100.329C512.386 100.334 512.35 100.329 512.316 100.319C512.279 100.311 512.256 100.289 512.248 100.251C512.207 100.021 512.158 99.8392 512.111 99.6965C512.067 99.5672 512.003 99.4632 511.919 99.3992C511.831 99.3285 511.722 99.2872 511.579 99.2752C511.438 99.2552 511.25 99.2352 511.016 99.2325H510.419C510.252 99.2325 510.115 99.2352 510.012 99.2392C509.908 99.2499 509.823 99.2752 509.767 99.3099C509.707 99.3472 509.671 99.4099 509.646 99.4925C509.627 99.5725 509.619 99.6952 509.619 99.8525V101.423C509.619 101.51 509.634 101.561 509.671 101.583C509.699 101.609 509.734 101.614 509.767 101.614C510.068 101.614 510.312 101.606 510.484 101.578C510.662 101.553 510.792 101.51 510.887 101.446C510.97 101.386 511.032 101.303 511.062 101.201C511.094 101.098 511.116 100.966 511.136 100.799C511.144 100.767 511.162 100.739 511.196 100.722C511.23 100.705 511.267 100.695 511.303 100.695C511.344 100.695 511.38 100.705 511.412 100.722C511.448 100.739 511.466 100.767 511.466 100.799C511.466 100.895 511.46 100.987 511.455 101.053C511.448 101.134 511.443 101.217 511.434 101.289C511.424 101.366 511.416 101.438 511.412 101.515C511.407 101.602 511.402 101.693 511.402 101.799C511.402 101.987 511.412 102.15 511.434 102.293C511.455 102.439 511.466 102.626 511.466 102.837C511.466 102.862 511.448 102.887 511.412 102.903C511.38 102.917 511.344 102.918 511.303 102.918C511.267 102.917 511.23 102.909 511.196 102.893C511.162 102.881 511.144 102.855 511.136 102.818C511.116 102.639 511.094 102.498 511.062 102.39C511.032 102.279 510.97 102.199 510.887 102.142C510.792 102.09 510.662 102.05 510.484 102.03C510.312 102.006 510.068 101.998 509.767 101.998C509.734 101.998 509.699 102.006 509.671 102.03C509.634 102.05 509.619 102.095 509.619 102.159V103.338C509.619 103.542 509.631 103.697 509.664 103.835C509.691 103.974 509.735 104.086 509.799 104.17C509.858 104.266 509.93 104.322 510.014 104.377C510.1 104.43 510.202 104.458 510.323 104.497C510.415 104.511 510.519 104.523 510.635 104.53C510.754 104.537 510.871 104.541 510.998 104.541C511.156 104.541 511.303 104.537 511.447 104.529C511.586 104.517 511.691 104.499 511.766 104.467C511.896 104.433 512.011 104.383 512.106 104.341C512.207 104.293 512.284 104.226 512.35 104.149C512.418 104.069 512.472 103.974 512.514 103.853C512.558 103.737 512.588 103.587 512.62 103.407C512.626 103.367 512.648 103.341 512.692 103.327C512.726 103.321 512.768 103.315 512.818 103.315C512.863 103.315 512.906 103.323 512.942 103.338C512.975 103.358 512.991 103.382 512.986 103.413C512.952 103.667 512.919 103.905 512.894 104.134C512.871 104.343 512.858 104.566 512.863 104.798C512.863 104.817 512.85 104.839 512.824 104.875C512.799 104.913 512.735 104.927 512.638 104.927H509.03C508.783 104.927 508.532 104.93 508.296 104.942C508.054 104.955 507.835 104.965 507.644 104.979C507.595 104.979 507.554 104.965 507.523 104.939C507.498 104.915 507.482 104.878 507.476 104.838C507.471 104.798 507.479 104.767 507.502 104.735C507.534 104.693 507.572 104.675 507.632 104.669C507.79 104.658 507.932 104.623 508.038 104.591C508.154 104.555 508.246 104.517 508.316 104.45C508.391 104.386 508.446 104.306 508.479 104.211C508.516 104.115 508.532 103.991 508.532 103.839V100.363C508.532 100.231 508.531 100.103 508.52 99.9792C508.512 99.8525 508.488 99.7272 508.455 99.6192C508.422 99.5099 508.374 99.4192 508.306 99.3419C508.234 99.2699 508.14 99.2125 508.019 99.1805C507.946 99.1645 507.872 99.1485 507.79 99.1405C507.71 99.1272 507.635 99.1152 507.567 99.1099C507.523 99.1099 507.495 99.0912 507.476 99.0632C507.454 99.0312 507.443 98.9952 507.443 98.9579C507.443 98.9205 507.454 98.8912 507.476 98.8645C507.495 98.8312 507.523 98.8125 507.567 98.8125C507.786 98.8125 507.991 98.8165 508.17 98.8352C508.351 98.8485 508.558 98.8512 508.796 98.8512H512.359Z" fill="#F2A92D"/>
<path d="M362.563 101.062C363.423 101.921 363.424 103.326 362.565 104.186L360.103 106.653C359.244 107.513 357.84 107.513 356.981 106.653L354.52 104.188C353.661 103.328 353.663 101.921 354.523 101.062L356.979 98.6091C357.839 97.7504 359.245 97.7504 360.105 98.6078L362.563 101.062Z" fill="white"/>
<path d="M445.724 137.449V124.816C445.724 118.683 443.466 114.855 440.655 112.349C437.243 109.185 433.65 112.471 433.65 112.471L429.252 116.6C429.167 115.5 429.027 114.475 428.8 113.561C428.027 110.196 422.835 110.328 422.835 110.328H416.842C419.31 112.969 419.002 116.817 419.002 121.664V148.731H429.395V121.664H429.392C429.392 119.993 429.379 118.367 429.271 116.857C432.988 118.012 435.324 119.936 435.324 125.024V137.449C435.324 142.293 435.44 146.821 437.62 148.787H447.883C445.411 146.128 445.724 142.293 445.724 137.449Z" fill="white"/>
<path d="M407.817 101.062C408.677 101.921 408.678 103.326 407.82 104.186L405.357 106.653C404.498 107.513 403.094 107.513 402.236 106.653L399.774 104.188C398.916 103.328 398.917 101.921 399.777 101.062L402.233 98.6091C403.093 97.7504 404.5 97.7504 405.36 98.6078L407.817 101.062Z" fill="white"/>
<path d="M366.164 121.667C366.164 118.734 366.124 115.914 365.606 113.712C364.812 110.174 360.614 110.331 360.614 110.331H353.608C356.074 112.976 355.768 116.819 355.768 121.667V148.73H366.165V121.667" fill="white"/>
<path d="M347.412 137.449V124.816C347.412 118.697 345.164 114.873 342.364 112.368C338.785 108.551 335.388 112.424 335.388 112.424L330.882 116.656V106.672C330.882 104.097 330.85 101.609 330.552 99.5492C329.958 94.9946 324.94 95.3386 324.94 95.3386H318.718C320.796 97.9839 320.485 101.829 320.485 106.672V148.727H330.882V116.831C334.65 117.988 337.013 119.903 337.013 125.024V137.449C337.013 142.293 337.129 146.821 339.31 148.787H349.565C347.101 146.128 347.412 142.293 347.412 137.449Z" fill="white"/>
<path d="M513.785 148.736C511.313 146.08 511.628 142.239 511.628 137.406V110.331H501.227V137.406C501.227 139.068 501.244 140.695 501.352 142.199C497.629 141.05 495.295 139.126 495.295 134.043V121.614C495.295 118.658 495.252 115.818 494.725 113.608C493.688 110.195 488.777 110.28 488.777 110.28H482.739C485.213 112.928 484.895 116.77 484.895 121.614V134.246C484.895 141.85 488.369 145.91 492.063 148.303C493.796 149.395 495.161 148.294 495.161 148.294L501.369 142.458C501.585 145.203 502.139 147.48 503.523 148.736H513.785Z" fill="white"/>
<path d="M461.62 136.163C461.62 132.755 464.992 130.676 467.56 130.411C467.56 130.851 467.574 141.101 467.574 142.168C467.574 142.291 467.582 142.388 467.586 142.497C465.737 141.715 461.62 139.557 461.62 136.163ZM478.357 139.869V120.505H478.353C478.353 115.665 477.013 109.975 467.436 109.975C464.56 109.975 458.636 111.101 454.878 114.475V122.809C459.086 119.74 461.212 119.421 463.936 119.421C467.941 119.421 467.541 125.501 467.541 125.501C462.112 126.448 451.285 129.772 451.285 139.872C451.285 144.16 454.157 146.931 456.093 148.311C457.962 149.467 459.58 148.28 459.58 148.28L467.642 143.347C468.024 147.031 470.098 148.731 470.098 148.731H480.706C478.402 145.568 478.357 142.68 478.357 139.869Z" fill="white"/>
<path d="M411.68 121.667C411.68 118.734 411.639 115.914 411.123 113.712C410.328 110.174 406.131 110.331 406.131 110.331H399.124C401.59 112.976 401.284 116.819 401.284 121.667V148.73H411.682V121.667" fill="white"/>
<path d="M318.535 98.5973L308.719 106.567C303.226 107.087 298.598 101.293 294.789 102.087V132.667C294.789 137.853 302.173 143.101 316.65 140.377L304.419 150.172C296.549 150.172 282.358 146.98 282.358 131.352V104.88L296.425 92.0613C303.35 91.0866 310.571 97.4786 318.535 98.5973Z" fill="white"/>
<path d="M473.048 99.5652C470.171 99.5652 467.811 101.108 467.811 101.108L466.631 102.005L465.451 101.108C465.451 101.108 463.091 99.5652 460.215 99.5652H456.602C456.602 99.5652 464.484 105.6 465.34 106.204C466.126 106.717 466.587 107.217 467.915 106.209C469.356 105.125 476.662 99.5652 476.662 99.5652H473.048Z" fill="white"/>
<path d="M379.627 154.808C381.452 153.843 382.3 152.376 382.776 150.824C381.021 150.835 379.144 150.479 377.888 150.026C378.367 151.159 378.42 152.28 378.272 153.279C378.132 154.5 378.247 154.922 378.572 155.06C378.923 155.182 379.324 154.968 379.627 154.808Z" fill="white"/>
<path d="M388.227 124.865C381.454 120.274 379.422 119.038 378.476 117.43C378.06 116.71 378.439 116.396 378.928 116.396C382.408 116.396 385.411 120.41 389.235 120.365L395.068 113.161C389.207 112.904 384.854 108.106 380.104 109.634L371.824 119.032C371.251 119.793 370.651 121.276 370.579 122.63C370.463 124.682 372.126 128.965 378.028 132.742C384.142 136.654 385.676 139.661 386.396 141.784C386.622 142.461 386.155 143.256 385.324 142.956C381.764 141.817 378.439 137.364 377.412 134.877L370.003 143.498C377.482 150.298 383.386 149.625 385.283 149.129L395.944 137.33C395.57 134.14 394.014 128.788 388.227 124.865Z" fill="white"/>
<path d="M362.563 380.138C363.423 380.996 363.424 382.402 362.565 383.262L360.103 385.728C359.244 386.588 357.84 386.588 356.981 385.728L354.52 383.263C353.661 382.403 353.663 380.996 354.523 380.138L356.979 377.684C357.839 376.826 359.245 376.826 360.105 377.684L362.563 380.138Z" fill="white"/>
<path d="M407.817 380.138C408.677 380.996 408.678 382.402 407.82 383.262L405.357 385.728C404.498 386.588 403.094 386.588 402.236 385.728L399.774 383.263C398.916 382.403 398.917 380.996 399.777 380.138L402.233 377.684C403.093 376.826 404.5 376.826 405.36 377.684L407.817 380.138Z" fill="white"/>
<path d="M366.164 400.742C366.164 397.809 366.124 394.989 365.606 392.788C364.812 389.249 360.614 389.406 360.614 389.406H353.608C356.074 392.052 355.768 395.894 355.768 400.742V427.805H366.165V400.742" fill="white"/>
<path d="M411.68 400.742C411.68 397.809 411.639 394.989 411.123 392.788C410.328 389.249 406.131 389.406 406.131 389.406H399.124C401.59 392.052 401.284 395.894 401.284 400.742V427.805H411.682V400.742" fill="white"/>
<path d="M513.785 427.812C511.313 425.156 511.628 421.314 511.628 416.481V389.408H501.227V416.481C501.227 418.144 501.244 419.77 501.352 421.274C497.629 420.125 495.295 418.202 495.295 413.118V400.689C495.295 397.733 495.252 394.893 494.725 392.684C493.688 389.27 488.777 389.356 488.777 389.356H482.739C485.213 392.004 484.895 395.845 484.895 400.689V413.321C484.895 420.925 488.369 424.985 492.063 427.378C493.796 428.47 495.161 427.369 495.161 427.369L501.369 421.533C501.585 424.278 502.139 426.556 503.523 427.812H513.785Z" fill="white"/>
<path d="M347.412 416.524V403.891C347.412 397.772 345.164 393.948 342.364 391.443C338.785 387.626 335.388 391.499 335.388 391.499L330.882 395.731V385.747C330.882 383.172 330.85 380.684 330.552 378.624C329.958 374.07 324.94 374.414 324.94 374.414H318.718C320.796 377.059 320.485 380.904 320.485 385.747V427.802H330.882V395.906C334.65 397.063 337.013 398.978 337.013 404.099V416.524C337.013 421.368 337.129 425.896 339.31 427.862H349.565C347.101 425.203 347.412 421.368 347.412 416.524Z" fill="white"/>
<path d="M318.535 377.673L308.719 385.642C303.226 386.162 298.598 380.369 294.789 381.162V411.742C294.789 416.929 302.173 422.177 316.65 419.453L304.419 429.247C296.549 429.247 282.358 426.055 282.358 410.427V383.955L296.425 371.137C303.35 370.162 310.571 376.554 318.535 377.673Z" fill="white"/>
<path d="M379.627 433.884C381.452 432.918 382.3 431.452 382.776 429.9C381.021 429.91 379.144 429.554 377.888 429.101C378.367 430.234 378.42 431.356 378.272 432.354C378.132 433.576 378.247 433.997 378.572 434.136C378.923 434.257 379.324 434.044 379.627 433.884Z" fill="white"/>
<path d="M473.048 378.641C470.171 378.641 467.811 380.183 467.811 380.183L466.631 381.081L465.451 380.183C465.451 380.183 463.091 378.641 460.215 378.641H456.602C456.602 378.641 464.484 384.675 465.34 385.279C466.126 385.793 466.587 386.293 467.915 385.285C469.356 384.201 476.662 378.641 476.662 378.641H473.048Z" fill="white"/>
<path d="M461.62 415.238C461.62 411.83 464.992 409.751 467.56 409.486C467.56 409.926 467.574 420.176 467.574 421.243C467.574 421.366 467.582 421.463 467.586 421.572C465.737 420.79 461.62 418.632 461.62 415.238ZM478.357 418.944V399.58H478.353C478.353 394.74 477.013 389.05 467.436 389.05C464.56 389.05 458.636 390.176 454.878 393.55V401.884C459.086 398.815 461.212 398.496 463.936 398.496C467.941 398.496 467.541 404.576 467.541 404.576C462.112 405.523 451.285 408.847 451.285 418.947C451.285 423.235 454.157 426.006 456.093 427.386C457.962 428.542 459.58 427.355 459.58 427.355L467.642 422.422C468.024 426.106 470.098 427.806 470.098 427.806H480.706C478.402 424.643 478.357 421.755 478.357 418.944Z" fill="white"/>
<path d="M445.724 416.524V403.891C445.724 397.758 443.466 393.93 440.655 391.424C437.243 388.26 433.65 391.546 433.65 391.546L429.252 395.675C429.167 394.575 429.027 393.55 428.8 392.636C428.027 389.27 422.835 389.403 422.835 389.403H416.842C419.31 392.044 419.002 395.892 419.002 400.739V427.806H429.395V400.739H429.392C429.392 399.068 429.379 397.442 429.271 395.932C432.988 397.087 435.324 399.011 435.324 404.099V416.524C435.324 421.368 435.44 425.896 437.62 427.862H447.883C445.411 425.203 445.724 421.368 445.724 416.524Z" fill="white"/>
<path d="M388.227 403.94C381.454 399.35 379.422 398.114 378.476 396.506C378.06 395.786 378.439 395.471 378.928 395.471C382.408 395.471 385.411 399.486 389.235 399.44L395.068 392.236C389.207 391.979 384.854 387.182 380.104 388.71L371.824 398.107C371.251 398.868 370.651 400.351 370.579 401.706C370.463 403.758 372.126 408.04 378.028 411.818C384.142 415.73 385.676 418.736 386.396 420.859C386.622 421.536 386.155 422.331 385.324 422.031C381.764 420.892 378.439 416.439 377.412 413.952L370.003 422.574C377.482 429.374 383.386 428.7 385.283 428.204L395.944 416.406C395.57 413.215 394.014 407.863 388.227 403.94Z" fill="white"/>
<path d="M37.8738 434.835H68.5724C73.3618 465.085 85.1751 493.983 103.452 519.724C108.322 526.581 114.487 529.776 122.856 529.776H122.91C144.962 529.735 173.94 529.708 206.28 529.692V576.297H37.8738V434.835ZM66.1657 127.301C66.3978 168.263 79.2551 207.869 103.451 241.944C108.319 248.801 114.483 251.997 122.846 251.997C122.867 251.997 122.89 251.997 122.91 251.997C127.772 251.943 129.456 251.997 134.999 251.997V278.171C128.868 278.189 145.57 278.377 122.916 278.377C122.395 278.377 121.856 278.32 121.352 278.377C113.971 278.377 108.502 281.197 104.146 287.252C79.4004 321.649 66.2578 361.804 66.1377 403.38C66.1284 406.397 66.2084 409.405 66.3364 412.408H37.8738V127.301H66.1657ZM119.882 20.7947C120.182 20.3773 120.39 20.148 120.504 20.032C120.65 20.0107 120.92 19.9827 121.358 19.9827C126.93 19.9853 129.866 19.8027 134.999 19.7853L160.536 19.7173C171.306 19.6933 253.328 19.68 264.04 19.6907C294.324 19.7053 456.911 19.9733 509.67 20.1907L535.207 20.312C535.882 20.316 536.534 20.32 537.151 20.324L535.531 20.2747C556.058 20.2213 529.846 20.168 550.746 20.0387C573.167 49.7213 585.498 87.46 585.471 126.329C585.444 165.212 573.051 202.909 550.571 232.489C535.931 232.517 535.383 232.507 535.3 232.517L135.111 232.527C127.912 232.527 126.158 232.612 122.874 232.612C120.775 232.612 120.515 232.493 119.258 230.721C73.8737 166.809 74.1177 84.408 119.882 20.7947ZM512.65 232.481C488.555 232.488 391.074 232.491 358.924 232.495C317.166 232.499 198.678 232.503 157.762 232.517L512.65 232.481ZM264.05 278.084C253.331 278.073 168.419 278.087 157.65 278.109V251.901C198.563 251.887 317.166 251.883 358.927 251.879C391.074 251.876 488.552 251.873 512.65 251.865V278.596C460.595 278.379 294.962 278.1 264.05 278.084ZM536.947 298.101C536.947 298.101 529.538 297.948 550.746 297.816C573.167 327.499 585.498 365.237 585.471 404.107C585.444 442.991 573.05 480.691 550.571 510.268C537.088 510.268 534.931 510.296 534.931 510.296C534.847 510.305 134.999 510.307 134.999 510.307C102.667 510.324 144.927 510.351 122.876 510.392C120.735 510.387 120.515 510.271 119.258 508.5C73.8737 444.587 74.1177 362.185 119.882 298.573C120.182 298.156 120.39 297.927 120.503 297.811C120.648 297.789 120.918 297.761 121.354 297.761H121.358C144.54 297.751 128.89 297.573 134.999 297.553L157.65 297.491C168.419 297.467 459.3 297.76 511.559 297.977C512.002 297.98 512.354 298.34 512.354 298.784L535.004 298.9C535.004 298.453 535.371 298.092 535.818 298.095C536.204 298.096 536.583 298.099 536.947 298.101ZM359.316 529.657C390.147 529.653 418.819 529.651 442.338 529.644C442.191 530.388 442.11 531.156 442.11 531.944V576.297H231.816V529.68C272.834 529.664 317.443 529.66 359.316 529.657ZM509.395 510.26C485.92 510.267 390.046 510.269 359.315 510.272C317.424 510.276 201.567 510.28 160.536 510.296L509.395 510.26ZM586.41 576.297H467.647V531.944C467.647 531.012 467.528 530.109 467.326 529.24C467.622 529.203 467.922 529.168 468.207 529.131C468.907 529.277 469.718 529.385 470.612 529.391C481.772 529.431 492.931 529.463 504.092 529.495C520.167 529.541 536.242 529.588 552.316 529.66C560.123 529.691 564.199 524.368 565.931 522.092C617.899 453.809 617.972 354.515 566.107 285.989C563.631 282.72 559.404 278.359 551.8 278.424C530.248 278.561 535.986 278.708 535.3 278.705V251.865C535.483 251.843 536.242 251.809 552.316 251.881H552.394C560.172 251.881 564.206 246.581 565.931 244.315C617.899 176.032 617.972 76.7373 566.107 8.21198C563.644 4.95996 559.502 0.646667 551.931 0.646667H551.8C530.558 0.781311 508.952 0.83728 488.056 0.889282L469.624 0.93866C434.228 0.718628 300.99 0.323975 264.05 0.305298C239.639 0.287964 214.832 0.372009 190.842 0.450684C168.066 0.52533 144.518 0.569336 121.359 0.598633C113.972 0.598633 108.503 3.41864 104.146 9.47467C83.5417 38.116 71.0138 70.7546 67.3178 104.875H37.8738V95.2333C37.8738 89.0399 32.8538 84.02 26.6604 84.02C20.4671 84.02 15.4471 89.0399 15.4471 95.2333V576.297H11.4458C5.25242 576.297 0.232422 581.317 0.232422 587.511C0.232422 593.704 5.25242 598.724 11.4458 598.724H586.41C592.603 598.724 597.623 593.704 597.623 587.511C597.623 581.317 592.603 576.297 586.41 576.297Z" fill="white"/>
<mask id="mask0_1_7" style="mask-type:luminance" maskUnits="userSpaceOnUse" x="150" y="91" width="116" height="58">
<mask id="mask1_1_7" style="mask-type:luminance" maskUnits="userSpaceOnUse" x="150" y="91" width="116" height="58">
<path d="M151.338 92.0959H264.538V148.499H151.338V92.0959Z" fill="white" stroke="white"/>
</mask>
<g mask="url(#mask1_1_7)">
<path d="M151.342 92.0907H264.539V148.5H151.342V92.0907Z" fill="#F2AF43" stroke="black"/>
<mask id="mask2_1_7" style="mask-type:luminance" maskUnits="userSpaceOnUse" x="150" y="91" width="116" height="58">
<path d="M151.338 92.0906H264.538V148.499H151.338V92.0906Z" fill="white" stroke="white"/>
</mask>
<g mask="url(#mask2_1_7)">
<path d="M167.774 133.761C167.647 133.346 167.521 132.931 167.394 132.518C168.867 132.151 171.093 131.645 172.761 131.281C172.085 128.737 171.41 126.201 170.735 123.671C170.101 121.286 169.291 119.967 166.662 118.997C167.122 119.282 167.887 119.785 168.378 120.201C169.183 120.894 169.723 122.001 169.981 123.113C170.633 125.531 171.283 127.957 171.934 130.389C170.758 130.635 168.478 131.161 167.099 131.503C166.414 129.293 165.73 127.09 165.045 124.895C164.309 122.485 165.313 120.433 165.957 119.089C166.031 118.941 166.109 118.79 166.185 118.642C166.217 118.579 166.25 118.517 166.283 118.455L166.455 118.49C170.623 119.431 171.307 121.995 171.555 122.955C172.365 126.086 173.175 129.227 173.985 132.379C172.095 132.777 170.359 133.131 167.774 133.761Z" fill="#F2AF43" stroke="black"/>
<path d="M186.221 130.315C186.147 129.871 186.077 129.427 186.005 128.982C187.359 128.79 189.757 128.509 191.375 128.345C191.049 125.635 190.722 122.927 190.394 120.221C190.067 117.703 189.438 116.233 186.965 114.847C187.378 115.207 188.071 115.833 188.509 116.339C189.21 117.159 189.609 118.373 189.725 119.537C190.045 122.138 190.366 124.742 190.687 127.346C189.583 127.465 187.273 127.729 185.843 127.933C185.466 125.473 185.087 123.015 184.71 120.562C184.477 118.974 184.743 118.033 185.069 117.113C185.361 116.287 185.854 115.431 186.255 114.839C186.347 114.697 186.439 114.557 186.531 114.414C186.574 114.358 186.617 114.301 186.658 114.245C186.714 114.265 186.77 114.283 186.826 114.302C190.818 115.907 191.169 118.615 191.291 119.615C191.687 122.945 192.083 126.278 192.479 129.613C190.577 129.806 188.809 129.958 186.221 130.315Z" fill="#F2AF43" stroke="black"/>
<path d="M218.413 134.312L211.645 139.19C207.284 139.2 199.419 137.628 199.403 129.864L199.383 119.345L207.164 112.961C211 112.469 215.008 115.637 219.423 116.185L213.991 120.156C210.947 120.42 208.377 117.546 206.268 117.945L206.292 130.504C206.297 133.081 210.393 135.68 218.413 134.312Z" fill="#F2AF43" stroke="black"/>
<path d="M231.298 120.935C230.803 124.025 230.308 127.118 229.814 130.214C228.362 130.006 225.464 129.713 223.683 129.555C223.73 129.101 223.775 128.646 223.823 128.191C225.18 128.314 227.535 128.534 229.116 128.77C229.507 126.251 229.899 123.737 230.29 121.222C230.614 118.718 230.388 117.119 228.375 114.99C228.683 115.467 229.183 116.291 229.47 116.91C229.936 117.926 230.004 119.207 229.815 120.354C229.451 122.779 229.088 125.206 228.724 127.634C227.534 127.463 225.42 127.283 223.947 127.125C224.214 124.666 224.48 122.209 224.747 119.751C224.934 118.143 225.432 117.331 225.982 116.546C226.466 115.846 227.163 115.186 227.699 114.75C227.824 114.645 227.95 114.539 228.075 114.435C228.131 114.394 228.186 114.353 228.24 114.313C228.287 114.349 228.332 114.382 228.379 114.417C231.794 117.258 231.439 119.937 231.298 120.935Z" fill="#F2AF43" stroke="black"/>
<path d="M251.032 125.253C250.163 128.026 249.293 130.812 248.424 133.609C246.941 133.217 244.036 132.622 242.36 132.277C242.464 131.845 242.569 131.416 242.673 130.985C243.964 131.254 246.3 131.736 247.919 132.146C248.608 129.88 249.296 127.618 249.985 125.366C250.648 123.012 250.637 121.442 248.939 119.054C249.175 119.573 249.563 120.452 249.757 121.088C250.087 122.148 249.979 123.384 249.639 124.466C248.984 126.642 248.329 128.826 247.673 131.014C246.468 130.704 244.272 130.268 242.949 129.969C243.531 127.666 244.113 125.368 244.693 123.074C245.095 121.55 245.696 120.842 246.347 120.173C246.929 119.58 247.704 119.056 248.295 118.713L248.713 118.47C248.773 118.441 248.832 118.409 248.892 118.38C248.933 118.42 248.973 118.461 249.015 118.504C252.02 121.8 251.305 124.309 251.032 125.253Z" fill="#F2AF43" stroke="black"/>
<path d="M249.394 142.777C242.218 141.222 238.123 140.414 227.367 139.041C226.945 138.987 226.435 138.839 226.434 138.414C226.434 137.869 226.97 137.806 227.389 137.838C234.989 138.417 242.666 139.722 250.122 141.386C250.537 141.478 253.371 142.859 253.279 143.274C253.198 143.638 250.381 142.99 249.394 142.777Z" fill="#F2AF43" stroke="black"/>
<path d="M166.705 142.777C173.881 141.222 177.976 140.414 188.732 139.041C189.154 138.987 189.664 138.839 189.665 138.414C189.665 137.869 189.129 137.806 188.71 137.838C181.11 138.417 173.433 139.722 165.977 141.386C165.562 141.478 162.728 142.859 162.82 143.274C162.901 143.638 165.718 142.99 166.705 142.777Z" fill="#F2AF43" stroke="black"/>
</g>
</g>
</mask>
<g mask="url(#mask0_1_7)">
<mask id="mask3_1_7" style="mask-type:luminance" maskUnits="userSpaceOnUse" x="150" y="91" width="116" height="58">
<path d="M151.338 92.0959H264.538V148.499H151.338V92.0959Z" fill="white" stroke="white"/>
</mask>
<g mask="url(#mask3_1_7)">
<path d="M154.544 107.355C154.084 107.088 153.622 106.822 153.162 106.556C152.55 104.463 151.942 102.379 151.341 100.304C152.565 99.9484 155.128 99.2857 156.194 99.0004C156.46 100.038 156.726 101.075 156.996 102.116C157.684 101.936 158.557 101.744 159.373 101.543C159.122 100.488 158.874 99.435 158.626 98.383C159.852 98.071 162.186 97.5364 163.462 97.2457C163.692 98.315 163.922 99.387 164.154 100.459C165.068 100.248 166.05 100.066 166.532 99.963C166.316 98.8777 166.101 97.795 165.886 96.7124C166.58 96.5524 169.108 96.0257 170.708 95.7204C171.089 97.923 171.474 100.131 171.865 102.343C171.557 102.83 171.25 103.316 170.941 103.802C167.946 104.323 163.364 105.272 160.266 105.966C160.294 106.09 160.322 106.214 160.352 106.338C163.945 105.814 167.529 105.279 171.105 104.739C171.628 107.579 172.158 110.428 172.697 113.283C172.942 113.246 173.201 113.2 173.477 113.155C173.325 112.32 173.174 111.486 173.022 110.652C174.634 110.375 176.128 110.148 177.501 109.939C177.634 110.78 177.768 111.622 177.902 112.463C178.152 112.426 178.397 112.394 178.644 112.358C178.149 109.155 177.662 105.959 177.184 102.77C176.744 102.392 176.305 102.015 175.866 101.638C175.524 99.411 175.182 97.187 174.848 94.967C176.014 94.7577 178.66 94.347 179.688 94.195C179.836 95.3324 179.984 96.4697 180.133 97.6084C180.6 97.543 181.609 97.411 182.506 97.2937C182.373 96.147 182.238 95.0004 182.106 93.855C183.193 93.6924 185.724 93.3964 186.933 93.259C187.041 94.4177 187.149 95.5764 187.258 96.735C188.142 96.631 189.202 96.559 189.638 96.499C189.541 95.3364 189.445 94.1737 189.35 93.0124C189.542 92.9844 191.949 92.763 194.166 92.6017C194.306 94.899 194.448 97.1977 194.592 99.4977C194.237 99.9817 193.882 100.466 193.528 100.95C190.861 101.084 183.95 101.84 182.846 101.983C182.862 102.111 182.877 102.24 182.892 102.368C186.458 102.214 190.021 102.06 193.582 101.908C193.781 104.843 193.985 107.78 194.19 110.718C194.441 110.692 194.706 110.678 194.99 110.662C194.934 109.806 194.88 108.95 194.825 108.094C195.326 108.046 198.113 107.895 199.304 107.852C199.341 108.714 199.377 109.576 199.414 110.438C199.682 110.428 199.944 110.415 200.197 110.402C200.068 107.127 199.94 103.852 199.813 100.578C199.409 100.138 199.005 99.6964 198.602 99.2564C198.505 96.9484 198.41 94.6417 198.317 92.335C200.529 92.219 202.93 92.151 203.12 92.1524C203.145 93.335 203.17 94.5204 203.196 95.703C203.64 95.695 204.869 95.6644 205.576 95.6644C205.564 94.4804 205.553 93.2964 205.542 92.1124C206.864 92.0897 209.392 92.091 210.353 92.1137C210.338 93.2964 210.325 94.4804 210.31 95.6644C211.198 95.6697 212.35 95.6964 212.693 95.703C212.72 94.5204 212.746 93.335 212.772 92.1524C213.748 92.159 216.413 92.2857 217.576 92.3404C217.478 94.6457 217.381 96.9524 217.282 99.2604C216.89 99.703 216.497 100.148 216.104 100.592C213.106 100.444 208.529 100.402 205.425 100.443C205.425 100.571 205.424 100.7 205.424 100.828C208.966 101.068 212.512 101.314 216.061 101.559C215.948 104.508 215.833 107.458 215.717 110.407C215.965 110.414 216.217 110.427 216.477 110.438C216.513 109.576 216.549 108.714 216.585 107.852C217.776 107.895 220.562 108.046 221.068 108.094C221.009 108.95 220.95 109.806 220.892 110.662C221.166 110.678 221.428 110.691 221.666 110.711C221.893 107.47 222.116 104.23 222.336 100.991C221.981 100.494 221.628 99.9964 221.274 99.4977C221.418 97.1977 221.56 94.899 221.7 92.6017C223.92 92.7617 226.325 92.9844 226.518 93.0124C226.421 94.1737 226.322 95.3364 226.222 96.499C226.668 96.5564 227.721 96.631 228.605 96.735C228.714 95.5764 228.821 94.4177 228.929 93.259C230.14 93.395 232.668 93.6924 233.758 93.855C233.626 95.0004 233.493 96.147 233.36 97.2937C234.258 97.4124 235.265 97.543 235.734 97.6084C235.881 96.4697 236.028 95.331 236.173 94.195C237.202 94.3457 239.85 94.7577 241.016 94.967C240.68 97.187 240.338 99.411 239.996 101.638C239.557 102.015 239.117 102.392 238.678 102.77C235.79 102.322 230.914 101.703 227.953 101.424C227.94 101.552 227.926 101.68 227.913 101.808C231.444 102.447 234.984 103.083 238.533 103.714C238.102 106.59 237.664 109.471 237.22 112.358C237.465 112.392 237.71 112.434 237.966 112.474C238.102 111.628 238.238 110.783 238.376 109.939C239.75 110.144 241.244 110.371 242.853 110.652C242.701 111.486 242.55 112.32 242.397 113.155C242.67 113.203 242.936 113.246 243.185 113.283C243.773 110.158 244.352 107.04 244.922 103.931C244.62 103.403 244.318 102.874 244.017 102.343C244.406 100.131 244.793 97.923 245.174 95.7204C246.774 96.0257 249.298 96.5524 249.997 96.7124C249.784 97.795 249.569 98.879 249.353 99.963C249.83 100.067 250.814 100.248 251.73 100.459C251.961 99.387 252.192 98.315 252.421 97.2457C253.689 97.5364 256.032 98.071 257.256 98.383C257.008 99.435 256.758 100.488 256.508 101.543C257.321 101.744 258.2 101.936 258.884 102.116C259.154 101.075 259.424 100.038 259.692 99.0004C260.754 99.2844 263.318 99.9484 264.538 100.304C263.937 102.379 263.329 104.463 262.716 106.556C262.262 106.818 261.808 107.08 261.354 107.343C258.445 106.584 253.144 105.411 250.576 104.894C250.549 105.014 250.521 105.134 250.494 105.255C254.012 106.268 257.544 107.266 261.092 108.243L247.297 148.447L247.296 148.458C220.588 143.244 194.001 143.511 168.737 148.499V148.494L154.544 107.355Z" fill="#FFAF01" stroke="black" stroke-opacity="0.12"/>
</g>
</g>
<mask id="mask4_1_7" style="mask-type:luminance" maskUnits="userSpaceOnUse" x="150" y="376" width="116" height="58">
<mask id="mask5_1_7" style="mask-type:luminance" maskUnits="userSpaceOnUse" x="150" y="376" width="116" height="58">
<path d="M151.338 377.096H264.538V433.499H151.338V377.096Z" fill="white" stroke="white"/>
</mask>
<g mask="url(#mask5_1_7)">
<path d="M151.342 377.091H264.539V433.5H151.342V377.091Z" fill="#F2AF43" stroke="black"/>
<mask id="mask6_1_7" style="mask-type:luminance" maskUnits="userSpaceOnUse" x="150" y="376" width="116" height="58">
<path d="M151.338 377.091H264.538V433.499H151.338V377.091Z" fill="white" stroke="white"/>
</mask>
<g mask="url(#mask6_1_7)">
<path d="M167.774 418.761C167.647 418.346 167.521 417.931 167.394 417.518C168.867 417.151 171.093 416.645 172.761 416.281C172.085 413.737 171.41 411.201 170.735 408.671C170.101 406.286 169.291 404.967 166.662 403.997C167.122 404.282 167.887 404.785 168.378 405.201C169.183 405.894 169.723 407.001 169.981 408.113C170.633 410.531 171.283 412.957 171.934 415.389C170.758 415.635 168.478 416.161 167.099 416.503C166.414 414.293 165.73 412.09 165.045 409.895C164.309 407.485 165.313 405.433 165.957 404.089C166.031 403.941 166.109 403.79 166.185 403.642C166.217 403.579 166.25 403.517 166.283 403.455L166.455 403.49C170.623 404.431 171.307 406.995 171.555 407.955C172.365 411.086 173.175 414.227 173.985 417.379C172.095 417.777 170.359 418.131 167.774 418.761Z" fill="#F2AF43" stroke="black"/>
<path d="M186.221 415.315C186.147 414.871 186.077 414.427 186.005 413.982C187.359 413.79 189.757 413.509 191.375 413.345C191.049 410.635 190.722 407.927 190.394 405.221C190.067 402.703 189.438 401.233 186.965 399.847C187.378 400.207 188.071 400.833 188.509 401.339C189.21 402.159 189.609 403.373 189.725 404.537C190.045 407.138 190.366 409.742 190.687 412.346C189.583 412.465 187.273 412.729 185.843 412.933C185.466 410.473 185.087 408.015 184.71 405.562C184.477 403.974 184.743 403.033 185.069 402.113C185.361 401.287 185.854 400.431 186.255 399.839C186.347 399.697 186.439 399.557 186.531 399.414C186.574 399.358 186.617 399.301 186.658 399.245C186.714 399.265 186.77 399.283 186.826 399.302C190.818 400.907 191.169 403.615 191.291 404.615C191.687 407.945 192.083 411.278 192.479 414.613C190.577 414.806 188.809 414.958 186.221 415.315Z" fill="#F2AF43" stroke="black"/>
<path d="M218.413 419.312L211.645 424.19C207.284 424.2 199.419 422.628 199.403 414.864L199.383 404.345L207.164 397.961C211 397.469 215.008 400.637 219.423 401.185L213.991 405.156C210.947 405.42 208.377 402.546 206.268 402.945L206.292 415.504C206.297 418.081 210.393 420.68 218.413 419.312Z" fill="#F2AF43" stroke="black"/>
<path d="M231.298 405.935C230.803 409.025 230.308 412.118 229.814 415.214C228.362 415.006 225.464 414.713 223.683 414.555C223.73 414.101 223.775 413.646 223.823 413.191C225.18 413.314 227.535 413.534 229.116 413.77C229.507 411.251 229.899 408.737 230.29 406.222C230.614 403.718 230.388 402.119 228.375 399.99C228.683 400.467 229.183 401.291 229.47 401.91C229.936 402.926 230.004 404.207 229.815 405.354C229.451 407.779 229.088 410.206 228.724 412.634C227.534 412.463 225.42 412.283 223.947 412.125C224.214 409.666 224.48 407.209 224.747 404.751C224.934 403.143 225.432 402.331 225.982 401.546C226.466 400.846 227.163 400.186 227.699 399.75C227.824 399.645 227.95 399.539 228.075 399.435C228.131 399.394 228.186 399.353 228.24 399.313C228.287 399.349 228.332 399.382 228.379 399.417C231.794 402.258 231.439 404.937 231.298 405.935Z" fill="#F2AF43" stroke="black"/>
<path d="M251.032 410.253C250.163 413.026 249.293 415.812 248.424 418.609C246.941 418.217 244.036 417.622 242.36 417.277C242.464 416.845 242.569 416.416 242.673 415.985C243.964 416.254 246.3 416.736 247.919 417.146C248.608 414.88 249.296 412.618 249.985 410.366C250.648 408.012 250.637 406.442 248.939 404.054C249.175 404.573 249.563 405.452 249.757 406.088C250.087 407.148 249.979 408.384 249.639 409.466C248.984 411.642 248.329 413.826 247.673 416.014C246.468 415.704 244.272 415.268 242.949 414.969C243.531 412.666 244.113 410.368 244.693 408.074C245.095 406.55 245.696 405.842 246.347 405.173C246.929 404.58 247.704 404.056 248.295 403.713L248.713 403.47C248.773 403.441 248.832 403.409 248.892 403.38C248.933 403.42 248.973 403.461 249.015 403.504C252.02 406.8 251.305 409.309 251.032 410.253Z" fill="#F2AF43" stroke="black"/>
<path d="M249.394 427.777C242.218 426.222 238.123 425.414 227.367 424.041C226.945 423.987 226.435 423.839 226.434 423.414C226.434 422.869 226.97 422.806 227.389 422.838C234.989 423.417 242.666 424.722 250.122 426.386C250.537 426.478 253.371 427.859 253.279 428.274C253.198 428.638 250.381 427.99 249.394 427.777Z" fill="#F2AF43" stroke="black"/>
<path d="M166.705 427.777C173.881 426.222 177.976 425.414 188.732 424.041C189.154 423.987 189.664 423.839 189.665 423.414C189.665 422.869 189.129 422.806 188.71 422.838C181.11 423.417 173.433 424.722 165.977 426.386C165.562 426.478 162.728 427.859 162.82 428.274C162.901 428.638 165.718 427.99 166.705 427.777Z" fill="#F2AF43" stroke="black"/>
</g>
</g>
</mask>
<g mask="url(#mask4_1_7)">
<mask id="mask7_1_7" style="mask-type:luminance" maskUnits="userSpaceOnUse" x="150" y="376" width="116" height="58">
<path d="M151.338 377.096H264.538V433.499H151.338V377.096Z" fill="white" stroke="white"/>
</mask>
<g mask="url(#mask7_1_7)">
<path d="M154.544 392.355C154.084 392.088 153.622 391.822 153.162 391.556C152.55 389.463 151.942 387.379 151.341 385.304C152.565 384.948 155.128 384.286 156.194 384C156.46 385.038 156.726 386.075 156.996 387.116C157.684 386.936 158.557 386.744 159.373 386.543C159.122 385.488 158.874 384.435 158.626 383.383C159.852 383.071 162.186 382.536 163.462 382.246C163.692 383.315 163.922 384.387 164.154 385.459C165.068 385.248 166.05 385.066 166.532 384.963C166.316 383.878 166.101 382.795 165.886 381.712C166.58 381.552 169.108 381.026 170.708 380.72C171.089 382.923 171.474 385.131 171.865 387.343C171.557 387.83 171.25 388.316 170.941 388.802C167.946 389.323 163.364 390.272 160.266 390.966C160.294 391.09 160.322 391.214 160.352 391.338C163.945 390.814 167.529 390.279 171.105 389.739C171.628 392.579 172.158 395.428 172.697 398.283C172.942 398.246 173.201 398.2 173.477 398.155C173.325 397.32 173.174 396.486 173.022 395.652C174.634 395.375 176.128 395.148 177.501 394.939C177.634 395.78 177.768 396.622 177.902 397.463C178.152 397.426 178.397 397.394 178.644 397.358C178.149 394.155 177.662 390.959 177.184 387.77C176.744 387.392 176.305 387.015 175.866 386.638C175.524 384.411 175.182 382.187 174.848 379.967C176.014 379.758 178.66 379.347 179.688 379.195C179.836 380.332 179.984 381.47 180.133 382.608C180.6 382.543 181.609 382.411 182.506 382.294C182.373 381.147 182.238 380 182.106 378.855C183.193 378.692 185.724 378.396 186.933 378.259C187.041 379.418 187.149 380.576 187.258 381.735C188.142 381.631 189.202 381.559 189.638 381.499C189.541 380.336 189.445 379.174 189.35 378.012C189.542 377.984 191.949 377.763 194.166 377.602C194.306 379.899 194.448 382.198 194.592 384.498C194.237 384.982 193.882 385.466 193.528 385.95C190.861 386.084 183.95 386.84 182.846 386.983C182.862 387.111 182.877 387.24 182.892 387.368C186.458 387.214 190.021 387.06 193.582 386.908C193.781 389.843 193.985 392.78 194.19 395.718C194.441 395.692 194.706 395.678 194.99 395.662C194.934 394.806 194.88 393.95 194.825 393.094C195.326 393.046 198.113 392.895 199.304 392.852C199.341 393.714 199.377 394.576 199.414 395.438C199.682 395.428 199.944 395.415 200.197 395.402C200.068 392.127 199.94 388.852 199.813 385.578C199.409 385.138 199.005 384.696 198.602 384.256C198.505 381.948 198.41 379.642 198.317 377.335C200.529 377.219 202.93 377.151 203.12 377.152C203.145 378.335 203.17 379.52 203.196 380.703C203.64 380.695 204.869 380.664 205.576 380.664C205.564 379.48 205.553 378.296 205.542 377.112C206.864 377.09 209.392 377.091 210.353 377.114C210.338 378.296 210.325 379.48 210.31 380.664C211.198 380.67 212.35 380.696 212.693 380.703C212.72 379.52 212.746 378.335 212.772 377.152C213.748 377.159 216.413 377.286 217.576 377.34C217.478 379.646 217.381 381.952 217.282 384.26C216.89 384.703 216.497 385.148 216.104 385.592C213.106 385.444 208.529 385.402 205.425 385.443C205.425 385.571 205.424 385.7 205.424 385.828C208.966 386.068 212.512 386.314 216.061 386.559C215.948 389.508 215.833 392.458 215.717 395.407C215.965 395.414 216.217 395.427 216.477 395.438C216.513 394.576 216.549 393.714 216.585 392.852C217.776 392.895 220.562 393.046 221.068 393.094C221.009 393.95 220.95 394.806 220.892 395.662C221.166 395.678 221.428 395.691 221.666 395.711C221.893 392.47 222.116 389.23 222.336 385.991C221.981 385.494 221.628 384.996 221.274 384.498C221.418 382.198 221.56 379.899 221.7 377.602C223.92 377.762 226.325 377.984 226.518 378.012C226.421 379.174 226.322 380.336 226.222 381.499C226.668 381.556 227.721 381.631 228.605 381.735C228.714 380.576 228.821 379.418 228.929 378.259C230.14 378.395 232.668 378.692 233.758 378.855C233.626 380 233.493 381.147 233.36 382.294C234.258 382.412 235.265 382.543 235.734 382.608C235.881 381.47 236.028 380.331 236.173 379.195C237.202 379.346 239.85 379.758 241.016 379.967C240.68 382.187 240.338 384.411 239.996 386.638C239.557 387.015 239.117 387.392 238.678 387.77C235.79 387.322 230.914 386.703 227.953 386.424C227.94 386.552 227.926 386.68 227.913 386.808C231.444 387.447 234.984 388.083 238.533 388.714C238.102 391.59 237.664 394.471 237.22 397.358C237.465 397.392 237.71 397.434 237.966 397.474C238.102 396.628 238.238 395.783 238.376 394.939C239.75 395.144 241.244 395.371 242.853 395.652C242.701 396.486 242.55 397.32 242.397 398.155C242.67 398.203 242.936 398.246 243.185 398.283C243.773 395.158 244.352 392.04 244.922 388.931C244.62 388.403 244.318 387.874 244.017 387.343C244.406 385.131 244.793 382.923 245.174 380.72C246.774 381.026 249.298 381.552 249.997 381.712C249.784 382.795 249.569 383.879 249.353 384.963C249.83 385.067 250.814 385.248 251.73 385.459C251.961 384.387 252.192 383.315 252.421 382.246C253.689 382.536 256.032 383.071 257.256 383.383C257.008 384.435 256.758 385.488 256.508 386.543C257.321 386.744 258.2 386.936 258.884 387.116C259.154 386.075 259.424 385.038 259.692 384C260.754 384.284 263.318 384.948 264.538 385.304C263.937 387.379 263.329 389.463 262.716 391.556C262.262 391.818 261.808 392.08 261.354 392.343C258.445 391.584 253.144 390.411 250.576 389.894C250.549 390.014 250.521 390.134 250.494 390.255C254.012 391.268 257.544 392.266 261.092 393.243L247.297 433.447L247.296 433.458C220.588 428.244 194.001 428.511 168.737 433.499V433.494L154.544 392.355Z" fill="#FFAF01" stroke="black" stroke-opacity="0.12"/>
</g>
</g>
<path d="M356.362 107.271C356.944 107.852 357.717 108.172 358.542 108.172C359.368 108.172 360.141 107.852 360.722 107.271L363.184 104.805C364.386 103.601 364.384 101.645 363.181 100.443L360.724 97.9895C360.142 97.4095 359.368 97.0895 358.542 97.0895C357.717 97.0895 356.942 97.4095 356.361 97.9895L353.905 100.443C352.702 101.645 352.7 103.601 353.901 104.805L356.362 107.271Z" fill="white"/>
<path d="M401.617 107.271C402.197 107.852 402.971 108.172 403.797 108.172C404.622 108.172 405.395 107.852 405.977 107.271L408.438 104.805C409.639 103.601 409.638 101.645 408.435 100.443L405.978 97.9895C405.397 97.4095 404.622 97.0895 403.797 97.0895C402.97 97.0895 402.197 97.4095 401.615 97.9895L399.159 100.443C397.955 101.645 397.954 103.601 399.155 104.805L401.617 107.271Z" fill="white"/>
<path d="M366.458 113.513C365.786 110.521 362.933 109.455 360.696 109.455L360.582 109.458L353.609 109.457H351.597L352.969 110.929C354.946 113.05 354.925 116.211 354.9 120.214C354.896 120.687 354.893 121.173 354.893 121.667V148.73V149.605H355.768H366.165H367.041V148.73V121.667V120.793H367.037C367.025 118.117 366.942 115.573 366.458 113.513Z" fill="white"/>
<path d="M411.975 113.513C411.303 110.521 408.449 109.455 406.212 109.455L406.099 109.458L399.125 109.457H397.113L398.485 110.929C400.463 113.05 400.441 116.211 400.416 120.214C400.412 120.687 400.409 121.173 400.409 121.667V148.73V149.605H401.284H411.681H412.556V148.73V121.667V120.793H412.553C412.541 118.117 412.459 115.573 411.975 113.513Z" fill="white"/>
<path d="M514.426 148.14C512.448 146.014 512.469 142.866 512.496 138.88C512.5 138.399 512.504 137.908 512.504 137.406V110.331V109.456H511.628H501.228H500.353V110.331V137.406C500.353 138.566 500.361 139.775 500.408 140.942C497.761 139.879 496.169 138.15 496.169 134.043V121.614C496.169 118.598 496.124 115.699 495.576 113.406C494.396 109.516 489.378 109.406 488.809 109.406H488.802H488.762H482.74H480.725L482.1 110.878C484.077 112.994 484.056 116.138 484.028 120.119C484.024 120.607 484.021 121.104 484.021 121.614V134.246C484.021 140.807 486.566 145.784 491.586 149.038C492.246 149.454 492.93 149.662 493.629 149.662C494.826 149.662 495.624 149.046 495.71 148.975L495.737 148.954L495.761 148.931L500.696 144.292C501.066 146.731 501.78 148.335 502.934 149.384L503.185 149.611H503.524H513.786H515.796L514.426 148.14Z" fill="white"/>
<path d="M466.699 141.107C464.982 140.199 462.494 138.481 462.494 136.163C462.494 133.628 464.736 132.02 466.686 131.469L466.69 134.289C466.694 136.668 466.698 139.543 466.699 141.107ZM479.232 139.869V120.505V119.631H479.219C479.135 116.232 478.183 109.1 467.435 109.1C464.268 109.1 458.155 110.357 454.294 113.823L454.004 114.084V114.475V122.809V124.531L455.394 123.516C459.5 120.521 461.442 120.297 463.935 120.297C464.596 120.297 465.119 120.511 465.532 120.951C466.408 121.884 466.644 123.664 466.676 124.772C464.236 125.253 460.274 126.316 456.899 128.521C452.594 131.335 450.41 135.153 450.41 139.872C450.41 144.624 453.652 147.645 455.586 149.023C456.316 149.477 457.046 149.692 457.8 149.692C458.998 149.692 459.858 149.152 460.06 149.011L466.991 144.771C467.692 147.857 469.459 149.337 469.544 149.407L469.786 149.605H470.099H480.706H482.426L481.414 148.215C479.232 145.221 479.232 142.5 479.232 139.869Z" fill="white"/>
<path d="M348.28 138.919C348.283 138.441 348.287 137.95 348.287 137.45V124.817C348.287 119.307 346.5 114.909 342.975 111.741C341.764 110.461 340.425 109.811 338.995 109.811C336.697 109.811 335.024 111.527 334.764 111.811L331.757 114.634V106.673C331.757 104.19 331.731 101.587 331.419 99.4232C330.941 95.7659 327.881 94.4579 325.177 94.4579C324.988 94.4579 324.88 94.4646 324.88 94.4646L318.719 94.4633H316.92L318.031 95.8779C319.673 97.9713 319.649 101.07 319.619 104.991C319.615 105.538 319.611 106.098 319.611 106.673V148.727V149.602H320.485H330.883H331.757V148.727V118.057C334.491 119.125 336.139 120.855 336.139 125.025V137.45C336.139 142.921 336.329 147.278 338.725 149.437L338.975 149.661H339.311H349.565H351.568L350.207 148.191C348.232 146.061 348.253 142.91 348.28 138.919Z" fill="white"/>
<path d="M446.593 138.927C446.597 138.446 446.6 137.953 446.6 137.449V124.817C446.6 119.282 444.796 114.867 441.238 111.697C440.1 110.641 438.804 110.099 437.401 110.099C434.976 110.099 433.137 111.754 433.06 111.825L429.928 114.766C429.85 114.257 429.758 113.787 429.649 113.35C428.798 109.642 423.89 109.453 422.916 109.453L422.813 109.454H416.842H414.826L416.204 110.926C418.181 113.042 418.161 116.203 418.134 120.206C418.13 120.682 418.128 121.167 418.128 121.663V148.73V149.605H419.002H429.396H430.27V148.73V121.663V120.789H430.266C430.262 119.925 430.25 119.014 430.216 118.117C432.86 119.185 434.45 120.917 434.45 125.025V137.449C434.45 142.921 434.641 147.277 437.036 149.435L437.285 149.661H437.621H447.884H449.892L448.524 148.19C446.544 146.062 446.566 142.914 446.593 138.927Z" fill="white"/>
<path d="M385.578 142.118C382.435 141.104 379.234 136.998 378.221 134.544L377.863 133.678C383.385 137.276 384.883 140.045 385.569 142.064C385.574 142.082 385.578 142.101 385.578 142.118ZM388.718 124.141L386.426 122.592C382.009 119.61 380.266 118.434 379.442 117.309C380.731 117.484 382.013 118.253 383.361 119.062C385.143 120.133 386.987 121.241 389.17 121.241L389.245 121.24L389.657 121.236L389.915 120.916L395.747 113.712L396.839 112.364L395.106 112.288C392.663 112.18 390.461 111.214 388.329 110.28C386.194 109.344 384.178 108.46 382.037 108.46C381.282 108.46 380.542 108.574 379.837 108.801L379.607 108.876L379.449 109.056L371.169 118.453L371.147 118.478L371.127 118.504C370.503 119.33 369.793 120.958 369.705 122.584C369.587 124.68 371.098 129.322 377.494 133.44L376.749 134.308L369.339 142.928L368.785 143.573L369.414 144.145C371.955 146.457 374.329 147.93 376.447 148.858L377.082 150.365C377.445 151.225 377.554 152.162 377.407 153.15C377.307 154.013 377.149 155.406 378.23 155.866C378.446 155.942 378.617 155.972 378.793 155.972C379.299 155.972 379.742 155.737 380.034 155.582C381.801 154.648 382.971 153.176 383.613 151.08L383.867 150.245C384.565 150.184 385.123 150.076 385.503 149.976L385.757 149.91L385.931 149.716L396.593 137.917L396.859 137.622L396.813 137.229C396.451 134.144 394.918 128.342 388.718 124.141Z" fill="white"/>
<path d="M464.837 106.919L465.054 107.064C465.472 107.347 465.944 107.666 466.605 107.666C467.176 107.666 467.76 107.424 468.444 106.906C469.882 105.824 477.19 100.262 477.19 100.262L479.254 98.6897H476.661H473.049C469.946 98.6897 467.438 100.307 467.333 100.375L467.306 100.392L467.281 100.411L466.632 100.906L465.981 100.411L465.957 100.392L465.93 100.375C465.825 100.307 463.317 98.6897 460.214 98.6897H456.601H454.02L456.07 100.259C456.392 100.507 463.976 106.312 464.837 106.919Z" fill="white"/>
<path d="M297.903 137.272C296.322 135.962 295.451 134.324 295.451 132.666V102.676C296.89 102.63 298.634 103.6 300.446 104.606C302.903 105.97 305.684 107.515 308.782 107.227L308.982 107.207L320.134 98.1522L318.627 97.9402C315.243 97.4656 311.948 95.9909 308.762 94.5642C304.472 92.6429 300.422 90.8296 296.332 91.4056L296.13 91.4336L281.696 104.587V131.352C281.696 138.478 284.522 143.806 290.094 147.19C295.514 150.479 301.918 150.835 304.419 150.835H304.652L319.136 139.236L316.528 139.727C308.412 141.254 301.624 140.36 297.903 137.272Z" fill="white"/>
<path d="M484.34 103.137C484.34 103.468 484.352 103.724 484.38 103.913C484.4 104.111 484.452 104.245 484.531 104.344C484.608 104.436 484.726 104.5 484.874 104.52C485.024 104.54 485.223 104.552 485.47 104.552C485.868 104.552 486.154 104.449 486.33 104.264C486.51 104.06 486.594 103.76 486.594 103.352C486.594 103.055 486.55 102.823 486.458 102.64C486.364 102.453 486.238 102.311 486.086 102.215C485.928 102.112 485.747 102.039 485.534 102.001C485.319 101.963 485.098 101.941 484.856 101.941H484.667C484.538 101.941 484.448 101.983 484.408 102.06C484.363 102.135 484.34 102.236 484.34 102.349V103.137ZM484.34 101.328C484.34 101.385 484.359 101.44 484.399 101.489C484.434 101.536 484.494 101.561 484.583 101.561H484.77C484.986 101.561 485.187 101.541 485.367 101.511C485.55 101.484 485.708 101.415 485.842 101.328C485.976 101.244 486.075 101.113 486.152 100.964C486.227 100.808 486.266 100.607 486.266 100.363C486.266 99.9452 486.152 99.6439 485.927 99.4692C485.694 99.2932 485.367 99.2092 484.939 99.2092H484.603C484.474 99.2092 484.4 99.2359 484.38 99.2985C484.352 99.3585 484.34 99.4692 484.34 99.6185V101.328ZM483.26 100.372C483.26 100.239 483.258 100.111 483.244 99.9852C483.238 99.8625 483.212 99.7359 483.18 99.6239C483.148 99.5185 483.102 99.4252 483.028 99.3479C482.956 99.2772 482.863 99.2185 482.744 99.1892C482.667 99.1719 482.592 99.1585 482.512 99.1465C482.436 99.1385 482.356 99.1265 482.288 99.1185C482.246 99.1185 482.211 99.0999 482.198 99.0692C482.172 99.0425 482.166 99.0092 482.166 98.9679C482.166 98.9292 482.172 98.8972 482.198 98.8679C482.211 98.8385 482.246 98.8199 482.288 98.8199C482.51 98.8199 482.711 98.8305 482.892 98.8399C483.078 98.8599 483.282 98.8639 483.516 98.8639C483.618 98.8639 483.731 98.8612 483.85 98.8599C483.972 98.8572 484.098 98.8519 484.228 98.8399C484.355 98.8359 484.482 98.8345 484.608 98.8305C484.728 98.8252 484.835 98.8199 484.939 98.8199C485.198 98.8199 485.467 98.8425 485.751 98.8852C486.036 98.9199 486.302 98.9945 486.538 99.1092C486.78 99.2159 486.978 99.3585 487.136 99.5532C487.292 99.7439 487.371 99.9919 487.371 100.288C487.371 100.475 487.34 100.639 487.274 100.776C487.212 100.912 487.126 101.031 487.02 101.133C486.912 101.244 486.792 101.329 486.646 101.403C486.498 101.484 486.343 101.54 486.188 101.595C486.134 101.616 486.114 101.64 486.116 101.667C486.122 101.696 486.148 101.719 486.188 101.732C486.444 101.799 486.674 101.889 486.876 101.984C487.08 102.076 487.251 102.183 487.39 102.305C487.526 102.431 487.631 102.588 487.706 102.759C487.778 102.927 487.815 103.129 487.815 103.367C487.815 103.683 487.755 103.943 487.631 104.152C487.51 104.348 487.348 104.517 487.14 104.627C486.932 104.749 486.703 104.832 486.439 104.879C486.179 104.928 485.914 104.951 485.632 104.951C485.504 104.951 485.364 104.949 485.214 104.941C485.059 104.939 484.896 104.933 484.728 104.931C484.567 104.928 484.399 104.924 484.228 104.92C484.063 104.916 483.904 104.913 483.755 104.913C483.618 104.913 483.492 104.913 483.375 104.916C483.268 104.919 483.16 104.923 483.062 104.928C482.955 104.931 482.847 104.939 482.742 104.947C482.627 104.956 482.503 104.965 482.364 104.979C482.318 104.985 482.282 104.975 482.258 104.941C482.231 104.919 482.211 104.879 482.208 104.84C482.206 104.807 482.218 104.772 482.243 104.74C482.266 104.692 482.302 104.675 482.354 104.669C482.512 104.657 482.648 104.624 482.77 104.595C482.887 104.569 482.979 104.523 483.058 104.453C483.126 104.392 483.175 104.315 483.21 104.219C483.242 104.131 483.26 104 483.26 103.839V100.372Z" fill="#F2A92D"/>
<path d="M356.362 386.346C356.944 386.927 357.717 387.247 358.542 387.247C359.368 387.247 360.141 386.927 360.722 386.346L363.184 383.881C364.386 382.677 364.384 380.721 363.181 379.518L360.724 377.065C360.142 376.485 359.368 376.165 358.542 376.165C357.717 376.165 356.942 376.485 356.361 377.065L353.905 379.518C352.702 380.721 352.7 382.677 353.901 383.881L356.362 386.346Z" fill="white"/>
<path d="M401.617 386.346C402.197 386.927 402.971 387.247 403.797 387.247C404.622 387.247 405.395 386.927 405.977 386.346L408.438 383.881C409.639 382.677 409.638 380.721 408.435 379.518L405.978 377.065C405.397 376.485 404.622 376.165 403.797 376.165C402.97 376.165 402.197 376.485 401.615 377.065L399.159 379.518C397.955 380.721 397.954 382.677 399.155 383.881L401.617 386.346Z" fill="white"/>
<path d="M366.458 392.588C365.786 389.596 362.933 388.531 360.696 388.531L360.582 388.533L353.609 388.532H351.597L352.969 390.004C354.946 392.125 354.925 395.287 354.9 399.289C354.896 399.763 354.893 400.248 354.893 400.743V427.805V428.68H355.768H366.165H367.041V427.805V400.743V399.868H367.037C367.025 397.192 366.942 394.648 366.458 392.588Z" fill="white"/>
<path d="M411.975 392.588C411.303 389.596 408.449 388.531 406.212 388.531L406.099 388.533L399.125 388.532H397.113L398.485 390.004C400.463 392.125 400.441 395.287 400.416 399.289C400.412 399.763 400.409 400.248 400.409 400.743V427.805V428.68H401.284H411.681H412.556V427.805V400.743V399.868H412.553C412.541 397.192 412.459 394.648 411.975 392.588Z" fill="#FDFDFD"/>
<path d="M514.426 427.216C512.448 425.089 512.469 421.941 512.496 417.956C512.5 417.474 512.504 416.984 512.504 416.481V389.406V388.532H511.628H501.228H500.353V389.406V416.481C500.353 417.641 500.361 418.849 500.408 420.017C497.761 418.954 496.169 417.225 496.169 413.118V400.689C496.169 397.673 496.124 394.774 495.576 392.481C494.396 388.592 489.378 388.481 488.809 388.481H488.802H488.762H482.74H480.725L482.1 389.953C484.077 392.069 484.056 395.213 484.028 399.194C484.024 399.682 484.021 400.18 484.021 400.689V413.321C484.021 419.882 486.566 424.86 491.586 428.113C492.246 428.529 492.93 428.737 493.629 428.737C494.826 428.737 495.624 428.121 495.71 428.05L495.737 428.029L495.761 428.006L500.696 423.368C501.066 425.806 501.78 427.41 502.934 428.46L503.185 428.686H503.524H513.786H515.796L514.426 427.216Z" fill="white"/>
<path d="M466.699 420.182C464.982 419.274 462.494 417.556 462.494 415.238C462.494 412.703 464.736 411.095 466.686 410.544L466.69 413.364C466.694 415.743 466.698 418.618 466.699 420.182ZM479.232 418.944V399.58V398.706H479.219C479.135 395.307 478.183 388.175 467.435 388.175C464.268 388.175 458.155 389.432 454.294 392.898L454.004 393.159V393.55V401.884V403.606L455.394 402.591C459.5 399.596 461.442 399.372 463.935 399.372C464.596 399.372 465.119 399.586 465.532 400.026C466.408 400.959 466.644 402.739 466.676 403.847C464.236 404.328 460.274 405.391 456.899 407.596C452.594 410.41 450.41 414.228 450.41 418.947C450.41 423.699 453.652 426.72 455.586 428.098C456.316 428.552 457.046 428.767 457.8 428.767C458.998 428.767 459.858 428.227 460.06 428.086L466.991 423.846C467.692 426.932 469.459 428.412 469.544 428.482L469.786 428.68H470.099H480.706H482.426L481.414 427.29C479.232 424.296 479.232 421.575 479.232 418.944Z" fill="white"/>
<path d="M348.28 417.995C348.283 417.516 348.287 417.025 348.287 416.525V403.892C348.287 398.383 346.5 393.984 342.975 390.816C341.764 389.536 340.425 388.887 338.995 388.887C336.697 388.887 335.024 390.603 334.764 390.887L331.757 393.709V385.748C331.757 383.265 331.731 380.663 331.419 378.499C330.941 374.841 327.881 373.533 325.177 373.533C324.988 373.533 324.88 373.541 324.88 373.541L318.719 373.539H316.92L318.031 374.953C319.673 377.047 319.649 380.145 319.619 384.067C319.615 384.613 319.611 385.173 319.611 385.748V427.803V428.677H320.485H330.883H331.757V427.803V397.132C334.491 398.2 336.139 399.931 336.139 404.1V416.525C336.139 421.996 336.329 426.353 338.725 428.512L338.975 428.736H339.311H349.565H351.568L350.207 427.267C348.232 425.136 348.253 421.985 348.28 417.995Z" fill="white"/>
<path d="M446.593 418.003C446.597 417.521 446.6 417.028 446.6 416.524V403.892C446.6 398.357 444.796 393.943 441.238 390.772C440.1 389.716 438.804 389.175 437.401 389.175C434.976 389.175 433.137 390.829 433.06 390.9L429.928 393.841C429.85 393.332 429.758 392.863 429.649 392.425C428.798 388.717 423.89 388.528 422.916 388.528L422.813 388.529H416.842H414.826L416.204 390.001C418.181 392.117 418.161 395.279 418.134 399.281C418.13 399.757 418.128 400.243 418.128 400.739V427.805V428.68H419.002H429.396H430.27V427.805V400.739V399.864H430.266C430.262 399 430.25 398.089 430.216 397.192C432.86 398.26 434.45 399.992 434.45 404.1V416.524C434.45 421.996 434.641 426.352 437.036 428.511L437.285 428.736H437.621H447.884H449.892L448.524 427.265C446.544 425.137 446.566 421.988 446.593 418.003Z" fill="white"/>
<path d="M385.578 421.194C382.435 420.179 379.234 416.074 378.221 413.619L377.863 412.754C383.385 416.351 384.883 419.12 385.569 421.139C385.574 421.158 385.578 421.176 385.578 421.194ZM388.718 403.216L386.426 401.667C382.009 398.686 380.266 397.51 379.442 396.384C380.731 396.559 382.013 397.328 383.361 398.138C385.143 399.208 386.987 400.316 389.17 400.316L389.245 400.315L389.657 400.311L389.915 399.991L395.747 392.787L396.839 391.439L395.106 391.363C392.663 391.255 390.461 390.29 388.329 389.355C386.194 388.419 384.178 387.535 382.037 387.535C381.282 387.535 380.542 387.65 379.837 387.876L379.607 387.951L379.449 388.131L371.169 397.528L371.147 397.554L371.127 397.579C370.503 398.406 369.793 400.034 369.705 401.659C369.587 403.755 371.098 408.398 377.494 412.515L376.749 413.383L369.339 422.003L368.785 422.648L369.414 423.22C371.955 425.532 374.329 427.006 376.447 427.934L377.082 429.44C377.445 430.3 377.554 431.238 377.407 432.226C377.307 433.088 377.149 434.482 378.23 434.942C378.446 435.018 378.617 435.047 378.793 435.047C379.299 435.047 379.742 434.812 380.034 434.658C381.801 433.723 382.971 432.251 383.613 430.155L383.867 429.32C384.565 429.259 385.123 429.15 385.503 429.051L385.757 428.986L385.931 428.791L396.593 416.992L396.859 416.698L396.813 416.304C396.451 413.219 394.918 407.418 388.718 403.216Z" fill="#FFFDF9"/>
<path d="M464.837 385.994L465.054 386.14C465.472 386.422 465.944 386.741 466.605 386.741C467.176 386.741 467.76 386.5 468.444 385.981C469.882 384.9 477.19 379.337 477.19 379.337L479.254 377.765H476.661H473.049C469.946 377.765 467.438 379.382 467.333 379.45L467.306 379.468L467.281 379.486L466.632 379.981L465.981 379.486L465.957 379.468L465.93 379.45C465.825 379.382 463.317 377.765 460.214 377.765H456.601H454.02L456.07 379.334C456.392 379.582 463.976 385.388 464.837 385.994Z" fill="white"/>
</svg>
