<svg width="157" height="156" viewBox="0 0 157 156" fill="none" xmlns="http://www.w3.org/2000/svg">
<path d="M152.191 149.87H121.355V138.352C121.355 138.11 121.324 137.874 121.272 137.649C121.348 137.639 121.428 137.632 121.501 137.622C121.681 137.66 121.892 137.687 122.124 137.687C125.021 137.698 127.919 137.705 130.817 137.715C134.992 137.725 139.163 137.739 143.338 137.757C145.367 137.763 146.423 136.382 146.873 135.79C160.368 118.062 160.385 92.2806 146.918 74.4863C146.274 73.6381 145.177 72.5061 143.203 72.5234C137.609 72.558 139.098 72.5961 138.921 72.5961V65.6272C138.969 65.6203 139.167 65.6134 143.338 65.6307H143.359C145.377 65.6307 146.426 64.2563 146.873 63.6677C160.368 45.9392 160.385 20.1582 146.918 2.36385C146.278 1.51914 145.204 0.40093 143.238 0.40093H143.203C137.689 0.43555 132.077 0.449395 126.652 0.463243L121.867 0.477093C112.676 0.41824 78.081 0.317851 68.4914 0.310927C62.1526 0.307465 55.7134 0.328232 49.482 0.349003C43.569 0.369775 37.4552 0.380166 31.4418 0.38709C29.5239 0.38709 28.1045 1.12101 26.9725 2.69273C21.6238 10.129 18.3695 18.6038 17.4106 27.4629H9.76668V24.9599C9.76668 23.3535 8.46148 22.0484 6.85514 22.0484C5.24881 22.0484 3.94369 23.3535 3.94369 24.9599V149.866H2.90511C1.29877 149.866 -0.00634766 151.172 -0.00634766 152.778C-0.00634766 154.384 1.29877 155.689 2.90511 155.689H152.191C153.797 155.689 155.102 154.384 155.102 152.778C155.102 151.172 153.797 149.866 152.191 149.866V149.87ZM132.194 132.726C126.098 132.726 101.207 132.726 93.2269 132.726C82.3495 132.726 52.2688 132.726 41.6165 132.733L132.194 132.723V132.726ZM93.2269 137.76C101.231 137.76 108.678 137.76 114.784 137.76C114.746 137.954 114.726 138.151 114.726 138.355V149.873H60.1239V137.77C70.7728 137.767 82.3564 137.767 93.2269 137.764V137.76ZM139.347 77.6401C139.347 77.6401 137.422 77.602 142.93 77.5674C148.753 85.2737 151.952 95.0744 151.945 105.166C151.938 115.261 148.718 125.051 142.881 132.73C139.381 132.73 138.821 132.737 138.821 132.737C138.8 132.737 34.9799 132.737 34.9799 132.737C26.5847 132.74 37.5591 132.747 31.833 132.758C31.2757 132.758 31.2203 132.726 30.8949 132.266C19.1104 115.673 19.1762 94.2747 31.0576 77.7578C31.1337 77.6505 31.1891 77.5916 31.2203 77.5605C31.2583 77.5536 31.3275 77.5466 31.4418 77.5466C37.4621 77.5466 33.3978 77.4982 34.9833 77.4912L40.8652 77.4739C43.6624 77.467 119.188 77.5432 132.755 77.602C132.87 77.602 132.963 77.6955 132.963 77.8098L138.845 77.8409C138.845 77.7232 138.938 77.6297 139.056 77.6332C139.156 77.6332 139.253 77.6332 139.35 77.6332L139.347 77.6401ZM68.4914 72.4437C65.708 72.4437 43.6624 72.4437 40.8652 72.4507V65.6445C51.4898 65.6411 82.2838 65.6411 93.1266 65.6376C101.473 65.6376 126.783 65.6376 133.039 65.6341V72.5753C119.524 72.5199 76.5162 72.4472 68.4914 72.4437ZM133.039 60.6005C126.783 60.6005 101.473 60.6005 93.1266 60.6039C82.2838 60.6039 51.5176 60.6039 40.8964 60.6109L133.043 60.6005H133.039ZM31.0576 5.63884C31.1372 5.53152 31.1891 5.4692 31.2203 5.4415C31.2583 5.43458 31.3275 5.42766 31.4418 5.42766C32.8889 5.42766 33.6505 5.37919 34.9833 5.37573L41.613 5.35842C44.4102 5.3515 65.7045 5.34804 68.4879 5.3515C76.35 5.35496 118.565 5.42419 132.264 5.48304L138.893 5.51421C139.07 5.51421 139.239 5.51421 139.399 5.51421L138.98 5.50036C144.311 5.48651 137.505 5.47267 142.93 5.43805C148.753 13.1443 151.952 22.945 151.945 33.0366C151.938 43.1316 148.718 52.9185 142.885 60.6005C139.084 60.6074 138.942 60.6039 138.921 60.6074H35.0145C33.1451 60.6074 32.6916 60.6316 31.8365 60.6316C31.293 60.6316 31.2238 60.6005 30.8983 60.14C19.1139 43.547 19.1797 22.1523 31.061 5.63537L31.0576 5.63884ZM17.1129 33.2928C17.1717 43.9278 20.5125 54.2132 26.7924 63.0585C28.056 64.8379 29.6555 65.6687 31.8296 65.6687C31.8365 65.6687 31.84 65.6687 31.8469 65.6687C33.1105 65.6549 33.5466 65.6687 34.9868 65.6687V72.4645C33.3943 72.468 37.7322 72.5199 31.8504 72.5199C31.7153 72.5199 31.5734 72.5061 31.4453 72.5199C29.5273 72.5199 28.108 73.2538 26.9794 74.8255C20.5541 83.7573 17.1406 94.1812 17.1094 104.979C17.1094 105.761 17.1267 106.544 17.1613 107.323H9.77015V33.2962H17.1164L17.1129 33.2928ZM9.76668 113.142H17.7361C18.9789 120.997 22.0461 128.499 26.7924 135.184C28.056 136.964 29.6589 137.795 31.8296 137.795H31.8434C37.5695 137.784 45.0923 137.777 53.4909 137.774V149.873H9.76668V113.142Z" fill="white"/>
<path d="M92.458 28.0888C92.6103 28.2412 92.8112 28.3243 93.0258 28.3243C93.2405 28.3243 93.4412 28.2412 93.5901 28.0888L94.2306 27.4484C94.5421 27.1368 94.5421 26.6279 94.2306 26.3163L93.5935 25.6793C93.4412 25.527 93.2405 25.4474 93.0258 25.4474C92.8112 25.4474 92.6103 25.5305 92.458 25.6828L91.8211 26.3198C91.5095 26.6314 91.5095 27.1403 91.8211 27.4518L92.4615 28.0923L92.458 28.0888Z" fill="#F2AF43"/>
<path d="M104.208 28.0888C104.36 28.2412 104.561 28.3243 104.775 28.3243C104.99 28.3243 105.191 28.2412 105.34 28.0888L105.98 27.4484C106.292 27.1368 106.292 26.6279 105.98 26.3163L105.343 25.6793C105.191 25.527 104.99 25.4474 104.775 25.4474C104.561 25.4474 104.36 25.5305 104.208 25.6828L103.571 26.3198C103.259 26.6314 103.259 27.1403 103.571 27.4518L104.211 28.0923L104.208 28.0888Z" fill="#F2AF43"/>
<path d="M95.0787 29.7126C94.9056 28.9371 94.1647 28.6602 93.5831 28.6602H93.5555H91.7449H91.2222L91.5787 29.041C92.091 29.5914 92.0876 30.4119 92.0807 31.4505C92.0807 31.5751 92.0807 31.6997 92.0807 31.8278V39.0806H95.2345V31.5993C95.2345 30.9035 95.2103 30.2457 95.0857 29.7091L95.0787 29.7126Z" fill="#F2AF43"/>
<path d="M106.898 29.7126C106.725 28.9371 105.984 28.6602 105.403 28.6602H105.375H103.564H103.042L103.398 29.041C103.91 29.5914 103.907 30.4119 103.9 31.4505C103.9 31.5751 103.9 31.6997 103.9 31.8278V39.0806H107.054V31.5993C107.054 30.9035 107.03 30.2457 106.905 29.7091L106.898 29.7126Z" fill="#F2AF43"/>
<path d="M133.499 38.7032C132.987 38.1528 132.99 37.3323 132.997 36.2972C132.997 36.1725 132.997 36.0444 132.997 35.9129V28.6567H129.844V35.9129C129.844 36.2141 129.844 36.5291 129.857 36.8303C129.172 36.5533 128.757 36.1067 128.757 35.0405V31.814C128.757 31.0316 128.746 30.2769 128.601 29.6814C128.296 28.6705 126.991 28.6428 126.846 28.6428H126.832H125.267H124.744L125.101 29.0236C125.613 29.5741 125.61 30.3911 125.603 31.4228C125.603 31.5508 125.603 31.6789 125.603 31.8105V35.0889C125.603 36.7922 126.264 38.0835 127.566 38.9282C127.739 39.0355 127.915 39.0909 128.095 39.0909C128.407 39.0909 128.615 38.9317 128.635 38.9144L128.642 38.9074L128.649 38.9005L129.93 37.6958C130.027 38.3293 130.211 38.7447 130.512 39.0182L130.578 39.0771H133.853L133.496 38.6963L133.499 38.7032Z" fill="#F2AF43"/>
<path d="M124.364 36.5532V31.298C124.343 30.4152 124.094 28.5631 121.303 28.5631C120.479 28.5631 118.894 28.8885 117.89 29.7886L117.814 29.8579V32.572L118.174 32.3089C119.24 31.53 119.745 31.4746 120.393 31.4746C120.566 31.4746 120.701 31.53 120.808 31.6442C121.037 31.8866 121.095 32.3505 121.106 32.6378C120.472 32.7624 119.444 33.0394 118.568 33.6106C117.45 34.3411 116.882 35.3312 116.882 36.5567C116.882 37.7822 117.724 38.575 118.226 38.9316C118.416 39.0493 118.606 39.1047 118.8 39.1047C119.112 39.1047 119.333 38.9628 119.389 38.9281L121.189 37.8272C121.372 38.627 121.829 39.0147 121.854 39.032L121.916 39.0839H125.198L124.935 38.7239C124.367 37.945 124.367 37.2387 124.367 36.5567L124.364 36.5532ZM121.109 36.8752C120.663 36.6398 120.019 36.1932 120.019 35.5908C120.019 34.9331 120.6 34.5142 121.106 34.3722V35.1062C121.106 35.7224 121.106 36.4702 121.109 36.8752Z" fill="#F2AF43"/>
<path d="M90.3602 36.3077C90.3602 36.1831 90.3602 36.055 90.3602 35.9269V32.6484C90.3602 31.2187 89.8962 30.0762 88.9822 29.2523C88.6672 28.9199 88.321 28.7503 87.9506 28.7503C87.3551 28.7503 86.9189 29.1969 86.8532 29.2696L86.0742 30.0035V27.9368C86.0742 27.2928 86.0673 26.6178 85.9877 26.0535C85.8631 25.1049 85.0703 24.7656 84.3675 24.7656C84.3191 24.7656 84.2914 24.7656 84.2914 24.7656H82.6919H82.2246L82.5119 25.1326C82.9377 25.6761 82.9308 26.4793 82.9238 27.5005C82.9238 27.6425 82.9238 27.7879 82.9238 27.9368V39.0842H86.0777V30.8932C86.7874 31.1702 87.2167 31.6202 87.2167 32.7038V35.9304C87.2167 37.3497 87.2651 38.4818 87.8883 39.0426L87.954 39.1015H91.2222L90.869 38.7207C90.3567 38.1668 90.3601 37.3498 90.3705 36.3146L90.3602 36.3077Z" fill="#F2AF43"/>
<path d="M115.889 36.311C115.889 36.1864 115.889 36.0583 115.889 35.9267V32.6483C115.889 31.2116 115.421 30.0657 114.497 29.2418C114.203 28.9683 113.863 28.8263 113.5 28.8263C112.87 28.8263 112.392 29.2556 112.371 29.2729L111.558 30.038C111.537 29.9065 111.513 29.7853 111.485 29.671C111.263 28.7086 109.989 28.6602 109.737 28.6602H109.709H108.158H107.635L107.992 29.041C108.504 29.5914 108.501 30.4119 108.494 31.4505C108.494 31.5751 108.494 31.6997 108.494 31.8278V39.084H111.648V31.6028C111.648 31.3778 111.644 31.1424 111.634 30.9104C112.319 31.1874 112.735 31.6374 112.735 32.7037V35.9302C112.735 37.3496 112.783 38.4817 113.406 39.0425L113.472 39.1013H116.747L116.39 38.7205C115.875 38.1666 115.882 37.3496 115.889 36.3145V36.311Z" fill="#F2AF43"/>
<path d="M100.86 32.4717L100.265 32.0702C99.1188 31.2947 98.6653 30.99 98.4507 30.6992C98.7865 30.7442 99.1188 30.945 99.4685 31.1562C99.9324 31.4332 100.41 31.7205 100.978 31.7205H100.999H101.106L101.172 31.6374L102.685 29.768L102.969 29.4183L102.518 29.3976C101.885 29.3699 101.314 29.1171 100.76 28.8748C100.206 28.6325 99.6831 28.4005 99.1258 28.4005C98.9284 28.4005 98.7381 28.4317 98.5546 28.4905L98.4957 28.5113L98.4542 28.5598L96.3043 31.0004L96.2974 31.0073V31.0143C96.1312 31.2289 95.9442 31.6513 95.9235 32.0736C95.8923 32.6172 96.2835 33.8219 97.9453 34.8916L97.7514 35.1167L95.8265 37.3565L95.6812 37.5227L95.8439 37.6716C96.5051 38.2705 97.1213 38.6548 97.6683 38.8936L97.8345 39.2848C97.9279 39.5064 97.9556 39.7522 97.9175 40.0084C97.8933 40.2334 97.8518 40.5934 98.1322 40.7146C98.1876 40.7354 98.2326 40.7423 98.2776 40.7423C98.4092 40.7423 98.5234 40.68 98.5995 40.6419C99.06 40.3996 99.3612 40.0153 99.5274 39.4718L99.5932 39.2537C99.7732 39.2364 99.9186 39.2087 100.019 39.1844L100.085 39.1671L100.13 39.1152L102.899 36.0514L102.969 35.9752L102.958 35.8714C102.865 35.0717 102.467 33.5657 100.857 32.4717H100.86ZM100.043 37.1384C99.2262 36.8753 98.3953 35.809 98.1322 35.1721L98.0387 34.947C99.472 35.8818 99.8597 36.6018 100.04 37.1246C100.04 37.128 100.04 37.135 100.04 37.1384H100.043Z" fill="#F2AF43"/>
<path d="M120.625 27.9989L120.68 28.037C120.787 28.1097 120.912 28.1928 121.082 28.1928C121.231 28.1928 121.383 28.1305 121.559 27.9955C121.933 27.7151 123.83 26.2714 123.83 26.2714L124.367 25.8629H122.757C121.951 25.8629 121.3 26.2818 121.272 26.2991H121.265L121.258 26.3095L121.088 26.4376L120.919 26.3095H120.912L120.905 26.2991C120.877 26.2818 120.227 25.8629 119.42 25.8629H117.81L118.343 26.2714C118.426 26.3372 120.396 27.8431 120.621 27.9989H120.625Z" fill="#F2AF43"/>
<path d="M77.2815 35.8819C76.8696 35.5426 76.6445 35.1168 76.6445 34.6875V26.9016C77.0184 26.8878 77.4719 27.1405 77.9427 27.4036C78.5797 27.7567 79.3033 28.1583 80.1064 28.0856H80.1583L83.0526 25.728L82.6613 25.6727C81.782 25.548 80.9269 25.1672 80.0995 24.7968C78.9848 24.2983 77.9323 23.8274 76.873 23.9763L76.8211 23.9832L73.0718 27.3967V34.3448C73.0718 36.1935 73.8057 37.5782 75.2528 38.4576C76.6584 39.3127 78.3235 39.4027 78.9709 39.4027H79.0297L82.7894 36.3908L82.1109 36.5189C80.0026 36.917 78.2405 36.6816 77.2746 35.8819H77.2815Z" fill="#F2AF43"/>
<path d="M94.0677 26.4794C94.2893 26.701 94.2928 27.068 94.0677 27.2895L93.4272 27.93C93.2057 28.1516 92.8387 28.1516 92.6171 27.93L91.9767 27.2895C91.7552 27.0645 91.7552 26.701 91.9767 26.4794L92.6137 25.8424C92.8352 25.6209 93.2022 25.6209 93.4238 25.8424L94.0608 26.4794H94.0677Z" fill="white"/>
<path d="M105.817 26.4794C106.039 26.701 106.042 27.068 105.817 27.2895L105.177 27.93C104.955 28.1516 104.588 28.1516 104.367 27.93L103.726 27.2895C103.505 27.0645 103.505 26.701 103.726 26.4794L104.363 25.8424C104.585 25.6209 104.952 25.6209 105.173 25.8424L105.81 26.4794H105.817Z" fill="white"/>
<path d="M95.0033 31.8279C95.0033 31.0663 94.9929 30.3358 94.8579 29.7611C94.6502 28.8437 93.5631 28.8818 93.5631 28.8818H91.7456C92.3861 29.5673 92.3064 30.5678 92.3064 31.8245V38.8522H95.0067V31.8245" fill="white"/>
<path d="M106.821 31.8279C106.821 31.0663 106.811 30.3358 106.676 29.7611C106.468 28.8437 105.381 28.8818 105.381 28.8818H103.563C104.204 29.5673 104.124 30.5678 104.124 31.8245V38.8522H106.825V31.8245" fill="white"/>
<path d="M133.332 38.8556C132.692 38.1667 132.772 37.1696 132.772 35.9129V28.8818H130.071V35.9129C130.071 36.3457 130.075 36.768 130.102 37.1592C129.136 36.8615 128.531 36.363 128.531 35.0405V31.814C128.531 31.0455 128.52 30.3081 128.382 29.7369C128.112 28.8506 126.838 28.8714 126.838 28.8714H125.27C125.913 29.5603 125.83 30.5573 125.83 31.814V35.0925C125.83 37.0658 126.734 38.1217 127.693 38.7413C128.143 39.0252 128.496 38.7413 128.496 38.7413L130.109 37.225C130.165 37.9382 130.31 38.5302 130.667 38.8556H133.332Z" fill="white"/>
<path d="M124.135 36.5536V31.5269C124.135 30.2702 123.785 28.792 121.299 28.792C120.552 28.792 119.014 29.0863 118.038 29.9587V32.1224C119.132 31.3261 119.683 31.243 120.389 31.243C121.427 31.243 121.324 32.8217 121.324 32.8217C119.915 33.0675 117.104 33.9295 117.104 36.5536C117.104 37.6684 117.848 38.385 118.353 38.745C118.838 39.0462 119.26 38.7381 119.26 38.7381L121.355 37.4572C121.455 38.4127 121.992 38.8558 121.992 38.8558H124.747C124.148 38.0354 124.138 37.2841 124.138 36.5536M119.79 35.5912C119.79 34.705 120.666 34.1649 121.331 34.0991C121.331 34.2134 121.334 36.8756 121.334 37.1526C121.334 37.1837 121.334 37.2114 121.334 37.2391C120.853 37.0349 119.787 36.4775 119.787 35.5947" fill="white"/>
<path d="M90.1342 35.9268V32.6484C90.1342 31.0593 89.5491 30.0658 88.8221 29.4149C87.8943 28.4248 87.0115 29.4288 87.0115 29.4288L85.8415 30.5262V27.9332C85.8415 27.2651 85.8345 26.6177 85.7549 26.0846C85.5991 24.9006 84.2974 24.9906 84.2974 24.9906H82.6807C83.2207 25.676 83.1377 26.6765 83.1377 27.9332V38.8522H85.838V30.5712C86.8177 30.8724 87.4304 31.3675 87.4304 32.7003V35.9268C87.4304 37.1835 87.4616 38.3606 88.0259 38.8695H90.6882C90.0477 38.1805 90.1307 37.1835 90.1307 35.9268" fill="white"/>
<path d="M115.66 35.927V32.6485C115.66 31.056 115.075 30.0625 114.345 29.4116C113.458 28.5911 112.527 29.4428 112.527 29.4428L111.385 30.516C111.364 30.2321 111.326 29.9655 111.267 29.7267C111.066 28.8542 109.719 28.8889 109.719 28.8889H108.162C108.802 29.5743 108.722 30.5748 108.722 31.8315V38.8592H111.419V31.8315C111.419 31.3988 111.416 30.9764 111.388 30.5852C112.354 30.8864 112.96 31.3849 112.96 32.7074V35.9339C112.96 37.1906 112.991 38.3676 113.555 38.8765H116.221C115.581 38.1876 115.66 37.1906 115.66 35.9339" fill="white"/>
<path d="M82.6359 25.8389L80.0879 27.9091C78.6616 28.0441 77.4603 26.5382 76.4702 26.7459V34.6841C76.4702 36.0308 78.3881 37.3948 82.1477 36.6851L78.9732 39.2296C76.9306 39.2296 73.2437 38.4022 73.2437 34.3448V27.4729L76.896 24.146C78.6928 23.8933 80.5691 25.5515 82.6359 25.8423" fill="white"/>
<path d="M122.757 26.0917C122.009 26.0917 121.396 26.4932 121.396 26.4932L121.092 26.7252L120.787 26.4932C120.787 26.4932 120.174 26.0917 119.426 26.0917H118.488C118.488 26.0917 120.534 27.6599 120.756 27.8157C120.96 27.9473 121.078 28.0788 121.424 27.8157C121.798 27.5353 123.695 26.0917 123.695 26.0917H122.757Z" fill="white"/>
<path d="M98.4989 40.4345C98.9731 40.1852 99.1947 39.8044 99.3159 39.3994C98.8589 39.3994 98.3743 39.3094 98.0454 39.1917C98.17 39.4859 98.1839 39.7767 98.1458 40.0364C98.1112 40.3549 98.1389 40.4622 98.222 40.5003C98.312 40.5314 98.4159 40.476 98.4955 40.4345H98.4989Z" fill="white"/>
<path d="M100.731 32.6588C98.9723 31.4679 98.4461 31.1459 98.2003 30.7271C98.0929 30.5401 98.1899 30.457 98.318 30.457C99.2216 30.457 100 31.4991 100.994 31.4887L102.507 29.6192C100.984 29.5535 99.8551 28.3072 98.6226 28.7018L96.4728 31.1425C96.3239 31.3398 96.1681 31.7241 96.1508 32.0772C96.1197 32.6103 96.5524 33.7216 98.086 34.7014C99.675 35.7157 100.073 36.4981 100.26 37.0485C100.319 37.2251 100.198 37.4294 99.9831 37.3532C99.0588 37.0589 98.1968 35.9026 97.9302 35.2553L96.0054 37.4951C97.9475 39.2607 99.4811 39.0842 99.9727 38.9561L102.742 35.8923C102.645 35.0649 102.24 33.6732 100.738 32.6554L100.731 32.6588Z" fill="white"/>
<path d="M125.408 26.299C125.408 26.2643 125.408 26.2297 125.404 26.1986C125.404 26.1674 125.397 26.1328 125.387 26.1051C125.38 26.0774 125.366 26.0532 125.349 26.0324C125.332 26.0151 125.307 25.9978 125.276 25.9909C125.256 25.9874 125.238 25.9839 125.217 25.9805C125.197 25.9805 125.176 25.9735 125.159 25.9735C125.148 25.9735 125.138 25.9701 125.134 25.9597C125.127 25.9528 125.127 25.9424 125.127 25.932C125.127 25.9216 125.127 25.9147 125.134 25.9078C125.138 25.9008 125.148 25.8939 125.159 25.8939C125.217 25.8939 125.269 25.8939 125.314 25.9008C125.363 25.9043 125.415 25.9078 125.477 25.9078C125.505 25.9078 125.532 25.9078 125.564 25.9078C125.595 25.9078 125.629 25.9078 125.661 25.9043C125.692 25.9043 125.726 25.9043 125.758 25.9043C125.789 25.9043 125.816 25.9043 125.844 25.9043C125.91 25.9043 125.983 25.9112 126.055 25.9216C126.128 25.932 126.197 25.9493 126.26 25.9805C126.322 26.0082 126.374 26.0462 126.415 26.0947C126.457 26.1432 126.478 26.209 126.478 26.2851C126.478 26.3336 126.471 26.3751 126.453 26.4132C126.436 26.4478 126.415 26.479 126.388 26.5067C126.36 26.5344 126.329 26.5586 126.291 26.5759C126.253 26.5967 126.211 26.6105 126.173 26.6244C126.159 26.6313 126.152 26.6348 126.156 26.6417C126.156 26.6486 126.163 26.6555 126.173 26.659C126.239 26.6763 126.298 26.7005 126.353 26.7248C126.405 26.749 126.45 26.7767 126.484 26.8079C126.519 26.839 126.547 26.8806 126.568 26.9256C126.585 26.9706 126.595 27.0225 126.595 27.0848C126.595 27.1679 126.578 27.2337 126.547 27.2891C126.516 27.341 126.474 27.3825 126.419 27.4137C126.363 27.4449 126.304 27.4656 126.235 27.4795C126.169 27.4933 126.1 27.4968 126.024 27.4968C125.989 27.4968 125.955 27.4968 125.917 27.4968C125.875 27.4968 125.834 27.4968 125.792 27.4968C125.751 27.4968 125.706 27.4968 125.661 27.4968C125.619 27.4968 125.577 27.4968 125.539 27.4968C125.505 27.4968 125.47 27.4968 125.442 27.4968C125.415 27.4968 125.387 27.4968 125.359 27.4968C125.332 27.4968 125.304 27.4968 125.276 27.5003C125.245 27.5003 125.214 27.5037 125.179 27.5072C125.165 27.5072 125.159 27.5072 125.152 27.4968C125.145 27.4899 125.141 27.4795 125.138 27.4691C125.138 27.4622 125.138 27.4518 125.148 27.4414C125.155 27.4276 125.162 27.4241 125.176 27.4241C125.217 27.4241 125.252 27.4137 125.283 27.4033C125.314 27.3964 125.339 27.386 125.359 27.3652C125.377 27.3479 125.391 27.3306 125.397 27.3029C125.404 27.2787 125.411 27.2475 125.411 27.2025V26.3024L125.408 26.299ZM125.688 26.5482C125.688 26.5482 125.692 26.5759 125.702 26.5898C125.712 26.6036 125.726 26.6071 125.751 26.6071H125.799C125.854 26.6071 125.906 26.6002 125.955 26.5932C126.003 26.5863 126.045 26.569 126.079 26.5448C126.114 26.524 126.142 26.4894 126.159 26.4513C126.18 26.4097 126.187 26.3578 126.187 26.2955C126.187 26.1882 126.159 26.1086 126.1 26.0636C126.038 26.0185 125.955 25.9978 125.844 25.9978H125.758C125.723 25.9978 125.706 26.0047 125.699 26.022C125.692 26.0393 125.688 26.067 125.688 26.1051V26.5482ZM125.688 27.0156C125.688 27.1021 125.688 27.1679 125.699 27.2164C125.706 27.2683 125.716 27.3029 125.737 27.3272C125.758 27.3514 125.789 27.3687 125.827 27.3722C125.865 27.3756 125.917 27.3791 125.983 27.3791C126.086 27.3791 126.159 27.3514 126.208 27.3029C126.253 27.251 126.277 27.1714 126.277 27.0675C126.277 26.9913 126.266 26.929 126.242 26.884C126.218 26.839 126.183 26.7975 126.145 26.7732C126.104 26.7455 126.059 26.7282 126.003 26.7179C125.948 26.7075 125.889 26.7005 125.827 26.7005H125.778C125.744 26.7005 125.723 26.7109 125.712 26.7317C125.702 26.7525 125.695 26.7767 125.695 26.8079V27.0121L125.688 27.0156Z" fill="#F2AF43"/>
<path d="M128.582 25.9043C128.582 25.9043 128.61 25.9043 128.624 25.9077C128.638 25.9112 128.641 25.9216 128.638 25.9458C128.634 25.9631 128.634 25.9839 128.634 26.0047V26.0704C128.634 26.1431 128.634 26.2089 128.641 26.2678C128.641 26.2747 128.638 26.2782 128.631 26.2816C128.624 26.2816 128.614 26.2885 128.603 26.2885C128.593 26.2885 128.582 26.2885 128.575 26.2885C128.565 26.2885 128.558 26.2816 128.558 26.2712C128.548 26.2124 128.534 26.1639 128.524 26.1258C128.51 26.0912 128.496 26.067 128.472 26.0497C128.451 26.0324 128.42 26.022 128.385 26.0185C128.347 26.015 128.298 26.0081 128.24 26.0081H128.084C128.039 26.0081 128.004 26.0081 127.977 26.0081C127.949 26.0081 127.928 26.0185 127.914 26.0254C127.9 26.0358 127.89 26.0531 127.883 26.0739C127.88 26.0947 127.876 26.1258 127.876 26.1674V26.5759C127.876 26.6001 127.88 26.6105 127.89 26.6174C127.897 26.6244 127.907 26.6243 127.914 26.6243C127.994 26.6243 128.056 26.6243 128.101 26.614C128.146 26.607 128.181 26.5966 128.205 26.5793C128.226 26.562 128.243 26.5413 128.25 26.517C128.257 26.4893 128.264 26.4547 128.271 26.4132C128.271 26.4063 128.278 26.3959 128.285 26.3924C128.292 26.3889 128.302 26.3855 128.312 26.3855C128.323 26.3855 128.333 26.3855 128.34 26.3924C128.347 26.3959 128.354 26.4028 128.354 26.4132C128.354 26.4374 128.354 26.4616 128.354 26.479L128.347 26.5413C128.347 26.562 128.347 26.5793 128.344 26.6001C128.344 26.6243 128.34 26.6451 128.34 26.6728C128.34 26.7213 128.344 26.7628 128.347 26.8009C128.354 26.839 128.357 26.8875 128.357 26.9428C128.357 26.9498 128.35 26.9567 128.344 26.9602C128.333 26.9602 128.326 26.9636 128.316 26.9636C128.305 26.9636 128.295 26.9636 128.288 26.9567C128.281 26.9567 128.274 26.9463 128.274 26.9359C128.267 26.8909 128.264 26.8528 128.253 26.8251C128.247 26.7974 128.229 26.7767 128.208 26.7594C128.184 26.7455 128.15 26.7351 128.105 26.7317C128.056 26.7247 127.997 26.7247 127.918 26.7247C127.911 26.7247 127.9 26.7247 127.893 26.7317C127.883 26.7386 127.88 26.749 127.88 26.7663V27.0709C127.88 27.1229 127.883 27.1644 127.89 27.199C127.897 27.2336 127.911 27.2648 127.925 27.2856C127.942 27.3098 127.959 27.3237 127.983 27.3375C128.004 27.3514 128.032 27.3583 128.063 27.3687C128.087 27.3721 128.115 27.3756 128.146 27.3756C128.177 27.3756 128.208 27.3756 128.24 27.3756C128.281 27.3756 128.319 27.3756 128.354 27.3756C128.392 27.3756 128.416 27.3687 128.437 27.3583C128.472 27.3479 128.499 27.3375 128.527 27.3271C128.551 27.3133 128.572 27.296 128.589 27.2787C128.607 27.2579 128.62 27.2337 128.631 27.2025C128.641 27.1713 128.652 27.1332 128.659 27.0882C128.659 27.0779 128.665 27.0709 128.676 27.0675C128.686 27.0675 128.697 27.0675 128.71 27.0675C128.721 27.0675 128.731 27.0675 128.742 27.0744C128.752 27.0779 128.755 27.0848 128.755 27.0952C128.745 27.161 128.738 27.2233 128.735 27.2821C128.728 27.3375 128.724 27.3929 128.728 27.4552C128.728 27.4587 128.728 27.4656 128.717 27.476C128.71 27.4864 128.693 27.4898 128.669 27.4898H127.734C127.668 27.4898 127.606 27.4898 127.544 27.4933C127.481 27.4968 127.423 27.5002 127.374 27.5037C127.36 27.5037 127.35 27.5002 127.343 27.4933C127.336 27.4864 127.333 27.476 127.333 27.4656C127.333 27.4552 127.333 27.4483 127.339 27.4379C127.346 27.4275 127.357 27.4206 127.374 27.4206C127.416 27.4206 127.45 27.4102 127.478 27.3998C127.506 27.3894 127.53 27.379 127.551 27.3617C127.571 27.3444 127.585 27.3237 127.592 27.2994C127.603 27.2752 127.606 27.2406 127.606 27.2025V26.2989C127.606 26.2643 127.606 26.2332 127.603 26.1985C127.603 26.1674 127.596 26.1328 127.589 26.1051C127.578 26.0774 127.565 26.0531 127.547 26.0324C127.53 26.015 127.506 25.9977 127.475 25.9908C127.457 25.9874 127.436 25.9839 127.416 25.9804C127.395 25.977 127.378 25.9735 127.357 25.9735C127.346 25.9735 127.339 25.97 127.336 25.9631C127.329 25.9562 127.329 25.9458 127.329 25.9354C127.329 25.925 127.329 25.9181 127.336 25.9112C127.339 25.9043 127.346 25.8973 127.357 25.8973C127.416 25.8973 127.468 25.8973 127.513 25.9043C127.561 25.9043 127.613 25.9077 127.675 25.9077H128.6L128.582 25.9043Z" fill="#F2AF43"/>
<path d="M129.718 26.2991C129.718 26.2645 129.718 26.2333 129.718 26.1987C129.718 26.1675 129.711 26.1364 129.701 26.1052C129.694 26.0775 129.68 26.0533 129.663 26.0325C129.646 26.0152 129.621 25.9979 129.587 25.991C129.57 25.9875 129.549 25.9841 129.528 25.9806C129.507 25.9806 129.49 25.9737 129.469 25.9737C129.459 25.9737 129.452 25.9702 129.445 25.9598C129.438 25.9529 129.438 25.9425 129.438 25.9321C129.438 25.9217 129.438 25.9148 129.445 25.9079C129.448 25.901 129.455 25.894 129.469 25.894C129.528 25.894 129.58 25.894 129.625 25.901C129.67 25.9044 129.725 25.9079 129.788 25.9079C129.892 25.9079 129.978 25.9044 130.044 25.901C130.113 25.901 130.179 25.8975 130.238 25.8975C130.307 25.8975 130.373 25.9079 130.442 25.9217C130.508 25.9356 130.57 25.9598 130.622 25.9944C130.674 26.0256 130.715 26.0706 130.747 26.1225C130.778 26.1745 130.795 26.2402 130.795 26.3164C130.795 26.3753 130.785 26.4272 130.764 26.4687C130.747 26.5137 130.719 26.5518 130.684 26.583C130.65 26.6141 130.608 26.6384 130.563 26.6591C130.515 26.6764 130.466 26.6937 130.411 26.7041C130.397 26.7041 130.39 26.7111 130.39 26.7214C130.39 26.7284 130.397 26.7353 130.411 26.7388C130.49 26.7734 130.553 26.8149 130.598 26.8565C130.643 26.9015 130.674 26.9465 130.698 26.9915C130.722 27.0399 130.74 27.0884 130.75 27.1403C130.76 27.1888 130.771 27.2373 130.785 27.2857C130.792 27.3204 130.809 27.3446 130.826 27.3619C130.847 27.3792 130.868 27.3861 130.885 27.3861C130.906 27.3861 130.927 27.3792 130.947 27.3619C130.965 27.3481 130.982 27.3238 130.992 27.2927C130.992 27.2788 131.003 27.2719 131.013 27.265C131.024 27.265 131.034 27.2615 131.044 27.265C131.055 27.265 131.062 27.2719 131.072 27.2788C131.079 27.2857 131.082 27.2927 131.082 27.2996C131.075 27.3377 131.065 27.3723 131.048 27.4C131.027 27.4311 131.006 27.4519 130.979 27.4692C130.951 27.4865 130.92 27.5004 130.889 27.5108C130.854 27.5211 130.823 27.5246 130.788 27.5246C130.733 27.5246 130.684 27.5142 130.639 27.4935C130.594 27.4727 130.567 27.4415 130.549 27.3965C130.539 27.3723 130.528 27.3411 130.522 27.3134C130.511 27.2823 130.504 27.2511 130.494 27.2165C130.487 27.1853 130.477 27.1542 130.466 27.123C130.459 27.0884 130.449 27.0642 130.442 27.0399C130.411 26.9395 130.369 26.8668 130.321 26.8253C130.272 26.7838 130.203 26.7595 130.117 26.7595C130.089 26.7595 130.065 26.7664 130.044 26.7768C130.023 26.7872 130.013 26.808 130.013 26.8426V27.1611C130.013 27.213 130.02 27.258 130.03 27.2892C130.044 27.3204 130.061 27.3446 130.085 27.3619C130.11 27.3827 130.141 27.3931 130.172 27.4C130.207 27.4104 130.248 27.4138 130.293 27.4173C130.303 27.4173 130.31 27.4242 130.317 27.4311C130.324 27.4415 130.328 27.4485 130.328 27.4623C130.328 27.4727 130.324 27.4831 130.317 27.4865C130.31 27.4935 130.303 27.4969 130.29 27.4969C130.203 27.4969 130.127 27.4935 130.065 27.4865C129.999 27.4831 129.937 27.4796 129.874 27.4796C129.808 27.4796 129.743 27.4796 129.68 27.4865C129.618 27.4935 129.556 27.4969 129.493 27.4969C129.483 27.4969 129.476 27.4935 129.469 27.4865C129.462 27.4796 129.462 27.4692 129.462 27.4623C129.462 27.4519 129.462 27.445 129.469 27.4346C129.473 27.4242 129.483 27.4173 129.493 27.4173C129.542 27.4173 129.58 27.4069 129.611 27.3965C129.639 27.3896 129.666 27.3792 129.684 27.3584C129.701 27.3411 129.712 27.3204 129.718 27.2927C129.725 27.265 129.725 27.2234 129.725 27.1784V26.2991H129.718ZM129.999 26.576C129.999 26.6176 130.013 26.6418 130.037 26.6487C130.061 26.6557 130.099 26.6591 130.148 26.6591C130.213 26.6591 130.272 26.6522 130.317 26.6418C130.362 26.628 130.4 26.6107 130.425 26.583C130.452 26.5553 130.47 26.5207 130.483 26.4756C130.494 26.4341 130.501 26.3822 130.501 26.3199C130.501 26.2575 130.494 26.2091 130.48 26.171C130.47 26.1295 130.449 26.0948 130.421 26.0706C130.394 26.0429 130.359 26.0256 130.317 26.0187C130.272 26.0048 130.22 26.0014 130.162 26.0014C130.092 26.0014 130.051 26.0083 130.03 26.0221C130.006 26.036 129.999 26.0706 129.999 26.1156V26.576Z" fill="#F2AF43"/>
<path d="M132.962 25.9043C132.962 25.9043 132.99 25.9043 133.004 25.9077C133.018 25.9112 133.021 25.9216 133.018 25.9458C133.014 25.9631 133.011 25.9839 133.011 26.0047V26.0704C133.011 26.1431 133.011 26.2089 133.018 26.2678C133.018 26.2747 133.018 26.2782 133.007 26.2816C133 26.2816 132.99 26.2885 132.979 26.2885C132.966 26.2885 132.959 26.2885 132.948 26.2885C132.938 26.2885 132.931 26.2816 132.931 26.2712C132.921 26.2124 132.907 26.1639 132.896 26.1258C132.886 26.0912 132.869 26.067 132.848 26.0497C132.824 26.0324 132.796 26.022 132.761 26.0185C132.723 26.015 132.675 26.0081 132.616 26.0081H132.46C132.419 26.0081 132.381 26.0081 132.353 26.0081C132.325 26.0081 132.304 26.0185 132.291 26.0254C132.273 26.0358 132.266 26.0531 132.259 26.0739C132.256 26.0947 132.252 26.1258 132.252 26.1674V26.5759C132.252 26.6001 132.256 26.6105 132.266 26.6174C132.273 26.6244 132.284 26.6243 132.291 26.6243C132.37 26.6243 132.433 26.6243 132.478 26.614C132.523 26.607 132.557 26.5966 132.581 26.5793C132.602 26.562 132.619 26.5413 132.626 26.517C132.633 26.4893 132.64 26.4547 132.647 26.4132C132.647 26.4063 132.654 26.3959 132.664 26.3924C132.671 26.3889 132.682 26.3855 132.692 26.3855C132.702 26.3855 132.713 26.3855 132.72 26.3924C132.73 26.3959 132.734 26.4028 132.734 26.4132C132.734 26.4374 132.734 26.4616 132.734 26.479C132.734 26.4997 132.734 26.5205 132.727 26.5413C132.727 26.562 132.723 26.5793 132.72 26.6001C132.72 26.6243 132.72 26.6451 132.72 26.6728C132.72 26.7213 132.72 26.7628 132.727 26.8009C132.734 26.839 132.734 26.8875 132.734 26.9428C132.734 26.9498 132.73 26.9567 132.72 26.9602C132.713 26.9602 132.702 26.9636 132.692 26.9636C132.682 26.9636 132.675 26.9636 132.664 26.9567C132.654 26.9567 132.651 26.9463 132.647 26.9359C132.64 26.8909 132.637 26.8528 132.626 26.8251C132.619 26.7974 132.602 26.7767 132.581 26.7594C132.557 26.7455 132.523 26.7351 132.478 26.7317C132.433 26.7247 132.37 26.7247 132.291 26.7247C132.284 26.7247 132.273 26.7247 132.266 26.7317C132.256 26.7386 132.252 26.749 132.252 26.7663V27.0709C132.252 27.1229 132.252 27.1644 132.263 27.199C132.27 27.2336 132.28 27.2648 132.297 27.2856C132.311 27.3098 132.332 27.3237 132.353 27.3375C132.377 27.3514 132.401 27.3583 132.432 27.3687C132.457 27.3721 132.484 27.3756 132.512 27.3756C132.543 27.3756 132.574 27.3756 132.606 27.3756C132.647 27.3756 132.685 27.3756 132.723 27.3756C132.758 27.3756 132.786 27.3687 132.806 27.3583C132.841 27.3479 132.869 27.3375 132.893 27.3271C132.921 27.3133 132.938 27.296 132.955 27.2787C132.973 27.2579 132.986 27.2337 132.997 27.2025C133.007 27.1713 133.018 27.1332 133.025 27.0882C133.025 27.0779 133.031 27.0709 133.042 27.0675C133.049 27.0675 133.063 27.0675 133.073 27.0675C133.083 27.0675 133.097 27.0675 133.104 27.0744C133.111 27.0779 133.118 27.0848 133.115 27.0952C133.108 27.161 133.097 27.2233 133.09 27.2821C133.083 27.3375 133.08 27.3929 133.083 27.4552C133.083 27.4587 133.08 27.4656 133.073 27.476C133.066 27.4864 133.049 27.4898 133.025 27.4898H132.086C132.024 27.4898 131.958 27.4898 131.896 27.4933C131.834 27.4968 131.775 27.5002 131.726 27.5037C131.712 27.5037 131.702 27.5002 131.695 27.4933C131.688 27.4864 131.685 27.476 131.681 27.4656C131.681 27.4552 131.681 27.4483 131.688 27.4379C131.695 27.4275 131.706 27.4206 131.723 27.4206C131.764 27.4206 131.799 27.4102 131.827 27.3998C131.858 27.3894 131.882 27.379 131.899 27.3617C131.92 27.3444 131.934 27.3237 131.941 27.2994C131.951 27.2752 131.955 27.2406 131.955 27.2025V26.2989C131.955 26.2643 131.955 26.2332 131.955 26.1985C131.955 26.1674 131.948 26.1328 131.937 26.1051C131.931 26.0774 131.917 26.0531 131.899 26.0324C131.882 26.015 131.858 25.9977 131.823 25.9908C131.806 25.9874 131.785 25.9839 131.764 25.9804C131.744 25.977 131.723 25.9735 131.706 25.9735C131.695 25.9735 131.688 25.97 131.681 25.9631C131.674 25.9562 131.674 25.9458 131.674 25.9354C131.674 25.925 131.674 25.9181 131.681 25.9112C131.685 25.9043 131.695 25.8973 131.706 25.8973C131.761 25.8973 131.816 25.8973 131.861 25.9043C131.91 25.9043 131.962 25.9077 132.024 25.9077H132.948L132.962 25.9043Z" fill="#F2AF43"/>
<path d="M40.057 28.1133C39.9359 28.044 39.8181 27.9748 39.697 27.9056C39.5377 27.362 39.3784 26.822 39.2227 26.2819C39.5412 26.1884 40.2059 26.0188 40.4828 25.9426C40.5521 26.2127 40.6213 26.4827 40.6905 26.7527C40.8705 26.7077 41.0956 26.6558 41.3067 26.6039C41.241 26.3304 41.1787 26.0569 41.1129 25.7834C41.4314 25.7038 42.0372 25.5618 42.3696 25.4891C42.4284 25.7661 42.4908 26.0465 42.5496 26.3235C42.785 26.2681 43.0412 26.2196 43.1658 26.1954C43.1105 25.9149 43.0551 25.6311 42.9997 25.3506C43.1797 25.3091 43.8374 25.1706 44.2529 25.0945C44.3532 25.6657 44.4537 26.2404 44.5541 26.8151C44.4745 26.9431 44.3949 27.0678 44.3152 27.1924C43.5363 27.3274 42.3488 27.5732 41.5422 27.7532C41.5491 27.7844 41.556 27.819 41.5629 27.8502C42.4976 27.7151 43.4255 27.5767 44.3567 27.4347C44.4917 28.1721 44.6302 28.913 44.7687 29.6538C44.831 29.6434 44.9003 29.6331 44.973 29.6192C44.9349 29.4011 44.8933 29.1865 44.8552 28.9684C45.2741 28.8957 45.6619 28.8368 46.0185 28.7849C46.0531 29.003 46.0877 29.2211 46.1223 29.4392C46.1881 29.4288 46.2504 29.4219 46.3162 29.4115C46.1881 28.5806 46.06 27.7498 45.9389 26.9224C45.8246 26.8254 45.7104 26.725 45.5961 26.6281C45.5061 26.05 45.4196 25.4718 45.333 24.8971C45.6342 24.8417 46.3231 24.7344 46.5897 24.6963C46.6277 24.9906 46.6658 25.2883 46.7039 25.5826C46.8251 25.5653 47.0882 25.5307 47.3202 25.4995C47.2855 25.2018 47.2509 24.9041 47.2163 24.6063C47.5002 24.5648 48.1545 24.4886 48.4695 24.4505C48.4972 24.7517 48.5249 25.0529 48.5526 25.3541C48.7811 25.3264 49.058 25.3091 49.1688 25.2918C49.1445 24.9906 49.1203 24.6894 49.0926 24.3882C49.1411 24.3813 49.7677 24.3225 50.3424 24.2809C50.3805 24.8764 50.4151 25.4753 50.4532 26.0707C50.3598 26.1954 50.2697 26.3235 50.1763 26.4481C49.4839 26.4827 47.6906 26.68 47.4032 26.7147C47.4067 26.7493 47.4102 26.7804 47.4136 26.8151C48.338 26.7735 49.2658 26.7354 50.1901 26.6939C50.242 27.4555 50.294 28.2171 50.3494 28.9822C50.4151 28.9753 50.4843 28.9718 50.557 28.9684C50.5432 28.7468 50.5294 28.5252 50.5155 28.3002C50.6471 28.2864 51.3706 28.2483 51.6787 28.2379C51.6891 28.4629 51.696 28.6845 51.7064 28.9095C51.7756 28.9095 51.8449 28.9026 51.9107 28.8991C51.8761 28.0475 51.8449 27.1993 51.8103 26.3477C51.7064 26.2334 51.5991 26.1192 51.4953 26.005C51.471 25.406 51.4467 24.8071 51.4225 24.2082C51.9972 24.1771 52.6204 24.1597 52.6688 24.1597C52.6758 24.4679 52.6827 24.776 52.6896 25.0806C52.8039 25.0806 53.1224 25.0702 53.3059 25.0702C53.3059 24.7621 53.2989 24.454 53.2989 24.1494C53.6417 24.1424 54.2994 24.1424 54.5486 24.1494C54.5452 24.4575 54.5417 24.7656 54.5382 25.0702C54.7702 25.0702 55.0679 25.0772 55.1579 25.0806C55.1649 24.7725 55.1718 24.4644 55.1787 24.1597C55.4315 24.1597 56.1239 24.1944 56.4251 24.2082C56.4008 24.8071 56.3731 25.406 56.3488 26.005C56.2484 26.1192 56.1446 26.2369 56.0442 26.3512C55.2653 26.3131 54.0778 26.3027 53.2712 26.3131C53.2712 26.3477 53.2712 26.3788 53.2712 26.4135C54.1921 26.4758 55.1129 26.5381 56.0338 26.6039C56.0061 27.369 55.975 28.134 55.9438 28.9026C56.0096 28.9026 56.0719 28.9061 56.1412 28.9095C56.1515 28.6845 56.1585 28.4629 56.1689 28.2379C56.477 28.2483 57.2005 28.2864 57.332 28.3002C57.3182 28.5218 57.3009 28.7433 57.2871 28.9684C57.3598 28.9718 57.4255 28.9753 57.4878 28.9822C57.5467 28.141 57.6055 27.2997 57.6609 26.4585C57.5674 26.3304 57.4775 26.1988 57.384 26.0707C57.4221 25.4753 57.4567 24.8764 57.4947 24.2809C58.0694 24.3225 58.6961 24.3813 58.7445 24.3882C58.7203 24.6894 58.6926 24.9906 58.6684 25.2918C58.7826 25.3056 59.0561 25.3264 59.2881 25.3541C59.3158 25.0529 59.3435 24.7517 59.3712 24.4505C59.6862 24.4852 60.3405 24.5648 60.6243 24.6063C60.5897 24.9041 60.5551 25.2018 60.5205 25.4995C60.7524 25.5307 61.0155 25.5653 61.1367 25.5826C61.1748 25.2883 61.2129 24.9906 61.251 24.6963C61.5175 24.7344 62.2064 24.8417 62.5076 24.8971C62.4211 25.4753 62.3311 26.05 62.2445 26.6281C62.1303 26.725 62.016 26.8254 61.9018 26.9224C61.1505 26.8047 59.8869 26.6454 59.1184 26.5727C59.1184 26.6073 59.1115 26.6385 59.1081 26.6731C60.0255 26.8393 60.9429 27.0055 61.8637 27.1682C61.753 27.9159 61.6387 28.6637 61.521 29.4115C61.5833 29.4219 61.649 29.4323 61.7148 29.4427C61.7494 29.2246 61.7841 29.003 61.8222 28.7849C62.1787 28.8368 62.5665 28.8957 62.9854 28.9684C62.9473 29.1865 62.9058 29.4011 62.8677 29.6192C62.9404 29.6331 63.0062 29.6434 63.072 29.6538C63.2243 28.8437 63.3766 28.0337 63.522 27.227C63.4424 27.0885 63.3662 26.9535 63.2865 26.8151C63.3869 26.2404 63.4874 25.6692 63.5878 25.0945C64.0032 25.1741 64.6575 25.3091 64.841 25.3506C64.7856 25.6311 64.7302 25.9115 64.6748 26.1954C64.7994 26.2231 65.0556 26.2681 65.291 26.3235C65.3499 26.0465 65.4122 25.7661 65.471 25.4891C65.7999 25.5653 66.4093 25.7038 66.7278 25.7834C66.662 26.0569 66.5997 26.3304 66.5339 26.6039C66.7451 26.6558 66.9736 26.7077 67.1501 26.7527C67.2194 26.4827 67.292 26.2127 67.3612 25.9426C67.6382 26.0153 68.3029 26.1884 68.6214 26.2819C68.4657 26.822 68.3064 27.362 68.1471 27.9056C68.0294 27.9748 67.9117 28.0406 67.794 28.1098C67.0393 27.9125 65.6615 27.6078 64.9968 27.4728C64.9899 27.504 64.9829 27.5351 64.976 27.5663C65.89 27.8294 66.8074 28.089 67.7282 28.3418L64.1451 38.7795C57.2109 37.4293 50.3078 37.4986 43.7474 38.7933L40.064 28.1098L40.057 28.1133Z" fill="#F2AF43"/>
<path d="M92.458 100.552C92.6103 100.704 92.8112 100.787 93.0258 100.787C93.2405 100.787 93.4412 100.704 93.5901 100.552L94.2306 99.9111C94.5421 99.5996 94.5421 99.0907 94.2306 98.7791L93.5935 98.1421C93.4412 97.9898 93.2405 97.9102 93.0258 97.9102C92.8112 97.9102 92.6103 97.9932 92.458 98.1456L91.8211 98.7825C91.5095 99.0941 91.5095 99.603 91.8211 99.9146L92.4615 100.555L92.458 100.552Z" fill="#F2AF43"/>
<path d="M104.208 100.552C104.36 100.704 104.561 100.787 104.775 100.787C104.99 100.787 105.191 100.704 105.34 100.552L105.98 99.9111C106.292 99.5996 106.292 99.0907 105.98 98.7791L105.343 98.1421C105.191 97.9898 104.99 97.9102 104.775 97.9102C104.561 97.9102 104.36 97.9932 104.208 98.1456L103.571 98.7825C103.259 99.0941 103.259 99.603 103.571 99.9146L104.211 100.555L104.208 100.552Z" fill="#F2AF43"/>
<path d="M95.0787 102.171C94.9056 101.396 94.1647 101.119 93.5831 101.119H93.5555H91.7449H91.2222L91.5787 101.5C92.091 102.05 92.0876 102.871 92.0807 103.909C92.0807 104.034 92.0807 104.158 92.0807 104.287V111.539H95.2345V104.058C95.2345 103.362 95.2103 102.704 95.0857 102.168L95.0787 102.171Z" fill="#F2AF43"/>
<path d="M106.898 102.171C106.725 101.396 105.984 101.119 105.403 101.119H105.375H103.564H103.042L103.398 101.5C103.91 102.05 103.907 102.871 103.9 103.909C103.9 104.034 103.9 104.158 103.9 104.287V111.539H107.054V104.058C107.054 103.362 107.03 102.704 106.905 102.168L106.898 102.171Z" fill="#F2AF43"/>
<path d="M133.499 111.162C132.987 110.611 132.99 109.791 132.997 108.756C132.997 108.631 132.997 108.503 132.997 108.372V101.115H129.844V108.372C129.844 108.673 129.844 108.988 129.857 109.289C129.172 109.012 128.757 108.565 128.757 107.499V104.273C128.757 103.49 128.746 102.736 128.601 102.14C128.296 101.129 126.991 101.102 126.846 101.102H126.832H125.267H124.744L125.101 101.482C125.613 102.033 125.61 102.85 125.603 103.882C125.603 104.01 125.603 104.138 125.603 104.269V107.548C125.603 109.251 126.264 110.542 127.566 111.387C127.739 111.494 127.915 111.55 128.095 111.55C128.407 111.55 128.615 111.39 128.635 111.373L128.642 111.366L128.649 111.359L129.93 110.155C130.027 110.788 130.211 111.203 130.512 111.477L130.578 111.536H133.853L133.496 111.155L133.499 111.162Z" fill="#F2AF43"/>
<path d="M124.364 109.016V103.761C124.343 102.878 124.094 101.026 121.303 101.026C120.479 101.026 118.894 101.351 117.89 102.251L117.814 102.321V105.035L118.174 104.772C119.24 103.993 119.745 103.937 120.393 103.937C120.566 103.937 120.701 103.993 120.808 104.107C121.037 104.349 121.095 104.813 121.106 105.101C120.472 105.225 119.444 105.502 118.568 106.073C117.45 106.804 116.882 107.794 116.882 109.019C116.882 110.245 117.724 111.038 118.226 111.394C118.416 111.512 118.606 111.567 118.8 111.567C119.112 111.567 119.333 111.426 119.389 111.391L121.189 110.29C121.372 111.09 121.829 111.477 121.854 111.495L121.916 111.547H125.198L124.935 111.187C124.367 110.408 124.367 109.701 124.367 109.019L124.364 109.016ZM121.109 109.338C120.663 109.103 120.019 108.656 120.019 108.054C120.019 107.396 120.6 106.977 121.106 106.835V107.569C121.106 108.185 121.106 108.933 121.109 109.338Z" fill="#F2AF43"/>
<path d="M90.3602 108.77C90.3602 108.645 90.3602 108.517 90.3602 108.389V105.111C90.3602 103.681 89.8962 102.538 88.9822 101.714C88.6672 101.382 88.321 101.212 87.9506 101.212C87.3551 101.212 86.9189 101.659 86.8532 101.732L86.0742 102.466V100.399C86.0742 99.755 86.0673 99.0799 85.9877 98.5156C85.8631 97.5671 85.0703 97.2278 84.3675 97.2278C84.3191 97.2278 84.2914 97.2278 84.2914 97.2278H82.6919H82.2246L82.5119 97.5947C82.9377 98.1383 82.9308 98.9414 82.9238 99.9627C82.9238 100.105 82.9238 100.25 82.9238 100.399V111.546H86.0777V103.355C86.7874 103.632 87.2167 104.082 87.2167 105.166V108.393C87.2167 109.812 87.2651 110.944 87.8883 111.505L87.954 111.564H91.2222L90.869 111.183C90.3567 110.629 90.3601 109.812 90.3705 108.777L90.3602 108.77Z" fill="#F2AF43"/>
<path d="M115.889 108.77C115.889 108.645 115.889 108.517 115.889 108.385V105.107C115.889 103.67 115.421 102.524 114.497 101.7C114.203 101.427 113.863 101.285 113.5 101.285C112.87 101.285 112.392 101.714 112.371 101.732L111.558 102.497C111.537 102.365 111.513 102.244 111.485 102.13C111.263 101.167 109.989 101.119 109.737 101.119H109.709H108.158H107.635L107.992 101.5C108.504 102.05 108.501 102.871 108.494 103.909C108.494 104.034 108.494 104.158 108.494 104.287V111.543H111.648V104.062C111.648 103.837 111.644 103.601 111.634 103.369C112.319 103.646 112.735 104.096 112.735 105.162V108.389C112.735 109.808 112.783 110.94 113.406 111.501L113.472 111.56H116.747L116.39 111.179C115.875 110.625 115.882 109.808 115.889 108.773V108.77Z" fill="#F2AF43"/>
<path d="M100.86 104.931L100.265 104.529C99.1188 103.754 98.6653 103.449 98.4507 103.158C98.7865 103.203 99.1188 103.404 99.4685 103.615C99.9324 103.892 100.41 104.18 100.978 104.18H100.999H101.106L101.172 104.097L102.685 102.227L102.969 101.877L102.518 101.857C101.885 101.829 101.314 101.576 100.76 101.334C100.206 101.092 99.6831 100.86 99.1258 100.86C98.9284 100.86 98.7381 100.891 98.5546 100.95L98.4957 100.97L98.4542 101.019L96.3043 103.46L96.2974 103.466V103.473C96.1312 103.688 95.9442 104.11 95.9235 104.533C95.8923 105.076 96.2835 106.281 97.9453 107.351L97.7514 107.576L95.8265 109.816L95.6812 109.982L95.8439 110.131C96.5051 110.73 97.1213 111.114 97.6683 111.353L97.8345 111.744C97.9279 111.966 97.9556 112.211 97.9175 112.467C97.8933 112.693 97.8518 113.053 98.1322 113.174C98.1876 113.194 98.2326 113.201 98.2776 113.201C98.4092 113.201 98.5234 113.139 98.5995 113.101C99.06 112.859 99.3612 112.474 99.5274 111.931L99.5932 111.713C99.7732 111.695 99.9186 111.668 100.019 111.644L100.085 111.626L100.13 111.574L102.899 108.511L102.969 108.434L102.958 108.33C102.865 107.531 102.467 106.025 100.857 104.931H100.86ZM100.043 109.601C99.2262 109.338 98.3953 108.272 98.1322 107.635L98.0387 107.41C99.472 108.344 99.8597 109.064 100.04 109.587C100.04 109.591 100.04 109.598 100.04 109.601H100.043Z" fill="#F2AF43"/>
<path d="M120.625 100.461L120.68 100.5C120.787 100.572 120.912 100.655 121.082 100.655C121.231 100.655 121.383 100.593 121.559 100.458C121.933 100.178 123.83 98.7339 123.83 98.7339L124.367 98.3254H122.757C121.951 98.3254 121.3 98.7443 121.272 98.7616H121.265L121.258 98.772L121.088 98.9001L120.919 98.772H120.912L120.905 98.7616C120.877 98.7443 120.227 98.3254 119.42 98.3254H117.81L118.343 98.7339C118.426 98.7997 120.396 100.306 120.621 100.461H120.625Z" fill="#F2AF43"/>
<path d="M77.2815 108.341C76.8696 108.001 76.6445 107.576 76.6445 107.146V99.3605C77.0184 99.3467 77.4719 99.5994 77.9427 99.8625C78.5797 100.216 79.3033 100.617 80.1064 100.544H80.1583L83.0526 98.1869L82.6613 98.1315C81.782 98.0069 80.9269 97.6261 80.0995 97.2556C78.9848 96.7571 77.9323 96.2863 76.873 96.4352L76.8211 96.4421L73.0718 99.8556V106.804C73.0718 108.652 73.8057 110.037 75.2528 110.916C76.6584 111.772 78.3235 111.862 78.9709 111.862H79.0297L82.7894 108.85L82.1109 108.978C80.0026 109.376 78.2405 109.14 77.2746 108.341H77.2815Z" fill="#F2AF43"/>
<path d="M94.0677 98.9379C94.2893 99.1595 94.2928 99.5265 94.0677 99.748L93.4272 100.388C93.2057 100.61 92.8387 100.61 92.6171 100.388L91.9767 99.748C91.7552 99.523 91.7552 99.1595 91.9767 98.9379L92.6137 98.3009C92.8352 98.0794 93.2022 98.0794 93.4238 98.3009L94.0608 98.9379H94.0677Z" fill="white"/>
<path d="M105.817 98.9379C106.039 99.1595 106.042 99.5265 105.817 99.748L105.177 100.388C104.955 100.61 104.588 100.61 104.367 100.388L103.726 99.748C103.505 99.523 103.505 99.1595 103.726 98.9379L104.363 98.3009C104.585 98.0794 104.952 98.0794 105.173 98.3009L105.81 98.9379H105.817Z" fill="white"/>
<path d="M95.0033 104.29C95.0033 103.528 94.9929 102.798 94.8579 102.223C94.6502 101.306 93.5631 101.344 93.5631 101.344H91.7456C92.3861 102.029 92.3064 103.03 92.3064 104.287V111.314H95.0067V104.287" fill="white"/>
<path d="M106.821 104.29C106.821 103.528 106.811 102.798 106.676 102.223C106.468 101.306 105.381 101.344 105.381 101.344H103.563C104.204 102.029 104.124 103.03 104.124 104.287V111.314H106.825V104.287" fill="white"/>
<path d="M133.332 111.318C132.692 110.629 132.772 109.632 132.772 108.375V101.344H130.071V108.375C130.071 108.808 130.075 109.23 130.102 109.622C129.136 109.324 128.531 108.825 128.531 107.503V104.276C128.531 103.508 128.52 102.77 128.382 102.199C128.112 101.313 126.838 101.334 126.838 101.334H125.27C125.913 102.023 125.83 103.02 125.83 104.276V107.555C125.83 109.528 126.734 110.584 127.693 111.204C128.143 111.488 128.496 111.204 128.496 111.204L130.109 109.687C130.165 110.401 130.31 110.993 130.667 111.318H133.332Z" fill="white"/>
<path d="M124.135 109.016V103.989C124.135 102.733 123.785 101.254 121.299 101.254C120.552 101.254 119.014 101.549 118.038 102.421V104.585C119.132 103.789 119.683 103.705 120.389 103.705C121.427 103.705 121.324 105.284 121.324 105.284C119.915 105.53 117.104 106.392 117.104 109.016C117.104 110.131 117.848 110.847 118.353 111.207C118.838 111.509 119.26 111.201 119.26 111.201L121.355 109.92C121.455 110.875 121.992 111.318 121.992 111.318H124.747C124.148 110.498 124.138 109.747 124.138 109.016M119.79 108.054C119.79 107.167 120.666 106.627 121.331 106.562C121.331 106.676 121.334 109.338 121.334 109.615C121.334 109.646 121.334 109.674 121.334 109.702C120.853 109.497 119.787 108.94 119.787 108.057" fill="white"/>
<path d="M90.1342 108.389V105.111C90.1342 103.522 89.5491 102.528 88.8221 101.877C87.8943 100.887 87.0115 101.891 87.0115 101.891L85.8415 102.988V100.395C85.8415 99.7272 85.8345 99.0798 85.7549 98.5467C85.5991 97.3627 84.2974 97.4527 84.2974 97.4527H82.6807C83.2207 98.1382 83.1377 99.1387 83.1377 100.395V111.314H85.838V103.033C86.8177 103.335 87.4304 103.83 87.4304 105.162V108.389C87.4304 109.646 87.4616 110.823 88.0259 111.332H90.6882C90.0477 110.643 90.1307 109.646 90.1307 108.389" fill="white"/>
<path d="M115.66 108.389V105.111C115.66 103.518 115.075 102.525 114.345 101.874C113.458 101.054 112.527 101.905 112.527 101.905L111.385 102.978C111.364 102.694 111.326 102.428 111.267 102.189C111.066 101.317 109.719 101.351 109.719 101.351H108.162C108.802 102.037 108.722 103.037 108.722 104.294V111.322H111.419V104.294C111.419 103.861 111.416 103.439 111.388 103.048C112.354 103.349 112.96 103.847 112.96 105.17V108.396C112.96 109.653 112.991 110.83 113.555 111.339H116.221C115.581 110.65 115.66 109.653 115.66 108.396" fill="white"/>
<path d="M82.6359 98.301L80.0879 100.371C78.6616 100.506 77.4603 99.0003 76.4702 99.2081V107.146C76.4702 108.493 78.3881 109.857 82.1477 109.147L78.9732 111.692C76.9306 111.692 73.2437 110.864 73.2437 106.807V99.935L76.896 96.6081C78.6928 96.3554 80.5691 98.0137 82.6359 98.3045" fill="white"/>
<path d="M122.757 98.5505C122.009 98.5505 121.396 98.9521 121.396 98.9521L121.092 99.1841L120.787 98.9521C120.787 98.9521 120.174 98.5505 119.426 98.5505H118.488C118.488 98.5505 120.534 100.119 120.756 100.275C120.96 100.406 121.078 100.538 121.424 100.275C121.798 99.9942 123.695 98.5505 123.695 98.5505H122.757Z" fill="white"/>
<path d="M98.4989 112.893C98.9731 112.644 99.1947 112.263 99.3159 111.858C98.8589 111.858 98.3743 111.768 98.0454 111.65C98.17 111.944 98.1839 112.235 98.1458 112.495C98.1112 112.813 98.1389 112.921 98.222 112.959C98.312 112.99 98.4159 112.935 98.4955 112.893H98.4989Z" fill="white"/>
<path d="M100.731 105.121C98.9723 103.93 98.4461 103.608 98.2003 103.189C98.0929 103.003 98.1899 102.919 98.318 102.919C99.2216 102.919 100 103.961 100.994 103.951L102.507 102.082C100.984 102.016 99.8551 100.77 98.6226 101.164L96.4728 103.605C96.3239 103.802 96.1681 104.186 96.1508 104.54C96.1197 105.073 96.5524 106.184 98.086 107.164C99.675 108.178 100.073 108.96 100.26 109.511C100.319 109.687 100.198 109.892 99.9831 109.816C99.0588 109.521 98.1968 108.365 97.9302 107.718L96.0054 109.958C97.9475 111.723 99.4811 111.547 99.9727 111.418L102.742 108.355C102.645 107.527 102.24 106.136 100.738 105.118L100.731 105.121Z" fill="white"/>
<path d="M125.408 98.7615C125.408 98.7269 125.408 98.6923 125.404 98.6611C125.404 98.6299 125.397 98.5953 125.387 98.5676C125.38 98.5399 125.366 98.5157 125.349 98.4949C125.332 98.4776 125.307 98.4603 125.276 98.4534C125.256 98.4499 125.238 98.4465 125.217 98.443C125.197 98.443 125.176 98.4361 125.159 98.4361C125.148 98.4361 125.138 98.4326 125.134 98.4222C125.127 98.4153 125.127 98.4049 125.127 98.3945C125.127 98.3841 125.127 98.3772 125.134 98.3703C125.138 98.3634 125.148 98.3564 125.159 98.3564C125.217 98.3564 125.269 98.3565 125.314 98.3634C125.363 98.3668 125.415 98.3703 125.477 98.3703C125.505 98.3703 125.532 98.3703 125.564 98.3703C125.595 98.3703 125.629 98.3703 125.661 98.3668C125.692 98.3668 125.726 98.3668 125.758 98.3668C125.789 98.3668 125.816 98.3668 125.844 98.3668C125.91 98.3668 125.983 98.3738 126.055 98.3841C126.128 98.3945 126.197 98.4118 126.26 98.443C126.322 98.4707 126.374 98.5088 126.415 98.5572C126.457 98.6057 126.478 98.6715 126.478 98.7476C126.478 98.7961 126.471 98.8377 126.453 98.8757C126.436 98.9104 126.415 98.9415 126.388 98.9692C126.36 98.9969 126.329 99.0211 126.291 99.0384C126.253 99.0592 126.211 99.0731 126.173 99.0869C126.159 99.0938 126.152 99.0973 126.156 99.1042C126.156 99.1111 126.163 99.1181 126.173 99.1215C126.239 99.1388 126.298 99.1631 126.353 99.1873C126.405 99.2116 126.45 99.2392 126.484 99.2704C126.519 99.3016 126.547 99.3431 126.568 99.3881C126.585 99.4331 126.595 99.485 126.595 99.5474C126.595 99.6304 126.578 99.6962 126.547 99.7516C126.516 99.8035 126.474 99.8451 126.419 99.8762C126.363 99.9074 126.304 99.9282 126.235 99.942C126.169 99.9559 126.1 99.9593 126.024 99.9593C125.989 99.9593 125.955 99.9593 125.917 99.9593C125.875 99.9593 125.834 99.9593 125.792 99.9593C125.751 99.9593 125.706 99.9593 125.661 99.9593C125.619 99.9593 125.577 99.9593 125.539 99.9593C125.505 99.9593 125.47 99.9593 125.442 99.9593C125.415 99.9593 125.387 99.9593 125.359 99.9593C125.332 99.9593 125.304 99.9593 125.276 99.9628C125.245 99.9628 125.214 99.9662 125.179 99.9697C125.165 99.9697 125.159 99.9697 125.152 99.9593C125.145 99.9524 125.141 99.942 125.138 99.9316C125.138 99.9247 125.138 99.9143 125.148 99.9039C125.155 99.8901 125.162 99.8866 125.176 99.8866C125.217 99.8866 125.252 99.8762 125.283 99.8658C125.314 99.8589 125.339 99.8485 125.359 99.8278C125.377 99.8105 125.391 99.7931 125.397 99.7655C125.404 99.7412 125.411 99.71 125.411 99.665V98.765L125.408 98.7615ZM125.688 99.0073C125.688 99.0073 125.692 99.035 125.702 99.0488C125.712 99.0627 125.726 99.0661 125.751 99.0661H125.799C125.854 99.0661 125.906 99.0592 125.955 99.0523C126.003 99.0454 126.045 99.0281 126.079 99.0038C126.114 98.9831 126.142 98.9484 126.159 98.9103C126.18 98.8688 126.187 98.8169 126.187 98.7546C126.187 98.6473 126.159 98.5676 126.1 98.5226C126.038 98.4776 125.955 98.4568 125.844 98.4568H125.758C125.723 98.4568 125.706 98.4638 125.699 98.4811C125.692 98.4984 125.688 98.5261 125.688 98.5642V99.0073ZM125.688 99.4781C125.688 99.5647 125.688 99.6304 125.699 99.6789C125.706 99.7308 125.716 99.7655 125.737 99.7897C125.758 99.8139 125.789 99.8312 125.827 99.8347C125.865 99.8382 125.917 99.8416 125.983 99.8416C126.086 99.8416 126.159 99.8139 126.208 99.7655C126.253 99.7135 126.277 99.6339 126.277 99.53C126.277 99.4539 126.266 99.3916 126.242 99.3466C126.218 99.3015 126.183 99.26 126.145 99.2358C126.104 99.2081 126.059 99.1908 126.003 99.1804C125.948 99.17 125.889 99.1631 125.827 99.1631H125.778C125.744 99.1631 125.723 99.1735 125.712 99.1942C125.702 99.215 125.695 99.2392 125.695 99.2704V99.4746L125.688 99.4781Z" fill="#F2AF43"/>
<path d="M128.582 98.367C128.582 98.367 128.61 98.367 128.624 98.3705C128.638 98.3739 128.641 98.3843 128.638 98.4086C128.634 98.4259 128.634 98.4467 128.634 98.4674V98.5332C128.634 98.6059 128.634 98.6717 128.641 98.7305C128.641 98.7375 128.638 98.7409 128.631 98.7444C128.624 98.7444 128.614 98.7513 128.603 98.7513C128.593 98.7513 128.582 98.7513 128.575 98.7513C128.565 98.7513 128.558 98.7444 128.558 98.734C128.548 98.6751 128.534 98.6267 128.524 98.5886C128.51 98.554 128.496 98.5297 128.472 98.5124C128.451 98.4951 128.42 98.4847 128.385 98.4813C128.347 98.4778 128.298 98.4709 128.24 98.4709H128.084C128.039 98.4709 128.004 98.4709 127.977 98.4709C127.949 98.4709 127.928 98.4813 127.914 98.4882C127.9 98.4986 127.89 98.5159 127.883 98.5367C127.88 98.5574 127.876 98.5886 127.876 98.6301V99.0386C127.876 99.0629 127.88 99.0733 127.89 99.0802C127.897 99.0871 127.907 99.0871 127.914 99.0871C127.994 99.0871 128.056 99.0871 128.101 99.0767C128.146 99.0698 128.181 99.0594 128.205 99.0421C128.226 99.0248 128.243 99.004 128.25 98.9798C128.257 98.9521 128.264 98.9175 128.271 98.8759C128.271 98.869 128.278 98.8586 128.285 98.8552C128.292 98.8517 128.302 98.8482 128.312 98.8482C128.323 98.8482 128.333 98.8482 128.34 98.8552C128.347 98.8586 128.354 98.8655 128.354 98.8759C128.354 98.9002 128.354 98.9244 128.354 98.9417L128.347 99.004C128.347 99.0248 128.347 99.0421 128.344 99.0629C128.344 99.0871 128.34 99.1079 128.34 99.1356C128.34 99.184 128.344 99.2256 128.347 99.2637C128.354 99.3017 128.357 99.3502 128.357 99.4056C128.357 99.4125 128.35 99.4195 128.344 99.4229C128.333 99.4229 128.326 99.4264 128.316 99.4264C128.305 99.4264 128.295 99.4264 128.288 99.4195C128.281 99.4195 128.274 99.4091 128.274 99.3987C128.267 99.3537 128.264 99.3156 128.253 99.2879C128.247 99.2602 128.229 99.2394 128.208 99.2221C128.184 99.2083 128.15 99.1979 128.105 99.1944C128.056 99.1875 127.997 99.1875 127.918 99.1875C127.911 99.1875 127.9 99.1875 127.893 99.1944C127.883 99.2013 127.88 99.2117 127.88 99.2291V99.5337C127.88 99.5856 127.883 99.6272 127.89 99.6618C127.897 99.6964 127.911 99.7276 127.925 99.7483C127.942 99.7726 127.959 99.7864 127.983 99.8003C128.004 99.8141 128.032 99.821 128.063 99.8314C128.087 99.8349 128.115 99.8383 128.146 99.8383C128.177 99.8383 128.208 99.8383 128.24 99.8383C128.281 99.8383 128.319 99.8383 128.354 99.8383C128.392 99.8383 128.416 99.8314 128.437 99.821C128.472 99.8106 128.499 99.8003 128.527 99.7899C128.551 99.776 128.572 99.7587 128.589 99.7414C128.607 99.7206 128.62 99.6964 128.631 99.6652C128.641 99.6341 128.652 99.596 128.659 99.551C128.659 99.5406 128.665 99.5337 128.676 99.5302C128.686 99.5302 128.697 99.5302 128.71 99.5302C128.721 99.5302 128.731 99.5302 128.742 99.5372C128.752 99.5406 128.755 99.5475 128.755 99.5579C128.745 99.6237 128.738 99.686 128.735 99.7449C128.728 99.8003 128.724 99.8557 128.728 99.918C128.728 99.9214 128.728 99.9284 128.717 99.9387C128.71 99.9491 128.693 99.9526 128.669 99.9526H127.734C127.668 99.9526 127.606 99.9526 127.544 99.9561C127.481 99.9595 127.423 99.963 127.374 99.9664C127.36 99.9664 127.35 99.963 127.343 99.9561C127.336 99.9491 127.333 99.9387 127.333 99.9284C127.333 99.918 127.333 99.9111 127.339 99.9007C127.346 99.8903 127.357 99.8833 127.374 99.8833C127.416 99.8833 127.45 99.873 127.478 99.8626C127.506 99.8522 127.53 99.8418 127.551 99.8245C127.571 99.8072 127.585 99.7864 127.592 99.7622C127.603 99.738 127.606 99.7033 127.606 99.6652V98.7617C127.606 98.7271 127.606 98.6959 127.603 98.6613C127.603 98.6301 127.596 98.5955 127.589 98.5678C127.578 98.5401 127.565 98.5159 127.547 98.4951C127.53 98.4778 127.506 98.4605 127.475 98.4536C127.457 98.4501 127.436 98.4467 127.416 98.4432C127.395 98.4397 127.378 98.4363 127.357 98.4363C127.346 98.4363 127.339 98.4328 127.336 98.4259C127.329 98.419 127.329 98.4086 127.329 98.3982C127.329 98.3878 127.329 98.3809 127.336 98.3739C127.339 98.367 127.346 98.3601 127.357 98.3601C127.416 98.3601 127.468 98.3601 127.513 98.367C127.561 98.367 127.613 98.3705 127.675 98.3705H128.6L128.582 98.367Z" fill="#F2AF43"/>
<path d="M129.718 98.7615C129.718 98.7269 129.718 98.6957 129.718 98.6611C129.718 98.6299 129.711 98.5988 129.701 98.5676C129.694 98.5399 129.68 98.5157 129.663 98.4949C129.646 98.4776 129.621 98.4603 129.587 98.4534C129.57 98.4499 129.549 98.4465 129.528 98.443C129.507 98.443 129.49 98.4361 129.469 98.4361C129.459 98.4361 129.452 98.4326 129.445 98.4222C129.438 98.4153 129.438 98.4049 129.438 98.3945C129.438 98.3841 129.438 98.3772 129.445 98.3703C129.448 98.3634 129.455 98.3564 129.469 98.3564C129.528 98.3564 129.58 98.3565 129.625 98.3634C129.67 98.3668 129.725 98.3703 129.788 98.3703C129.892 98.3703 129.978 98.3668 130.044 98.3634C130.113 98.3634 130.179 98.3599 130.238 98.3599C130.307 98.3599 130.373 98.3703 130.442 98.3841C130.508 98.398 130.57 98.4222 130.622 98.4568C130.674 98.488 130.715 98.533 130.747 98.5849C130.778 98.6369 130.795 98.7026 130.795 98.7788C130.795 98.8376 130.785 98.8896 130.764 98.9311C130.747 98.9761 130.719 99.0142 130.684 99.0454C130.65 99.0765 130.608 99.1008 130.563 99.1215C130.515 99.1388 130.466 99.1561 130.411 99.1665C130.397 99.1665 130.39 99.1735 130.39 99.1839C130.39 99.1908 130.397 99.1977 130.411 99.2012C130.49 99.2358 130.553 99.2773 130.598 99.3189C130.643 99.3639 130.674 99.4089 130.698 99.4539C130.722 99.5023 130.74 99.5508 130.75 99.6027C130.76 99.6512 130.771 99.6997 130.785 99.7481C130.792 99.7828 130.809 99.807 130.826 99.8243C130.847 99.8416 130.868 99.8485 130.885 99.8485C130.906 99.8485 130.927 99.8416 130.947 99.8243C130.965 99.8105 130.982 99.7862 130.992 99.7551C130.992 99.7412 131.003 99.7343 131.013 99.7274C131.024 99.7274 131.034 99.7239 131.044 99.7274C131.055 99.7274 131.062 99.7343 131.072 99.7412C131.079 99.7481 131.082 99.7551 131.082 99.762C131.075 99.8001 131.065 99.8347 131.048 99.8624C131.027 99.8935 131.006 99.9143 130.979 99.9316C130.951 99.9489 130.92 99.9628 130.889 99.9732C130.854 99.9835 130.823 99.987 130.788 99.987C130.733 99.987 130.684 99.9766 130.639 99.9559C130.594 99.9351 130.567 99.9039 130.549 99.8589C130.539 99.8347 130.528 99.8035 130.522 99.7758C130.511 99.7447 130.504 99.7135 130.494 99.6789C130.487 99.6477 130.477 99.6166 130.466 99.5854C130.459 99.5508 130.449 99.5266 130.442 99.5023C130.411 99.4019 130.369 99.3292 130.321 99.2877C130.272 99.2462 130.203 99.2219 130.117 99.2219C130.089 99.2219 130.065 99.2288 130.044 99.2392C130.023 99.2496 130.013 99.2704 130.013 99.305V99.6235C130.013 99.6754 130.02 99.7204 130.03 99.7516C130.044 99.7828 130.061 99.807 130.085 99.8243C130.11 99.8451 130.141 99.8555 130.172 99.8624C130.207 99.8728 130.248 99.8762 130.293 99.8797C130.303 99.8797 130.31 99.8866 130.317 99.8935C130.324 99.9039 130.328 99.9108 130.328 99.9247C130.328 99.9351 130.324 99.9455 130.317 99.9489C130.31 99.9558 130.303 99.9593 130.29 99.9593C130.203 99.9593 130.127 99.9558 130.065 99.9489C129.999 99.9455 129.937 99.942 129.874 99.942C129.808 99.942 129.743 99.942 129.68 99.9489C129.618 99.9558 129.556 99.9593 129.493 99.9593C129.483 99.9593 129.476 99.9558 129.469 99.9489C129.462 99.942 129.462 99.9316 129.462 99.9247C129.462 99.9143 129.462 99.9074 129.469 99.897C129.473 99.8866 129.483 99.8797 129.493 99.8797C129.542 99.8797 129.58 99.8693 129.611 99.8589C129.639 99.852 129.666 99.8416 129.684 99.8208C129.701 99.8035 129.712 99.7828 129.718 99.7551C129.725 99.7274 129.725 99.6858 129.725 99.6408V98.7615H129.718ZM129.999 99.0384C129.999 99.08 130.013 99.1042 130.037 99.1111C130.061 99.1181 130.099 99.1215 130.148 99.1215C130.213 99.1215 130.272 99.1146 130.317 99.1042C130.362 99.0904 130.4 99.0731 130.425 99.0454C130.452 99.0177 130.47 98.9831 130.483 98.938C130.494 98.8965 130.501 98.8446 130.501 98.7823C130.501 98.7199 130.494 98.6715 130.48 98.6334C130.47 98.5919 130.449 98.5572 130.421 98.533C130.394 98.5053 130.359 98.488 130.317 98.4811C130.272 98.4672 130.22 98.4638 130.162 98.4638C130.092 98.4638 130.051 98.4707 130.03 98.4845C130.006 98.4984 129.999 98.533 129.999 98.578V99.0384Z" fill="#F2AF43"/>
<path d="M132.962 98.367C132.962 98.367 132.99 98.367 133.004 98.3705C133.018 98.3739 133.021 98.3843 133.018 98.4086C133.014 98.4259 133.011 98.4467 133.011 98.4674V98.5332C133.011 98.6059 133.011 98.6717 133.018 98.7305C133.018 98.7375 133.018 98.7409 133.007 98.7444C133 98.7444 132.99 98.7513 132.979 98.7513C132.966 98.7513 132.959 98.7513 132.948 98.7513C132.938 98.7513 132.931 98.7444 132.931 98.734C132.921 98.6751 132.907 98.6267 132.896 98.5886C132.886 98.554 132.869 98.5297 132.848 98.5124C132.824 98.4951 132.796 98.4847 132.761 98.4813C132.723 98.4778 132.675 98.4709 132.616 98.4709H132.46C132.419 98.4709 132.381 98.4709 132.353 98.4709C132.325 98.4709 132.304 98.4813 132.291 98.4882C132.273 98.4986 132.266 98.5159 132.259 98.5367C132.256 98.5574 132.252 98.5886 132.252 98.6301V99.0386C132.252 99.0629 132.256 99.0733 132.266 99.0802C132.273 99.0871 132.284 99.0871 132.291 99.0871C132.37 99.0871 132.433 99.0871 132.478 99.0767C132.523 99.0698 132.557 99.0594 132.581 99.0421C132.602 99.0248 132.619 99.004 132.626 98.9798C132.633 98.9521 132.64 98.9175 132.647 98.8759C132.647 98.869 132.654 98.8586 132.664 98.8552C132.671 98.8517 132.682 98.8482 132.692 98.8482C132.702 98.8482 132.713 98.8482 132.72 98.8552C132.73 98.8586 132.734 98.8655 132.734 98.8759C132.734 98.9002 132.734 98.9244 132.734 98.9417C132.734 98.9625 132.734 98.9833 132.727 99.004C132.727 99.0248 132.723 99.0421 132.72 99.0629C132.72 99.0871 132.72 99.1079 132.72 99.1356C132.72 99.184 132.72 99.2256 132.727 99.2637C132.734 99.3017 132.734 99.3502 132.734 99.4056C132.734 99.4125 132.73 99.4195 132.72 99.4229C132.713 99.4229 132.702 99.4264 132.692 99.4264C132.682 99.4264 132.675 99.4264 132.664 99.4195C132.654 99.4195 132.651 99.4091 132.647 99.3987C132.64 99.3537 132.637 99.3156 132.626 99.2879C132.619 99.2602 132.602 99.2394 132.581 99.2221C132.557 99.2083 132.523 99.1979 132.478 99.1944C132.433 99.1875 132.37 99.1875 132.291 99.1875C132.284 99.1875 132.273 99.1875 132.266 99.1944C132.256 99.2013 132.252 99.2117 132.252 99.2291V99.5337C132.252 99.5856 132.252 99.6272 132.263 99.6618C132.27 99.6964 132.28 99.7276 132.297 99.7483C132.311 99.7726 132.332 99.7864 132.353 99.8003C132.377 99.8141 132.401 99.821 132.432 99.8314C132.457 99.8349 132.484 99.8383 132.512 99.8383C132.543 99.8383 132.574 99.8383 132.606 99.8383C132.647 99.8383 132.685 99.8383 132.723 99.8383C132.758 99.8383 132.786 99.8314 132.806 99.821C132.841 99.8106 132.869 99.8003 132.893 99.7899C132.921 99.776 132.938 99.7587 132.955 99.7414C132.973 99.7206 132.986 99.6964 132.997 99.6652C133.007 99.6341 133.018 99.596 133.025 99.551C133.025 99.5406 133.031 99.5337 133.042 99.5302C133.049 99.5302 133.063 99.5302 133.073 99.5302C133.083 99.5302 133.097 99.5302 133.104 99.5372C133.111 99.5406 133.118 99.5475 133.115 99.5579C133.108 99.6237 133.097 99.686 133.09 99.7449C133.083 99.8003 133.08 99.8557 133.083 99.918C133.083 99.9214 133.08 99.9284 133.073 99.9387C133.066 99.9491 133.049 99.9526 133.025 99.9526H132.086C132.024 99.9526 131.958 99.9526 131.896 99.9561C131.834 99.9595 131.775 99.963 131.726 99.9664C131.712 99.9664 131.702 99.963 131.695 99.9561C131.688 99.9491 131.685 99.9387 131.681 99.9284C131.681 99.918 131.681 99.9111 131.688 99.9007C131.695 99.8903 131.706 99.8833 131.723 99.8833C131.764 99.8833 131.799 99.873 131.827 99.8626C131.858 99.8522 131.882 99.8418 131.899 99.8245C131.92 99.8072 131.934 99.7864 131.941 99.7622C131.951 99.738 131.955 99.7033 131.955 99.6652V98.7617C131.955 98.7271 131.955 98.6959 131.955 98.6613C131.955 98.6301 131.948 98.5955 131.937 98.5678C131.931 98.5401 131.917 98.5159 131.899 98.4951C131.882 98.4778 131.858 98.4605 131.823 98.4536C131.806 98.4501 131.785 98.4467 131.764 98.4432C131.744 98.4397 131.723 98.4363 131.706 98.4363C131.695 98.4363 131.688 98.4328 131.681 98.4259C131.674 98.419 131.674 98.4086 131.674 98.3982C131.674 98.3878 131.674 98.3809 131.681 98.3739C131.685 98.367 131.695 98.3601 131.706 98.3601C131.761 98.3601 131.816 98.3601 131.861 98.367C131.91 98.367 131.962 98.3705 132.024 98.3705H132.948L132.962 98.367Z" fill="#F2AF43"/>
<path d="M40.057 100.572C39.9359 100.503 39.8181 100.434 39.697 100.364C39.5377 99.8209 39.3784 99.2808 39.2227 98.7408C39.5412 98.6473 40.2059 98.4777 40.4828 98.4015C40.5521 98.6715 40.6213 98.9415 40.6905 99.2116C40.8705 99.1666 41.0956 99.1146 41.3067 99.0627C41.241 98.7892 41.1787 98.5157 41.1129 98.2422C41.4314 98.1626 42.0372 98.0207 42.3696 97.948C42.4284 98.2249 42.4908 98.5053 42.5496 98.7823C42.785 98.7269 43.0412 98.6784 43.1658 98.6542C43.1105 98.3738 43.0551 98.0899 42.9997 97.8095C43.1797 97.768 43.8374 97.6295 44.2529 97.5533C44.3532 98.1245 44.4537 98.6992 44.5541 99.2739C44.4745 99.402 44.3949 99.5266 44.3152 99.6513C43.5363 99.7863 42.3488 100.032 41.5422 100.212C41.5491 100.243 41.556 100.278 41.5629 100.309C42.4976 100.174 43.4255 100.036 44.3567 99.8936C44.4917 100.631 44.6302 101.372 44.7687 102.113C44.831 102.102 44.9003 102.092 44.973 102.078C44.9349 101.86 44.8933 101.645 44.8552 101.427C45.2741 101.355 45.6619 101.296 46.0185 101.244C46.0531 101.462 46.0877 101.68 46.1223 101.898C46.1881 101.888 46.2504 101.881 46.3162 101.87C46.1881 101.039 46.06 100.209 45.9389 99.3812C45.8246 99.2843 45.7104 99.1839 45.5961 99.087C45.5061 98.5088 45.4196 97.9307 45.333 97.356C45.6342 97.3006 46.3231 97.1933 46.5897 97.1552C46.6277 97.4495 46.6658 97.7472 46.7039 98.0414C46.8251 98.0241 47.0882 97.9895 47.3202 97.9584C47.2855 97.6606 47.2509 97.3629 47.2163 97.0652C47.5002 97.0237 48.1545 96.9475 48.4695 96.9094C48.4972 97.2106 48.5249 97.5118 48.5526 97.813C48.7811 97.7853 49.058 97.768 49.1688 97.7507C49.1445 97.4495 49.1203 97.1483 49.0926 96.8471C49.1411 96.8402 49.7677 96.7813 50.3424 96.7398C50.3805 97.3352 50.4151 97.9341 50.4532 98.5296C50.3598 98.6542 50.2697 98.7823 50.1763 98.9069C49.4839 98.9415 47.6906 99.1389 47.4032 99.1735C47.4067 99.2081 47.4102 99.2393 47.4136 99.2739C48.338 99.2324 49.2658 99.1943 50.1901 99.1527C50.242 99.9144 50.294 100.676 50.3494 101.441C50.4151 101.434 50.4843 101.431 50.557 101.427C50.5432 101.206 50.5294 100.984 50.5155 100.759C50.6471 100.745 51.3706 100.707 51.6787 100.697C51.6891 100.922 51.696 101.143 51.7064 101.368C51.7756 101.368 51.8449 101.361 51.9107 101.358C51.8761 100.506 51.8449 99.6582 51.8103 98.8065C51.7064 98.6923 51.5991 98.5781 51.4953 98.4638C51.471 97.8649 51.4467 97.266 51.4225 96.6671C51.9972 96.6359 52.6204 96.6186 52.6688 96.6186C52.6758 96.9267 52.6827 97.2348 52.6896 97.5395C52.8039 97.5395 53.1224 97.5291 53.3059 97.5291C53.3059 97.221 53.2989 96.9129 53.2989 96.6082C53.6417 96.6013 54.2994 96.6013 54.5486 96.6082C54.5452 96.9163 54.5417 97.2244 54.5382 97.5291C54.7702 97.5291 55.0679 97.536 55.1579 97.5395C55.1649 97.2314 55.1718 96.9232 55.1787 96.6186C55.4315 96.6186 56.1239 96.6532 56.4251 96.6671C56.4008 97.266 56.3731 97.8649 56.3488 98.4638C56.2484 98.5781 56.1446 98.6958 56.0442 98.81C55.2653 98.7719 54.0778 98.7615 53.2712 98.7719C53.2712 98.8065 53.2712 98.8377 53.2712 98.8723C54.1921 98.9346 55.1129 98.9969 56.0338 99.0627C56.0061 99.8278 55.975 100.593 55.9438 101.361C56.0096 101.361 56.0719 101.365 56.1412 101.368C56.1515 101.143 56.1585 100.922 56.1689 100.697C56.477 100.707 57.2005 100.745 57.332 100.759C57.3182 100.981 57.3009 101.202 57.2871 101.427C57.3598 101.431 57.4255 101.434 57.4878 101.441C57.5467 100.6 57.6055 99.7586 57.6609 98.9173C57.5674 98.7892 57.4775 98.6577 57.384 98.5296C57.4221 97.9341 57.4567 97.3352 57.4947 96.7398C58.0694 96.7813 58.6961 96.8402 58.7445 96.8471C58.7203 97.1483 58.6926 97.4495 58.6684 97.7507C58.7826 97.7645 59.0561 97.7853 59.2881 97.813C59.3158 97.5118 59.3435 97.2106 59.3712 96.9094C59.6862 96.944 60.3405 97.0237 60.6243 97.0652C60.5897 97.3629 60.5551 97.6606 60.5205 97.9584C60.7524 97.9895 61.0155 98.0241 61.1367 98.0414C61.1748 97.7472 61.2129 97.4495 61.251 97.1552C61.5175 97.1933 62.2064 97.3006 62.5076 97.356C62.4211 97.9341 62.3311 98.5088 62.2445 99.087C62.1303 99.1839 62.016 99.2843 61.9018 99.3812C61.1505 99.2635 59.8869 99.1043 59.1184 99.0316C59.1184 99.0662 59.1115 99.0973 59.1081 99.132C60.0255 99.2981 60.9429 99.4643 61.8637 99.627C61.753 100.375 61.6387 101.123 61.521 101.87C61.5833 101.881 61.649 101.891 61.7148 101.902C61.7494 101.683 61.7841 101.462 61.8222 101.244C62.1787 101.296 62.5665 101.355 62.9854 101.427C62.9473 101.645 62.9058 101.86 62.8677 102.078C62.9404 102.092 63.0062 102.102 63.072 102.113C63.2243 101.303 63.3766 100.492 63.522 99.6859C63.4424 99.5474 63.3662 99.4124 63.2865 99.2739C63.3869 98.6992 63.4874 98.128 63.5878 97.5533C64.0032 97.6329 64.6575 97.768 64.841 97.8095C64.7856 98.0899 64.7302 98.3703 64.6748 98.6542C64.7994 98.6819 65.0556 98.7269 65.291 98.7823C65.3499 98.5053 65.4122 98.2249 65.471 97.948C65.7999 98.0241 66.4093 98.1626 66.7278 98.2422C66.662 98.5157 66.5997 98.7892 66.5339 99.0627C66.7451 99.1146 66.9736 99.1666 67.1501 99.2116C67.2194 98.9415 67.292 98.6715 67.3612 98.4015C67.6382 98.4742 68.3029 98.6473 68.6214 98.7408C68.4657 99.2808 68.3064 99.8209 68.1471 100.364C68.0294 100.434 67.9117 100.499 67.794 100.569C67.0393 100.371 65.6615 100.067 64.9968 99.9317C64.9899 99.9628 64.9829 99.994 64.976 100.025C65.89 100.288 66.8074 100.548 67.7282 100.801L64.1451 111.238C57.2109 109.888 50.3078 109.957 43.7474 111.252L40.064 100.569L40.057 100.572Z" fill="#F2AF43"/>
</svg>
